<?xml version="1.0" encoding="UTF-8" standalone="no"?>
<!-- Generator: Adobe Illustrator 27.5.0, SVG Export Plug-In . SVG Version: 6.00 Build 0)  -->

<svg
   version="1.1"
   x="0px"
   y="0px"
   viewBox="0 0 891.48993 380.42654"
   xml:space="preserve"
   id="svg363"
   sodipodi:docname="how-work.svg"
   width="891.48993"
   height="380.42654"
   inkscape:version="1.1.2 (0a00cf5339, 2022-02-04)"
   xmlns:inkscape="http://www.inkscape.org/namespaces/inkscape"
   xmlns:sodipodi="http://sodipodi.sourceforge.net/DTD/sodipodi-0.dtd"
   xmlns="http://www.w3.org/2000/svg"
   xmlns:svg="http://www.w3.org/2000/svg"><defs
   id="defs367" /><sodipodi:namedview
   id="namedview365"
   pagecolor="#ffffff"
   bordercolor="#666666"
   borderopacity="1.0"
   inkscape:pageshadow="2"
   inkscape:pageopacity="0.0"
   inkscape:pagecheckerboard="0"
   showgrid="false"
   fit-margin-top="0"
   fit-margin-left="0"
   fit-margin-right="0"
   fit-margin-bottom="0"
   inkscape:zoom="1.3139094"
   inkscape:cx="510.6897"
   inkscape:cy="197.88275"
   inkscape:window-width="1920"
   inkscape:window-height="1008"
   inkscape:window-x="0"
   inkscape:window-y="0"
   inkscape:window-maximized="1"
   inkscape:current-layer="BACKGROUND" />
<g
   id="BACKGROUND"
   transform="scale(1,0.84920356)">
	
</g>
<g
   id="OBJECTS"
   transform="translate(0,-63.861432)">
	<g
   id="g321">
		<g
   id="g64">
			<rect
   x="39.824001"
   y="430.672"
   style="fill:#97c6db"
   width="421.698"
   height="5.8499999"
   id="rect11" />
			<g
   id="g62">
				<g
   id="g54">
					<g
   id="g19">
						<path
   style="fill:#112b46"
   d="m 100.793,382.875 c -0.002,0.006 -0.683,2.028 -1.404,4.566 -0.72,2.543 -1.483,5.579 -1.645,7.703 l 1.214,0.091 c 0.142,-1.935 0.889,-4.959 1.602,-7.461 0.356,-1.254 0.703,-2.383 0.961,-3.198 0.258,-0.815 0.425,-1.311 0.425,-1.312 z"
   id="path13" />
						<path
   style="fill:#112b46"
   d="m 89.912,383.878 c 0,0.001 0.024,0.205 0.061,0.579 0.11,1.12 0.331,3.728 0.331,6.562 0,1.326 -0.049,2.702 -0.178,3.992 l 1.211,0.121 c 0.135,-1.346 0.184,-2.758 0.184,-4.114 0,-3.86 -0.399,-7.267 -0.4,-7.281 z"
   id="path15" />
						<path
   style="fill:#112b46"
   d="m 83.879,391.929 0.005,0.005 c 0.041,0.046 0.292,0.34 0.521,0.756 0.231,0.417 0.432,0.951 0.43,1.465 h 1.217 c -0.003,-0.872 -0.331,-1.619 -0.64,-2.157 -0.312,-0.538 -0.616,-0.87 -0.636,-0.893 z"
   id="path17" />
					</g>
					<linearGradient
   id="SVGID_1_"
   gradientUnits="userSpaceOnUse"
   x1="115.1876"
   y1="340.9726"
   x2="115.1876"
   y2="387.3046">
						<stop
   offset="0"
   style="stop-color:#7978E0"
   id="stop21" />
						<stop
   offset="1"
   style="stop-color:#563FDA"
   id="stop23" />
					</linearGradient>
					<path
   style="fill:url(#SVGID_1_)"
   d="m 99.342,384.112 c 0,0 -6.239,-7.913 3.348,-24.349 9.587,-16.435 29.371,-20.392 30.284,-18.262 0.913,2.131 -10.044,6.239 -13.088,18.87 -3.044,12.631 -3.449,19.631 -7.254,23.436 -3.804,3.805 -8.978,5.327 -13.29,0.305 z"
   id="path26" />
					
						<linearGradient
   id="SVGID_00000132076236234726668640000013397760695525801646_"
   gradientUnits="userSpaceOnUse"
   x1="62.747799"
   y1="370.4165"
   x2="62.747799"
   y2="393.4967">
						<stop
   offset="0"
   style="stop-color:#7978E0"
   id="stop28" />
						<stop
   offset="1"
   style="stop-color:#563FDA"
   id="stop30" />
					</linearGradient>
					<path
   style="fill:url(#SVGID_00000132076236234726668640000013397760695525801646_)"
   d="m 86.498,385.706 c 0,0 -0.685,-8.9 -16.795,-13.853 -16.11,-4.953 -31.374,4.343 -30.69,6.279 0.684,1.936 10.288,-1.963 19.852,4.439 9.564,6.402 14.03,10.719 18.792,10.914 4.762,0.195 9.046,-1.919 8.841,-7.779 z"
   id="path33" />
					
						<linearGradient
   id="SVGID_00000023241363127541317550000016269097723312104368_"
   gradientUnits="userSpaceOnUse"
   x1="77.0355"
   y1="331.6843"
   x2="77.0355"
   y2="384.09399">
						<stop
   offset="0"
   style="stop-color:#7978E0"
   id="stop35" />
						<stop
   offset="1"
   style="stop-color:#563FDA"
   id="stop37" />
					</linearGradient>
					<path
   style="fill:url(#SVGID_00000023241363127541317550000016269097723312104368_)"
   d="m 96.188,379.876 c 0,0 10.747,-11.539 -1.715,-30.004 -12.462,-18.465 -39.943,-19.753 -40.846,-17.193 -0.903,2.559 10.755,7.389 15.28,21.911 4.525,14.522 6.995,21.799 11.732,25.951 4.736,4.152 10.898,5.532 15.549,-0.665 z"
   id="path40" />
					<g
   id="g44">
						<path
   style="fill:#e6e7e8"
   d="m 101.879,381.671 c -0.054,0 -0.109,-0.007 -0.163,-0.023 -0.324,-0.089 -0.514,-0.424 -0.424,-0.749 0.279,-1.005 6.962,-24.722 19.322,-33.781 0.27,-0.2 0.651,-0.141 0.851,0.131 0.199,0.271 0.14,0.652 -0.131,0.851 -12.018,8.808 -18.801,32.882 -18.868,33.125 -0.076,0.269 -0.32,0.446 -0.587,0.446 z"
   id="path42" />
					</g>
					<g
   id="g48">
						<path
   style="fill:#e6e7e8"
   d="m 89.432,378.665 c -0.266,0 -0.522,-0.191 -0.609,-0.454 -0.034,-0.103 -0.039,-0.167 -0.072,-0.66 -0.557,-8.343 -4.11,-36.016 -26.441,-41.858 -0.325,-0.085 -0.52,-0.418 -0.435,-0.743 0.085,-0.325 0.42,-0.518 0.743,-0.435 23.118,6.048 26.777,34.408 27.347,42.956 0.015,0.229 0.024,0.378 0.033,0.439 0.106,0.319 -0.076,0.622 -0.395,0.729 -0.057,0.017 -0.114,0.026 -0.171,0.026 z"
   id="path46" />
					</g>
					<g
   id="g52">
						<path
   style="fill:#e6e7e8"
   d="m 81.911,389.749 c -0.276,0 -0.548,-0.246 -1.437,-1.051 -10.013,-9.062 -19.663,-13.353 -28.693,-12.767 -0.338,0.025 -0.625,-0.233 -0.647,-0.568 -0.022,-0.335 0.232,-0.624 0.568,-0.647 9.374,-0.623 19.323,3.788 29.589,13.079 0.356,0.322 0.722,0.654 0.866,0.763 0.166,0.062 0.303,0.196 0.363,0.377 0.106,0.319 -0.066,0.663 -0.385,0.77 -0.081,0.028 -0.152,0.044 -0.224,0.044 z"
   id="path50" />
					</g>
				</g>
				<path
   style="fill:#bee1f4"
   d="M 106.82,430.983 H 75.43 c -0.79,0 -1.475,-0.545 -1.653,-1.314 l -8.218,-35.513 h 51.132 l -8.218,35.513 c -0.178,0.77 -0.863,1.314 -1.653,1.314 z"
   id="path56" />
				<polygon
   style="fill:#7aabbc"
   points="116.691,394.156 65.559,394.156 67.949,404.487 114.3,404.487 "
   id="polygon58" />
				<polygon
   style="fill:#bee1f4"
   points="116.691,394.156 65.559,394.156 66.043,396.25 116.207,396.25 "
   id="polygon60" />
			</g>
		</g>
		<g
   id="g319">
			<g
   id="g116">
				<rect
   x="224.601"
   y="104.085"
   style="fill:#0a2033"
   width="143.435"
   height="78.092003"
   id="rect66" />
				<g
   id="g74">
					<path
   style="fill:#f9fbfc"
   d="m 230.949,108.309 c 0,0.836 -0.678,1.514 -1.514,1.514 -0.836,0 -1.514,-0.678 -1.514,-1.514 0,-0.836 0.678,-1.514 1.514,-1.514 0.836,0 1.514,0.678 1.514,1.514 z"
   id="path68" />
					<path
   style="fill:#fbd15b"
   d="m 237.271,108.309 c 0,0.836 -0.678,1.514 -1.514,1.514 -0.836,0 -1.514,-0.678 -1.514,-1.514 0,-0.836 0.678,-1.514 1.514,-1.514 0.836,0 1.514,0.678 1.514,1.514 z"
   id="path70" />
					<path
   style="fill:#ff8578"
   d="m 243.141,108.468 c 0,0.836 -0.678,1.514 -1.514,1.514 -0.836,0 -1.514,-0.678 -1.514,-1.514 0,-0.836 0.678,-1.514 1.514,-1.514 0.836,0 1.514,0.678 1.514,1.514 z"
   id="path72" />
				</g>
				<g
   id="g100">
					<g
   id="g86">
						<rect
   x="239.476"
   y="120.022"
   style="fill:#fbd15b"
   width="78.916"
   height="0.99599999"
   id="rect76" />
						<rect
   x="243.14101"
   y="125.388"
   style="fill:#fbd15b"
   width="112.039"
   height="0.99599999"
   id="rect78" />
						<rect
   x="249.51601"
   y="130.754"
   style="fill:#fbd15b"
   width="86.539001"
   height="0.99599999"
   id="rect80" />
						<rect
   x="255.785"
   y="136.119"
   style="fill:#fbd15b"
   width="90.363998"
   height="0.99599999"
   id="rect82" />
						<rect
   x="264.285"
   y="141.485"
   style="fill:#fbd15b"
   width="61.040001"
   height="0.99599999"
   id="rect84" />
					</g>
					<g
   id="g98">
						<rect
   x="239.476"
   y="169.32201"
   style="fill:#ff8578"
   width="35.540001"
   height="0.99599999"
   id="rect88" />
						<rect
   x="243.14101"
   y="163.95599"
   style="fill:#ff8578"
   width="86.539001"
   height="0.99599999"
   id="rect90" />
						<rect
   x="249.51601"
   y="158.591"
   style="fill:#ff8578"
   width="112.039"
   height="0.99599999"
   id="rect92" />
						<rect
   x="255.785"
   y="153.22501"
   style="fill:#ff8578"
   width="61.040001"
   height="0.99599999"
   id="rect94" />
						<rect
   x="264.285"
   y="147.86"
   style="fill:#ff8578"
   width="73.789001"
   height="0.99599999"
   id="rect96" />
					</g>
				</g>
				<g
   id="g114">
					<g
   id="g104">
						<rect
   x="231.72"
   y="119.066"
   style="fill:#f9fbfc"
   width="1.275"
   height="1.275"
   id="rect102" />
					</g>
					<g
   id="g108">
						<path
   style="fill:#f9fbfc"
   d="m 232.995,165.846 h -1.275 v -2.6 h 1.275 z m 0,-6.501 h -1.275 v -2.6 h 1.275 z m 0,-6.501 h -1.275 v -2.6 h 1.275 z m 0,-6.5 h -1.275 v -2.6 h 1.275 z m 0,-6.501 h -1.275 v -2.6 h 1.275 z m 0,-6.5 h -1.275 v -2.6 h 1.275 z m 0,-6.501 h -1.275 v -2.6 h 1.275 z"
   id="path106" />
					</g>
					<g
   id="g112">
						<rect
   x="231.72"
   y="169.74699"
   style="fill:#f9fbfc"
   width="1.275"
   height="1.275"
   id="rect110" />
					</g>
				</g>
			</g>
			<g
   id="g297">
				<g
   id="g122">
					<g
   id="g120">
						<polygon
   style="fill:#1d262d"
   points="256.507,266.393 322.865,266.393 354.807,208.023 358.228,209.895 325.176,270.292 256.507,270.292 "
   id="polygon118" />
					</g>
				</g>
				<g
   id="g242">
					
						<radialGradient
   id="SVGID_00000040566363977330435510000000614793347822110616_"
   cx="191.8114"
   cy="154.96919"
   r="33.9585"
   gradientUnits="userSpaceOnUse">
						<stop
   offset="0"
   style="stop-color:#FFC8AF"
   id="stop124" />
						<stop
   offset="1"
   style="stop-color:#FFBB9C"
   id="stop126" />
					</radialGradient>
					<path
   style="fill:url(#SVGID_00000040566363977330435510000000614793347822110616_)"
   d="m 215.243,146.34 c 0,0 -0.91,6.06 -4.57,11.71 -3.66,5.65 -11.91,13.95 -14.19,14.66 -0.92,0.28 -4.19,-1.2 -7.76,-3.07 -1.17,-0.61 -2.37,-1.27 -3.54,-1.91 -4.11,-2.28 -7.73,-4.48 -7.73,-4.48 l -5.45,-7.69 c 2.21,-11.15 6.15,-19.51 12.21,-27.42 6.05,-7.92 19.57,-3.16 24.49,0.64 4.93,3.8 7.61,9.76 6.54,17.56 z"
   id="path129" />
					<path
   style="fill:#efa78b"
   d="m 184.934,147.267 c -0.161,4.978 3.124,6.855 3.781,7.7 0.657,0.845 -3.754,5.443 -5.725,3.379 -1.971,-2.065 1.944,-11.079 1.944,-11.079 z"
   id="path131" />
					<polygon
   style="fill:#ffc8af"
   points="294.636,412.409 290.931,398.994 308.285,397.921 310.722,409.64 "
   id="polygon133" />
					<g
   id="g155">
						<g
   id="g153">
							<g
   id="XMLID_33_">
								<g
   id="g150">
									<path
   style="fill:#f9fbfc"
   d="m 341.56,415.055 1.046,5.865 -51.021,9.101 -1.036,-5.809 c 0,0 45.227,-8.589 50.151,-9.036 z"
   id="path135" />
									
										<linearGradient
   id="SVGID_00000100373383130247894230000009580437340798482321_"
   gradientUnits="userSpaceOnUse"
   x1="305.67651"
   y1="402.46341"
   x2="319.93729"
   y2="427.16379">
										<stop
   offset="0"
   style="stop-color:#7978E0"
   id="stop137" />
										<stop
   offset="1"
   style="stop-color:#563FDA"
   id="stop139" />
									</linearGradient>
									<path
   style="fill:url(#SVGID_00000100373383130247894230000009580437340798482321_)"
   d="m 319.882,408.145 c 0.086,-0.123 0.134,-0.258 0.144,-0.404 1.024,0.393 2.086,0.798 3.169,1.217 l -3.608,4.999 c -0.29,0.394 -0.19,0.952 0.203,1.242 0.206,0.143 0.448,0.19 0.675,0.15 0.209,-0.037 0.421,-0.165 0.549,-0.35 l 3.74,-5.167 c 0.057,-0.082 0.097,-0.161 0.099,-0.252 6.852,2.593 14.037,5.236 15.847,5.596 -4.924,0.446 -50.151,9.036 -50.151,9.036 l 1.612,-13.498 c 0.069,-0.575 0.623,-0.954 1.191,-0.843 11.975,2.343 16.132,-2.868 17.264,-4.888 0.24,-0.428 0.753,-0.605 1.21,-0.428 0.528,0.204 1.282,0.496 2.204,0.854 l -3.565,4.937 c -0.29,0.394 -0.193,0.934 0.2,1.224 0.206,0.143 0.451,0.208 0.678,0.167 0.209,-0.037 0.421,-0.165 0.564,-0.371 l 3.723,-5.164 c 0.029,-0.041 0.057,-0.082 0.065,-0.138 0.831,0.32 1.758,0.676 2.745,1.058 l -3.723,5.163 c -0.29,0.394 -0.211,0.938 0.2,1.224 0.188,0.146 0.434,0.211 0.678,0.167 0.209,-0.037 0.421,-0.165 0.546,-0.367 z"
   id="path142" />
									<path
   style="fill:#f9fbfc"
   d="m 321.014,414.998 c -0.129,0.185 -0.34,0.313 -0.549,0.35 -0.227,0.04 -0.469,-0.006 -0.675,-0.15 -0.394,-0.29 -0.493,-0.848 -0.203,-1.242 l 3.608,-4.999 c 0.559,0.206 1.1,0.416 1.659,0.622 -0.002,0.09 -0.042,0.169 -0.099,0.252 z"
   id="path144" />
									<path
   style="fill:#f9fbfc"
   d="m 318.44,407.124 c 0.503,0.198 1.045,0.408 1.586,0.617 -0.01,0.146 -0.058,0.28 -0.144,0.404 l -3.74,5.167 c -0.126,0.202 -0.337,0.33 -0.546,0.367 -0.244,0.044 -0.49,-0.021 -0.678,-0.167 -0.411,-0.287 -0.49,-0.831 -0.2,-1.224 z"
   id="path146" />
									<path
   style="fill:#f9fbfc"
   d="m 311.908,411.367 c -0.143,0.206 -0.354,0.333 -0.564,0.371 -0.227,0.04 -0.472,-0.024 -0.678,-0.167 -0.394,-0.29 -0.49,-0.83 -0.2,-1.224 l 3.565,-4.937 c 0.503,0.198 1.065,0.422 1.665,0.657 -0.008,0.055 -0.037,0.097 -0.065,0.138 z"
   id="path148" />
								</g>
							</g>
						</g>
					</g>
					<path
   style="fill:#243c55"
   d="m 220.932,322.521 c -10.451,0.527 -24.412,1.267 -42.643,1.969 -51.008,1.95 -40.615,-47.44 -40.615,-47.44 l 48.746,-0.643 c 0,0 72.476,-1.072 87.743,8.677 15.267,9.749 37.535,112.623 37.535,112.623 l -24.277,6.78 c 0,0 -19.673,-42.286 -31.157,-64.807 -4.719,-9.262 -8.131,-16.067 -8.423,-16.808 -0.625,-1.657 -8.093,-1.326 -26.909,-0.351 z"
   id="path157" />
					<path
   style="fill:#0a2033"
   d="m 187.974,276.391 c -1.001,0.008 -1.554,0.016 -1.554,0.016 l -48.746,0.643 c 0,0 -5.827,27.703 12.674,40.794 18.414,-4.454 29.387,-23.14 39.052,-39.905 z"
   id="path159" />
					<path
   style="fill:#0a2033"
   d="m 256.263,339.68 -4.036,61.03 -4.387,0.098 v -2.535 h -17.393 v 2.964 l -4.797,0.117 -4.719,-78.832 c 18.816,-0.975 26.284,-1.306 26.908,0.351 0.293,0.74 3.706,7.545 8.424,16.807 z"
   id="path161" />
					<polygon
   style="fill:#ffc8af"
   points="230.447,411.921 230.447,401.236 247.84,400.807 247.84,411.921 "
   id="polygon163" />
					<polygon
   style="fill:#0a2033"
   points="230.447,401.236 230.447,398.272 247.84,398.272 247.84,400.807 "
   id="polygon165" />
					<g
   id="g187">
						<g
   id="g185">
							<g
   id="XMLID_40_">
								<g
   id="g182">
									<path
   style="fill:#f9fbfc"
   d="m 277.331,422.849 v 5.958 h -51.827 v -5.9 c 0,0 46.033,-0.514 50.959,-0.089 z"
   id="path167" />
									
										<linearGradient
   id="SVGID_00000143586123676473445240000003775960366657213614_"
   gradientUnits="userSpaceOnUse"
   x1="239.8611"
   y1="403.5972"
   x2="257.3345"
   y2="433.86191">
										<stop
   offset="0"
   style="stop-color:#7978E0"
   id="stop169" />
										<stop
   offset="1"
   style="stop-color:#563FDA"
   id="stop171" />
									</linearGradient>
									<path
   style="fill:url(#SVGID_00000143586123676473445240000003775960366657213614_)"
   d="m 257.203,412.24 c 0.106,-0.106 0.177,-0.23 0.213,-0.372 0.939,0.567 1.914,1.152 2.906,1.754 l -4.43,4.288 c -0.354,0.337 -0.354,0.904 -0.018,1.258 0.177,0.177 0.408,0.266 0.638,0.266 0.213,0 0.443,-0.089 0.603,-0.248 l 4.589,-4.43 c 0.071,-0.071 0.124,-0.142 0.142,-0.23 6.29,3.756 12.899,7.619 14.618,8.292 -4.926,-0.425 -50.959,0.089 -50.959,0.089 l 3.957,-13.005 c 0.168,-0.554 0.781,-0.83 1.321,-0.621 11.377,4.41 16.384,0.01 17.854,-1.78 0.311,-0.379 0.847,-0.463 1.266,-0.209 0.484,0.294 1.175,0.714 2.02,1.228 l -4.377,4.235 c -0.354,0.337 -0.354,0.886 -0.018,1.24 0.177,0.177 0.408,0.284 0.638,0.284 0.213,0 0.443,-0.089 0.62,-0.266 l 4.571,-4.43 c 0.036,-0.035 0.071,-0.071 0.089,-0.124 0.762,0.461 1.612,0.974 2.516,1.524 l -4.571,4.43 c -0.354,0.337 -0.372,0.886 -0.018,1.24 0.16,0.177 0.39,0.283 0.638,0.283 0.213,0 0.443,-0.089 0.602,-0.266 z"
   id="path174" />
									<path
   style="fill:#f9fbfc"
   d="m 257.115,419.186 c -0.16,0.16 -0.39,0.248 -0.603,0.248 -0.23,0 -0.461,-0.089 -0.638,-0.266 -0.337,-0.354 -0.337,-0.921 0.018,-1.258 l 4.43,-4.288 c 0.514,0.301 1.01,0.603 1.524,0.904 -0.018,0.089 -0.071,0.159 -0.142,0.23 z"
   id="path176" />
									<path
   style="fill:#f9fbfc"
   d="m 255.963,410.982 c 0.461,0.284 0.957,0.585 1.453,0.886 -0.035,0.142 -0.106,0.266 -0.213,0.372 l -4.589,4.43 c -0.159,0.177 -0.39,0.266 -0.602,0.266 -0.248,0 -0.478,-0.106 -0.638,-0.283 -0.354,-0.354 -0.337,-0.904 0.018,-1.24 z"
   id="path178" />
									<path
   style="fill:#f9fbfc"
   d="m 248.787,414.012 c -0.177,0.177 -0.408,0.266 -0.62,0.266 -0.23,0 -0.461,-0.106 -0.638,-0.284 -0.337,-0.354 -0.337,-0.904 0.018,-1.24 l 4.377,-4.235 c 0.461,0.284 0.975,0.602 1.524,0.939 -0.018,0.053 -0.053,0.089 -0.089,0.124 z"
   id="path180" />
								</g>
							</g>
						</g>
					</g>
					<g
   id="XMLID_38_">
						<g
   id="g198">
							<path
   style="fill:#efa78b"
   d="m 276.113,262.759 h -28.76 c 0,0 -43.384,-7 -51.827,-12.187 -3.139,-1.93 -8.521,-7.838 -14.078,-14.507 l 19.596,-16.32 c 3.432,5.44 6.551,9.866 7.799,10.354 3.412,1.287 35.741,19.323 39.484,19.323 3.744,0 21.605,-0.312 27.786,13.337 z"
   id="path189" />
							
								<linearGradient
   id="SVGID_00000120535411694705832200000015476850849662372999_"
   gradientUnits="userSpaceOnUse"
   x1="162.047"
   y1="214.62691"
   x2="202.3707"
   y2="214.62691">
								<stop
   offset="0"
   style="stop-color:#606BF1"
   id="stop191" />
								<stop
   offset="1"
   style="stop-color:#433AFF"
   id="stop193" />
							</linearGradient>
							<path
   style="fill:url(#SVGID_00000120535411694705832200000015476850849662372999_)"
   d="m 202.371,219.336 -20.923,16.73 c -9.476,-11.368 -19.401,-24.977 -19.401,-24.977 l 29.67,-17.899 c 0,-0.001 7.616,18.102 10.654,26.146 z"
   id="path196" />
						</g>
					</g>
					
						<linearGradient
   id="SVGID_00000132767145251339376920000006211745070026727359_"
   gradientUnits="userSpaceOnUse"
   x1="128.80051"
   y1="188.6416"
   x2="187.7856"
   y2="290.80688">
						<stop
   offset="0"
   style="stop-color:#606BF1"
   id="stop201" />
						<stop
   offset="1"
   style="stop-color:#433AFF"
   id="stop203" />
					</linearGradient>
					<path
   style="fill:url(#SVGID_00000132767145251339376920000006211745070026727359_)"
   d="m 184.47,178.252 -21.448,-8.443 c 0,0 -25.577,2.973 -27.342,64.6 -0.341,11.895 -0.224,77.648 3.401,79.336 14.452,6.728 51.668,-37.371 51.668,-37.371 0.738,-1.37 -0.312,-15.586 0,-16.99 -0.897,-0.332 -1.638,-0.683 -2.223,-1.014 -3.802,-2.242 -10.9,-11.66 -17.88,-21.838 l 22.072,-17.197 c 0.877,1.384 1.755,2.73 2.593,4.036 0.585,-32.874 -10.841,-45.119 -10.841,-45.119 z"
   id="path206" />
					<path
   style="fill:#3030ef"
   d="m 190.749,259.385 c -0.897,-0.332 -1.638,-0.683 -2.223,-1.014 -3.802,-2.242 -10.9,-11.66 -17.88,-21.838 l 10.833,-8.441 -10.833,-16.062 -19.522,-12.764 v 8.794 c 0,0 8.359,22.74 18.307,40.572 5.402,9.683 14.342,14.435 21.389,16.76 -0.107,-2.939 -0.194,-5.457 -0.071,-6.007 z"
   id="path208" />
					
						<radialGradient
   id="SVGID_00000100356857888952308650000014380935086598478001_"
   cx="226.2258"
   cy="243.9706"
   r="42.988499"
   gradientUnits="userSpaceOnUse">
						<stop
   offset="0"
   style="stop-color:#FFC8AF"
   id="stop210" />
						<stop
   offset="1"
   style="stop-color:#FFBB9C"
   id="stop212" />
					</radialGradient>
					<path
   style="fill:url(#SVGID_00000100356857888952308650000014380935086598478001_)"
   d="m 253.688,255.936 c 0,0 -45.334,-18.521 -48.417,-19.193 -0.974,-0.21 -4.307,-4.813 -8.414,-11.024 -0.861,-1.339 -3.269,-5.013 -4.138,-6.384 l -22.072,17.198 c 6.98,10.178 14.078,19.596 17.88,21.838 0.585,0.331 1.326,0.682 2.223,1.014 0.01,-0.046 0.02,-0.089 0.03,-0.134 -0.01,0.044 -0.017,0.085 -0.027,0.129 13.176,4.935 60.612,7.21 61.531,7.521 1.703,1.318 5.706,1.405 9.311,0.41 1.666,-0.46 3.257,-1.144 4.475,-2.064 3.17,-2.374 7.904,0.977 10.044,2.591 1.391,1.05 4.624,1.013 5.693,-0.056 -2.437,-13.648 -28.119,-11.846 -28.119,-11.846 z"
   id="path215" />
					
						<radialGradient
   id="SVGID_00000178200371858222591860000008059529359567381924_"
   cx="191.8156"
   cy="154.9702"
   r="33.9478"
   gradientUnits="userSpaceOnUse">
						<stop
   offset="0"
   style="stop-color:#FFC8AF"
   id="stop217" />
						<stop
   offset="1"
   style="stop-color:#FFBB9C"
   id="stop219" />
					</radialGradient>
					<polygon
   style="fill:url(#SVGID_00000178200371858222591860000008059529359567381924_)"
   points="187.343,172.43 187.093,172.94 184.473,178.25 163.023,169.81 172.003,155.56 186.223,166.03 189.363,168.34 188.723,169.64 "
   id="polygon222" />
					
						<linearGradient
   id="SVGID_00000105414378184013016790000017026940422298635691_"
   gradientUnits="userSpaceOnUse"
   x1="173.8902"
   y1="176.209"
   x2="173.8902"
   y2="242.416">
						<stop
   offset="0"
   style="stop-color:#606BF1"
   id="stop224" />
						<stop
   offset="1"
   style="stop-color:#433AFF"
   id="stop226" />
					</linearGradient>
					<path
   style="fill:url(#SVGID_00000105414378184013016790000017026940422298635691_)"
   d="m 151.124,208.06 22.36,34.356 25.563,-14.679 c 0,0 -6.961,-26.773 -13.716,-41.504 -4.198,-9.154 -16.277,-13.693 -27.966,-6.413 -10.297,6.412 -9.988,21.389 -6.241,28.24 z"
   id="path229" />
					
						<linearGradient
   id="SVGID_00000098215872742362313310000007299559930853594801_"
   gradientUnits="userSpaceOnUse"
   x1="200.5275"
   y1="119.4558"
   x2="200.5275"
   y2="156.0838">
						<stop
   offset="0"
   style="stop-color:#56549E"
   id="stop231" />
						<stop
   offset="0.9898"
   style="stop-color:#2E2C71"
   id="stop233" />
					</linearGradient>
					<path
   style="fill:url(#SVGID_00000098215872742362313310000007299559930853594801_)"
   d="m 193.29,146.239 c -0.82,-3.729 -4.232,-7.161 -7.306,-2.173 -0.762,1.237 -1.021,2.713 -1.173,4.158 -0.546,5.196 -6.594,7.482 -11.114,7.826 -0.715,0.055 -1.465,0.05 -2.175,-0.078 0,0 1.143,-8.554 3.677,-18.858 2.534,-10.304 8.282,-20.81 16.576,-16.595 0,0 7.638,-3.564 12.284,2.349 0,0 7.884,-2.825 11.966,3.515 0,0 11.071,2.091 13.139,8.968 2.629,8.739 -9.608,10.865 -13.691,8.392 -4.083,-2.474 -7.17,-7.169 -9.986,-7.083 -2.816,0.085 -2.18,4.408 -2.603,7.083 -0.422,2.675 -4.567,-0.077 -6.327,3.513 -1.76,3.59 -2.636,5.599 -3.692,4.965 -1.053,-0.633 0.425,-5.982 0.425,-5.982 z"
   id="path236" />
					<path
   style="fill:#efa78b"
   d="m 191.812,147.147 c 0.314,-1.344 -0.521,-3.245 -1.693,-3.326 -1.498,-0.104 -2.191,1.731 -2.298,3.338 -0.099,1.478 0.342,4.038 1.976,3.482 1.251,-0.426 -0.143,-1.932 0.306,-2.753 0.493,-0.902 1.707,0.702 1.709,-0.741 z"
   id="path238" />
					<path
   style="fill:#efa78b"
   d="m 188.723,169.64 -1.38,2.79 c -4.51,-3.22 -4.33,-8.1 -4.33,-8.1 0,0 1.303,2.779 5.71,5.31 z"
   id="path240" />
				</g>
				<g
   id="g285">
					<g
   id="g246">
						<path
   style="fill:#112b46"
   d="m 107.669,219.399 c 0.001,0.174 0.007,0.239 0.011,0.301 0.016,0.205 0.026,0.258 0.039,0.372 0.05,0.388 0.15,1.073 0.307,2.12 1.164,7.779 5.328,34.437 9.206,59.18 3.877,24.738 7.464,47.539 7.464,47.54 l 7.705,-1.212 c -0.001,-0.005 -0.265,-1.686 -0.73,-4.639 -1.625,-10.335 -5.687,-36.188 -9.343,-59.563 -1.828,-11.687 -3.554,-22.755 -4.823,-30.951 -0.634,-4.098 -1.155,-7.479 -1.515,-9.856 -0.18,-1.188 -0.321,-2.126 -0.415,-2.771 -0.047,-0.322 -0.082,-0.571 -0.104,-0.73 l -0.02,-0.152 v -0.001 l -2.305,0.252 2.311,-0.194 -0.006,-0.059 -2.305,0.252 2.311,-0.194 -3.607,0.302 h 3.62 c -0.002,-0.214 -0.01,-0.255 -0.012,-0.302 l -3.607,0.302 h 3.62 -7.802 z"
   id="path244" />
					</g>
					<g
   id="g274">
						<path
   style="fill:#0a2033"
   d="m 176.577,339.44 h 9.445 v 90.658 c 0,0.898 -0.728,1.626 -1.626,1.626 h -6.193 c -0.898,0 -1.626,-0.728 -1.626,-1.626 z"
   id="path248" />
						<path
   style="fill:#0a2033"
   d="m 176.577,409.06 h 9.445 v 21.038 c 0,0.898 -0.728,1.626 -1.626,1.626 h -6.193 c -0.898,0 -1.626,-0.728 -1.626,-1.626 z"
   id="path250" />
						<path
   style="fill:#112b46"
   d="m 155.328,340.735 h 51.943 v 1.541 c 0,3.502 -2.839,6.34 -6.34,6.34 h -39.262 c -3.502,0 -6.34,-2.839 -6.34,-6.34 v -1.541 z"
   id="path252" />
						
							<linearGradient
   id="SVGID_00000145748046421640593930000016816606651254457013_"
   gradientUnits="userSpaceOnUse"
   x1="164.2831"
   y1="302.30411"
   x2="198.3159"
   y2="361.25079">
							<stop
   offset="0"
   style="stop-color:#EC827D"
   id="stop254" />
							<stop
   offset="1"
   style="stop-color:#FF5A7D"
   id="stop256" />
						</linearGradient>
						<path
   style="fill:url(#SVGID_00000145748046421640593930000016816606651254457013_)"
   d="m 131.153,340.977 h 100.293 c 4.087,0 7.401,-3.313 7.401,-7.401 v -3.598 c 0,-4.087 -3.313,-7.401 -7.401,-7.401 H 131.153 c -4.087,0 -7.401,3.313 -7.401,7.401 v 3.598 c 0,4.088 3.314,7.401 7.401,7.401 z"
   id="path259" />
						<path
   style="fill:#0a2033"
   d="m 132.287,426.196 c 0,3.053 2.475,5.528 5.528,5.528 3.053,0 5.528,-2.475 5.528,-5.528 0,-3.053 -2.475,-5.528 -5.528,-5.528 -3.053,0 -5.528,2.475 -5.528,5.528 z"
   id="path261" />
						<circle
   style="fill:#0a2033"
   cx="224.784"
   cy="426.19601"
   r="5.5279999"
   id="circle263" />
						
							<rect
   x="171.799"
   y="402.022"
   transform="rotate(180,181.2995,410.32385)"
   style="fill:#112b46"
   width="19.000999"
   height="16.604"
   id="rect265" />
						
							<linearGradient
   id="SVGID_00000052793378709556236420000006642410930676499111_"
   gradientUnits="userSpaceOnUse"
   x1="167.49561"
   y1="396.82101"
   x2="194.3331"
   y2="443.30499">
							<stop
   offset="0"
   style="stop-color:#EC827D"
   id="stop267" />
							<stop
   offset="1"
   style="stop-color:#FF5A7D"
   id="stop269" />
						</linearGradient>
						<path
   style="fill:url(#SVGID_00000052793378709556236420000006642410930676499111_)"
   d="m 132.287,422.533 h 98.025 v -2.062 c 0,-3.176 -2.575,-5.751 -5.751,-5.751 h -86.522 c -3.176,0 -5.751,2.575 -5.751,5.751 v 2.062 z"
   id="path272" />
					</g>
					<g
   id="g283">
						
							<linearGradient
   id="SVGID_00000166675611299972472990000009287532333123230088_"
   gradientUnits="userSpaceOnUse"
   x1="104.1706"
   y1="220.7478"
   x2="126.6051"
   y2="259.60529">
							<stop
   offset="0"
   style="stop-color:#EC827D"
   id="stop276" />
							<stop
   offset="1"
   style="stop-color:#FF5A7D"
   id="stop278" />
						</linearGradient>
						<path
   style="fill:url(#SVGID_00000166675611299972472990000009287532333123230088_)"
   d="m 105.345,225.827 4.161,30.848 c 0.593,4.398 4.639,7.482 9.037,6.888 4.398,-0.593 7.482,-4.639 6.888,-9.037 l -4.161,-30.848 c -0.593,-4.398 -4.639,-7.482 -9.037,-6.888 -4.397,0.593 -7.481,4.639 -6.888,9.037"
   id="path281" />
					</g>
				</g>
				<g
   id="g295">
					<rect
   x="379.57101"
   y="279.478"
   style="fill:#bc8867"
   width="8.4490004"
   height="151.194"
   id="rect287" />
					<rect
   x="252.282"
   y="279.478"
   style="fill:#bc8867"
   width="8.4490004"
   height="151.194"
   id="rect289" />
					<g
   id="g293">
						<rect
   x="245.946"
   y="270.05399"
   style="fill:#f9fbfc"
   width="150.543"
   height="10.559"
   id="rect291" />
					</g>
				</g>
			</g>
			<g
   id="g303">
				<rect
   x="198.937"
   y="64.571999"
   style="fill:#ff8578"
   width="43.527"
   height="26.83"
   id="rect299" />
				
					<text
   transform="translate(208.2762,82.9451)"
   style="font-size:16.1353px;font-family:FiraSans-Medium;fill:#f9fbfc"
   id="text301">&lt;/&gt;</text>
			</g>
			<g
   id="g311">
				<rect
   x="120.035"
   y="96.404999"
   style="fill:#fbd15b"
   width="49.111"
   height="32.848"
   id="rect305" />
				<g
   id="g309">
					<path
   style="fill:#f9fbfc"
   d="m 136.289,105.834 c -2.346,2.935 -2.309,7.222 0.08,10.122 2.715,3.294 7.365,3.824 10.705,1.596 l 5.154,5.155 c 0.217,0.217 0.57,0.217 0.788,0 l 1.448,-1.448 c 0.217,-0.217 0.217,-0.57 0,-0.788 l -5.155,-5.155 c 2.088,-3.13 1.753,-7.41 -1.007,-10.17 -3.356,-3.358 -8.963,-3.129 -12.013,0.688 z m 10.345,9.042 c -2.222,2.222 -5.838,2.222 -8.061,0 -2.222,-2.222 -2.222,-5.838 0,-8.06 2.222,-2.222 5.838,-2.222 8.06,0 2.223,2.221 2.224,5.837 10e-4,8.06 z"
   id="path307" />
				</g>
			</g>
			<g
   id="g317">
				<rect
   x="357.25"
   y="88.674004"
   style="fill:#878cf0"
   width="37.695"
   height="26.854"
   id="rect313" />
				
					<text
   transform="translate(367.4749,108.8297)"
   style="font-size:19.2481px;font-family:FiraSans-Medium;fill:#f1f2f2"
   id="text315">{ }</text>
			</g>
		</g>
	</g>
</g>

</svg>
