<?xml version="1.0" encoding="UTF-8" standalone="no"?>
<!-- Generator: Adobe Illustrator 27.5.0, SVG Export Plug-In . SVG Version: 6.00 Build 0)  -->

<svg
   version="1.1"
   x="0px"
   y="0px"
   viewBox="0 0 1200 500"
   xml:space="preserve"
   id="svg160"
   sodipodi:docname="be.svg"
   width="1200"
   height="500"
   inkscape:version="1.1.2 (0a00cf5339, 2022-02-04)"
   xmlns:inkscape="http://www.inkscape.org/namespaces/inkscape"
   xmlns:sodipodi="http://sodipodi.sourceforge.net/DTD/sodipodi-0.dtd"
   xmlns="http://www.w3.org/2000/svg"
   xmlns:svg="http://www.w3.org/2000/svg"><defs
   id="defs164" /><sodipodi:namedview
   id="namedview162"
   pagecolor="#ffffff"
   bordercolor="#666666"
   borderopacity="1.0"
   inkscape:pageshadow="2"
   inkscape:pageopacity="0.0"
   inkscape:pagecheckerboard="0"
   showgrid="false"
   inkscape:zoom="0.76464628"
   inkscape:cx="689.20756"
   inkscape:cy="190.93796"
   inkscape:window-width="1920"
   inkscape:window-height="1008"
   inkscape:window-x="0"
   inkscape:window-y="0"
   inkscape:window-maximized="1"
   inkscape:current-layer="svg160" />

<g
   id="OBJECTS"
   transform="matrix(0.678619,0,0,0.71811199,841.37954,65.656081)">
	<g
   id="g13">
		<path
   style="fill:#dbdfff"
   d="m 97.085,118.697 v -7.984 c 0,-0.905 -0.734,-1.638 -1.638,-1.638 h -1.813 c -0.713,0 -1.338,-0.463 -1.559,-1.14 -0.354,-1.087 -0.791,-2.144 -1.31,-3.162 -0.323,-0.635 -0.208,-1.404 0.296,-1.908 l 1.282,-1.282 c 0.64,-0.64 0.64,-1.677 0,-2.317 L 86.697,93.62 c -0.64,-0.64 -1.677,-0.64 -2.317,0 l -1.282,1.282 c -0.504,0.504 -1.273,0.619 -1.908,0.296 -1.019,-0.519 -2.076,-0.957 -3.163,-1.31 -0.678,-0.22 -1.14,-0.846 -1.14,-1.559 v -1.813 c 0,-0.905 -0.734,-1.639 -1.639,-1.639 h -7.984 c -0.905,0 -1.639,0.734 -1.639,1.639 v 1.813 c 0,0.713 -0.463,1.338 -1.14,1.559 -1.087,0.353 -2.143,0.791 -3.162,1.31 -0.635,0.324 -1.405,0.208 -1.909,-0.296 L 58.132,93.62 c -0.64,-0.64 -1.677,-0.64 -2.317,0 l -5.646,5.646 c -0.64,0.64 -0.64,1.677 0,2.317 l 1.282,1.282 c 0.504,0.504 0.619,1.273 0.296,1.909 -0.519,1.019 -0.956,2.076 -1.31,3.163 -0.22,0.678 -0.846,1.14 -1.559,1.14 h -1.813 c -0.905,0 -1.639,0.734 -1.639,1.638 v 7.984 c 0,0.905 0.734,1.638 1.639,1.638 h 1.813 c 0.713,0 1.338,0.463 1.559,1.14 0.354,1.087 0.791,2.144 1.31,3.163 0.324,0.635 0.208,1.404 -0.296,1.908 l -1.282,1.282 c -0.64,0.64 -0.64,1.677 0,2.317 l 5.646,5.646 c 0.64,0.64 1.677,0.64 2.317,0 l 1.282,-1.282 c 0.504,-0.504 1.273,-0.619 1.908,-0.296 1.018,0.519 2.075,0.956 3.162,1.31 0.678,0.22 1.14,0.846 1.14,1.559 v 1.813 c 0,0.905 0.734,1.639 1.639,1.639 h 7.984 c 0.905,0 1.639,-0.734 1.639,-1.639 v -1.813 c 0,-0.713 0.463,-1.338 1.14,-1.559 1.087,-0.354 2.144,-0.791 3.163,-1.31 0.635,-0.323 1.404,-0.208 1.908,0.296 l 1.282,1.282 c 0.64,0.64 1.677,0.64 2.317,0 l 5.646,-5.646 c 0.64,-0.64 0.64,-1.677 0,-2.317 l -1.282,-1.282 c -0.504,-0.504 -0.619,-1.273 -0.296,-1.908 0.519,-1.019 0.956,-2.075 1.31,-3.162 0.22,-0.678 0.846,-1.14 1.559,-1.14 h 1.813 c 0.906,-0.003 1.639,-0.737 1.639,-1.641 z m -18.54,3.407 v 0 c -1.933,1.933 -4.555,3.02 -7.289,3.02 v 0 c -2.734,0 -5.356,-1.086 -7.289,-3.02 v 0 c -1.933,-1.933 -3.02,-4.555 -3.02,-7.29 v 0 c 0,-2.734 1.086,-5.356 3.02,-7.289 v 0 c 1.933,-1.933 4.555,-3.019 7.289,-3.019 v 0 c 2.734,0 5.356,1.086 7.289,3.019 v 0 c 1.933,1.933 3.019,4.555 3.019,7.289 v 0 c 0.001,2.735 -1.086,5.357 -3.019,7.29 z"
   id="path9" />
		<path
   style="fill:none;stroke:#dbdfff;stroke-miterlimit:10"
   d="M 111.289,75.751 V 72.48 c 0,-0.807 -0.654,-1.461 -1.461,-1.461 h -0.039 c -0.61,0 -1.161,-0.376 -1.366,-0.951 -0.134,-0.377 -0.288,-0.746 -0.459,-1.108 -0.261,-0.551 -0.138,-1.207 0.294,-1.638 l 0.023,-0.023 c 0.574,-0.575 0.575,-1.5 0.004,-2.07 l -2.313,-2.313 c -0.571,-0.57 -1.495,-0.57 -2.066,0 l -0.027,0.027 c -0.431,0.431 -1.087,0.555 -1.638,0.294 -0.362,-0.171 -0.731,-0.325 -1.108,-0.459 -0.575,-0.205 -0.951,-0.756 -0.951,-1.366 v -0.033 c 0,-0.812 -0.654,-1.467 -1.461,-1.467 H 95.45 c -0.807,0 -1.461,0.654 -1.461,1.461 v 0.038 c 0,0.61 -0.376,1.161 -0.951,1.366 -0.377,0.134 -0.746,0.288 -1.108,0.459 -0.551,0.261 -1.207,0.138 -1.638,-0.293 L 90.269,62.92 c -0.574,-0.574 -1.5,-0.575 -2.07,-0.004 l -2.313,2.313 c -0.57,0.57 -0.57,1.495 0,2.066 l 0.027,0.027 c 0.431,0.431 0.555,1.087 0.294,1.638 -0.171,0.362 -0.325,0.731 -0.459,1.108 -0.205,0.575 -0.756,0.951 -1.366,0.951 h -0.033 c -0.812,0 -1.467,0.654 -1.467,1.461 v 3.271 c 0,0.807 0.654,1.461 1.461,1.461 h 0.038 c 0.61,0 1.161,0.376 1.366,0.951 0.134,0.377 0.288,0.747 0.459,1.108 0.261,0.551 0.138,1.207 -0.294,1.638 l -0.023,0.023 c -0.574,0.574 -0.575,1.5 -0.004,2.07 l 2.313,2.313 c 0.57,0.57 1.495,0.57 2.066,0 l 0.027,-0.027 c 0.431,-0.431 1.087,-0.555 1.638,-0.294 0.361,0.171 0.731,0.325 1.108,0.459 0.575,0.205 0.951,0.756 0.951,1.366 v 0.033 c 0,0.812 0.654,1.467 1.461,1.467 h 3.271 c 0.807,0 1.461,-0.654 1.461,-1.461 V 86.82 c 0,-0.61 0.376,-1.161 0.951,-1.366 0.377,-0.134 0.747,-0.288 1.108,-0.459 0.551,-0.261 1.207,-0.138 1.638,0.293 l 0.023,0.023 c 0.574,0.574 1.5,0.575 2.07,0.004 l 2.313,-2.313 c 0.57,-0.57 0.57,-1.495 0,-2.066 l -0.027,-0.027 c -0.431,-0.431 -0.555,-1.087 -0.294,-1.638 0.171,-0.362 0.325,-0.731 0.459,-1.108 0.205,-0.575 0.756,-0.951 1.366,-0.951 h 0.033 c 0.813,-0.001 1.468,-0.655 1.468,-1.461 z m -10.196,2.433 v 0 c -1.063,1.063 -2.505,1.66 -4.008,1.66 v 0 c -1.504,0 -2.945,-0.597 -4.008,-1.66 v 0 c -1.063,-1.063 -1.66,-2.505 -1.66,-4.008 v 0 c 0,-1.503 0.597,-2.945 1.66,-4.008 v 0 c 1.063,-1.063 2.505,-1.66 4.008,-1.66 v 0 c 1.503,0 2.945,0.597 4.008,1.66 v 0 c 1.063,1.063 1.66,2.505 1.66,4.008 v 0 c 0.001,1.503 -0.596,2.945 -1.66,4.008 z"
   id="path11" />
	</g>
	<g
   id="g19">
		<path
   style="fill:#ff6238"
   d="m 453.531,106.798 h -42.729 c -5.772,0 -9.233,-6.414 -6.064,-11.238 l 21.365,-32.524 c 2.866,-4.362 9.262,-4.362 12.128,0 l 21.365,32.524 c 3.168,4.824 -0.292,11.238 -6.065,11.238 z"
   id="path15" />
		
			<text
   transform="translate(427.1768,99.5762)"
   style="font-size:35.9101px;font-family:Montserrat-SemiBold;fill:#ffffff"
   id="text17">!</text>
	</g>
	<g
   id="g29">
		<g
   id="g27">
			
				<line
   style="fill:none;stroke:#6252d7;stroke-width:0.9921;stroke-linecap:round;stroke-linejoin:round"
   x1="115.663"
   y1="154.12399"
   x2="114.246"
   y2="154.12399"
   id="line21" />
			
				<path
   style="fill:none;stroke:#6252d7;stroke-width:0.9921;stroke-linecap:round;stroke-linejoin:round;stroke-dasharray:2.8537, 5.7075"
   d="m 108.538,154.124 h -57.18 c -2.298,0 -4.16,1.863 -4.16,4.16 v 87.542"
   id="path23" />
			
				<line
   style="fill:none;stroke:#6252d7;stroke-width:0.9921;stroke-linecap:round;stroke-linejoin:round"
   x1="47.196999"
   y1="248.67999"
   x2="47.196999"
   y2="250.097"
   id="line25" />
		</g>
	</g>
	<g
   id="g49">
		<g
   id="g47">
			<g
   id="g45">
				<path
   style="fill:#dbdfff"
   d="m 130.727,181.649 h 136.167 c 3.758,0 6.804,-3.046 6.804,-6.804 V 82.51 c 0,-3.758 -3.047,-6.805 -6.805,-6.805 H 130.727 c -3.758,0 -6.804,3.046 -6.804,6.804 v 92.335 c -0.001,3.759 3.046,6.805 6.804,6.805 z"
   id="path31" />
				<path
   style="opacity:0.54;fill:#ffffff"
   d="m 141.4,152.375 h 114.82 c 2.27,0 4.11,-1.84 4.11,-4.11 v -38.828 c 0,-2.27 -1.84,-4.11 -4.11,-4.11 H 141.4 c -2.27,0 -4.11,1.84 -4.11,4.11 v 38.827 c 0,2.271 1.84,4.111 4.11,4.111 z"
   id="path33" />
				<path
   style="fill:#6252d7"
   d="M 123.922,94.305 H 273.698 V 82.51 c 0,-3.758 -3.047,-6.805 -6.805,-6.805 H 130.727 c -3.758,0 -6.804,3.046 -6.804,6.804 v 11.796 z"
   id="path35" />
				<g
   id="g43">
					<path
   style="fill:#ffffff"
   d="m 161.895,85.631 c 0,2.357 1.911,4.268 4.268,4.268 2.357,0 4.268,-1.911 4.268,-4.268 0,-2.357 -1.911,-4.268 -4.268,-4.268 -2.358,0.001 -4.268,1.911 -4.268,4.268 z"
   id="path37" />
					<path
   style="fill:#e8f4ff"
   d="m 147.25,85.631 c 0,2.357 1.911,4.268 4.267,4.268 2.357,0 4.268,-1.911 4.268,-4.268 0,-2.357 -1.911,-4.268 -4.268,-4.268 -2.357,0.001 -4.267,1.911 -4.267,4.268 z"
   id="path39" />
					<path
   style="fill:#cedffd"
   d="m 132.604,85.631 c 0,2.357 1.911,4.268 4.268,4.268 2.357,0 4.268,-1.911 4.268,-4.268 0,-2.357 -1.911,-4.268 -4.268,-4.268 -2.357,0 -4.268,1.911 -4.268,4.268 z"
   id="path41" />
				</g>
			</g>
		</g>
	</g>
	<polygon
   style="fill:#0f1e36"
   points="169.318,138.799 163.211,157.12 159.224,153.132 151.488,160.867 147.25,156.629 154.985,148.893 150.997,144.906 "
   id="polygon51" />
	<g
   id="g73">
		<path
   style="fill:#6252d7"
   d="m 338.293,420.285 h -68.716 c -1.786,16.776 -19.664,25.968 -31.279,30.104 -1.549,0.552 -1.594,2.676 -0.037,2.676 h 74.664 c 0.104,0 0.2,-0.01 0.297,-0.033 2.377,-0.563 32.442,-8.261 25.071,-32.747 z"
   id="path53" />
		<path
   style="fill:#bac6fc"
   d="m 331.329,420.285 h -84.902 c -4.09,16.776 -23.229,25.968 -35.412,30.104 -1.625,0.552 -1.961,2.676 -0.405,2.676 h 86.336 c 0.085,0 0.162,-0.006 0.244,-0.022 2.44,-0.457 40.553,-8.065 34.139,-32.758 z"
   id="path55" />
		<g
   id="g59">
			<path
   style="fill:#6252d7"
   d="M 422.93,425.857 H 155.003 c -4.167,0 -12.589,-3.378 -12.571,-7.546 l 5.909,-194.342 c 0.018,-4.167 3.411,-7.545 7.578,-7.545 h 265.215 c 4.167,0 10.217,4.553 10.2,8.72 l -0.825,193.167 c -0.019,4.168 -3.412,7.546 -7.579,7.546 z"
   id="path57" />
		</g>
		<path
   style="fill:#bac6fc"
   d="M 419.179,424.682 H 149.566 c -4.167,0 -7.531,-3.378 -7.513,-7.546 l 0.825,-193.167 c 0.018,-4.167 3.41,-7.545 7.578,-7.545 h 269.613 c 4.167,0 7.531,3.378 7.513,7.545 l -0.825,193.167 c -0.018,4.168 -3.411,7.546 -7.578,7.546 z"
   id="path61" />
		<path
   style="fill:#6252d7"
   d="M 419.179,424.682 H 149.566 c -4.167,0 -7.531,-3.378 -7.513,-7.546 l 0.136,-31.822 h 284.704 l -0.136,31.822 c -0.018,4.168 -3.411,7.546 -7.578,7.546 z"
   id="path63" />
		<polygon
   style="fill:#ffffff"
   points="152.125,376.18 152.765,226.321 417.676,226.321 417.036,376.18 "
   id="polygon65" />
		<path
   style="fill:#ff6238"
   d="M 388.521,364.243 H 241.57 c -4.343,0 -7.864,-3.521 -7.864,-7.864 v -78.336 c 0,-4.343 3.521,-7.864 7.864,-7.864 h 146.952 c 4.343,0 7.864,3.521 7.864,7.864 v 78.336 c -0.001,4.343 -3.522,7.864 -7.865,7.864 z"
   id="path67" />
		<path
   style="fill:#dbdfff"
   d="m 220.882,364.243 h -38.829 c -2.342,0 -4.241,-1.899 -4.241,-4.241 V 274.42 c 0,-2.342 1.899,-4.241 4.241,-4.241 h 38.829 c 2.342,0 4.241,1.899 4.241,4.241 v 85.582 c 0,2.342 -1.899,4.241 -4.241,4.241 z"
   id="path69" />
		<path
   style="fill:#dbdfff"
   d="M 388.775,247.21 H 185.422 c -4.203,0 -7.611,3.407 -7.611,7.611 v 0 c 0,4.203 3.407,7.611 7.611,7.611 h 203.352 c 4.203,0 7.611,-3.407 7.611,-7.611 v 0 c 0,-4.203 -3.407,-7.611 -7.61,-7.611 z"
   id="path71" />
	</g>
	<g
   id="g81">
		<path
   style="fill:#0f1e36"
   d="m 327.582,198.161 h -160.57 c -8.373,0 -15.161,-6.788 -15.161,-15.161 v -2.201 c 0,-8.373 6.788,-15.161 15.161,-15.161 h 160.57 z"
   id="path75" />
		<g
   id="g79">
			
				<text
   transform="translate(205.1411,188.0674)"
   style="font-size:16.5945px;font-family:Montserrat-Light;fill:#ffffff;stroke:#ffffff;stroke-width:0.9921;stroke-linecap:round;stroke-linejoin:round;stroke-miterlimit:10"
   id="text77">https://</text>
		</g>
	</g>
	<g
   id="g93">
		<g
   id="g87">
			<path
   style="fill:#bac6fc"
   d="m 366.141,249.498 c -19.218,-2.084 -36.799,-11.602 -49.107,-26.762 -10.788,-13.289 -16.377,-30.051 -16.377,-47.167 v -55.154 c 0,-0.068 0.051,-0.125 0.118,-0.134 23.241,-2.826 45.684,-10.995 65.309,-23.802 0.044,-0.029 0.101,-0.029 0.146,0 19.619,12.807 42.065,20.976 65.31,23.802 0.068,0.008 0.118,0.065 0.118,0.134 v 55.155 c 0,17.114 -5.587,33.874 -16.373,47.162 -12.307,15.163 -29.892,24.682 -49.112,26.767 -0.01,0.001 -0.021,0.001 -0.032,-0.001 z"
   id="path83" />
			<path
   style="fill:#6252d7"
   d="m 366.177,238.374 c -0.013,0.002 -0.027,0.002 -0.04,0 -14.461,-1.92 -27.793,-8.859 -37.681,-19.643 -10.561,-11.517 -16.378,-26.465 -16.378,-42.092 v -46.366 c 0,-0.065 0.046,-0.12 0.109,-0.132 18.921,-3.695 37.247,-10.575 53.903,-20.248 0.041,-0.024 0.092,-0.024 0.134,0 16.654,9.674 34.978,16.553 53.904,20.248 0.063,0.012 0.109,0.068 0.109,0.132 v 46.366 c 0,15.626 -5.817,30.574 -16.378,42.092 -9.888,10.783 -23.22,17.723 -37.682,19.643 z"
   id="path85" />
		</g>
		
			<polyline
   style="fill:none;stroke:#ffffff;stroke-width:8.5039;stroke-linecap:round;stroke-linejoin:round;stroke-miterlimit:10"
   points="    345.605,201.309 362.165,214.81 392.134,188.598   "
   id="polyline89" />
		
			<text
   transform="translate(323.6865,174.5732)"
   style="font-size:46.5992px;font-family:FredokaOne-Regular;fill:#ffffff"
   id="text91">SSL</text>
	</g>
	<g
   id="g119">
		<path
   style="fill:#feb8a6"
   d="m 66.729,300.802 5.053,2.274 c 0,0 1.671,3.911 2.451,4.814 0.78,0.902 2.144,2.954 1.267,5.631 -0.877,2.677 -2.923,7.743 -2.923,7.743 0,0 -3.462,-5.353 -3.826,-7.743 -0.364,-2.39 -0.364,-4.241 -1.143,-6.093 -0.781,-1.852 -0.879,-6.626 -0.879,-6.626 z"
   id="path95" />
		<path
   style="fill:#ee502d"
   d="m 71.55,224.139 c -4.568,3.297 -18.253,32.026 -23.496,44.375 -1.022,2.407 -1.371,9.25 0.328,12.862 5.096,10.837 16.584,28.1 16.584,28.1 0,0 4.489,-1.939 6.816,-6.401 l -9.57,-26.171 c 0,0 16.769,-18.464 20.487,-26.807 C 88.564,236.936 71.55,224.139 71.55,224.139 Z"
   id="path97" />
		<path
   style="fill:#feb8a6"
   d="m 165.287,194.316 c 0,0 2.44,-5.89 3.003,-7.069 0.563,-1.179 3.607,-5.079 4.629,-5.702 1.022,-0.623 3.405,-1.118 3.53,-0.823 0.125,0.296 1.285,0.892 1.724,1.81 0.474,0.991 0.395,1.741 1.382,3.922 0.644,1.422 -0.847,3.507 -2.098,5.041 -1.251,1.534 -1.772,2.283 -3.586,3.147 -1.813,0.864 -3.585,2.883 -3.731,3.199 z"
   id="path99" />
		<path
   style="fill:#0f1e36"
   d="m 70.536,445.119 v 7.832 h 10.851 c 0,0 -0.189,-3.097 -3.502,-4.143 l -0.054,-3.689 z"
   id="path101" />
		<path
   style="fill:#0f1e36"
   d="m 108.078,445.119 v 7.832 h 10.02 c 0,0 -0.877,-3.086 -3.696,-3.916 l -0.025,-3.916 z"
   id="path103" />
		<path
   style="fill:#0f1e36"
   d="m 75.91,295.315 c 0,0 -5.529,24.905 -5.625,51.661 -0.096,26.756 -0.372,98.122 -0.372,98.122 h 9.642 c 0,0 10.832,-68.691 14.882,-85.891 4.05,-17.2 9.925,-67.523 9.925,-67.523 z"
   id="path105" />
		<path
   style="fill:#0f1e36"
   d="m 94.134,322.645 c 0,0 4.352,40.767 4.757,48.793 0.405,8.027 7.753,73.62 7.753,73.62 0,0 8.961,0.274 8.961,0 0,-0.274 3.111,-69.609 4.348,-89.388 1.238,-19.779 -1.519,-39.28 -1.491,-42.47 0.055,-6.249 -5.596,-21.707 -5.596,-21.707 l -12.003,3.822 z"
   id="path107" />
		<path
   style="fill:#feb8a6"
   d="m 97.792,178.807 c 2.272,0.592 4.021,3.595 4.021,3.595 0,0 1.836,3.459 3.132,6.119 1.296,2.659 4.324,4.146 4.254,4.971 -0.069,0.825 -1.687,1.32 -1.372,2.35 0.315,1.029 0.781,4.131 1.407,6.178 0.626,2.046 -1.343,2.97 -3.21,3.702 -1.867,0.732 -4.232,1.938 -4.404,2.955 -0.171,1.018 1.99,10.238 1.99,10.238 l -24.458,2.437 c 0,0 8.784,-4.246 8.77,-4.944 -0.032,-1.691 -0.223,-4.987 -1.148,-7.743 -1.307,-3.894 -2.893,-8.555 -2.893,-8.555 0,0 -1.726,-8.801 2.534,-13.803 4.26,-5.001 11.377,-7.5 11.377,-7.5 z"
   id="path109" />
		<path
   style="fill:#0f1e36"
   d="m 95.317,184.389 c 0.315,-0.136 4.436,-1.551 6.433,-3.077 1.997,-1.526 1.872,-3.162 1.132,-3.74 -1.479,-1.156 -5.234,-0.812 -10.084,-1.42 -4.85,-0.608 -12.94,1.866 -13.89,8.751 0,0 -4.767,3.871 -3.757,8.226 1.01,4.355 2.424,5.746 5.346,8.015 2.955,2.295 6.276,7.521 6.276,7.521 0,0 2.6,-0.585 5.055,-1.497 2.455,-0.912 3.684,-5.308 4.174,-7.388 0,0 -4.486,-1.684 -4.407,-4.764 0.079,-3.08 3.684,-2.308 5.006,-1.692 1.047,0.488 2.755,2.696 2.755,2.696 l 1.663,-0.348 c 0,0 -1.653,-2.111 -2.229,-4.257 -0.224,-0.834 -0.131,-3.339 -0.388,-4.035 -0.921,-2.484 -3.085,-2.991 -3.085,-2.991 z"
   id="path111" />
		<path
   style="fill:#ee502d"
   d="m 84.14,218.567 c 0,0 2.394,0.966 7.087,0.348 8.168,-1.076 10.696,-2.497 10.696,-2.497 l 17.179,0.3 c 0,0 -0.352,23.943 -0.017,33.786 0.335,9.844 1.425,53.166 1.761,56.447 0,0 -4.229,7.139 -26.052,6.532 -12.678,-0.353 -21.825,-4.014 -21.825,-4.014 0,0 -2.668,-37.637 -3.078,-46.25 -0.41,-8.613 -1.25,-35.111 1.66,-39.08 1.503,-2.052 12.589,-5.572 12.589,-5.572 z"
   id="path113" />
		<path
   style="fill:#ee502d"
   d="m 113.363,216.66 c 0,0 -12.063,19.034 2.545,19.557 13.718,0.491 33.215,-4.52 33.215,-4.52 l 23.436,-30.623 c 0,0 -4.291,-8.1 -7.219,-8.161 l -22.534,22.771 c 10e-4,0.001 -10.454,1.328 -29.443,0.976 z"
   id="path115" />
		<path
   style="fill:#feb8a6"
   d="m 173.259,182.49 c 0.345,-0.302 -0.34,-0.944 -0.34,-0.944 0,0 2.366,-1.857 4.22,-3.323 1.853,-1.465 3.405,-3.448 4.439,-3.879 1.034,-0.431 1.293,0.388 1.034,0.991 -0.259,0.603 -4.679,5.041 -5.172,6.163 -0.493,1.122 0,3.491 0,3.491 l -3.491,-1.164 z"
   id="path117" />
	</g>
	<path
   style="fill:#ffffff"
   d="m 335.284,308.982 h -3.141 v -8.307 c 0,-9.281 -7.551,-16.832 -16.833,-16.832 -9.282,0 -16.833,7.551 -16.833,16.832 v 8.307 h -3.671 c -2.302,0 -4.169,1.866 -4.169,4.169 v 13.02 c 0,13.48 10.928,24.408 24.408,24.408 v 0 c 13.48,0 24.408,-10.928 24.408,-24.408 v -13.02 c 0,-2.302 -1.866,-4.169 -4.169,-4.169 z m -31.447,-8.307 c 0,-6.326 5.146,-11.474 11.473,-11.474 6.327,0 11.473,5.147 11.473,11.474 v 8.307 h -22.947 v -8.307 z m 13.88,28.223 v 7.789 c 0,1.293 -1.048,2.341 -2.341,2.341 h -0.661 c -1.293,0 -2.341,-1.048 -2.341,-2.341 v -7.789 c -2.102,-1.063 -3.49,-3.332 -3.235,-5.902 0.272,-2.748 2.484,-4.99 5.228,-5.294 3.583,-0.397 6.616,2.397 6.616,5.9 0,2.316 -1.331,4.318 -3.266,5.296 z"
   id="path121" />
	<g
   id="g133">
		<path
   style="fill:#519955"
   d="m 432.574,410.978 c 0,0 -19.896,-20.023 -18.77,-31.841 1.126,-11.818 9.448,-4.93 9.448,-4.93 0,0 -6.571,-8.138 -2.965,-17.421 3.605,-9.284 13.67,-3.554 13.67,-3.554 0,0 -1.965,-20.035 10.471,-27.093 12.034,-6.829 15.492,8.808 11.385,20.43 -3.16,8.944 -5.76,11.907 -5.76,11.907 0,0 9.224,-1.107 9.495,6.882 0.366,10.814 -13.998,14.685 -13.998,14.685 0,0 11.74,-1.531 11.96,6.705 0.221,8.235 -24.936,24.23 -24.936,24.23 z"
   id="path123" />
		<path
   style="fill:none;stroke:#0f1e36;stroke-width:1.4173;stroke-miterlimit:10"
   d="m 443.438,346.458 c 0,0 -7.699,32.931 -11.46,75.948"
   id="path125" />
		<path
   style="fill:#6ccb71"
   d="m 432.574,410.978 c 0,0 13.166,-16.266 10.923,-25.936 -2.243,-9.67 -8.188,-3.083 -8.188,-3.083 0,0 4.389,-7.437 0.429,-14.745 -3.96,-7.308 -11.444,-1.496 -11.444,-1.496 0,0 -0.674,-16.805 -11.516,-21.333 -10.491,-4.382 -11.52,8.938 -6.891,18.13 3.562,7.074 5.996,9.253 5.996,9.253 0,0 -7.576,0.06 -6.893,6.707 0.925,8.997 12.965,10.681 12.965,10.681 0,0 -9.656,-0.025 -8.904,6.821 0.752,6.847 23.523,15.001 23.523,15.001 z"
   id="path127" />
		<path
   style="fill:none;stroke:#0f1e36;stroke-width:1.4173;stroke-miterlimit:10"
   d="m 415.871,361.113 c 0,0 9.936,26.463 17.83,61.698"
   id="path129" />
		<rect
   x="412.53101"
   y="404.99799"
   style="fill:#bac6fc"
   width="31.801001"
   height="48.067001"
   id="rect131" />
	</g>
	
		<line
   style="fill:none;stroke:#0f1e36;stroke-width:1.4173;stroke-miterlimit:10"
   x1="458.95801"
   y1="453.065"
   x2="41.466"
   y2="453.065"
   id="line135" />
	<g
   id="g147">
		<path
   style="fill:#bac6fc"
   d="m 289.709,111.852 h -68.637 c -3.779,0 -6.843,-3.064 -6.843,-6.843 v -32.06 c 0,-3.779 3.064,-6.843 6.843,-6.843 h 68.637 c 3.779,0 6.843,3.064 6.843,6.843 v 32.061 c 0,3.778 -3.064,6.842 -6.843,6.842 z"
   id="path137" />
		<path
   style="fill:#ffffff"
   d="m 254.388,82.101 h -26.312 c -1.101,0 -1.993,-0.892 -1.993,-1.993 v 0 c 0,-1.101 0.892,-1.993 1.993,-1.993 h 26.312 c 1.101,0 1.993,0.892 1.993,1.993 v 0 c 0,1.101 -0.892,1.993 -1.993,1.993 z"
   id="path139" />
		<path
   style="fill:#ffffff"
   d="M 281.029,88.889 H 226.8 c -0.396,0 -0.717,-0.321 -0.717,-0.717 v 0 c 0,-0.396 0.321,-0.717 0.717,-0.717 h 54.229 c 0.396,0 0.717,0.321 0.717,0.717 v 0 c 0,0.396 -0.321,0.717 -0.717,0.717 z"
   id="path141" />
		<path
   style="fill:#ffffff"
   d="M 281.029,93.697 H 226.8 c -0.396,0 -0.717,-0.321 -0.717,-0.717 v 0 c 0,-0.396 0.321,-0.717 0.717,-0.717 h 54.229 c 0.396,0 0.717,0.321 0.717,0.717 v 0 c 0,0.396 -0.321,0.717 -0.717,0.717 z"
   id="path143" />
		<path
   style="fill:#ffffff"
   d="m 258.378,98.505 h -31.745 c -0.304,0 -0.551,-0.247 -0.551,-0.551 v -0.332 c 0,-0.304 0.247,-0.551 0.551,-0.551 h 31.745 c 0.304,0 0.551,0.247 0.551,0.551 v 0.332 c 0,0.304 -0.246,0.551 -0.551,0.551 z"
   id="path145" />
	</g>
	<g
   id="g157">
		<g
   id="g155">
			
				<line
   style="fill:none;stroke:#6252d7;stroke-width:0.9921;stroke-linecap:round;stroke-linejoin:round"
   x1="307.37601"
   y1="78.114998"
   x2="308.79401"
   y2="78.114998"
   id="line149" />
			
				<line
   style="fill:none;stroke:#6252d7;stroke-width:0.9921;stroke-linecap:round;stroke-linejoin:round;stroke-dasharray:2.8574, 5.7147"
   x1="314.508"
   y1="78.114998"
   x2="405.944"
   y2="78.114998"
   id="line151" />
			
				<line
   style="fill:none;stroke:#6252d7;stroke-width:0.9921;stroke-linecap:round;stroke-linejoin:round"
   x1="408.802"
   y1="78.114998"
   x2="410.21899"
   y2="78.114998"
   id="line153" />
		</g>
	</g>
</g>
</svg>
