<?xml version="1.0" encoding="UTF-8" standalone="no"?>
<!-- Generator: Adobe Illustrator 27.5.0, SVG Export Plug-In . SVG Version: 6.00 Build 0)  -->

<svg
   version="1.1"
   id="Слой_1"
   x="0px"
   y="0px"
   viewBox="0 0 1200 400"
   xml:space="preserve"
   sodipodi:docname="consult.svg"
   inkscape:version="1.1.2 (0a00cf5339, 2022-02-04)"
   width="1200"
   height="400"
   xmlns:inkscape="http://www.inkscape.org/namespaces/inkscape"
   xmlns:sodipodi="http://sodipodi.sourceforge.net/DTD/sodipodi-0.dtd"
   xmlns="http://www.w3.org/2000/svg"
   xmlns:svg="http://www.w3.org/2000/svg"><defs
   id="defs273" /><sodipodi:namedview
   id="namedview271"
   pagecolor="#ffffff"
   bordercolor="#666666"
   borderopacity="1.0"
   inkscape:pageshadow="2"
   inkscape:pageopacity="0.0"
   inkscape:pagecheckerboard="0"
   showgrid="false"
   inkscape:zoom="0.33991134"
   inkscape:cx="229.4716"
   inkscape:cy="950.24779"
   inkscape:window-width="1920"
   inkscape:window-height="1008"
   inkscape:window-x="0"
   inkscape:window-y="0"
   inkscape:window-maximized="1"
   inkscape:current-layer="g268" />

<g
   id="g268"
   transform="translate(800)">
	<path
   style="fill:#ebf3fa;stroke-width:0.126871"
   d="m 93.87442,315.3301 c 0,0 -37.608013,-58.31914 -19.228143,-118.35831 11.980403,-39.13478 56.920673,-60.5787 82.282813,-39.13478 10.80215,9.13326 45.45777,0.30803 63.96198,-37.5046 35.95799,-73.478796 161.45266,-28.85394 138.6058,83.96149 -11.05623,54.59461 33.64867,56.57908 10.86983,111.15181 z"
   id="path4" />
	<g
   id="g42"
   transform="matrix(0.13029603,0,0,0.14394882,36.566467,56.327164)">
		<g
   id="g14">
			<path
   style="fill:#c8dbf4"
   d="m 666.681,1132.491 c 0,0 -33.92,-39.572 -2.092,-64.708 0,0 23.249,-14.074 42.206,-12.932 0,0 -26.861,45.042 -18.171,49.522 8.69,4.48 26.313,-52.349 26.313,-52.349 0,0 52.906,-5.13 69.925,3.053 0,0 -45.228,37.012 -35.703,39.215 9.525,2.203 58.377,-34.124 58.377,-34.124 0,0 49.24,8.379 46.615,38.417 -2.625,30.038 -19.592,39.313 -27.049,38.516 -7.458,-0.799 -51.079,-17.451 -52.029,-11.341 -0.95,6.11 25.308,26.078 43.695,27.013 0,0 -34.715,38.285 -57.788,27.235 -23.072,-11.049 -25.042,-28.563 -39.424,-35.133 -14.382,-6.569 -26.659,-6.553 -20.722,0.147 5.938,6.699 31.967,13.211 40.192,27.759 8.225,14.549 15.604,24.361 -8.267,20.77 -23.871,-3.591 -62.672,-21.059 -64.375,-41.06 -1.703,-20 -1.703,-20 -1.703,-20 z"
   id="path6" />
			<g
   id="g12">
				<path
   style="fill:#c8dbf4"
   d="m 829.956,1099.396 c 0,0 -133.741,-5.153 -163.275,33.095 0,0 -6.532,19.563 -26.632,37.376 l -3.133,8.539 c 0,0 23.175,-24.436 31.468,-25.914 0,0 -12.969,-47.386 161.572,-53.096 z"
   id="path8" />
				<path
   style="fill:#c8dbf4"
   d="m 640.049,1169.867 c 0,0 -28.706,21.23 -30.7,59.163 l 5.21,0.466 c 0,0 9.168,-39.223 25.74,-54.561 16.572,-15.338 -0.25,-5.068 -0.25,-5.068 z"
   id="path10" />
			</g>
		</g>
		<g
   id="g24">
			<path
   style="fill:#c8dbf4"
   d="m 548.086,1082.725 c 0,0 53.958,-30.216 28.777,-71.224 0,0 -20.144,-25.18 -41.727,-31.655 0,0 11.511,61.152 0,62.59 -11.511,1.438 -7.914,-69.065 -7.914,-69.065 0,0 -56.835,-27.338 -79.138,-25.18 0,0 35.252,59.713 23.741,58.274 -11.511,-1.438 -51.08,-61.871 -51.08,-61.871 0,0 -58.274,-10.792 -67.627,23.741 -9.353,34.533 5.755,51.799 14.389,53.958 8.633,2.158 64.03,1.438 62.591,8.633 -1.439,7.194 -38.85,18.705 -59.713,12.23 0,0 23.022,56.835 53.238,53.957 30.216,-2.877 39.569,-21.583 58.274,-23.021 18.705,-1.438 32.375,3.597 23.022,8.633 -9.353,5.036 -41.007,1.65 -56.116,14.495 -15.108,12.844 -27.338,20.758 0.72,26.513 28.058,5.756 78.418,2.158 88.49,-19.425 10.073,-21.583 10.073,-21.583 10.073,-21.583 z"
   id="path16" />
			<g
   id="g22">
				<path
   style="fill:#c8dbf4"
   d="m 379.739,979.127 c 0,0 151.081,48.921 168.347,103.598 0,0 -0.719,24.461 14.389,52.52 v 10.791 c 0,0 -15.827,-36.691 -24.46,-41.728 -10e-4,0 33.812,-47.483 -158.276,-125.181 z"
   id="path18" />
				<path
   style="fill:#c8dbf4"
   d="m 562.475,1135.244 c 0,0 23.299,35.381 10.017,78.449 l -5.994,-1.61 c 0,0 5.818,-47.438 -6.372,-71.296 -12.191,-23.858 2.349,-5.543 2.349,-5.543 z"
   id="path20" />
			</g>
		</g>
		<g
   id="g34">
			<path
   style="fill:#d4e4f8"
   d="m 633.928,1041.053 c 0,0 -71.126,-39.83 -37.934,-93.886 0,0 26.554,-33.192 55.004,-41.727 0,0 -15.174,80.61 0,82.506 15.173,1.896 10.432,-91.041 10.432,-91.041 0,0 74.919,-36.038 104.318,-33.192 0,0 -46.469,78.713 -31.295,76.816 15.173,-1.896 67.333,-81.558 67.333,-81.558 0,0 76.816,-14.225 89.145,31.295 12.329,45.52 -7.586,68.281 -18.967,71.126 -11.38,2.845 -84.403,1.896 -82.506,11.38 1.896,9.484 51.211,24.657 78.713,16.122 0,0 -30.347,74.92 -70.178,71.126 -39.831,-3.793 -52.159,-28.45 -76.816,-30.347 -24.657,-1.897 -42.676,4.741 -30.347,11.38 12.329,6.639 54.056,2.176 73.971,19.106 19.915,16.931 36.037,27.362 -0.949,34.949 -36.985,7.587 -103.37,2.845 -116.646,-25.605 -13.278,-28.45 -13.278,-28.45 -13.278,-28.45 z"
   id="path26" />
			<g
   id="g32">
				<path
   style="fill:#d4e4f8"
   d="m 855.841,904.491 c 0,0 -199.153,64.488 -221.913,136.562 0,0 0.948,32.244 -18.967,69.229 v 14.226 c 0,0 20.863,-48.366 32.244,-55.005 0,0 -44.572,-62.591 208.636,-165.012 z"
   id="path28" />
				<path
   style="fill:#d4e4f8"
   d="m 614.961,1110.282 c 0,0 -30.713,46.639 -13.204,103.411 l 7.901,-2.123 c 0,0 -7.67,-62.531 8.398,-93.98 16.07,-31.45 -3.095,-7.308 -3.095,-7.308 z"
   id="path30" />
			</g>
		</g>
		<path
   style="fill:#d4e4f8"
   d="m 631.532,1336.807 c 76.947,0 139.325,-62.378 139.325,-139.325 h -278.65 c 0,76.947 62.378,139.325 139.325,139.325 z"
   id="path36" />
		<path
   style="fill:#d4e4f8"
   d="M 772.78,1343.896 H 490.283 v -10e-4 c 0,-9.493 7.696,-17.188 17.189,-17.188 h 248.119 c 9.493,0 17.189,7.695 17.189,17.189 z"
   id="path38" />
		<rect
   x="487.62601"
   y="1197.481"
   style="fill:#9fc1f4"
   width="286.39801"
   height="4.2729998"
   id="rect40" />
	</g>
	<g
   id="g64"
   transform="matrix(0.13029603,0,0,0.14394882,36.566467,56.327164)">
		<g
   id="g46">
			<path
   style="fill:#8cb4f4"
   d="m 1350.451,1796.374 0.689,-0.013 c 5.629,-0.104 9.977,-4.705 9.447,-9.998 l -37.555,-375.068 -32.771,2.924 53.927,377.086 c 0.42,2.946 3.115,5.127 6.263,5.069 z"
   id="path44" />
		</g>
		<g
   id="g50">
			<path
   style="fill:#8cb4f4"
   d="m 988.825,1796.374 -0.689,-0.013 c -5.629,-0.104 -9.977,-4.705 -9.447,-9.998 l 37.556,-375.068 32.771,2.924 -53.927,377.086 c -0.421,2.946 -3.115,5.127 -6.264,5.069 z"
   id="path48" />
		</g>
		<g
   id="g54">
			<path
   style="fill:#8cb4f4"
   d="m 1615.401,1796.374 0.689,-0.013 c 5.629,-0.104 9.977,-4.705 9.446,-9.998 l -37.555,-375.068 -32.771,2.924 53.927,377.086 c 0.422,2.946 3.116,5.127 6.264,5.069 z"
   id="path52" />
		</g>
		<path
   style="fill:#8cb4f4"
   d="m 1000.01,1356.736 -66.664,-329.205 c -8.557,-44.572 28.377,-85.329 76.334,-84.233 l 128.565,2.936 c 44.352,1.013 82.915,30.697 95.241,73.313 l 97.532,337.189 z"
   id="path56" />
		<path
   style="fill:#8cb4f4"
   d="m 1040.34,1356.736 -66.663,-329.205 c -8.557,-44.572 28.377,-85.329 76.334,-84.233 l 128.565,2.936 c 44.352,1.013 82.914,30.697 95.241,73.313 l 97.532,337.189 z"
   id="path58" />
		<path
   style="fill:#8cb4f4"
   d="m 1018.59,1416.778 h 508.658 c 10.219,0 18.581,-8.361 18.581,-18.581 v -22.88 c 0,-10.22 -8.361,-18.581 -18.581,-18.581 H 1000.01 v 41.461 c 0,10.22 8.361,18.581 18.58,18.581 z"
   id="path60" />
		<path
   style="fill:#8cb4f4"
   d="m 1257.29,1416.778 h 324.258 c 8.232,0 14.968,-6.735 14.968,-14.968 v -30.106 c 0,-8.232 -6.735,-14.968 -14.968,-14.968 H 1257.29 c -8.232,0 -14.968,6.735 -14.968,14.968 v 30.106 c 0,8.233 6.735,14.968 14.968,14.968 z"
   id="path62" />
	</g>
	<g
   id="g94"
   transform="matrix(0.13029603,0,0,0.14394882,36.566467,56.327164)">
		<path
   style="fill:#9abfe2"
   d="m 848.238,1352.449 v 11.23 c 0,3.933 -1.273,7.144 -2.827,7.144 H 435.555 c -1.553,0 -2.826,-3.211 -2.826,-7.144 v -11.23 c 0,-3.926 1.273,-7.144 2.826,-7.144 h 409.856 c 1.554,10e-4 2.827,3.218 2.827,7.144 z"
   id="path66" />
		<path
   style="fill:#bad4f4"
   d="m 848.238,1352.449 v 11.23 c 0,3.933 -1.169,7.144 -2.594,7.144 H 520.263 c -1.426,0 -2.594,-3.211 -2.594,-7.144 v -11.23 c 0,-3.926 1.168,-7.144 2.594,-7.144 h 325.381 c 1.426,10e-4 2.594,3.218 2.594,7.144 z"
   id="path68" />
		<rect
   x="453.53101"
   y="1370.826"
   style="fill:#c8dbf4"
   width="290.97299"
   height="424.10599"
   id="rect70" />
		<rect
   x="535.073"
   y="1370.826"
   style="fill:#dfebfd"
   width="290.97299"
   height="424.10599"
   id="rect72" />
		<g
   id="g92">
			<g
   id="g76">
				<path
   style="fill:#b7d3f3"
   d="M 810.414,1771.518 H 550.712 v -388.711 h 259.702 z m -256.898,-2.805 H 807.609 V 1385.611 H 553.516 Z"
   id="path74" />
			</g>
			<g
   id="g80">
				<rect
   x="552.11401"
   y="1511.396"
   style="fill:#b7d3f3"
   width="256.897"
   height="2.8039999"
   id="rect78" />
			</g>
			<g
   id="g84">
				<rect
   x="552.11401"
   y="1642.489"
   style="fill:#b7d3f3"
   width="256.897"
   height="2.8050001"
   id="rect82" />
			</g>
			<path
   style="fill:#b7d3f3"
   d="m 706.887,1407.876 h -47.671 c -2.313,0 -4.206,-1.894 -4.206,-4.207 v 0 c 0,-2.313 1.893,-4.206 4.206,-4.206 h 47.671 c 2.314,0 4.206,1.893 4.206,4.206 v 0 c 0,2.313 -1.893,4.207 -4.206,4.207 z"
   id="path86" />
			<path
   style="fill:#b7d3f3"
   d="m 706.887,1536.072 h -47.671 c -2.313,0 -4.206,-1.893 -4.206,-4.206 v 0 c 0,-2.313 1.893,-4.207 4.206,-4.207 h 47.671 c 2.314,0 4.206,1.894 4.206,4.207 v 0 c 0,2.314 -1.893,4.206 -4.206,4.206 z"
   id="path88" />
			<path
   style="fill:#b7d3f3"
   d="m 706.887,1669.708 h -47.671 c -2.313,0 -4.206,-1.893 -4.206,-4.206 v 0 c 0,-2.313 1.893,-4.206 4.206,-4.206 h 47.671 c 2.314,0 4.206,1.893 4.206,4.206 v 0 c 0,2.313 -1.893,4.206 -4.206,4.206 z"
   id="path90" />
		</g>
	</g>
	<g
   id="g142"
   transform="matrix(0.13029603,0,0,0.14394882,36.566467,56.327164)">
		<path
   style="fill:#c0d8fb"
   d="m 1990.512,608.279 h -184.435 c -8.467,0 -15.394,-6.928 -15.394,-15.394 V 414.874 c 0,-8.467 6.927,-15.394 15.394,-15.394 h 184.435 c 8.467,0 15.395,6.927 15.395,15.394 v 178.011 c -10e-4,8.467 -6.928,15.394 -15.395,15.394 z"
   id="path96" />
		<path
   style="fill:#dfebfd"
   d="m 1982.521,599.233 h -168.454 c -7.733,0 -14.061,-6.327 -14.061,-14.06 V 422.585 c 0,-7.733 6.327,-14.06 14.061,-14.06 h 168.454 c 7.733,0 14.061,6.327 14.061,14.06 v 162.588 c 0,7.733 -6.327,14.06 -14.061,14.06 z"
   id="path98" />
		<g
   id="g128">
			<g
   id="g114">
				<circle
   style="fill:#b7d3f3"
   cx="1898.295"
   cy="427.582"
   r="4.4580002"
   id="circle100" />
				<path
   style="fill:#b7d3f3"
   d="m 1929.811,433.883 c 1.196,-2.152 3.91,-2.927 6.063,-1.731 2.152,1.196 2.928,3.911 1.731,6.063 -1.196,2.152 -3.91,2.928 -6.063,1.731 -2.152,-1.196 -2.928,-3.911 -1.731,-6.063 z"
   id="path102" />
				<path
   style="fill:#b7d3f3"
   d="m 1960.631,458.368 c 2.068,-1.335 4.828,-0.739 6.163,1.33 1.334,2.069 0.739,4.829 -1.33,6.163 -2.068,1.335 -4.828,0.739 -6.163,-1.33 -1.335,-2.069 -0.739,-4.828 1.33,-6.163 z"
   id="path104" />
				<path
   style="fill:#b7d3f3"
   d="m 1975.896,496.267 c 2.462,0 4.458,1.996 4.458,4.458 0,2.462 -1.996,4.458 -4.458,4.458 -2.463,0 -4.459,-1.996 -4.459,-4.458 0,-2.462 1.997,-4.458 4.459,-4.458 z"
   id="path106" />
				<path
   style="fill:#b7d3f3"
   d="m 1968.102,540.248 c 1.741,1.741 1.741,4.564 0,6.305 -1.741,1.741 -4.563,1.741 -6.305,0 -1.741,-1.741 -1.741,-4.563 0,-6.305 1.741,-1.741 4.563,-1.741 6.305,0 z"
   id="path108" />
				<path
   style="fill:#b7d3f3"
   d="m 1940.105,568.317 c 1.742,1.741 1.742,4.564 0,6.305 -1.74,1.741 -4.563,1.741 -6.305,0 -1.741,-1.741 -1.741,-4.564 0,-6.305 1.742,-1.741 4.565,-1.741 6.305,0 z"
   id="path110" />
				<path
   style="fill:#b7d3f3"
   d="m 1893.837,582.785 c 0,-2.462 1.995,-4.459 4.458,-4.459 2.462,0 4.458,1.996 4.458,4.459 0,2.462 -1.996,4.458 -4.458,4.458 -2.463,0 -4.458,-1.996 -4.458,-4.458 z"
   id="path112" />
			</g>
			<g
   id="g126">
				<path
   style="fill:#b7d3f3"
   d="m 1866.637,433.883 c -1.195,-2.152 -3.91,-2.927 -6.063,-1.731 -2.152,1.196 -2.927,3.911 -1.731,6.063 1.196,2.152 3.911,2.928 6.063,1.731 2.152,-1.196 2.927,-3.911 1.731,-6.063 z"
   id="path116" />
				<path
   style="fill:#b7d3f3"
   d="m 1835.817,458.368 c -2.069,-1.335 -4.829,-0.739 -6.163,1.33 -1.335,2.069 -0.74,4.829 1.329,6.163 2.069,1.335 4.829,0.739 6.163,-1.33 1.335,-2.069 0.741,-4.828 -1.329,-6.163 z"
   id="path118" />
				<path
   style="fill:#b7d3f3"
   d="m 1820.552,496.267 c -2.463,0 -4.459,1.996 -4.459,4.458 0,2.462 1.996,4.458 4.459,4.458 2.462,0 4.458,-1.996 4.458,-4.458 0,-2.462 -1.996,-4.458 -4.458,-4.458 z"
   id="path120" />
				<path
   style="fill:#b7d3f3"
   d="m 1828.346,540.248 c -1.741,1.741 -1.741,4.564 0,6.305 1.741,1.741 4.564,1.741 6.305,0 1.742,-1.741 1.742,-4.563 0,-6.305 -1.741,-1.741 -4.564,-1.741 -6.305,0 z"
   id="path122" />
				<path
   style="fill:#b7d3f3"
   d="m 1856.342,568.317 c -1.741,1.741 -1.741,4.564 0,6.305 1.741,1.741 4.563,1.741 6.305,0 1.741,-1.741 1.741,-4.564 0,-6.305 -1.742,-1.741 -4.564,-1.741 -6.305,0 z"
   id="path124" />
			</g>
		</g>
		<g
   id="g140">
			<path
   style="fill:#b7d3f3"
   d="m 1897.093,500.725 c 0,-2.462 1.996,-4.458 4.458,-4.458 2.463,0 4.459,1.996 4.459,4.458 0,2.462 -1.996,4.458 -4.459,4.458 -2.462,0 -4.458,-1.996 -4.458,-4.458 z"
   id="path130" />
			<g
   id="g134">
				<rect
   x="1900.942"
   y="445.02899"
   style="fill:#b7d3f3"
   width="1.2180001"
   height="55.695"
   id="rect132" />
			</g>
			<g
   id="g138">
				
					<rect
   x="1896.984"
   y="487.23099"
   transform="matrix(0.7866,-0.6175,0.6175,0.7866,106.8564,1287.2916)"
   style="fill:#b7d3f3"
   width="37.537998"
   height="3.652"
   id="rect136" />
			</g>
		</g>
	</g>
	<g
   id="g188"
   transform="matrix(0.13029603,0,0,0.14394882,36.566467,56.327164)">
		<g
   id="g186">
			<path
   style="fill:#233862"
   d="m 1443.13,1287.843 c -27.518,47.894 -62.129,66.381 -62.129,66.381 h -143.99 c 0,0 227.112,-102.918 206.119,-66.381 z"
   id="path144" />
			<g
   id="g184">
				<path
   style="fill:#ffb27d"
   d="m 1620.725,1763.662 c -1.557,15.107 19.457,19.01 43.826,20.486 24.371,1.476 16.948,6.391 50.299,12.801 33.35,6.41 46.839,-2.59 49.306,-7.08 2.197,-3.981 -13.271,-10.413 -29.751,-17.671 -2.075,-0.906 -4.151,-1.84 -6.228,-2.774 -18.546,-8.393 -28.822,-25.217 -43.184,-40.866 -13.604,-14.823 -26.165,-61.952 -26.165,-61.952 l -45.305,-10.185 c 0,0 12.296,42.428 16.529,60.53 2.489,10.647 -1.479,22.479 -4.986,31.479 -1.89,4.896 -3.799,9.909 -4.341,15.232 z"
   id="path146" />
				<path
   style="fill:#0f2549"
   d="m 1664.551,1784.148 c 24.371,1.476 16.948,6.391 50.299,12.801 33.35,6.41 46.839,-2.59 49.306,-7.08 2.197,-3.981 -13.271,-10.413 -29.751,-17.671 l -0.262,0.279 c 0,0 -23.581,7.726 -50.621,0.062 -22.041,-6.239 -43.272,-19.678 -58.455,-24.109 -1.891,4.896 -3.8,9.909 -4.342,15.232 -1.557,15.108 19.457,19.01 43.826,20.486 z"
   id="path148" />
				<path
   style="fill:#233862"
   d="m 1552.085,1238.783 c -24.378,-17.118 -185.636,-47.635 -267.93,-56.461 l -90.958,-78.958 c 0,0 -77.422,114.674 -78.036,202.401 -0.286,40.905 18.555,44.968 18.559,44.977 0,0 291.585,2.163 304.367,3.481 20.921,2.157 48.518,54.275 55.415,101.746 6.896,47.471 128.486,240.542 128.486,240.542 0,0 25.357,8.125 37.084,7.437 12.611,-0.74 18.449,-4.965 18.449,-4.965 0,0 -70.458,-421.595 -125.436,-460.2 z"
   id="path150" />
				<path
   style="fill:#ffb27d"
   d="m 1545.304,1763.662 c -1.557,15.107 19.456,19.01 43.826,20.486 24.371,1.476 16.948,6.391 50.297,12.801 33.351,6.41 46.84,-2.59 49.307,-7.08 2.197,-3.981 -13.271,-10.413 -29.752,-17.671 -2.074,-0.906 -4.15,-1.84 -6.227,-2.774 -18.546,-8.393 -28.822,-25.217 -43.184,-40.866 -13.604,-14.823 -26.165,-61.952 -26.165,-61.952 l -45.305,-10.185 c 0,0 12.297,42.428 16.53,60.53 2.489,10.647 -1.479,22.479 -4.986,31.479 -1.89,4.896 -3.799,9.909 -4.341,15.232 z"
   id="path152" />
				<path
   style="fill:#233862"
   d="m 1589.13,1784.148 c 24.371,1.476 16.948,6.391 50.297,12.801 33.351,6.41 46.84,-2.59 49.307,-7.08 2.197,-3.981 -13.271,-10.413 -29.752,-17.671 l -0.261,0.279 c 0,0 -23.581,7.726 -50.621,0.062 -22.041,-6.239 -43.272,-19.678 -58.455,-24.109 -1.891,4.896 -3.799,9.909 -4.341,15.232 -1.557,15.108 19.456,19.01 43.826,20.486 z"
   id="path154" />
				<path
   style="fill:#2b478b"
   d="m 1475.997,1238.783 c -21.179,-14.871 -84.876,-26.4 -155.19,-34.958 -19.441,-2.365 -35.402,-16.5 -40.15,-35.5 v 0 l -163.548,-64.961 c 0,0 -77.422,114.674 -78.036,202.401 -0.286,40.905 18.555,44.968 18.559,44.977 0,0 291.585,2.163 304.367,3.481 20.921,2.157 48.518,54.275 55.415,101.746 6.896,47.471 128.487,240.542 128.487,240.542 0,0 25.356,8.125 37.083,7.437 12.611,-0.74 18.449,-4.965 18.449,-4.965 0,0 -70.459,-421.595 -125.436,-460.2 z"
   id="path156" />
				<path
   style="fill:#233862"
   d="m 1257.149,626.916 c -22.475,-11.802 -56.671,-13.398 -62.227,-14.145 -66.481,-8.935 -106.494,87.669 -108.848,116.941 -4.337,53.954 -32.879,62.18 -73.054,95.969 -80.554,67.752 -56.932,146.481 -12.884,175.733 26.428,17.552 73.011,0 73.011,0 0.659,0.461 127.398,-70.85 189.873,-105.249 93.658,-13.313 51.4,-239.172 -5.871,-269.246 z"
   id="path158" />
				<path
   style="fill:#ffb27d"
   d="m 1243.284,862.93 c 0.291,0.149 -29.54,13.717 -51.075,6.602 -20.258,-6.675 -38.102,-37.175 -37.815,-37.22 8.793,-1.275 17.731,-9.948 20.226,-61.349 l 3.894,0.98 65.468,16.547 c 0,0 -2.59,20.74 -3.657,40.35 -0.904,16.465 -0.72,32.135 2.959,34.09 z"
   id="path160" />
				<path
   style="fill:#ed975d"
   d="m 1243.981,788.491 c 0,0 0,4.268 -2.447,23.563 -37.026,-9.339 -53.353,-21.617 -64.866,-35.669 z"
   id="path162" />
				<path
   style="fill:#ffb27d"
   d="m 1257.948,791.102 c 0,0 -86.574,14.096 -94.521,-39.953 -7.948,-54.049 -24.475,-88.63 30.464,-99.915 54.939,-11.285 68.736,7.756 75.776,25.152 7.041,17.395 10.596,109.657 -11.719,114.716 z"
   id="path164" />
				<path
   style="fill:#233862"
   d="m 1258.031,648.97 c 0,0 -39.315,62.06 -74.412,76.758 -35.097,14.698 -52.34,7.236 -52.34,7.236 0,0 15.967,-24.21 20.127,-56.717 1.226,-9.582 7.469,-17.797 16.437,-21.389 25.186,-10.087 73.905,-25.993 90.188,-5.888 z"
   id="path166" />
				<path
   style="fill:#233862"
   d="m 1223.496,654.969 c 0,0 23.044,11.814 32.534,22.886 9.158,10.685 19.735,39.677 18.98,52.697 0,0 11.367,-62.397 -12.31,-83.846 -25.105,-22.744 -39.204,8.263 -39.204,8.263 z"
   id="path168" />
				<path
   style="fill:#ffffff"
   d="m 1312.544,994.972 c -2.628,175.976 -0.722,139.203 -19.971,155.901 -4.639,4.02 -17.678,6.416 -34.84,7.55 -53.959,3.582 -148.814,-5.308 -152.422,-15.28 -12.446,-34.505 -3.659,-45.225 -14.044,-98.051 -1.083,-5.617 -2.422,-11.699 -3.994,-18.321 -8.658,-36.283 -17.085,-48.626 13.632,-106.915 27.856,-52.8 60.614,-95.693 63.216,-94.147 73.493,43.626 76.009,7.057 76.009,7.057 0,0 73.702,76.37 72.414,162.206 z"
   id="path170" />
				<path
   style="fill:#ffffff"
   d="m 1240.13,832.766 c 0,0 75.216,12.75 84.096,45.31 8.88,32.559 61.136,223.968 61.136,223.968 0,0 -38.443,6.906 -56.203,-10.854 -17.76,-17.76 -61.796,-164.769 -61.796,-164.769 z"
   id="path172" />
				<path
   style="fill:#ebf3ff"
   d="m 1257.733,1158.423 c -53.959,3.582 -148.814,-5.308 -152.422,-15.28 -12.446,-34.505 -3.659,-45.225 -14.044,-98.051 l 26.026,-73.286 c 0,0 -4.303,81.609 19.765,103.075 24.042,21.465 98.54,41.436 110.239,59.371 5.643,8.607 9.354,17.239 10.436,24.171 z"
   id="path174" />
				<path
   style="fill:#ffb27d"
   d="m 1195.909,1124.099 c 0,0 53.235,-11.854 61.825,-7.129 8.59,4.725 29.583,21.93 32.211,27.916 2.629,5.987 -19.123,-4.545 -26.198,-6.442 -4.582,-1.229 -16.643,2.963 -22.613,4.953 -25.125,8.375 -40.52,4.066 -40.52,4.066 z"
   id="path176" />
				<path
   style="fill:#ffffff"
   d="m 1164.121,825.709 c 0,0 -75.344,4.403 -100.089,38.916 -34.833,48.582 -103.932,255.631 -64.331,283.244 44.598,31.098 202.974,8.136 202.974,8.136 0,0 5.271,-24.635 -2.063,-36.551 -7.333,-11.917 -126.498,-31.167 -131.998,-36.666 -5.5,-5.5 68.749,-107.248 68.749,-123.748 10e-4,-16.5 26.758,-133.331 26.758,-133.331 z"
   id="path178" />
				<path
   style="fill:#ffb27d"
   d="m 1260.311,1131.787 c 0,0 11.154,14.388 14.811,16.105 3.657,1.717 6.019,1.288 6.019,1.288 l -7.516,-13.528 z"
   id="path180" />
				<path
   style="fill:#ffb27d"
   d="m 1257.733,1116.97 32.43,15.748 c 0,0 -1.379,2.258 -5.373,2.075 -3.993,-0.182 -14.065,-3.865 -14.065,-3.865 z"
   id="path182" />
			</g>
		</g>
	</g>
	<g
   id="g198"
   transform="matrix(0.13029603,0,0,0.14394882,36.566467,56.327164)">
		<path
   style="fill:#ed7d2b"
   d="M 1377.197,1154.304 H 1226.58 v 0 c 0,-6.631 5.375,-12.007 12.006,-12.007 h 138.611 z"
   id="path190" />
		<polygon
   style="fill:#ed7d2b"
   points="1319.399,1154.304 1376.765,990.267 1609.63,990.267 1553.774,1154.304 "
   id="polygon192" />
		<polygon
   style="fill:#f99746"
   points="1380.195,990.264 1613.059,990.264 1557.204,1154.303 1322.827,1154.303 "
   id="polygon194" />
		<path
   style="fill:#ffffff"
   d="m 1487.512,1070.768 c -1.447,6.268 -7.701,11.349 -13.968,11.349 -6.267,0 -10.175,-5.081 -8.728,-11.349 1.447,-6.267 7.701,-11.348 13.968,-11.348 6.267,0 10.175,5.081 8.728,11.348 z"
   id="path196" />
	</g>
	<g
   id="g214"
   transform="matrix(0.13029603,0,0,0.14394882,36.566467,56.327164)">
		<path
   style="fill:#182d4f"
   d="m 1174.52,1191.208 h 760.488 c 4.291,0 7.771,-3.479 7.771,-7.771 v -21.363 c 0,-4.292 -3.479,-7.771 -7.771,-7.771 H 1174.52 c -4.292,0 -7.771,3.479 -7.771,7.771 v 21.363 c 0,4.292 3.479,7.771 7.771,7.771 z"
   id="path200"
   sodipodi:nodetypes="sssssssss" />
		<g
   id="g204">
			<path
   style="fill:#182d4f"
   d="m 1959.993,1799.119 0.438,-0.054 c 5.228,-0.646 8.93,-5.312 8.269,-10.421 l -90.938,-615.564 -33.292,0.954 106.995,618.893 c 0.685,3.965 4.447,6.696 8.528,6.192 z"
   id="path202" />
		</g>
		<g
   id="g208">
			<path
   style="fill:#182d4f"
   d="m 1140.347,1799.119 -0.438,-0.054 c -5.227,-0.646 -8.93,-5.312 -8.269,-10.421 l 90.938,-615.564 33.292,0.954 -106.996,618.893 c -0.685,3.965 -4.446,6.696 -8.527,6.192 z"
   id="path206" />
		</g>
		<g
   id="g212">
			<path
   style="fill:#182d4f"
   d="m 1350.872,1799.119 -0.438,-0.054 c -5.227,-0.646 -8.93,-5.312 -8.269,-10.421 l 90.938,-615.564 33.292,0.954 -106.995,618.893 c -0.686,3.965 -4.447,6.696 -8.528,6.192 z"
   id="path210" />
		</g>
	</g>
	<path
   style="fill:#2e3552;stroke-width:0.136952"
   d="M 431.4492,316.03819 H 63.197157 c -0.27688,0 -0.50346,-0.25019 -0.50346,-0.55623 v -0.45442 c 0,-0.3059 0.22658,-0.55623 0.50346,-0.55623 H 431.4492 c 0.27686,0 0.50344,0.25033 0.50344,0.55623 v 0.45442 c 0,0.30604 -0.22658,0.55623 -0.50344,0.55623 z"
   id="path216" />
	<g
   id="g246"
   transform="matrix(0.13029603,0,0,0.14394882,36.566467,56.327164)">
		<path
   style="fill:#233862"
   d="m 1627.372,1798.621 h 180.455 c 8.679,-10.592 5.481,-49.675 4.168,-62.436 -0.271,-2.569 -0.457,-4.068 -0.457,-4.068 0,0 -61.622,-49.289 -70.087,-11.548 -0.257,1.185 -0.57,2.341 -0.913,3.483 -10.663,35.3 -58.496,51.344 -86.116,55.812 -17.957,2.912 -24.595,12.247 -27.05,18.757 z"
   id="path218" />
		<path
   style="fill:#233862"
   d="m 2119.767,1212.259 c -6.515,0 -309.109,56.814 -359.161,118.771 -25.004,30.951 -28.721,388.408 -28.721,388.408 0,0 30.935,38.354 97.743,16.084 0,0 48.984,-244.565 45.367,-318.744 -1.001,-20.512 206.747,-2.969 244.771,-12.81 38.024,-9.841 130.929,-92.557 110.458,-132.854 -20.47,-40.297 -110.457,-58.855 -110.457,-58.855 z"
   id="path220" />
		<path
   style="fill:#ffb27d"
   d="m 1761.904,1124.727 c 0,0 -61.038,0.824 -75.473,7.011 -14.435,6.187 -43.717,20.387 -35.881,22.566 7.836,2.179 45.228,-0.898 53.306,0.339 8.079,1.237 18.044,-0.341 22.993,-0.34 4.948,10e-4 28.033,0 28.033,0 z"
   id="path222" />
		<path
   style="fill:#ffb27d"
   d="m 1690.541,978.248 c 0,0 -20.811,-14.871 -41.019,-17.758 -11.525,-1.647 -22.731,-3.7 -29.505,-6.086 -18.647,-6.571 -55.955,-40.117 -53.132,-44.053 9.048,-12.611 52.606,14.077 60.208,11.212 7.602,-2.865 -14.613,-18.661 -6.886,-24.217 4.036,-2.901 13.477,11.642 21.194,13.102 10.44,1.976 18.604,16.72 21.745,17.489 6.118,1.498 32.916,21.428 32.916,21.428 z"
   id="path224" />
		<path
   style="fill:#ed7d2b"
   d="m 2089.627,804.589 c 0,0 -46.462,14.4 -92.24,140.461 -45.779,126.061 -63.163,132.866 -79.804,137.815 -16.641,4.949 -162.7,34.025 -162.7,34.025 v 37.412 h 225.055 c 0,0 84.39,-80.275 109.689,-134.317 25.3,-54.041 0,-215.396 0,-215.396 z"
   id="path226" />
		<path
   style="fill:#1b3051"
   d="m 1547.619,1798.621 h 180.454 c 8.679,-10.592 5.481,-49.675 4.168,-62.436 -0.271,-2.569 -0.456,-4.068 -0.456,-4.068 0,0 -61.622,-49.289 -70.087,-11.548 -0.257,1.185 -0.571,2.341 -0.913,3.483 -10.663,35.3 -58.496,51.344 -86.117,55.812 -17.957,2.912 -24.594,12.247 -27.049,18.757 z"
   id="path228" />
		<path
   style="fill:#2b478b"
   d="m 2030.598,1212.259 c -6.516,0 -309.11,56.814 -359.162,118.771 -25.004,30.951 -28.721,388.408 -28.721,388.408 0,0 30.936,38.354 97.744,16.084 0,0 48.984,-244.565 45.366,-318.744 -1.001,-20.512 206.748,-2.969 244.772,-12.81 38.023,-9.841 130.929,-92.557 110.457,-132.854 -20.47,-40.297 -110.456,-58.855 -110.456,-58.855 z"
   id="path230" />
		<path
   style="fill:#ffb27d"
   d="m 2049.535,844.54 c 21.768,-1.797 44.591,-7.599 64.317,-14 24.657,-8.001 44.534,-19.695 31.726,-42.233 -11.804,-20.771 -30.908,-67.172 -29.618,-105.611 l -45.884,36.977 -31.168,25.114 c 0,0 0.129,14.806 3.535,40.755 0.623,4.73 1.352,9.836 2.211,15.293 0.693,4.408 -1.332,8.811 -5.125,11.163 -0.235,0.146 -0.47,0.292 -0.703,0.439 -15.49,9.732 -7.523,33.608 10.709,32.103 z"
   id="path232" />
		<path
   style="fill:#ed975d"
   d="m 2038.908,738.675 c 0,0 -1.595,5.376 1.146,25.228 27.786,-4.533 53.763,-26.696 53.763,-26.696 -14.146,-3.884 -19.294,-19.17 -29.831,-17.745 z"
   id="path234" />
		<path
   style="fill:#ffb27d"
   d="m 2013.206,743.202 c 0,0 106.885,17.757 116.919,-48.975 10.033,-66.733 30.586,-109.384 -37.233,-123.543 -67.818,-14.159 -84.937,9.307 -93.704,30.767 -8.766,21.459 -13.526,135.412 14.018,141.751 z"
   id="path236" />
		<path
   style="fill:#2b478b"
   d="m 1983.469,571.919 c -4.591,16.069 7.693,35.643 28.313,42.086 30.608,9.565 23.845,47.11 37.619,46.6 13.773,-0.51 19.33,-21.581 31.632,-4.746 10.494,14.359 -8.734,31.384 -7.411,39.258 2.271,13.519 23.447,41.178 42.53,39.791 19.084,-1.388 54.794,-92.081 47.651,-120.138 -7.142,-28.058 -35.71,-57.646 -62.747,-61.727 -27.037,-4.081 -64.586,7.593 -73.258,7.593 -8.672,0 -41.849,2.603 -44.329,11.283 z"
   id="path238" />
		<path
   style="fill:#f99746"
   d="m 2231.649,897.206 c -15.448,-62.179 -58.147,-127.423 -87.018,-127.368 -49.196,0.094 -119.917,13.075 -148.472,83.515 -21.03,51.88 -49.083,350.308 -17.379,371.532 72.473,48.52 240.463,147.562 270.304,46.559 27.344,-92.547 9.377,-266.32 -17.435,-374.238 z"
   id="path240" />
		<path
   style="fill:#f99746"
   d="m 2112.161,835.331 c -14.034,-36.508 -59.302,-49.129 -90.172,-25.112 -16.696,12.99 -37.144,31.488 -61.841,57.788 -91.809,97.767 -110.468,97.159 -127.711,95.14 -17.243,-2.019 -162.924,-32.938 -162.924,-32.938 0,0 -7.461,5.502 -11.851,14.398 -5.863,11.881 -2.912,19.978 -2.912,19.978 -5.706,-3.688 51.64,35.841 80.185,51.604 37.696,20.814 94.498,40.328 117.12,47.738 6.413,2.101 13.328,1.995 19.677,-0.293 33.578,-12.104 146.345,-56.207 238.142,-132.735 24.187,-20.165 15.3,-61.718 2.287,-95.568 z"
   id="path242" />
		<path
   style="fill:#ffffff"
   d="m 2149.584,770.436 -11.139,-25.092 c 0,0 -99.699,8.13 -116.456,64.874 0,0 77.283,-38.565 127.595,-39.782 z"
   id="path244" />
	</g>
	<g
   id="g266"
   transform="matrix(0.13029603,0,0,0.14394882,36.566467,56.327164)">
		<g
   id="g250">
			<path
   style="fill:#8cb4f4"
   d="m 2391.639,1796.374 0.688,-0.013 c 5.629,-0.104 9.978,-4.705 9.447,-9.998 l -37.556,-375.068 -32.771,2.924 53.927,377.086 c 0.422,2.946 3.116,5.127 6.265,5.069 z"
   id="path248" />
		</g>
		<g
   id="g254">
			<path
   style="fill:#8cb4f4"
   d="m 2198.333,1796.374 0.688,-0.013 c 5.63,-0.104 9.978,-4.705 9.447,-9.998 l -37.555,-375.068 -32.771,2.924 53.926,377.086 c 0.422,2.946 3.117,5.127 6.265,5.069 z"
   id="path252" />
		</g>
		<g
   id="g258">
			<path
   style="fill:#73a2e5"
   d="m 1835.433,1796.374 -0.688,-0.013 c -5.629,-0.104 -9.978,-4.705 -9.447,-9.998 l 37.556,-375.068 32.771,2.924 -53.926,377.086 c -0.424,2.946 -3.118,5.127 -6.266,5.069 z"
   id="path256" />
		</g>
		<path
   style="fill:#8cb4f4"
   d="m 2381.025,1358.161 35.645,-313.262 c 4.674,-45.145 -10.434,-89.347 -75.578,-92.768 l -114.606,-6.981 c -67.927,-2.803 -98.595,53.731 -107.194,97.253 l -68.037,344.354 z"
   id="path260" />
		<path
   style="fill:#73a2e5"
   d="m 2361.873,1416.778 h -508.657 c -10.22,0 -18.581,-8.361 -18.581,-18.581 v -22.88 c 0,-10.22 8.361,-18.581 18.581,-18.581 h 527.238 v 41.461 c 0,10.22 -8.361,18.581 -18.581,18.581 z"
   id="path262" />
		<path
   style="fill:#8cb4f4"
   d="m 2366.023,1416.778 h -300.34 c -7.936,0 -14.43,-6.494 -14.43,-14.431 v -31.182 c 0,-7.937 6.494,-14.43 14.43,-14.43 h 314.771 v 45.611 c 0,7.938 -6.493,14.432 -14.431,14.432 z"
   id="path264" />
	</g>
</g>
</svg>
