<?xml version="1.0" encoding="UTF-8" standalone="no"?>
<!-- Generator: Adobe Illustrator 27.5.0, SVG Export Plug-In . SVG Version: 6.00 Build 0)  -->

<svg
   version="1.1"
   x="0px"
   y="0px"
   viewBox="0 0 999.99998 334.66379"
   xml:space="preserve"
   id="svg588"
   sodipodi:docname="fe.svg"
   width="1000"
   height="334.66379"
   inkscape:version="1.1.2 (0a00cf5339, 2022-02-04)"
   xmlns:inkscape="http://www.inkscape.org/namespaces/inkscape"
   xmlns:sodipodi="http://sodipodi.sourceforge.net/DTD/sodipodi-0.dtd"
   xmlns="http://www.w3.org/2000/svg"
   xmlns:svg="http://www.w3.org/2000/svg"><defs
   id="defs592" /><sodipodi:namedview
   id="namedview590"
   pagecolor="#ffffff"
   bordercolor="#666666"
   borderopacity="1.0"
   inkscape:pageshadow="2"
   inkscape:pageopacity="0.0"
   inkscape:pagecheckerboard="0"
   showgrid="false"
   fit-margin-top="0"
   fit-margin-left="0"
   fit-margin-right="0"
   fit-margin-bottom="0"
   inkscape:zoom="2.5698422"
   inkscape:cx="869.31408"
   inkscape:cy="152.14942"
   inkscape:window-width="1920"
   inkscape:window-height="1008"
   inkscape:window-x="0"
   inkscape:window-y="0"
   inkscape:window-maximized="1"
   inkscape:current-layer="g546" />

<g
   id="OBJECTS"
   transform="translate(176.981,-77.736205)">
	<g
   id="g546">
		
		<g
   id="g89"
   transform="matrix(-0.61616153,0,0,0.61616153,841.05874,98.515122)">
			
				<radialGradient
   id="SVGID_00000069361268411155387920000006341149444563297188_"
   cx="95.196297"
   cy="108.6362"
   r="45.328602"
   gradientTransform="matrix(0.9183,-0.3959,0.3472,0.8053,-15.3147,190.2274)"
   gradientUnits="userSpaceOnUse">
				<stop
   offset="0"
   style="stop-color:#3E84FF"
   id="stop44" />
				<stop
   offset="0.3286"
   style="stop-color:#5469FF;stop-opacity:0.6714"
   id="stop46" />
				<stop
   offset="0.7569"
   style="stop-color:#6B4BFF;stop-opacity:0.2431"
   id="stop48" />
				<stop
   offset="1"
   style="stop-color:#7440FF;stop-opacity:0"
   id="stop50" />
			</radialGradient>
			<path
   style="fill:url(#SVGID_00000069361268411155387920000006341149444563297188_)"
   d="m 160.073,218.363 c 10.67,24.752 -3.18,54.517 -30.934,66.481 -27.755,11.964 -58.904,1.598 -69.574,-23.154 -10.67,-24.752 3.18,-54.517 30.934,-66.481 27.754,-11.964 58.904,-1.598 69.574,23.154 z"
   id="path53" />
			
				<linearGradient
   id="SVGID_00000049901604772791393300000006930393671982065551_"
   gradientUnits="userSpaceOnUse"
   x1="76.820503"
   y1="115.4086"
   x2="112.4494"
   y2="408.77802">
				<stop
   offset="0"
   style="stop-color:#3E84FF"
   id="stop55" />
				<stop
   offset="1"
   style="stop-color:#7440FF"
   id="stop57" />
			</linearGradient>
			<path
   style="fill:url(#SVGID_00000049901604772791393300000006930393671982065551_)"
   d="m 135.218,183.706 v 65.933 c 0,2.382 -1.934,4.316 -4.316,4.316 H 47.329 c -2.382,0 -4.31,-1.934 -4.31,-4.316 v -65.933 c 0,-2.376 1.928,-4.31 4.31,-4.31 h 83.573 c 2.383,0 4.316,1.934 4.316,4.31 z"
   id="path60" />
			<path
   style="fill:#002a66"
   d="M 82.008,190.81 H 50.915 c -0.907,0 -1.642,-0.735 -1.642,-1.642 v 0 c 0,-0.907 0.735,-1.642 1.642,-1.642 h 31.093 c 0.907,0 1.642,0.735 1.642,1.642 v 0 c 0,0.907 -0.735,1.642 -1.642,1.642 z"
   id="path62" />
			<path
   style="fill:#eef8ff"
   d="M 82.008,201.928 H 50.915 c -0.907,0 -1.642,-0.735 -1.642,-1.642 v 0 c 0,-0.907 0.735,-1.642 1.642,-1.642 h 31.093 c 0.907,0 1.642,0.735 1.642,1.642 v 0 c 0,0.907 -0.735,1.642 -1.642,1.642 z"
   id="path64" />
			<path
   style="fill:#002a66"
   d="M 92.417,213.046 H 50.915 c -0.907,0 -1.642,-0.735 -1.642,-1.642 v 0 c 0,-0.907 0.735,-1.642 1.642,-1.642 h 41.502 c 0.907,0 1.642,0.735 1.642,1.642 v 0 c 0,0.907 -0.735,1.642 -1.642,1.642 z"
   id="path66" />
			<path
   style="fill:#002a66"
   d="M 92.417,244.19 H 50.915 c -0.907,0 -1.642,-0.735 -1.642,-1.642 v 0 c 0,-0.907 0.735,-1.642 1.642,-1.642 h 41.502 c 0.907,0 1.642,0.735 1.642,1.642 v 0 c 0,0.906 -0.735,1.642 -1.642,1.642 z"
   id="path68" />
			<path
   style="fill:#eef8ff"
   d="m 122.612,244.19 h -20.936 c -0.907,0 -1.642,-0.735 -1.642,-1.642 v 0 c 0,-0.907 0.735,-1.642 1.642,-1.642 h 20.936 c 0.907,0 1.642,0.735 1.642,1.642 v 0 c 10e-4,0.906 -0.735,1.642 -1.642,1.642 z"
   id="path70" />
			<g
   id="g80">
				<path
   style="fill:#ffffff"
   d="m 73.02,220.544 v 4.732 c 0,0.379 0.307,0.686 0.686,0.686 h 2.619 c 0.379,0 0.686,-0.307 0.686,-0.686 v -4.732 c 0,-0.379 0.307,-0.686 0.686,-0.686 h 0.253 c 0.379,0 0.686,0.307 0.686,0.686 v 12.863 c 0,0.379 -0.307,0.686 -0.686,0.686 h -0.253 c -0.379,0 -0.686,-0.307 -0.686,-0.686 v -5.281 c 0,-0.379 -0.307,-0.686 -0.686,-0.686 h -2.619 c -0.379,0 -0.686,0.307 -0.686,0.686 v 5.281 c 0,0.379 -0.307,0.686 -0.686,0.686 H 72.08 c -0.379,0 -0.686,-0.307 -0.686,-0.686 v -12.863 c 0,-0.379 0.307,-0.686 0.686,-0.686 h 0.254 c 0.378,0 0.686,0.307 0.686,0.686 z"
   id="path72" />
				<path
   style="fill:#ffffff"
   d="m 82.151,221.315 h -1.225 c -0.379,0 -0.686,-0.307 -0.686,-0.686 v -0.085 c 0,-0.379 0.307,-0.686 0.686,-0.686 h 5.449 c 0.379,0 0.686,0.307 0.686,0.686 v 0.085 c 0,0.379 -0.307,0.686 -0.686,0.686 H 85.15 c -0.379,0 -0.686,0.307 -0.686,0.686 v 11.405 c 0,0.379 -0.307,0.686 -0.686,0.686 h -0.254 c -0.379,0 -0.686,-0.307 -0.686,-0.686 v -11.405 c -10e-4,-0.378 -0.308,-0.686 -0.687,-0.686 z"
   id="path74" />
				<path
   style="fill:#ffffff"
   d="m 97.176,227.968 c -0.106,-1.88 -0.212,-3.971 -0.148,-5.576 h -0.084 c -0.318,1.584 -0.697,3.273 -1.141,4.942 l -1.753,6.674 h -1.035 l -1.668,-6.4 c -0.465,-1.816 -0.886,-3.569 -1.161,-5.216 h -0.063 c 0,1.668 -0.085,3.654 -0.169,5.682 l -0.245,5.364 c -0.017,0.367 -0.319,0.655 -0.686,0.655 h -0.074 c -0.395,0 -0.709,-0.333 -0.685,-0.727 l 0.763,-12.863 c 0.021,-0.363 0.322,-0.646 0.685,-0.646 h 0.574 c 0.313,0 0.587,0.212 0.665,0.516 l 1.537,5.99 c 0.486,1.88 0.845,3.273 1.14,4.9 h 0.063 c 0.275,-1.627 0.591,-2.978 1.056,-4.9 l 1.476,-5.983 c 0.076,-0.307 0.351,-0.522 0.666,-0.522 h 0.631 c 0.364,0 0.664,0.284 0.685,0.647 l 0.744,12.863 c 0.023,0.394 -0.29,0.726 -0.685,0.726 h -0.14 c -0.366,0 -0.668,-0.287 -0.685,-0.653 z"
   id="path76" />
				<path
   style="fill:#ffffff"
   d="m 101.892,219.858 h 0.254 c 0.379,0 0.686,0.307 0.686,0.686 v 11.49 c 0,0.379 0.307,0.686 0.686,0.686 h 2.64 c 0.379,0 0.686,0.307 0.686,0.686 v 0 c 0,0.379 -0.307,0.686 -0.686,0.686 h -4.266 c -0.379,0 -0.686,-0.307 -0.686,-0.686 v -12.863 c -0.001,-0.378 0.307,-0.685 0.686,-0.685 z"
   id="path78" />
			</g>
			
				<radialGradient
   id="SVGID_00000127042871491044990760000001908714350806268044_"
   cx="122.427"
   cy="242.5473"
   r="8.8143997"
   gradientUnits="userSpaceOnUse">
				<stop
   offset="0"
   style="stop-color:#FFFFFF"
   id="stop82" />
				<stop
   offset="1"
   style="stop-color:#000000"
   id="stop84" />
			</radialGradient>
			<circle
   style="fill:url(#SVGID_00000127042871491044990760000001908714350806268044_)"
   cx="122.427"
   cy="242.547"
   r="8.8140001"
   id="circle87" />
		</g>
		<g
   id="g172"
   transform="matrix(-0.61616153,0,0,0.61616153,841.05874,98.515122)">
			<path
   style="opacity:0.25"
   d="m 135.218,183.706 v 29.12 h -47.19 c -1.993,0 -3.608,-1.616 -3.608,-3.608 v -29.821 h 46.483 c 2.382,-0.001 4.315,1.933 4.315,4.309 z"
   id="path91" />
			
				<linearGradient
   id="SVGID_00000045597002642256505680000016632860070117934756_"
   gradientUnits="userSpaceOnUse"
   x1="171.2527"
   y1="70.146103"
   x2="171.2527"
   y2="182.14529">
				<stop
   offset="0"
   style="stop-color:#3E84FF"
   id="stop93" />
				<stop
   offset="1"
   style="stop-color:#7440FF"
   id="stop95" />
			</linearGradient>
			<path
   style="fill:url(#SVGID_00000045597002642256505680000016632860070117934756_)"
   d="M 251.983,106.911 H 90.522 v -3.537 c 0,-1.675 1.358,-3.032 3.032,-3.032 h 155.397 c 1.675,0 3.032,1.357 3.032,3.032 z"
   id="path98" />
			<path
   style="opacity:0.86;fill:#b3b3ff"
   d="M 248.38,206.724 H 94.125 c -1.99,0 -3.603,-1.613 -3.603,-3.603 v -96.21 h 161.461 v 96.21 c 0,1.989 -1.613,3.603 -3.603,3.603 z"
   id="path100" />
			<g
   id="g108">
				<path
   style="fill:#eef8ff"
   d="m 245.039,103.626 c 0,0.63 -0.511,1.141 -1.141,1.141 -0.63,0 -1.141,-0.511 -1.141,-1.141 0,-0.63 0.511,-1.141 1.141,-1.141 0.63,-0.001 1.141,0.51 1.141,1.141 z"
   id="path102" />
				<path
   style="fill:#eef8ff"
   d="m 238.069,103.626 c 0,0.63 -0.511,1.141 -1.141,1.141 -0.63,0 -1.141,-0.511 -1.141,-1.141 0,-0.63 0.511,-1.141 1.141,-1.141 0.63,-0.001 1.141,0.51 1.141,1.141 z"
   id="path104" />
				<path
   style="fill:#eef8ff"
   d="m 231.098,103.626 c 0,0.63 -0.511,1.141 -1.141,1.141 -0.63,0 -1.141,-0.511 -1.141,-1.141 0,-0.63 0.511,-1.141 1.141,-1.141 0.63,-0.001 1.141,0.51 1.141,1.141 z"
   id="path106" />
			</g>
			<path
   style="fill:#ffffff"
   d="M 189.446,119.292 H 106.82 c -0.907,0 -1.642,-0.735 -1.642,-1.642 v 0 c 0,-0.907 0.735,-1.642 1.642,-1.642 h 82.626 c 0.907,0 1.642,0.735 1.642,1.642 v 0 c 0,0.907 -0.735,1.642 -1.642,1.642 z"
   id="path110" />
			<path
   style="fill:#ffffff"
   d="M 189.446,129.652 H 106.82 c -0.907,0 -1.642,-0.735 -1.642,-1.643 v 0 c 0,-0.907 0.735,-1.642 1.642,-1.642 h 82.626 c 0.907,0 1.642,0.735 1.642,1.642 v 0 c 0,0.907 -0.735,1.643 -1.642,1.643 z"
   id="path112" />
			<path
   style="fill:#002a66"
   d="M 144.848,140.012 H 106.82 c -0.907,0 -1.642,-0.735 -1.642,-1.642 v 0 c 0,-0.907 0.735,-1.642 1.642,-1.642 h 38.028 c 0.907,0 1.642,0.735 1.642,1.642 v 0 c 0,0.906 -0.735,1.642 -1.642,1.642 z"
   id="path114" />
			<path
   style="fill:#002a66"
   d="M 189.446,181.04 H 106.82 c -0.907,0 -1.642,-0.735 -1.642,-1.642 v 0 c 0,-0.907 0.735,-1.642 1.642,-1.642 h 82.626 c 0.907,0 1.642,0.735 1.642,1.642 v 0 c 0,0.907 -0.735,1.642 -1.642,1.642 z"
   id="path116" />
			<path
   style="fill:#002a66"
   d="M 144.848,191.4 H 106.82 c -0.907,0 -1.642,-0.735 -1.642,-1.642 v 0 c 0,-0.907 0.735,-1.642 1.642,-1.642 h 38.028 c 0.907,0 1.642,0.735 1.642,1.642 v 0 c 0,0.907 -0.735,1.642 -1.642,1.642 z"
   id="path118" />
			<g
   id="g128">
				<path
   style="fill:#002a66"
   d="m 223.015,126.12 c -7.66,0 -13.891,6.232 -13.891,13.892 0,7.66 6.232,13.892 13.891,13.892 7.66,0 13.892,-6.232 13.892,-13.892 0,-7.66 -6.232,-13.892 -13.892,-13.892 z m 0,25.425 c -6.359,0 -11.533,-5.174 -11.533,-11.533 0,-6.36 5.174,-11.533 11.533,-11.533 6.36,0 11.534,5.174 11.534,11.533 0,6.359 -5.174,11.533 -11.534,11.533 z"
   id="path120" />
				<path
   style="fill:#002a66"
   d="m 228.782,143.145 c -3.18,3.179 -8.354,3.18 -11.533,0 -0.326,-0.325 -0.853,-0.325 -1.179,0 -0.326,0.326 -0.326,0.854 0,1.179 1.915,1.915 4.43,2.872 6.946,2.872 2.515,0 5.031,-0.958 6.946,-2.872 0.326,-0.326 0.326,-0.854 0,-1.179 -0.327,-0.325 -0.854,-0.325 -1.18,0 z"
   id="path122" />
				<path
   style="fill:#002a66"
   d="m 218.025,139.251 c 0.768,0 1.39,-0.622 1.39,-1.39 0,-0.768 -0.622,-1.39 -1.39,-1.39 -0.768,0 -1.39,0.622 -1.39,1.39 0,0.768 0.622,1.39 1.39,1.39 z"
   id="path124" />
				<path
   style="fill:#002a66"
   d="m 228.006,139.251 c 0.767,0 1.39,-0.622 1.39,-1.39 0,-0.768 -0.622,-1.39 -1.39,-1.39 -0.768,0 -1.39,0.622 -1.39,1.39 0,0.768 0.622,1.39 1.39,1.39 z"
   id="path126" />
			</g>
			<g
   id="g159">
				<g
   id="g148">
					<g
   id="g137">
						
							<linearGradient
   id="SVGID_00000069371204154159762450000009644070219231329213_"
   gradientUnits="userSpaceOnUse"
   x1="134.95689"
   y1="129.3239"
   x2="93.264999"
   y2="187.44">
							<stop
   offset="0"
   style="stop-color:#3E84FF"
   id="stop130" />
							<stop
   offset="1"
   style="stop-color:#7440FF"
   id="stop132" />
						</linearGradient>
						<path
   style="fill:url(#SVGID_00000069371204154159762450000009644070219231329213_)"
   d="m 112.64,169.408 c -0.346,0 -0.693,-0.141 -0.957,-0.424 l -6.109,-6.539 c -0.529,-0.566 -0.529,-1.483 0,-2.048 l 6.213,-6.648 c 0.529,-0.566 1.385,-0.566 1.914,0 0.529,0.565 0.529,1.483 0,2.048 l -5.256,5.624 5.153,5.515 c 0.529,0.566 0.529,1.483 0,2.048 -0.265,0.282 -0.612,0.424 -0.958,0.424 z"
   id="path135" />
					</g>
					<g
   id="g146">
						
							<linearGradient
   id="SVGID_00000111885835987869989120000005946527858637466540_"
   gradientUnits="userSpaceOnUse"
   x1="148.7562"
   y1="139.2233"
   x2="107.0643"
   y2="197.3394">
							<stop
   offset="0"
   style="stop-color:#3E84FF"
   id="stop139" />
							<stop
   offset="1"
   style="stop-color:#7440FF"
   id="stop141" />
						</linearGradient>
						<path
   style="fill:url(#SVGID_00000111885835987869989120000005946527858637466540_)"
   d="m 132.213,169.408 c -0.346,0 -0.692,-0.141 -0.957,-0.424 -0.529,-0.565 -0.529,-1.483 0,-2.048 l 5.154,-5.515 -5.257,-5.624 c -0.529,-0.565 -0.529,-1.482 0,-2.048 0.529,-0.566 1.385,-0.566 1.914,0 l 6.214,6.648 c 0.254,0.272 0.396,0.64 0.396,1.024 0,0.384 -0.143,0.752 -0.396,1.024 l -6.11,6.539 c -0.265,0.282 -0.612,0.424 -0.958,0.424 z"
   id="path144" />
					</g>
				</g>
				<g
   id="g157">
					
						<linearGradient
   id="SVGID_00000095301284598328725730000004331296403281740726_"
   gradientUnits="userSpaceOnUse"
   x1="142.05859"
   y1="134.4187"
   x2="100.3667"
   y2="192.53481">
						<stop
   offset="0"
   style="stop-color:#3E84FF"
   id="stop150" />
						<stop
   offset="1"
   style="stop-color:#7440FF"
   id="stop152" />
					</linearGradient>
					<path
   style="fill:url(#SVGID_00000095301284598328725730000004331296403281740726_)"
   d="m 119.394,171.204 c -0.169,0 -0.342,-0.034 -0.509,-0.107 -0.693,-0.301 -1.025,-1.146 -0.744,-1.887 l 6.064,-15.943 c 0.282,-0.739 1.067,-1.099 1.764,-0.795 0.693,0.301 1.025,1.146 0.744,1.887 l -6.064,15.943 c -0.215,0.561 -0.72,0.902 -1.255,0.902 z"
   id="path155" />
				</g>
			</g>
			<g
   id="g163">
				<path
   style="fill:#002a66"
   d="m 244.475,165.358 h -42.919 c -2.143,0 -3.887,-1.744 -3.887,-3.887 v -42.919 c 0,-2.143 1.744,-3.887 3.887,-3.887 h 42.919 c 2.143,0 3.887,1.744 3.887,3.887 v 42.919 c 0,2.143 -1.744,3.887 -3.887,3.887 z m -42.919,-48.335 c -0.843,0 -1.529,0.686 -1.529,1.529 v 42.919 c 0,0.843 0.686,1.529 1.529,1.529 h 42.919 c 0.843,0 1.529,-0.686 1.529,-1.529 v -42.919 c 0,-0.843 -0.686,-1.529 -1.529,-1.529 z"
   id="path161" />
			</g>
			
				<linearGradient
   id="SVGID_00000088102613113723423310000002828241485985086336_"
   gradientUnits="userSpaceOnUse"
   x1="162.43581"
   y1="153.9032"
   x2="182.0052"
   y2="153.9032">
				<stop
   offset="0"
   style="stop-color:#3E84FF"
   id="stop165" />
				<stop
   offset="1"
   style="stop-color:#7440FF"
   id="stop167" />
			</linearGradient>
			<path
   style="fill:url(#SVGID_00000088102613113723423310000002828241485985086336_)"
   d="m 182.005,154.57 v -1.333 c 0,-0.505 -0.41,-0.915 -0.915,-0.915 h -2.178 c -0.172,-0.728 -0.46,-1.41 -0.844,-2.029 l 1.543,-1.543 c 0.357,-0.357 0.357,-0.937 0,-1.294 l -0.943,-0.943 c -0.357,-0.357 -0.937,-0.357 -1.294,0 l -1.543,1.543 c -0.619,-0.383 -1.301,-0.671 -2.029,-0.844 v -2.178 c 0,-0.505 -0.41,-0.915 -0.915,-0.915 h -1.333 c -0.505,0 -0.915,0.41 -0.915,0.915 v 2.178 c -0.728,0.172 -1.41,0.46 -2.029,0.844 l -1.543,-1.543 c -0.357,-0.357 -0.937,-0.357 -1.294,0 l -0.943,0.943 c -0.357,0.357 -0.357,0.937 0,1.294 l 1.543,1.543 c -0.383,0.619 -0.672,1.301 -0.844,2.029 h -2.178 c -0.505,0 -0.915,0.41 -0.915,0.915 v 1.333 c 0,0.505 0.41,0.915 0.915,0.915 h 2.178 c 0.172,0.728 0.46,1.41 0.844,2.029 l -1.543,1.543 c -0.357,0.357 -0.357,0.937 0,1.294 l 0.943,0.943 c 0.357,0.357 0.937,0.357 1.294,0 l 1.543,-1.543 c 0.619,0.383 1.301,0.671 2.029,0.844 v 2.178 c 0,0.505 0.41,0.915 0.915,0.915 h 1.333 c 0.505,0 0.915,-0.41 0.915,-0.915 v -2.178 c 0.728,-0.172 1.41,-0.46 2.029,-0.844 l 1.543,1.543 c 0.357,0.357 0.937,0.357 1.294,0 l 0.943,-0.943 c 0.357,-0.357 0.357,-0.937 0,-1.294 l -1.543,-1.543 c 0.383,-0.619 0.671,-1.301 0.844,-2.029 h 2.178 c 0.505,0 0.915,-0.41 0.915,-0.915 z m -9.144,3.054 c -2.579,0.427 -4.788,-1.782 -4.362,-4.361 0.258,-1.562 1.518,-2.823 3.081,-3.081 2.579,-0.426 4.787,1.782 4.361,4.361 -0.258,1.562 -1.518,2.823 -3.08,3.081 z"
   id="path170" />
		</g>
		<g
   id="g318"
   transform="matrix(-0.61616153,0,0,0.61616153,841.05874,98.515122)">
			<g
   id="g185">
				
					<linearGradient
   id="SVGID_00000070106968840284159590000007045985440373363104_"
   gradientUnits="userSpaceOnUse"
   x1="345.37329"
   y1="393.5054"
   x2="344.53271"
   y2="373.3313">
					<stop
   offset="0"
   style="stop-color:#3E84FF"
   id="stop174" />
					<stop
   offset="1"
   style="stop-color:#7440FF"
   id="stop176" />
				</linearGradient>
				<path
   style="fill:url(#SVGID_00000070106968840284159590000007045985440373363104_)"
   d="m 330.5,392.69 24.763,-1.391 c 0,0 9.858,-0.124 1.268,-5.177 -1.515,-0.89 -2.859,-1.887 -4.056,-2.918 -3.891,-3.378 -6.155,-7.187 -7.175,-9.191 l -4.864,1.279 -8.502,2.24 c -0.077,0.018 -0.147,0.035 -0.224,0.047 -0.615,5.047 -1.21,15.111 -1.21,15.111 z"
   id="path179" />
				<path
   style="fill:#010d19"
   d="m 363.477,395.09 c 0,0 -0.502,-8.209 -6.947,-8.968 -6.445,-0.759 -7.184,5.509 -7.184,5.509 l -18.846,-1.057 -0.503,4.516 z"
   id="path181" />
				<path
   style="fill:#010d19"
   d="m 340.434,375.291 c 0.755,2.458 2.871,8.036 6.869,9.693 1.94,-1.551 3.927,-1.816 5.171,-1.781 -3.891,-3.378 -6.155,-7.187 -7.175,-9.191 z"
   id="path183" />
			</g>
			
				<linearGradient
   id="SVGID_00000074436849389487180480000005309361915422801593_"
   gradientUnits="userSpaceOnUse"
   x1="322.35599"
   y1="259.42099"
   x2="316.67068"
   y2="353.41641">
				<stop
   offset="0"
   style="stop-color:#2B2B2B"
   id="stop187" />
				<stop
   offset="1"
   style="stop-color:#111111"
   id="stop189" />
			</linearGradient>
			<path
   style="fill:url(#SVGID_00000074436849389487180480000005309361915422801593_)"
   d="m 346.077,372.16 -16.579,1.769 c 0,0 -6.509,-51.989 -12.375,-73.468 -1.893,4.434 -5.707,20.435 -9.268,36.377 -4.151,18.613 -7.959,37.156 -7.959,37.156 0,0 -9.504,1.067 -14.81,-3.231 1.633,-29.656 13.118,-88.85 14.622,-97.511 0.012,0.071 0.029,0.141 0.047,0.212 0.106,0.395 0.224,0.719 0.366,0.973 0.077,0.136 0.183,0.277 0.313,0.419 0,0 0.006,0.006 0.018,0.023 1.374,1.504 5.495,3.154 11.249,3.337 6.197,0.194 14.292,-1.315 22.911,-6.562 0.201,-0.401 0.224,-1.356 0.112,-2.73 0.289,0.283 0.843,3.767 1.551,9.298 3.245,25.394 9.802,93.938 9.802,93.938 z"
   id="path192" />
			
				<linearGradient
   id="SVGID_00000047053118287084464460000005087468946794198916_"
   gradientUnits="userSpaceOnUse"
   x1="288.7767"
   y1="259.39389"
   x2="296.6098"
   y2="227.5565">
				<stop
   offset="0"
   style="stop-color:#3E84FF"
   id="stop194" />
				<stop
   offset="1"
   style="stop-color:#7440FF"
   id="stop196" />
			</linearGradient>
			<path
   style="fill:url(#SVGID_00000047053118287084464460000005087468946794198916_)"
   d="m 299.517,242.977 -1.161,4.528 -0.083,0.313 -0.277,1.073 v 0.006 c 0,0 -2.14,0.159 -4.982,-0.755 -1.356,-0.436 -2.877,-1.114 -4.398,-2.17 -0.377,-0.265 -0.755,-0.548 -1.132,-0.861 0.525,-6.114 2.518,-16.897 3.166,-20.329 0.13,-0.69 0.206,-1.079 0.206,-1.079 z"
   id="path199" />
			
				<linearGradient
   id="SVGID_00000139274034138923226460000013587617354790560165_"
   gradientUnits="userSpaceOnUse"
   x1="295.39301"
   y1="241.5576"
   x2="283.45401"
   y2="275.66919">
				<stop
   offset="0"
   style="stop-color:#F78B7C"
   id="stop201" />
				<stop
   offset="1"
   style="stop-color:#FFB7A9"
   id="stop203" />
			</linearGradient>
			<path
   style="fill:url(#SVGID_00000139274034138923226460000013587617354790560165_)"
   d="m 299.895,248.283 c 0,0 -1.238,5.471 -2.818,10.53 -1.126,3.573 -2.417,6.945 -3.573,8.042 -2.801,2.653 -9.999,7.01 -9.999,7.01 l -4.168,-8.62 6.161,-5.401 2.423,-10.789 0.696,-3.083 c 4.705,3.266 9.38,2.924 9.38,2.924 l 0.277,-1.079 z"
   id="path206" />
			
				<linearGradient
   id="SVGID_00000042715709473241011100000008836807196913025694_"
   gradientUnits="userSpaceOnUse"
   x1="302.18451"
   y1="202.7195"
   x2="318.35599"
   y2="267.91061">
				<stop
   offset="0"
   style="stop-color:#3E84FF"
   id="stop208" />
				<stop
   offset="1"
   style="stop-color:#7440FF"
   id="stop210" />
			</linearGradient>
			<path
   style="fill:url(#SVGID_00000042715709473241011100000008836807196913025694_)"
   d="m 334.609,271.654 c -8.62,5.247 -16.715,6.757 -22.911,6.562 -5.784,-0.183 -9.917,-1.851 -11.267,-3.361 -0.13,-0.142 -0.236,-0.283 -0.313,-0.419 -0.141,-0.254 -0.259,-0.578 -0.366,-0.973 -0.018,-0.071 -0.035,-0.142 -0.047,-0.212 -0.448,-1.91 -0.519,-5.129 -0.495,-8.525 0,-0.519 0.006,-1.038 0.012,-1.562 0.018,-1.409 0.041,-2.824 0.053,-4.156 v -0.018 c 0.018,-1.769 0.012,-3.39 -0.071,-4.693 -0.029,-0.578 -0.077,-1.091 -0.142,-1.521 -0.03,-0.159 -0.053,-0.313 -0.082,-0.448 -0.012,-0.047 -0.024,-0.1 -0.035,-0.153 -0.171,-0.755 -0.501,-1.887 -0.949,-3.278 v -0.006 c -0.401,-1.279 -0.902,-2.771 -1.439,-4.387 -0.159,-0.472 -0.318,-0.955 -0.483,-1.45 -0.489,-1.468 -1.008,-3.019 -1.521,-4.575 -0.401,-1.22 -0.802,-2.447 -1.185,-3.65 -0.153,-0.489 -0.306,-0.973 -0.454,-1.45 -1.014,-3.272 -1.857,-6.267 -2.223,-8.343 -0.012,-0.088 -0.029,-0.171 -0.041,-0.253 -0.035,-0.224 -0.065,-0.43 -0.089,-0.631 0.094,-0.147 0.195,-0.301 0.295,-0.448 0.071,-0.106 0.142,-0.212 0.212,-0.313 1.839,-2.635 4.351,-4.982 6.609,-6.798 0.648,-0.519 1.279,-0.996 1.863,-1.421 0.472,-0.348 0.914,-0.66 1.321,-0.937 l 0.041,-0.024 2.659,-1.515 c 3.007,-0.501 5.813,-0.696 8.342,-0.708 3.455,-0.018 6.385,0.312 8.584,0.678 2.783,0.466 4.392,1.002 4.392,1.002 l 0.135,1.722 0.124,1.527 0.702,8.696 0.124,1.527 0.053,0.678 c 0,0 0,0.006 0.006,0.024 0.077,0.307 0.843,3.349 1.887,7.706 0.118,0.478 0.236,0.973 0.36,1.48 0.607,2.529 1.279,5.406 1.969,8.402 0.106,0.489 0.218,0.979 0.33,1.474 0.637,2.806 1.268,5.684 1.84,8.437 0.1,0.501 0.201,0.996 0.307,1.486 0.637,3.143 1.179,6.079 1.551,8.502 0.083,0.525 0.153,1.032 0.218,1.504 0.106,0.772 0.183,1.474 0.236,2.093 0.112,1.372 0.089,2.327 -0.112,2.728 z"
   id="path213" />
			<g
   style="opacity:0.35"
   id="g227">
				<path
   style="opacity:0.25"
   d="m 325.141,216.917 -34.449,8.118 c -0.012,-0.088 -0.029,-0.171 -0.041,-0.253 -0.035,-0.224 -0.065,-0.43 -0.089,-0.631 0.094,-0.147 0.195,-0.301 0.295,-0.448 0.071,-0.106 0.142,-0.212 0.212,-0.313 l 33.948,-8.001 z"
   id="path215" />
				<path
   style="opacity:0.25"
   d="m 325.966,227.141 -32.598,7.688 c -0.153,-0.489 -0.306,-0.973 -0.454,-1.45 l 32.928,-7.765 z"
   id="path217" />
				<path
   style="opacity:0.25"
   d="m 328.271,237.028 -31.714,7.476 c -0.159,-0.472 -0.318,-0.955 -0.483,-1.45 l 31.837,-7.505 c 0.119,0.477 0.236,0.972 0.36,1.479 z"
   id="path219" />
				<path
   style="opacity:0.25"
   d="m 330.571,246.904 -31.366,7.393 c -0.029,-0.578 -0.077,-1.091 -0.142,-1.521 l 31.177,-7.346 c 0.107,0.489 0.219,0.978 0.331,1.474 z"
   id="path221" />
				<path
   style="opacity:0.25"
   d="m 332.717,256.826 -33.506,7.9 c 0,-0.519 0.006,-1.038 0.012,-1.562 l 33.188,-7.824 c 0.099,0.502 0.2,0.997 0.306,1.486 z"
   id="path223" />
				<path
   style="opacity:0.25"
   d="m 334.486,266.832 -34.054,8.024 c -0.13,-0.142 -0.236,-0.283 -0.313,-0.419 -0.141,-0.254 -0.259,-0.578 -0.366,-0.973 l 34.514,-8.136 c 0.083,0.525 0.154,1.032 0.219,1.504 z"
   id="path225" />
			</g>
			<path
   style="opacity:0.25"
   d="m 320.489,212.667 c -1.61,4.487 -5.141,10.76 -12.369,11.037 -8.637,0.336 -10.188,-4.717 -10.442,-7.11 0.648,-0.519 1.279,-0.996 1.863,-1.421 0.472,-0.348 0.914,-0.66 1.321,-0.937 l 0.041,-0.024 2.659,-1.515 c 3.007,-0.501 5.813,-0.696 8.342,-0.708 3.455,-0.018 6.386,0.312 8.585,0.678 z"
   id="path229" />
			<g
   id="g240">
				
					<linearGradient
   id="SVGID_00000145043956207911472690000012724357402729621922_"
   gradientUnits="userSpaceOnUse"
   x1="301.36331"
   y1="201.1646"
   x2="298.14169"
   y2="218.03081">
					<stop
   offset="0"
   style="stop-color:#F78B7C"
   id="stop231" />
					<stop
   offset="1"
   style="stop-color:#FFB7A9"
   id="stop233" />
				</linearGradient>
				<path
   style="fill:url(#SVGID_00000145043956207911472690000012724357402729621922_)"
   d="m 308.119,219.093 c -0.684,0.654 -1.539,1.038 -2.535,0.861 -1.851,-0.324 -3.007,-1.586 -3.655,-2.594 -0.407,-0.631 -0.619,-1.167 -0.678,-1.332 -0.012,-0.03 -0.018,-0.047 -0.018,-0.047 0,0 -0.431,0.242 -1.503,0.053 -0.053,-0.006 -0.106,-0.018 -0.159,-0.029 -0.035,-0.006 -0.053,-0.012 -0.053,-0.012 -0.814,-0.165 -1.958,-0.572 -3.502,-1.439 -2.276,-1.279 -4.086,-3.225 -5.454,-5.123 -0.301,-0.419 -0.584,-0.837 -0.843,-1.244 -0.295,-0.46 -0.56,-0.908 -0.796,-1.332 5.182,-0.519 8.596,-4.204 10.123,-8.602 0,0 2.842,4.675 3.473,4.675 0.631,0 1.138,-4.422 3.03,-4.481 0.324,-0.012 0.595,0.065 0.825,0.212 1.103,0.702 1.091,3.095 0.189,5.595 -0.572,1.58 1.769,2.907 2.276,3.036 0.03,0.006 0.071,-0.018 0.13,-0.077 0.13,1.663 0.419,3.484 0.684,4.835 0.142,0.713 0.277,1.297 0.383,1.651 0.324,1.108 -0.384,3.938 -1.917,5.394 z"
   id="path236" />
				<path
   style="fill:#ffb7a9"
   d="m 294.553,201.553 c -0.1,0.218 -1.769,3.602 -5.707,5.171 -0.165,-0.295 -0.313,-0.578 -0.448,-0.843 3.243,-1.51 5.984,-4.163 6.155,-4.328 z"
   id="path238" />
			</g>
			
				<linearGradient
   id="SVGID_00000023985543692094999100000002416579124519996302_"
   gradientUnits="userSpaceOnUse"
   x1="295.3627"
   y1="186.99319"
   x2="298.7738"
   y2="205.3755">
				<stop
   offset="0"
   style="stop-color:#2B2B2B"
   id="stop242" />
				<stop
   offset="1"
   style="stop-color:#111111"
   id="stop244" />
			</linearGradient>
			<path
   style="fill:url(#SVGID_00000023985543692094999100000002416579124519996302_)"
   d="m 312.742,196.995 c -0.802,5 -3.125,9.587 -3.773,10.217 -0.059,0.059 -0.1,0.083 -0.13,0.077 -0.507,-0.13 -2.848,-1.456 -2.276,-3.036 1.085,-3.013 0.884,-5.872 -1.014,-5.807 -1.893,0.059 -2.4,4.481 -3.03,4.481 -0.631,0 -3.473,-4.675 -3.473,-4.675 -1.527,4.398 -4.941,8.083 -10.123,8.602 -0.183,0.024 -0.365,0.035 -0.554,0.047 0.165,-0.059 0.324,-0.118 0.478,-0.177 3.938,-1.568 5.607,-4.952 5.707,-5.171 -0.171,0.165 -2.913,2.818 -6.155,4.328 -1.574,0.725 -3.26,1.185 -4.829,0.967 -0.118,-0.153 -0.236,-0.313 -0.336,-0.478 -4.557,-6.786 -1.279,-20.942 5.106,-23.654 0,0 -1.657,-0.478 -3.65,-1.946 2.842,0.619 10.094,-1.893 12.605,-1.563 2.506,0.33 3.314,2.323 3.314,2.323 0,0 3.172,-2.859 6.774,-1.657 -1.769,-0.065 -3.095,2.081 -3.095,2.081 0,0 6.763,1.515 8.402,8.655 0.464,2.018 0.399,4.24 0.052,6.386 z"
   id="path247" />
			<path
   style="opacity:0.25"
   d="m 308.119,219.093 c -0.684,0.654 -1.539,1.038 -2.535,0.861 -1.851,-0.324 -3.007,-1.586 -3.655,-2.594 -0.407,-0.631 -0.619,-1.167 -0.678,-1.332 1.244,-0.289 2.907,-1.315 4.186,-4.493 v -0.006 c 0,-0.006 0.006,-0.006 0.006,-0.012 1.185,0.872 0.984,6.202 2.676,7.576 z"
   id="path249" />
			<g
   id="g255">
				<path
   style="opacity:0.25"
   d="m 288.846,206.724 c -0.165,-0.295 -0.313,-0.578 -0.448,-0.843 3.243,-1.509 5.984,-4.162 6.155,-4.328 -0.1,0.218 -1.769,3.602 -5.707,5.171 z"
   id="path251" />
				<path
   style="opacity:0.25"
   d="m 306.374,198.658 c -3.002,0.985 -1.76,5.823 -3.381,6.071 -2.022,0.318 -2.998,-2.686 -2.998,-2.686 0,0 -1.268,2.529 -5.118,4.681 -1.71,0.955 -3.591,1.333 -5.159,1.462 -0.295,-0.46 -0.56,-0.908 -0.796,-1.332 5.182,-0.519 8.596,-4.204 10.123,-8.602 0,0 2.842,4.675 3.473,4.675 0.631,0 1.138,-4.422 3.03,-4.481 0.325,-0.012 0.596,0.065 0.826,0.212 z"
   id="path253" />
			</g>
			<path
   style="opacity:0.25;fill:#ffffff"
   d="m 305.437,211.535 c -1.279,3.178 -2.942,4.204 -4.186,4.493 -0.012,-0.03 -0.018,-0.047 -0.018,-0.047 0,0 -0.472,0.265 -1.663,0.024 -0.035,-0.006 -0.053,-0.012 -0.053,-0.012 -0.814,-0.165 -1.958,-0.572 -3.502,-1.439 -2.276,-1.279 -4.086,-3.225 -5.454,-5.123 0.383,-0.041 0.926,0.077 1.616,0.619 1.562,1.232 2.983,4.074 6.538,4.835 3.532,0.759 5.814,-2.018 6.722,-3.35 z"
   id="path257" />
			<path
   style="opacity:0.25"
   d="m 305.571,200.496 c 0,0 -0.608,1.769 -0.336,2.337 0.273,0.569 2.2,-1.168 0.336,-2.337 z"
   id="path259" />
			<path
   style="opacity:0.25"
   d="m 312.742,196.995 c -0.802,5 -3.125,9.587 -3.773,10.217 -0.059,0.059 -0.1,0.083 -0.13,0.077 -0.507,-0.13 -2.848,-1.456 -2.276,-3.036 1.085,-3.013 0.884,-5.872 -1.014,-5.807 -1.893,0.059 -2.4,4.481 -3.03,4.481 -0.631,0 -3.473,-4.675 -3.473,-4.675 -1.527,4.398 -4.941,8.083 -10.123,8.602 -0.183,0.024 -0.365,0.035 -0.554,0.047 0.165,-0.059 0.324,-0.118 0.478,-0.177 3.938,-1.568 5.607,-4.952 5.707,-5.171 -0.171,0.165 -2.913,2.818 -6.155,4.328 -1.574,0.725 -3.26,1.185 -4.829,0.967 -0.118,-0.153 -0.236,-0.313 -0.336,-0.478 3.514,-2.358 12.269,-8.897 12.116,-15.412 1.704,3.219 1.327,7.293 1.327,7.293 0,0 1.604,-4.263 1.321,-7.865 2.565,3.602 3.254,6.733 3.254,6.733 0,0 0.348,-3.602 4.516,-4.269 4.174,-0.66 4.345,5.401 4.345,5.401 0,0 1.439,-2.176 -0.171,-6.061 1.09,0.637 2.039,2.547 2.8,4.805 z"
   id="path261" />
			<path
   style="fill:#0049b2"
   d="m 307.004,222.069 c -5.149,0.653 -6.773,-4.208 -7.275,-6.036 1.073,0.189 1.503,-0.053 1.503,-0.053 0,0 0.006,0.018 0.018,0.047 0.059,0.165 0.271,0.702 0.678,1.332 0.648,1.008 1.804,2.27 3.655,2.594 0.996,0.177 1.851,-0.206 2.535,-0.861 1.533,-1.456 2.24,-4.286 1.916,-5.395 -0.106,-0.354 -0.242,-0.937 -0.383,-1.651 0.772,-0.035 1.527,-0.053 2.252,-0.059 0.196,4.023 -0.414,9.513 -4.899,10.082 z"
   id="path263" />
			<path
   style="opacity:0.25"
   d="m 299.276,258.99 c 0.029,-2.836 -0.006,-5.306 -0.295,-6.662 -0.159,-0.749 -0.507,-1.94 -0.985,-3.431 0,0 -2.14,0.159 -4.982,-0.755 0.454,-1.639 0.404,-4.85 0.486,-8.859 0.035,-1.615 -0.127,-4.029 -0.486,-5.485 1.916,4.328 4.451,9.245 5.342,13.708 0.955,4.804 1.285,9.079 0.92,11.484 z"
   id="path265" />
			<path
   style="opacity:0.25"
   d="m 334.609,271.654 c -8.62,5.247 -16.715,6.757 -22.911,6.562 7.364,-3.084 5.206,-10.506 -1.586,-11.868 6.833,-5.053 12.338,-9.536 11.232,-25.895 -0.565,-8.357 0.631,-15.288 0.631,-15.288 l 4.05,2.677 c 0.289,1.144 10.206,40.576 8.584,43.812 z"
   id="path267" />
			
				<linearGradient
   id="SVGID_00000095301638274950711050000004820995560217904554_"
   gradientUnits="userSpaceOnUse"
   x1="337.49631"
   y1="248.2019"
   x2="323.5986"
   y2="223.69141">
				<stop
   offset="0"
   style="stop-color:#3E84FF"
   id="stop269" />
				<stop
   offset="1"
   style="stop-color:#7440FF"
   id="stop271" />
			</linearGradient>
			<path
   style="fill:url(#SVGID_00000095301638274950711050000004820995560217904554_)"
   d="m 334.786,233.379 c -0.018,0.141 -0.059,0.277 -0.124,0.419 -0.366,0.796 -1.492,1.586 -2.883,2.311 -2.453,1.268 -5.731,2.311 -7.175,2.742 -0.46,0.136 -0.731,0.212 -0.731,0.212 0,0 -4.092,-8.124 -4.823,-15.205 -0.466,-4.499 0.424,-8.579 4.587,-9.899 0.383,-0.118 0.802,-0.218 1.244,-0.289 0,0 5.731,3.184 9.722,18.961 0.059,0.247 0.124,0.494 0.183,0.748 z"
   id="path274" />
			
				<linearGradient
   id="SVGID_00000107577521546634549440000006265663105178279040_"
   gradientUnits="userSpaceOnUse"
   x1="333.04749"
   y1="218.8456"
   x2="311.4436"
   y2="271.9079">
				<stop
   offset="0"
   style="stop-color:#F78B7C"
   id="stop276" />
				<stop
   offset="1"
   style="stop-color:#FFB7A9"
   id="stop278" />
			</linearGradient>
			<path
   style="fill:url(#SVGID_00000107577521546634549440000006265663105178279040_)"
   d="m 338.524,254.727 c -1.639,3.16 -27.793,15.919 -27.793,15.919 0,0 -2.022,3.791 -5.684,4.546 -3.667,0.761 -6.444,-1.262 -8.59,-1.385 -2.152,-0.13 -5.182,2.146 -5.182,2.146 0,0 -0.371,0.023 -0.684,-0.136 -0.389,-0.201 -0.684,-0.696 -0.03,-1.887 2.824,-5.053 13.219,-5.937 13.979,-6.314 0.36,-0.177 5.613,-4.381 11.043,-8.755 6.055,-4.87 12.328,-9.958 12.328,-9.958 l -2.506,-7.611 -0.802,-2.441 c 2.264,-0.672 9.044,-2.854 10.058,-5.053 0.259,0.879 0.637,2.164 1.055,3.673 1.623,5.86 3.916,15.134 2.808,17.256 z"
   id="path281" />
			<path
   style="opacity:0.25"
   d="m 335.718,237.47 c -3.367,3.154 -7.959,3.744 -10.312,3.82 l -0.802,-2.441 c 2.264,-0.672 9.044,-2.854 10.058,-5.053 0.26,0.88 0.637,2.165 1.056,3.674 z"
   id="path283" />
			<path
   style="opacity:0.25"
   d="m 298.945,252.174 c -0.489,1.928 -1.144,4.322 -1.869,6.639 -3.219,-2.022 -7.087,-6.934 -9.156,-9.758 l 0.696,-3.083 c 4.705,3.266 9.38,2.924 9.38,2.924 0.448,1.392 0.778,2.524 0.949,3.278 z"
   id="path285" />
			<path
   style="fill:#a2a5aa"
   d="m 345.597,376.409 -14.114,1.197 c -1.298,0.11 -2.44,-0.853 -2.55,-2.151 l -0.028,-0.334 c -0.11,-1.298 0.853,-2.44 2.152,-2.55 l 14.114,-1.197 c 1.298,-0.11 2.44,0.853 2.55,2.152 l 0.028,0.334 c 0.109,1.297 -0.854,2.439 -2.152,2.549 z"
   id="path287" />
			<path
   style="fill:#a2a5aa"
   d="m 301.652,375.733 c -0.295,1.132 -1.321,1.881 -2.447,1.881 -0.142,0 -0.277,-0.012 -0.419,-0.035 -0.077,-0.012 -0.147,-0.029 -0.224,-0.047 l -13.366,-3.52 -0.69,-0.183 c -1.35,-0.36 -2.152,-1.739 -1.798,-3.089 0.301,-1.132 1.321,-1.887 2.441,-1.887 0.212,0 0.43,0.029 0.648,0.088 l 14.056,3.703 c 1.351,0.36 2.152,1.739 1.799,3.089 z"
   id="path289" />
			<g
   id="g302">
				
					<linearGradient
   id="SVGID_00000142869088098018646030000017806990553182113189_"
   gradientUnits="userSpaceOnUse"
   x1="285.42661"
   y1="396.00311"
   x2="284.58609"
   y2="375.82889">
					<stop
   offset="0"
   style="stop-color:#3E84FF"
   id="stop291" />
					<stop
   offset="1"
   style="stop-color:#7440FF"
   id="stop293" />
				</linearGradient>
				<path
   style="fill:url(#SVGID_00000142869088098018646030000017806990553182113189_)"
   d="m 299.995,392.69 -24.763,-1.391 c 0,0 -9.858,-0.124 -1.268,-5.177 1.515,-0.89 2.859,-1.887 4.056,-2.918 3.891,-3.378 6.155,-7.187 7.175,-9.191 l 4.864,1.279 8.502,2.24 c 0.077,0.018 0.147,0.035 0.224,0.047 0.614,5.047 1.21,15.111 1.21,15.111 z"
   id="path296" />
				<path
   style="fill:#010d19"
   d="m 267.018,395.09 c 0,0 0.502,-8.209 6.947,-8.968 6.445,-0.76 7.184,5.509 7.184,5.509 l 18.846,-1.057 0.503,4.516 z"
   id="path298" />
				<path
   style="fill:#010d19"
   d="m 290.06,375.291 c -0.755,2.458 -2.871,8.036 -6.869,9.693 -1.94,-1.551 -3.927,-1.816 -5.171,-1.781 3.891,-3.378 6.155,-7.187 7.175,-9.191 z"
   id="path300" />
			</g>
			<path
   style="opacity:0.25"
   d="m 334.786,233.379 c -0.018,0.141 -0.059,0.277 -0.124,0.419 -0.366,0.796 -1.492,1.586 -2.883,2.311 -0.029,-2.877 -0.354,-6.981 -1.615,-11.072 -1.627,-5.265 -4.799,-9.209 -6.527,-11.078 0.383,-0.118 0.802,-0.218 1.244,-0.289 0,0 5.731,3.184 9.722,18.961 0.059,0.247 0.124,0.494 0.183,0.748 z"
   id="path304" />
			
				<path
   style="opacity:0.25;fill:none;stroke:#ffffff;stroke-width:1.1792;stroke-linecap:round;stroke-linejoin:round;stroke-miterlimit:10"
   d="m 328.608,278.233 c 0,0 -0.379,5.49 5.117,6.627"
   id="path306" />
			
				<line
   style="opacity:0.25;fill:none;stroke:#ffffff;stroke-width:1.1792;stroke-linecap:round;stroke-linejoin:round;stroke-miterlimit:10"
   x1="331.164"
   y1="287.07001"
   x2="341.93701"
   y2="368.853"
   id="line308" />
			
				<line
   style="opacity:0.25;fill:none;stroke:#ffffff;stroke-width:1.1792;stroke-linecap:round;stroke-linejoin:round;stroke-miterlimit:10"
   x1="314.495"
   y1="299.452"
   x2="296.21799"
   y2="368.853"
   id="line310" />
			<path
   style="opacity:0.25"
   d="m 317.122,300.461 c -1.893,4.434 -5.707,20.435 -9.268,36.377 -0.106,-8.331 0.071,-17.292 0.985,-23.996 2.269,-16.732 8.283,-12.381 8.283,-12.381 z"
   id="path312" />
			<path
   style="opacity:0.25"
   d="m 336.272,278.222 c -24.285,12.122 -35.34,-2.671 -35.823,-3.343 1.374,1.504 5.495,3.154 11.249,3.337 6.197,0.194 14.292,-1.315 22.911,-6.562 0.201,-0.401 0.224,-1.356 0.112,-2.73 0.289,0.283 0.843,3.768 1.551,9.298 z"
   id="path314" />
			<path
   style="opacity:0.25;fill:#ffffff"
   d="m 315.583,258.86 c -1.014,3.903 -9.298,10.164 -10.76,10.064 -1.657,-0.112 -9.38,1.863 -11.809,3.284 -1.898,1.108 -2.329,2.883 -2.423,3.608 -0.389,-0.201 -0.684,-0.696 -0.03,-1.887 2.824,-5.053 13.219,-5.937 13.979,-6.314 0.36,-0.176 5.613,-4.38 11.043,-8.755 z"
   id="path316" />
		</g>
		<g
   id="g354"
   transform="matrix(-0.54625446,0,0,0.61616153,832.38132,98.515122)">
			
				<linearGradient
   id="SVGID_00000057868988220668978990000005525067699315699133_"
   gradientUnits="userSpaceOnUse"
   x1="143.4545"
   y1="248.11591"
   x2="143.87489"
   y2="319.9866">
				<stop
   offset="0"
   style="stop-color:#6D5BD8"
   id="stop320" />
				<stop
   offset="1"
   style="stop-color:#C7CFFF"
   id="stop322" />
			</linearGradient>
			<path
   style="fill:url(#SVGID_00000057868988220668978990000005525067699315699133_)"
   d="m 160.17,288.425 -1.93,-1.354 -1.93,-1.356 c -0.293,0.417 -7.263,10.437 -14.299,28.993 -6.467,17.057 -14.177,44.849 -14.177,80.382 h 4.717 c 0,-66.473 27.343,-106.271 27.619,-106.665 z"
   id="path325" />
			
				<linearGradient
   id="SVGID_00000107582063087121179160000003582576816442740409_"
   gradientUnits="userSpaceOnUse"
   x1="216.35139"
   y1="253.9241"
   x2="173.061"
   y2="372.44751">
				<stop
   offset="0"
   style="stop-color:#6D5BD8"
   id="stop327" />
				<stop
   offset="1"
   style="stop-color:#C7CFFF"
   id="stop329" />
			</linearGradient>
			<path
   style="fill:url(#SVGID_00000107582063087121179160000003582576816442740409_)"
   d="m 202.367,288.425 -1.93,-1.354 -1.93,-1.356 c -0.293,0.417 -7.263,10.437 -14.299,28.993 -6.467,17.057 -14.177,44.849 -14.177,80.382 h 4.717 c 0,-66.473 27.343,-106.271 27.619,-106.665 z"
   id="path332" />
			
				<linearGradient
   id="SVGID_00000023281732751011989730000011349845849221003150_"
   gradientUnits="userSpaceOnUse"
   x1="324.92679"
   y1="270.77328"
   x2="366.11581"
   y2="367.86179">
				<stop
   offset="0"
   style="stop-color:#6D5BD8"
   id="stop334" />
				<stop
   offset="1"
   style="stop-color:#C7CFFF"
   id="stop336" />
			</linearGradient>
			<path
   style="fill:url(#SVGID_00000023281732751011989730000011349845849221003150_)"
   d="m 337.647,288.425 1.931,-1.354 1.93,-1.356 c 0.293,0.417 7.263,10.437 14.299,28.993 6.467,17.057 14.177,44.849 14.177,80.382 h -4.717 c 0,-66.473 -27.344,-106.271 -27.62,-106.665 z"
   id="path339" />
			
				<linearGradient
   id="SVGID_00000073689688059845020060000012580026869116901265_"
   gradientUnits="userSpaceOnUse"
   x1="311.0668"
   y1="247.1358"
   x2="311.48709"
   y2="319.00641">
				<stop
   offset="0"
   style="stop-color:#6D5BD8"
   id="stop341" />
				<stop
   offset="1"
   style="stop-color:#C7CFFF"
   id="stop343" />
			</linearGradient>
			<path
   style="fill:url(#SVGID_00000073689688059845020060000012580026869116901265_)"
   d="m 295.45,288.425 1.93,-1.354 1.93,-1.356 c 0.293,0.417 7.263,10.437 14.299,28.993 6.467,17.057 14.177,44.849 14.177,80.382 h -4.717 c 0,-66.473 -27.343,-106.271 -27.619,-106.665 z"
   id="path346" />
			<g
   id="g352">
				<path
   style="fill:#9cacf2"
   d="m 341.938,286.099 c 0,0.861 -0.348,1.639 -0.914,2.205 -0.566,0.566 -1.344,0.914 -2.205,0.914 H 127.247 c -1.721,0 -3.119,-1.397 -3.119,-3.119 0,-0.861 0.348,-1.639 0.914,-2.205 0.566,-0.566 1.344,-0.914 2.205,-0.914 h 211.572 c 1.721,0 3.119,1.398 3.119,3.119 z"
   id="path348" />
				<path
   style="fill:#c7cfff"
   d="m 379.353,286.099 c 0,0.861 -0.348,1.639 -0.914,2.205 -0.566,0.566 -1.344,0.914 -2.205,0.914 h -37.415 c 0.861,0 1.639,-0.348 2.205,-0.914 0.566,-0.566 0.914,-1.344 0.914,-2.205 0,-1.722 -1.397,-3.119 -3.119,-3.119 h 37.415 c 1.721,0 3.119,1.398 3.119,3.119 z"
   id="path350" />
			</g>
		</g>
		<g
   id="g373"
   transform="matrix(-0.61616153,0,0,0.61616153,841.05874,98.515122)">
			<path
   style="fill:#eef8ff"
   d="m 200.438,191.559 v 68.474 h -49.36 c -3.909,0 -7.075,-3.166 -7.075,-7.075 v -54.324 c 0,-3.909 3.166,-7.075 7.075,-7.075 z"
   id="path356" />
			<path
   style="fill:#c7cfff"
   d="m 200.437,260.034 v 0 -68.476 0 c -3.907,0 -7.075,3.168 -7.075,7.075 v 54.326 c 0,3.907 3.168,7.075 7.075,7.075 z"
   id="path358" />
			<path
   style="opacity:0.25"
   d="m 175.87,260.034 h -17.316 l 4.286,-26.561 c 0,0 2.034,-3.933 6.485,-1.386 3.621,2.076 1.923,19.987 6.545,27.947 z"
   id="path360" />
			<path
   style="fill:#9cacf2"
   d="m 151.417,274.856 11.421,-41.385 c 0.417,-1.512 2.413,-1.885 3.319,-0.604 1.714,2.424 3.619,6.555 3.073,12.564 -0.947,10.435 -7.012,30.387 -7.012,30.387 z"
   id="path362" />
			<path
   style="fill:#7189e2"
   d="m 171.722,273.773 h -23.104 c -2.542,0 -4.604,2.061 -4.604,4.604 v 0 c 0,2.543 2.061,4.604 4.604,4.604 h 23.104 c 2.543,0 4.604,-2.061 4.604,-4.604 v 0 c 0,-2.543 -2.061,-4.604 -4.604,-4.604 z"
   id="path364" />
			
				<linearGradient
   id="SVGID_00000086687632236438809670000003030269341182597793_"
   gradientUnits="userSpaceOnUse"
   x1="167.69119"
   y1="252.0428"
   x2="163.907"
   y2="197.17191">
				<stop
   offset="0"
   style="stop-color:#3E84FF"
   id="stop366" />
				<stop
   offset="1"
   style="stop-color:#7440FF"
   id="stop368" />
			</linearGradient>
			<path
   style="fill:url(#SVGID_00000086687632236438809670000003030269341182597793_)"
   d="m 169.326,219.858 c 0,3.279 -1.726,5.938 -3.855,5.938 -2.129,0 -3.855,-2.658 -3.855,-5.938 0,-3.28 1.726,-5.938 3.855,-5.938 2.129,0 3.855,2.658 3.855,5.938 z"
   id="path371" />
		</g>
		<g
   id="g388"
   transform="matrix(-0.61616153,0,0,0.61616153,841.05874,98.515122)">
			<polygon
   style="fill:#9cacf2"
   points="313.495,279.743 283.695,278.219 283.695,282.979 313.495,282.979 "
   id="polygon375" />
			<path
   style="fill:#c7cfff"
   d="M 290.015,282.979 H 232.56 c -0.674,0 -1.26,-0.461 -1.418,-1.115 l -9.058,-37.336 c -0.223,-0.919 0.473,-1.804 1.418,-1.804 h 57.455 c 0.673,0 1.26,0.461 1.418,1.115 l 9.058,37.336 c 0.223,0.919 -0.473,1.804 -1.418,1.804 z"
   id="path377" />
			<path
   style="fill:#eef8ff"
   d="m 288.156,281.223 h -57.455 c -0.672,0 -1.262,-0.46 -1.421,-1.114 l -9.056,-37.338 c -0.118,-0.477 0.018,-0.943 0.307,-1.285 0.259,-0.313 0.66,-0.519 1.114,-0.519 H 279.1 c 0.672,0 1.256,0.46 1.415,1.114 l 9.056,37.338 c 0.224,0.92 -0.472,1.804 -1.415,1.804 z"
   id="path379" />
			
				<linearGradient
   id="SVGID_00000022532189465122605200000007222705955675912880_"
   gradientUnits="userSpaceOnUse"
   x1="264.29568"
   y1="297.6489"
   x2="246.3631"
   y2="236.56599">
				<stop
   offset="0"
   style="stop-color:#3E84FF"
   id="stop381" />
				<stop
   offset="1"
   style="stop-color:#7440FF"
   id="stop383" />
			</linearGradient>
			<path
   style="fill:url(#SVGID_00000022532189465122605200000007222705955675912880_)"
   d="m 257.036,261.719 c 0.754,1.969 0.041,4.071 -1.591,4.696 -1.633,0.625 -3.567,-0.464 -4.321,-2.432 -0.754,-1.968 -0.041,-4.071 1.591,-4.696 1.633,-0.626 3.567,0.463 4.321,2.432 z"
   id="path386" />
		</g>
		
		<g
   id="g432"
   transform="matrix(-0.61616153,0,0,0.61616153,841.05874,98.515122)">
			<path
   style="fill:#b3cee8"
   d="m 309.45,154.915 v -2.023 c 0,-0.767 -0.622,-1.389 -1.389,-1.389 h -3.306 c -0.261,-1.105 -0.698,-2.14 -1.28,-3.079 l 2.341,-2.341 c 0.542,-0.542 0.542,-1.422 0,-1.964 l -1.431,-1.431 c -0.542,-0.542 -1.422,-0.542 -1.964,0 l -2.341,2.341 c -0.939,-0.582 -1.974,-1.019 -3.079,-1.28 v -3.306 c 0,-0.767 -0.622,-1.389 -1.389,-1.389 h -2.023 c -0.767,0 -1.389,0.622 -1.389,1.389 v 3.306 c -1.105,0.261 -2.14,0.698 -3.079,1.28 l -2.341,-2.341 c -0.542,-0.542 -1.422,-0.542 -1.964,0 l -1.431,1.431 c -0.542,0.542 -0.542,1.422 0,1.964 l 2.341,2.341 c -0.582,0.939 -1.019,1.974 -1.28,3.079 h -3.306 c -0.767,0 -1.389,0.622 -1.389,1.389 v 2.023 c 0,0.767 0.622,1.389 1.389,1.389 h 3.306 c 0.261,1.105 0.698,2.14 1.28,3.079 l -2.341,2.341 c -0.542,0.542 -0.542,1.422 0,1.964 l 1.431,1.431 c 0.542,0.542 1.422,0.542 1.964,0 l 2.341,-2.341 c 0.939,0.582 1.974,1.019 3.079,1.28 v 3.306 c 0,0.767 0.622,1.389 1.389,1.389 h 2.023 c 0.767,0 1.389,-0.622 1.389,-1.389 v -3.306 c 1.105,-0.261 2.14,-0.698 3.079,-1.28 l 2.341,2.341 c 0.542,0.542 1.422,0.542 1.964,0 l 1.431,-1.431 c 0.542,-0.542 0.542,-1.422 0,-1.964 l -2.341,-2.341 c 0.582,-0.939 1.019,-1.974 1.28,-3.079 h 3.306 c 0.767,0 1.389,-0.622 1.389,-1.389 z m -13.877,4.635 c -3.914,0.647 -7.266,-2.704 -6.619,-6.618 0.392,-2.371 2.304,-4.283 4.675,-4.676 3.914,-0.647 7.265,2.704 6.619,6.618 -0.392,2.371 -2.304,4.284 -4.675,4.676 z"
   id="path422" />
			<g
   id="g430">
				<path
   style="fill:#eef8ff"
   d="m 265.798,202.102 v 0 c -0.765,0 -1.383,-0.587 -1.467,-1.347 -0.673,-6.149 -5.9,-10.952 -12.225,-10.952 -5.236,0 -9.722,3.296 -11.491,7.918 l 2.871,0.601 -3.626,2.665 -1.515,1.114 h -0.277 l -1.091,-1.881 -2.152,-3.708 2.877,0.601 c 2.07,-5.967 7.741,-10.259 14.404,-10.259 7.846,0 14.326,5.956 15.157,13.585 0.096,0.885 -0.576,1.663 -1.465,1.663 z"
   id="path424" />
				<path
   style="fill:#eef8ff"
   d="m 238.168,206.174 v 0 c 0.765,0 1.383,0.587 1.467,1.347 0.673,6.149 5.9,10.952 12.225,10.952 5.236,0 9.722,-3.296 11.491,-7.918 l -2.871,-0.601 3.626,-2.665 1.515,-1.114 h 0.277 l 1.091,1.881 2.152,3.708 -2.877,-0.601 c -2.069,5.967 -7.741,10.259 -14.404,10.259 -7.846,0 -14.326,-5.956 -15.157,-13.585 -0.095,-0.885 0.577,-1.663 1.465,-1.663 z"
   id="path426" />
				<polygon
   style="fill:#eef8ff"
   points="238.345,202.102 238.151,202.244 238.068,202.102 "
   id="polygon428" />
			</g>
		</g>
		<path
   style="opacity:0.28;stroke-width:0.603222"
   d="m 612.45862,347.54482 c 0.12874,2.86637 2.49626,5.07532 5.25061,5.07532 h 145.25712 c 2.90728,0 5.24352,-2.52873 5.10769,-5.59106 -0.0661,-1.43134 -0.69273,-2.70309 -1.64351,-3.61132 -0.95079,-0.91192 -2.23169,-1.464 -3.60709,-1.464 H 617.56277 c -2.90316,0 -5.24292,2.52873 -5.10415,5.59106 z"
   id="path434" />
		
		<g
   id="g479"
   transform="matrix(-0.61616153,0,0,0.61616153,841.05874,98.515122)">
			
				<line
   style="fill:none;stroke:#ffffff;stroke-width:2.9479;stroke-linecap:round;stroke-linejoin:round;stroke-miterlimit:10"
   x1="118.32"
   y1="269.67099"
   x2="68.892998"
   y2="269.67099"
   id="line456" />
			
				<linearGradient
   id="SVGID_00000151504282960747455080000000193963596514709890_"
   gradientUnits="userSpaceOnUse"
   x1="84.854202"
   y1="278.4715"
   x2="119.7939"
   y2="278.4715">
				<stop
   offset="0"
   style="stop-color:#3E84FF"
   id="stop458" />
				<stop
   offset="1"
   style="stop-color:#7440FF"
   id="stop460" />
			</linearGradient>
			
				<line
   style="fill:none;stroke:url(#SVGID_00000151504282960747455080000000193963596514709890_);stroke-width:2.9479;stroke-linecap:round;stroke-linejoin:round;stroke-miterlimit:10"
   x1="118.32"
   y1="278.47101"
   x2="86.328003"
   y2="278.47101"
   id="line463" />
			
				<linearGradient
   id="SVGID_00000140716745114623642890000003765431787288794272_"
   gradientUnits="userSpaceOnUse"
   x1="84.854202"
   y1="287.08249"
   x2="119.7939"
   y2="287.08249">
				<stop
   offset="0"
   style="stop-color:#3E84FF"
   id="stop465" />
				<stop
   offset="1"
   style="stop-color:#7440FF"
   id="stop467" />
			</linearGradient>
			
				<line
   style="fill:none;stroke:url(#SVGID_00000140716745114623642890000003765431787288794272_);stroke-width:2.9479;stroke-linecap:round;stroke-linejoin:round;stroke-miterlimit:10"
   x1="118.32"
   y1="287.082"
   x2="86.328003"
   y2="287.082"
   id="line470" />
			
				<radialGradient
   id="SVGID_00000024715818586117266980000007941527204627942579_"
   cx="118.6335"
   cy="269.51419"
   r="8.8143997"
   gradientUnits="userSpaceOnUse">
				<stop
   offset="0"
   style="stop-color:#FFFFFF"
   id="stop472" />
				<stop
   offset="1"
   style="stop-color:#000000"
   id="stop474" />
			</radialGradient>
			<circle
   style="fill:url(#SVGID_00000024715818586117266980000007941527204627942579_)"
   cx="118.633"
   cy="269.51401"
   r="8.8140001"
   id="circle477" />
		</g>
		
			<radialGradient
   id="SVGID_00000150081609894056412600000015741834849889809070_"
   cx="182.68649"
   cy="391.36301"
   r="232.6777"
   gradientUnits="userSpaceOnUse"
   gradientTransform="matrix(-0.61616155,0,0,0.61616155,841.05878,98.515127)">
			<stop
   offset="0"
   style="stop-color:#FF00FF"
   id="stop481" />
			<stop
   offset="1"
   style="stop-color:#00FFFF;stop-opacity:0"
   id="stop483" />
		</radialGradient>
		<path
   style="fill:url(#SVGID_00000150081609894056412600000015741834849889809070_);stroke-width:0.616162"
   d="m 662.63623,270.68235 5.57996,-23.00623 c 0.098,-0.40296 0.45781,-0.68641 0.87187,-0.68641 h 35.40156 c 0.27974,0 0.52682,0.12694 0.6864,0.3198 l 0.21443,-0.12022 -6.51714,-35.31407 c 0,0 -51.12601,-25.37723 -61.24707,4.98228 -0.6328,1.89717 -17.51316,26.34708 -17.82248,28.02364 -4.64031,25.14679 42.83247,25.80115 42.83247,25.80115 z"
   id="path486" />
		<g
   id="g506"
   transform="matrix(-0.61616153,0,0,0.61616153,841.05874,98.515122)">
			
				<path
   style="fill:none;stroke:#66d7ff;stroke-width:1.1792;stroke-linecap:round;stroke-linejoin:round;stroke-miterlimit:10"
   d="m 154.197,249.863 c 0,0 -15.64,83.053 51.546,92.038 51.016,6.822 106.757,-34.08 92.852,-61.303"
   id="path488" />
			
				<path
   style="fill:none;stroke:#0098ff;stroke-width:1.1792;stroke-linecap:round;stroke-linejoin:round;stroke-miterlimit:10"
   d="m 178.328,248.189 c 0,0 -21.225,37.617 0,90.68 21.225,53.062 149.902,67.919 126.357,-57.323"
   id="path490" />
			
				<radialGradient
   id="SVGID_00000173146198354837815600000009545465830892722071_"
   cx="278.43051"
   cy="322.46561"
   r="8.8143997"
   gradientUnits="userSpaceOnUse">
				<stop
   offset="0"
   style="stop-color:#FFFFFF"
   id="stop492" />
				<stop
   offset="1"
   style="stop-color:#000000"
   id="stop494" />
			</radialGradient>
			<circle
   style="fill:url(#SVGID_00000173146198354837815600000009545465830892722071_)"
   cx="278.42999"
   cy="322.466"
   r="8.8140001"
   id="circle497" />
			
				<radialGradient
   id="SVGID_00000099660276079405163140000010100804171802649506_"
   cx="208.8416"
   cy="368.85291"
   r="8.8143997"
   gradientUnits="userSpaceOnUse">
				<stop
   offset="0"
   style="stop-color:#FFFFFF"
   id="stop499" />
				<stop
   offset="1"
   style="stop-color:#000000"
   id="stop501" />
			</radialGradient>
			<circle
   style="fill:url(#SVGID_00000099660276079405163140000010100804171802649506_)"
   cx="208.842"
   cy="368.853"
   r="8.8140001"
   id="circle504" />
		</g>
		<g
   id="g525"
   transform="matrix(-0.61616153,0,0,0.61616153,817.05874,98.515122)">
			
				<linearGradient
   id="SVGID_00000129919190287807013940000016159106468777957028_"
   gradientUnits="userSpaceOnUse"
   x1="446.71011"
   y1="235.0287"
   x2="427.38019"
   y2="313.86441">
				<stop
   offset="0"
   style="stop-color:#3E84FF"
   id="stop508" />
				<stop
   offset="1"
   style="stop-color:#7440FF"
   id="stop510" />
			</linearGradient>
			
			
			<g
   style="opacity:0.25"
   id="g519">
				
			</g>
			<g
   style="opacity:0.25"
   id="g523">
				
			</g>
		</g>
		<g
   id="g544"
   transform="matrix(-0.61616153,0,0,0.61616153,841.05874,98.515122)">
			<path
   style="fill:#b3cee8"
   d="m 97.301,356.132 c 0,0 -23.386,-14.257 -32.167,-41.971 24.452,3.115 46.258,43.303 46.258,43.303 z"
   id="path527" />
			<g
   style="opacity:0.25"
   id="g531">
				<path
   d="m 65.134,314.16 c 6.627,6.008 13.096,12.191 19.426,18.518 6.309,6.347 12.48,12.844 18.223,19.745 l -0.918,0.741 C 96.314,346.187 90.298,339.565 84.138,333.09 77.956,326.634 71.626,320.312 65.134,314.16 Z"
   id="path529" />
			</g>
			
				<linearGradient
   id="SVGID_00000106862340369613995070000012368761939065421440_"
   gradientUnits="userSpaceOnUse"
   x1="56.824402"
   y1="345.90009"
   x2="101.9275"
   y2="388.35019">
				<stop
   offset="0"
   style="stop-color:#3E84FF"
   id="stop533" />
				<stop
   offset="1"
   style="stop-color:#7440FF"
   id="stop535" />
			</linearGradient>
			<path
   style="fill:url(#SVGID_00000106862340369613995070000012368761939065421440_)"
   d="m 124.253,379.499 c -0.413,0.153 -0.867,0.194 -1.344,0.141 -5.177,-4.463 -10.925,-9.929 -16.791,-16.432 -28.854,-16.497 -56.848,18.265 -56.848,18.265 0,0 11.662,-40.552 44.331,-33.712 h 0.006 c 32.675,6.84 30.646,31.738 30.646,31.738 z"
   id="path538" />
			<g
   style="opacity:0.25"
   id="g542">
				<path
   d="m 49.27,381.474 c 3.99,-6.324 8.834,-12.125 14.405,-17.138 5.584,-4.941 12.146,-9.114 19.575,-10.688 3.691,-0.782 7.548,-0.845 11.266,-0.125 3.714,0.725 7.298,2.133 10.525,4.106 0.829,0.456 1.576,1.041 2.369,1.556 l 1.172,0.798 1.099,0.892 c 0.729,0.6 1.474,1.177 2.191,1.798 l 1.042,0.984 0.975,1.054 c 1.258,1.444 2.324,3.066 3.12,4.821 0.796,1.765 1.362,3.596 1.479,5.627 l -1.179,-0.003 c -0.075,-1.708 -0.58,-3.533 -1.308,-5.172 -0.727,-1.661 -1.714,-3.212 -2.895,-4.603 l -0.917,-1.018 -0.985,-0.954 c -0.687,-0.612 -1.415,-1.19 -2.121,-1.788 l -1.067,-0.89 -1.137,-0.794 c -0.768,-0.513 -1.493,-1.098 -2.297,-1.553 -3.13,-1.97 -6.601,-3.385 -10.209,-4.139 -3.613,-0.749 -7.375,-0.739 -11.006,-0.02 -7.306,1.444 -13.876,5.483 -19.499,10.332 -5.611,4.919 -10.526,10.647 -14.598,16.917 z"
   id="path540" />
			</g>
		</g>
	</g>
</g>

</svg>
