<?xml version="1.0" encoding="UTF-8" standalone="no"?>
<!-- Generator: Adobe Illustrator 27.5.0, SVG Export Plug-In . SVG Version: 6.00 Build 0)  -->

<svg
   version="1.1"
   x="0px"
   y="0px"
   viewBox="0 0 1250 500"
   xml:space="preserve"
   id="svg333"
   sodipodi:docname="fs.svg"
   width="1250"
   height="500"
   inkscape:version="1.1.2 (0a00cf5339, 2022-02-04)"
   xmlns:inkscape="http://www.inkscape.org/namespaces/inkscape"
   xmlns:sodipodi="http://sodipodi.sourceforge.net/DTD/sodipodi-0.dtd"
   xmlns="http://www.w3.org/2000/svg"
   xmlns:svg="http://www.w3.org/2000/svg"><defs
   id="defs337" /><sodipodi:namedview
   id="namedview335"
   pagecolor="#ffffff"
   bordercolor="#666666"
   borderopacity="1.0"
   inkscape:pageshadow="2"
   inkscape:pageopacity="0.0"
   inkscape:pagecheckerboard="0"
   showgrid="false"
   inkscape:zoom="1.8433254"
   inkscape:cx="300.00129"
   inkscape:cy="221.33911"
   inkscape:window-width="1920"
   inkscape:window-height="1008"
   inkscape:window-x="0"
   inkscape:window-y="0"
   inkscape:window-maximized="1"
   inkscape:current-layer="svg333" />

<g
   id="OBJECTS"
   transform="matrix(0.66837549,0,0,0.9314454,8.7500619,12.406818)">
	<g
   id="g41">
		<path
   style="fill:#a8b0b8"
   d="M 281.308,148.185 H 144.872 c -6.752,0 -12.277,-5.525 -12.277,-12.277 V 47.256 c 0,-6.752 5.524,-12.277 12.277,-12.277 h 136.436 c 6.752,0 12.277,5.525 12.277,12.277 v 88.652 c 0,6.752 -5.524,12.277 -12.277,12.277 z"
   id="path15" />
		<path
   style="fill:#e7eaed"
   d="M 281.308,152.474 H 144.872 c -6.752,0 -12.277,-5.525 -12.277,-12.277 V 51.546 c 0,-6.752 5.524,-12.277 12.277,-12.277 h 136.436 c 6.752,0 12.277,5.525 12.277,12.277 v 88.652 c 0,6.751 -5.524,12.276 -12.277,12.276 z"
   id="path17" />
		<path
   style="fill:#adcf65"
   d="M 281.382,146.779 H 144.799 c -3.843,0 -6.987,-3.144 -6.987,-6.987 V 51.951 c 0,-3.843 3.144,-6.987 6.987,-6.987 h 136.584 c 3.843,0 6.987,3.144 6.987,6.987 v 87.841 c -10e-4,3.843 -3.145,6.987 -6.988,6.987 z"
   id="path19" />
		<path
   style="opacity:0.2;fill:#ffffff"
   d="M 264.101,48.691 H 148.204 c -3.643,0 -6.623,2.98 -6.623,6.623 v 61.026 c 26.618,-14.875 86.007,-47.572 122.52,-67.649 z"
   id="path21" />
		<g
   id="g31">
			
				<circle
   transform="matrix(0.1617,-0.9868,0.9868,0.1617,89.2108,286.249)"
   style="fill:none;stroke:#ffffff;stroke-width:2;stroke-linecap:round;stroke-linejoin:round;stroke-miterlimit:10"
   cx="213.09"
   cy="90.614998"
   id="ellipse23"
   r="30.153" />
			
				<ellipse
   style="fill:none;stroke:#ffffff;stroke-width:2;stroke-linecap:round;stroke-linejoin:round;stroke-miterlimit:10"
   cx="213.09"
   cy="90.614998"
   rx="19.089001"
   ry="30.153"
   id="ellipse25" />
			
				<ellipse
   style="fill:none;stroke:#ffffff;stroke-width:2;stroke-linecap:round;stroke-linejoin:round;stroke-miterlimit:10"
   cx="213.09"
   cy="90.614998"
   rx="7.4229999"
   ry="30.153"
   id="ellipse27" />
			<path
   style="fill:none;stroke:#ffffff;stroke-width:2;stroke-linecap:round;stroke-linejoin:round;stroke-miterlimit:10"
   d="m 243.244,90.615 c 0,4.1 -13.5,7.424 -30.153,7.424 -16.653,0 -30.153,-3.324 -30.153,-7.424"
   id="path29" />
		</g>
		<path
   style="fill:#e7eaed"
   d="m 132.596,133.17 v 7.027 c 0,6.752 5.524,12.277 12.277,12.277 h 136.436 c 6.752,0 12.277,-5.525 12.277,-12.277 v -7.027 z"
   id="path33" />
		<path
   style="fill:#ffffff"
   d="m 280.425,147.984 h -7.887 c -0.67,0 -1.218,-0.548 -1.218,-1.218 v -7.887 c 0,-0.67 0.548,-1.218 1.218,-1.218 h 7.887 c 0.67,0 1.218,0.548 1.218,1.218 v 7.887 c 0,0.67 -0.548,1.218 -1.218,1.218 z"
   id="path35" />
		<path
   style="fill:#a8b0b8"
   d="m 213.09,181.831 h 41.969 c -24.486,-5.609 -25.048,-29.357 -25.048,-29.357 H 213.09 196.17 c 0,0 -0.562,23.748 -25.048,29.357 z"
   id="path37" />
		<path
   style="fill:#c4cdd6"
   d="M 253.861,187.855 H 172.32 c -3.13,0 -5.69,-2.561 -5.69,-5.69 v 0 c 0,-3.129 2.561,-5.69 5.69,-5.69 h 81.541 c 3.13,0 5.69,2.561 5.69,5.69 v 0 c 0,3.13 -2.56,5.69 -5.69,5.69 z"
   id="path39" />
	</g>
	<g
   id="g99">
		<g
   id="g61">
			<path
   style="fill:#e7eaed"
   d="M 616.514,340.362 H 507.479 c -3.56,0 -6.473,-2.913 -6.473,-6.473 v -30.96 c 0,-3.56 2.913,-6.473 6.473,-6.473 h 109.036 c 3.56,0 6.473,2.913 6.473,6.473 v 30.96 c 0,3.56 -2.913,6.473 -6.474,6.473 z"
   id="path43" />
			<g
   id="g59">
				<path
   style="fill:#6b7075"
   d="m 611.329,455.939 h -98.665 c -6.412,0 -11.659,-5.246 -11.659,-11.659 V 325.177 c 0,-6.412 5.246,-11.659 11.659,-11.659 h 98.665 c 6.412,0 11.659,5.246 11.659,11.659 V 444.28 c 0,6.412 -5.247,11.659 -11.659,11.659 z"
   id="path45" />
				<path
   style="fill:#bfc8d1"
   d="M 616.514,357.426 H 507.479 c -3.56,0 -6.473,-2.913 -6.473,-6.473 v -30.96 c 0,-3.56 2.913,-6.473 6.473,-6.473 h 109.036 c 3.56,0 6.473,2.913 6.473,6.473 v 30.96 c 0,3.56 -2.913,6.473 -6.474,6.473 z"
   id="path47" />
				<path
   style="opacity:0.15"
   d="M 616.515,350.965 H 507.479 c -3.56,0 -6.473,-2.913 -6.473,-6.473 v 6.461 c 0,3.56 2.913,6.473 6.473,6.473 h 109.036 c 3.56,0 6.473,-2.913 6.473,-6.473 v -6.461 c 0,3.56 -2.913,6.473 -6.473,6.473 z"
   id="path49" />
				<path
   style="fill:#a8b0b8"
   d="M 616.514,406.682 H 507.479 c -3.56,0 -6.473,-2.913 -6.473,-6.473 v -30.96 c 0,-3.56 2.913,-6.473 6.473,-6.473 h 109.036 c 3.56,0 6.473,2.913 6.473,6.473 v 30.96 c 0,3.56 -2.913,6.473 -6.474,6.473 z"
   id="path51" />
				<path
   style="opacity:0.15"
   d="M 616.515,400.221 H 507.479 c -3.56,0 -6.473,-2.913 -6.473,-6.473 v 6.461 c 0,3.56 2.913,6.473 6.473,6.473 h 109.036 c 3.56,0 6.473,-2.913 6.473,-6.473 v -6.461 c 0,3.56 -2.913,6.473 -6.473,6.473 z"
   id="path53" />
				<path
   style="fill:#bfc8d1"
   d="M 616.514,455.939 H 507.479 c -3.56,0 -6.473,-2.913 -6.473,-6.473 v -30.96 c 0,-3.56 2.913,-6.473 6.473,-6.473 h 109.036 c 3.56,0 6.473,2.913 6.473,6.473 v 30.96 c 0,3.56 -2.913,6.473 -6.474,6.473 z"
   id="path55" />
				<path
   style="opacity:0.15"
   d="M 616.515,449.478 H 507.479 c -3.56,0 -6.473,-2.913 -6.473,-6.473 v 6.461 c 0,3.56 2.913,6.473 6.473,6.473 h 109.036 c 3.56,0 6.473,-2.913 6.473,-6.473 v -6.461 c 0,3.56 -2.913,6.473 -6.473,6.473 z"
   id="path57" />
			</g>
		</g>
		<g
   id="g69">
			<rect
   x="509.54599"
   y="333.85501"
   style="fill:#e7eaed"
   width="40.342999"
   height="3.8269999"
   id="rect63" />
			<rect
   x="509.54599"
   y="326.04001"
   style="fill:#e7eaed"
   width="33.326"
   height="3.8269999"
   id="rect65" />
			<rect
   x="509.54599"
   y="341.66901"
   style="fill:#e7eaed"
   width="33.326"
   height="3.8269999"
   id="rect67" />
		</g>
		<g
   id="g77">
			<rect
   x="509.54599"
   y="432.07101"
   style="fill:#e7eaed"
   width="49.455002"
   height="3.8269999"
   id="rect71" />
			<rect
   x="509.54599"
   y="424.25699"
   style="fill:#e7eaed"
   width="37.891998"
   height="3.8269999"
   id="rect73" />
			<rect
   x="509.54599"
   y="439.88599"
   style="fill:#e7eaed"
   width="43.830002"
   height="3.8269999"
   id="rect75" />
		</g>
		<g
   id="g85">
			
				<rect
   x="573.37097"
   y="383.11099"
   transform="rotate(180,593.54205,385.02495)"
   style="fill:#6b7075"
   width="40.341999"
   height="3.8269999"
   id="rect79" />
			
				<rect
   x="580.38702"
   y="390.92599"
   transform="rotate(-179.99983,597.05009,392.83945)"
   style="fill:#6b7075"
   width="33.326"
   height="3.8269999"
   id="rect81" />
			
				<rect
   x="565.87701"
   y="375.297"
   transform="rotate(180,589.7951,377.21045)"
   style="fill:#6b7075"
   width="47.835999"
   height="3.8269999"
   id="rect83" />
		</g>
		<circle
   style="opacity:0.15"
   cx="606.08002"
   cy="335.47198"
   r="7.5180001"
   id="circle87" />
		<circle
   style="fill:#609ec7"
   cx="606.08002"
   cy="335.47198"
   r="4.3330002"
   id="circle89" />
		
			<circle
   transform="matrix(0.8294,-0.5587,0.5587,0.8294,-126.8867,354.581)"
   style="opacity:0.15"
   cx="517.06403"
   cy="385.02499"
   id="ellipse91"
   r="7.5180001" />
		<path
   style="fill:#adcf65"
   d="m 521.397,385.025 c 0,2.393 -1.94,4.333 -4.333,4.333 -2.393,0 -4.333,-1.94 -4.333,-4.333 0,-2.393 1.94,-4.333 4.333,-4.333 2.393,0 4.333,1.94 4.333,4.333 z"
   id="path93" />
		
			<circle
   transform="matrix(0.7071,-0.7071,0.7071,0.7071,-128.939,556.6838)"
   style="opacity:0.15"
   cx="607.50702"
   cy="433.98499"
   id="ellipse95"
   r="7.5180001" />
		<path
   style="fill:#ffdd00"
   d="m 611.84,433.985 c 0,2.393 -1.94,4.333 -4.333,4.333 -2.393,0 -4.333,-1.94 -4.333,-4.333 0,-2.393 1.94,-4.333 4.333,-4.333 2.393,0 4.333,1.94 4.333,4.333 z"
   id="path97" />
	</g>
	<g
   id="g143">
		<g
   id="g113">
			<path
   style="fill:#609ec7"
   d="m 628.312,155.077 v 32.202 c 0,6.583 23.543,11.919 52.584,11.919 29.041,0 52.584,-5.336 52.584,-11.919 v -32.202 z"
   id="path101" />
			<path
   style="opacity:0.15"
   d="m 680.896,189.057 c -29.042,0 -52.584,-5.336 -52.584,-11.919 v 10.141 c 0,6.583 23.543,11.919 52.584,11.919 29.041,0 52.584,-5.336 52.584,-11.919 v -10.141 c 10e-4,6.583 -23.542,11.919 -52.584,11.919 z"
   id="path103" />
			<path
   style="opacity:0.15"
   d="m 628.312,159.107 c 6.876,5.645 27.814,9.752 52.584,9.752 24.77,0 45.708,-4.107 52.584,-9.752 v -4.029 H 628.312 Z"
   id="path105" />
			<ellipse
   style="fill:#8cc2e6"
   cx="680.896"
   cy="155.077"
   rx="52.584"
   ry="11.919"
   id="ellipse107" />
			<path
   style="fill:#ffdd00"
   d="m 726.989,172.322 c 0,1.833 -1.486,3.319 -3.319,3.319 -1.833,0 -3.319,-1.486 -3.319,-3.319 0,-1.833 1.486,-3.319 3.319,-3.319 1.833,0.001 3.319,1.487 3.319,3.319 z"
   id="path109" />
			<path
   style="fill:#ffffff"
   d="m 726.989,183.999 c 0,1.833 -1.486,3.319 -3.319,3.319 -1.833,0 -3.319,-1.486 -3.319,-3.319 0,-1.833 1.486,-3.319 3.319,-3.319 1.833,0 3.319,1.486 3.319,3.319 z"
   id="path111" />
		</g>
		<g
   id="g127">
			<path
   style="fill:#609ec7"
   d="m 628.312,119.285 v 32.202 c 0,6.583 23.543,11.919 52.584,11.919 29.041,0 52.584,-5.336 52.584,-11.919 v -32.202 z"
   id="path115" />
			<path
   style="opacity:0.15"
   d="m 680.896,153.265 c -29.042,0 -52.584,-5.336 -52.584,-11.919 v 10.141 c 0,6.583 23.543,11.919 52.584,11.919 29.041,0 52.584,-5.336 52.584,-11.919 v -10.141 c 10e-4,6.583 -23.542,11.919 -52.584,11.919 z"
   id="path117" />
			<path
   style="opacity:0.15"
   d="m 628.312,123.315 c 6.876,5.645 27.814,9.752 52.584,9.752 24.77,0 45.708,-4.107 52.584,-9.752 v -4.029 H 628.312 Z"
   id="path119" />
			<ellipse
   style="fill:#8cc2e6"
   cx="680.896"
   cy="119.285"
   rx="52.584"
   ry="11.919"
   id="ellipse121" />
			<path
   style="fill:#ffffff"
   d="m 726.989,136.53 c 0,1.833 -1.486,3.319 -3.319,3.319 -1.833,0 -3.319,-1.486 -3.319,-3.319 0,-1.833 1.486,-3.319 3.319,-3.319 1.833,10e-4 3.319,1.486 3.319,3.319 z"
   id="path123" />
			<path
   style="fill:#adcf65"
   d="m 726.989,148.206 c 0,1.833 -1.486,3.319 -3.319,3.319 -1.833,0 -3.319,-1.486 -3.319,-3.319 0,-1.833 1.486,-3.319 3.319,-3.319 1.833,0.001 3.319,1.487 3.319,3.319 z"
   id="path125" />
		</g>
		<g
   id="g141">
			<path
   style="fill:#609ec7"
   d="m 628.312,83.493 v 32.202 c 0,6.583 23.543,11.919 52.584,11.919 29.041,0 52.584,-5.336 52.584,-11.919 V 83.493 Z"
   id="path129" />
			<path
   style="opacity:0.15"
   d="m 680.896,117.473 c -29.042,0 -52.584,-5.336 -52.584,-11.919 v 10.141 c 0,6.583 23.543,11.919 52.584,11.919 29.041,0 52.584,-5.336 52.584,-11.919 v -10.141 c 10e-4,6.582 -23.542,11.919 -52.584,11.919 z"
   id="path131" />
			<path
   style="opacity:0.15"
   d="m 628.312,87.522 c 6.876,5.645 27.814,9.751 52.584,9.751 24.77,0 45.708,-4.107 52.584,-9.751 V 83.493 H 628.312 Z"
   id="path133" />
			<ellipse
   style="fill:#8cc2e6"
   cx="680.896"
   cy="83.492996"
   rx="52.584"
   ry="11.919"
   id="ellipse135" />
			<path
   style="fill:#ffdd00"
   d="m 726.989,100.738 c 0,1.833 -1.486,3.319 -3.319,3.319 -1.833,0 -3.319,-1.486 -3.319,-3.319 0,-1.833 1.486,-3.319 3.319,-3.319 1.833,0.001 3.319,1.486 3.319,3.319 z"
   id="path137" />
			<path
   style="fill:#ffffff"
   d="m 726.989,112.414 c 0,1.833 -1.486,3.319 -3.319,3.319 -1.833,0 -3.319,-1.486 -3.319,-3.319 0,-1.833 1.486,-3.319 3.319,-3.319 1.833,0.001 3.319,1.486 3.319,3.319 z"
   id="path139" />
		</g>
	</g>
	<g
   id="g151">
		<path
   style="fill:#4a7999"
   d="m 420.824,308.108 h -91.648 c -9.597,0 -17.449,-7.852 -17.449,-17.449 v -91.648 c 0,-9.597 7.852,-17.449 17.449,-17.449 h 91.648 c 9.597,0 17.449,7.852 17.449,17.449 v 91.648 c 0,9.597 -7.852,17.449 -17.449,17.449 z"
   id="path145" />
		<path
   style="fill:#609ec7"
   d="m 419.755,302.972 h -89.51 c -7.36,0 -13.381,-6.021 -13.381,-13.381 v -89.51 c 0,-7.359 6.021,-13.381 13.381,-13.381 h 89.51 c 7.36,0 13.381,6.021 13.381,13.381 v 89.51 c 0,7.359 -6.021,13.381 -13.381,13.381 z"
   id="path147" />
		<path
   style="opacity:0.2;fill:#ffffff"
   d="m 408.081,194.066 h -75.832 c -4.41,0 -8.018,3.608 -8.018,8.018 v 68.208 c 25.918,-23.5 60.215,-54.707 83.85,-76.226 z"
   id="path149" />
	</g>
	<g
   id="g201">
		<path
   style="fill:#a8b0b8"
   d="M 166.806,376.726 H 39.828 c -3.745,0 -6.809,-3.064 -6.809,-6.809 V 281.32 c 0,-3.745 3.064,-6.809 6.809,-6.809 h 126.979 c 3.745,0 6.809,3.064 6.809,6.809 v 88.598 c 0,3.744 -3.065,6.808 -6.81,6.808 z"
   id="path153" />
		<path
   style="fill:#ffffff"
   d="M 163.695,370.729 H 42.939 c -1.948,0 -3.541,-1.593 -3.541,-3.541 v -83.14 c 0,-1.947 1.593,-3.541 3.541,-3.541 h 120.757 c 1.948,0 3.541,1.593 3.541,3.541 v 83.14 c -0.001,1.948 -1.594,3.541 -3.542,3.541 z"
   id="path155" />
		<path
   style="opacity:0.15"
   d="M 173.616,294.717 V 281.32 c 0,-3.745 -3.064,-6.809 -6.809,-6.809 H 39.828 c -3.745,0 -6.809,3.064 -6.809,6.809 v 13.398 h 140.597 z"
   id="path157" />
		<path
   style="fill:#e7eaed"
   d="M 173.616,291.584 V 281.32 c 0,-3.745 -3.064,-6.809 -6.809,-6.809 H 39.828 c -3.745,0 -6.809,3.064 -6.809,6.809 v 10.265 h 140.597 z"
   id="path159" />
		<g
   id="g165">
			<path
   style="opacity:0.05"
   d="m 167.236,283.047 c 0,2.678 -2.171,4.849 -4.848,4.849 -2.678,0 -4.849,-2.171 -4.849,-4.849 0,-2.678 2.171,-4.849 4.849,-4.849 2.678,0.001 4.848,2.172 4.848,4.849 z"
   id="path161" />
			<path
   style="fill:#f54747"
   d="m 165.749,283.047 c 0,1.856 -1.505,3.361 -3.361,3.361 -1.856,0 -3.361,-1.505 -3.361,-3.361 0,-1.856 1.505,-3.361 3.361,-3.361 1.856,0 3.361,1.505 3.361,3.361 z"
   id="path163" />
		</g>
		<g
   id="g171">
			<path
   style="opacity:0.05"
   d="m 136.926,283.047 c 0,2.678 -2.171,4.849 -4.849,4.849 -2.678,0 -4.849,-2.171 -4.849,-4.849 0,-2.678 2.171,-4.849 4.849,-4.849 2.678,0.001 4.849,2.172 4.849,4.849 z"
   id="path167" />
			<path
   style="fill:#adcf65"
   d="m 135.439,283.047 c 0,1.856 -1.505,3.361 -3.361,3.361 -1.856,0 -3.361,-1.505 -3.361,-3.361 0,-1.856 1.505,-3.361 3.361,-3.361 1.856,0 3.361,1.505 3.361,3.361 z"
   id="path169" />
		</g>
		<g
   id="g177">
			<path
   style="opacity:0.05"
   d="m 152.081,283.047 c 0,2.678 -2.171,4.849 -4.849,4.849 -2.678,0 -4.849,-2.171 -4.849,-4.849 0,-2.678 2.171,-4.849 4.849,-4.849 2.678,0.001 4.849,2.172 4.849,4.849 z"
   id="path173" />
			<path
   style="fill:#ffdd00"
   d="m 150.594,283.047 c 0,1.856 -1.505,3.361 -3.361,3.361 -1.856,0 -3.361,-1.505 -3.361,-3.361 0,-1.856 1.505,-3.361 3.361,-3.361 1.856,0 3.361,1.505 3.361,3.361 z"
   id="path175" />
		</g>
		<rect
   x="47.608002"
   y="301.26099"
   style="fill:#adcf65"
   width="111.419"
   height="11.767"
   id="rect179" />
		<rect
   x="47.608002"
   y="364.84601"
   style="fill:#e7eaed"
   width="111.419"
   height="5.8839998"
   id="rect181" />
		<rect
   x="47.608002"
   y="319.24301"
   style="fill:#ffdd00"
   width="51.615002"
   height="39.765999"
   id="rect183" />
		<rect
   x="107.412"
   y="319.24301"
   style="fill:#e7eaed"
   width="51.615002"
   height="39.765999"
   id="rect185" />
		<rect
   x="111.54"
   y="324.08801"
   style="fill:#609ec7"
   width="43.359001"
   height="30.076"
   id="rect187" />
		<path
   style="fill:#ffdd00"
   d="m 127.229,334.186 c 0,2.899 -2.35,5.249 -5.249,5.249 -2.899,0 -5.249,-2.35 -5.249,-5.249 0,-2.899 2.35,-5.249 5.249,-5.249 2.899,0 5.249,2.35 5.249,5.249 z"
   id="path189" />
		<polygon
   style="fill:#ffffff"
   points="152.081,351.748 114.357,351.748 152.081,326.504 "
   id="polygon191" />
		<path
   style="fill:#ffffff"
   d="M 92.666,327.149 H 54.165 c -0.842,0 -1.531,-0.689 -1.531,-1.531 v 0 c 0,-0.842 0.689,-1.531 1.531,-1.531 h 38.501 c 0.842,0 1.531,0.689 1.531,1.531 v 0 c -0.001,0.842 -0.69,1.531 -1.531,1.531 z"
   id="path193" />
		<path
   style="fill:#ffffff"
   d="M 92.666,335.716 H 54.165 c -0.842,0 -1.531,-0.689 -1.531,-1.531 v 0 c 0,-0.842 0.689,-1.531 1.531,-1.531 h 38.501 c 0.842,0 1.531,0.689 1.531,1.531 v 0 c -0.001,0.843 -0.69,1.531 -1.531,1.531 z"
   id="path195" />
		<path
   style="fill:#ffffff"
   d="M 92.666,344.284 H 54.165 c -0.842,0 -1.531,-0.689 -1.531,-1.531 v 0 c 0,-0.842 0.689,-1.531 1.531,-1.531 h 38.501 c 0.842,0 1.531,0.689 1.531,1.531 v 0 c -0.001,0.842 -0.69,1.531 -1.531,1.531 z"
   id="path197" />
		<path
   style="fill:#ffffff"
   d="M 92.666,352.851 H 54.165 c -0.842,0 -1.531,-0.689 -1.531,-1.531 v 0 c 0,-0.842 0.689,-1.531 1.531,-1.531 h 38.501 c 0.842,0 1.531,0.689 1.531,1.531 v 0 c -0.001,0.842 -0.69,1.531 -1.531,1.531 z"
   id="path199" />
	</g>
	<g
   id="g207">
		<path
   style="fill:none;stroke:#ffffff;stroke-width:2;stroke-linecap:round;stroke-linejoin:round;stroke-miterlimit:10;stroke-opacity:1"
   d="m 689.71,209.964 v 152.812 c 0,3.45 -2.797,6.247 -6.247,6.247 H 636.07"
   id="path203" />
		<path
   style="fill:none;stroke:#ffffff;stroke-width:2;stroke-linecap:round;stroke-linejoin:round;stroke-miterlimit:10;stroke-opacity:1"
   d="m 673.158,209.964 v 138.224 c 0,2.866 -2.272,5.189 -5.075,5.189 H 636.07"
   id="path205" />
	</g>
	<g
   id="g211">
		<rect
   x="310.18701"
   y="51.207001"
   style="fill:#adcf65"
   width="130.177"
   height="31.684999"
   id="rect209" />
	</g>
	<g
   id="g215">
		<rect
   x="343.591"
   y="378.76501"
   style="fill:#adcf65"
   width="134.923"
   height="31.684999"
   id="rect213" />
	</g>
	<g
   id="g219">
		<rect
   x="503.62799"
   y="110.348"
   style="fill:#adcf65"
   width="111.882"
   height="31.684999"
   id="rect217" />
	</g>
	<g
   id="g223">
		<rect
   x="33.019001"
   y="391.25699"
   style="fill:#adcf65"
   width="215.955"
   height="31.684999"
   id="rect221" />
	</g>
	<g
   id="g229">
		<path
   style="fill:none;stroke:#ffffff;stroke-width:2;stroke-linecap:round;stroke-linejoin:round;stroke-miterlimit:10;stroke-opacity:1"
   d="m 219.753,202.4 v 65.601 c 0,2.866 2.272,5.189 5.075,5.189 h 74.609"
   id="path225" />
		<path
   style="fill:#ffffff;fill-opacity:1"
   d="m 302.631,272.397 -14.624,-5.062 c -0.545,-0.189 -1.114,0.216 -1.114,0.793 v 10.123 c 0,0.577 0.569,0.982 1.114,0.793 l 14.624,-5.062 c 0.753,-0.26 0.753,-1.324 0,-1.585 z"
   id="path227" />
	</g>
	<g
   id="g243">
		<g
   id="g235">
			<path
   style="fill:none;stroke:#ffffff;stroke-width:2;stroke-linecap:round;stroke-linejoin:round;stroke-miterlimit:10;stroke-opacity:1"
   d="M 76.777,258.724 V 87.023 c 0,-3.103 2.516,-5.619 5.619,-5.619 h 36.356"
   id="path231" />
			<path
   style="fill:#ffffff;fill-opacity:1"
   d="M 120.694,80.611 106.07,75.549 c -0.545,-0.189 -1.114,0.216 -1.114,0.793 v 10.123 c 0,0.577 0.568,0.982 1.114,0.793 l 14.624,-5.062 c 0.753,-0.26 0.753,-1.324 0,-1.585 z"
   id="path233" />
		</g>
		<g
   id="g241">
			<path
   style="fill:none;stroke:#ffffff;stroke-width:2;stroke-linecap:round;stroke-linejoin:round;stroke-miterlimit:10;stroke-opacity:1"
   d="M 93.929,258.724 V 105.36 c 0,-2.753 1.639,-4.985 3.66,-4.985 h 21.163"
   id="path237" />
			<path
   style="fill:#ffffff;fill-opacity:1"
   d="m 94.722,261.808 5.062,-14.624 c 0.189,-0.545 -0.216,-1.114 -0.793,-1.114 H 88.868 c -0.577,0 -0.982,0.568 -0.793,1.114 l 5.062,14.624 c 0.26,0.753 1.325,0.753 1.585,0 z"
   id="path239" />
		</g>
	</g>
	<g
   id="g249">
		<path
   style="fill:none;stroke:#ffffff;stroke-width:2;stroke-linecap:round;stroke-linejoin:round;stroke-miterlimit:10;stroke-opacity:1"
   d="m 203.201,200.4 v 82.189 c 0,3.45 2.797,6.247 6.247,6.247 h 89.989"
   id="path245" />
		<path
   style="fill:#ffffff;fill-opacity:1"
   d="m 202.408,199.246 -5.062,14.624 c -0.189,0.545 0.216,1.114 0.793,1.114 h 10.123 c 0.577,0 0.982,-0.569 0.793,-1.114 l -5.062,-14.624 c -0.26,-0.753 -1.325,-0.753 -1.585,0 z"
   id="path247" />
	</g>
	<g
   id="g267">
		<g
   id="g257">
			<path
   style="fill:none;stroke:#ffffff;stroke-width:2;stroke-linecap:round;stroke-linejoin:round;stroke-miterlimit:10;stroke-opacity:1"
   d="m 464.04,233.815 h 78.806 c 2.865,0 5.188,2.272 5.188,5.075 v 44.452"
   id="path251"
   sodipodi:nodetypes="cssc" />
			<path
   style="fill:#ffffff;fill-opacity:1"
   d="m 448.894,234.608 14.624,5.062 c 0.545,0.189 1.113,-0.216 1.113,-0.793 v -10.123 c 0,-0.577 -0.568,-0.982 -1.113,-0.793 l -14.624,5.062 c -0.753,0.26 -0.753,1.325 0,1.585 z"
   id="path253" />
			<path
   style="fill:#ffffff;fill-opacity:1"
   d="m 548.828,286.588 5.062,-14.624 c 0.189,-0.545 -0.216,-1.114 -0.793,-1.114 h -10.123 c -0.577,0 -0.982,0.568 -0.793,1.113 l 5.062,14.624 c 0.26,0.754 1.325,0.754 1.585,0.001 z"
   id="path255" />
		</g>
		<g
   id="g265">
			<path
   style="fill:none;stroke:#ffffff;stroke-width:2;stroke-linecap:round;stroke-linejoin:round;stroke-miterlimit:10;stroke-opacity:1"
   d="m 451.188,217.263 h 106.247 c 3.45,0 6.247,2.797 6.247,6.247 v 59.831"
   id="path259" />
			<path
   style="fill:#ffffff;fill-opacity:1"
   d="m 564.475,286.588 5.062,-14.624 c 0.189,-0.545 -0.216,-1.114 -0.793,-1.114 h -10.123 c -0.577,0 -0.982,0.568 -0.793,1.113 l 5.062,14.624 c 0.26,0.754 1.324,0.754 1.585,0.001 z"
   id="path261" />
			<path
   style="fill:#ffffff;fill-opacity:1"
   d="m 448.894,218.056 14.624,5.062 c 0.545,0.189 1.113,-0.216 1.113,-0.793 v -10.123 c 0,-0.577 -0.568,-0.982 -1.113,-0.793 l -14.624,5.062 c -0.753,0.26 -0.753,1.325 0,1.585 z"
   id="path263" />
		</g>
	</g>
</g>
<g
   id="TEXTS"
   transform="matrix(0.66837549,0,0,0.9314454,8.7500619,12.406818)">
	
		<g
   aria-label="API"
   transform="scale(0.82258007,1.2156871)"
   id="text270"
   style="font-size:71.2641px;font-family:BebasNeue-Regular;fill:#e7eaed;stroke-width:0.82258"><path
     d="m 428.95465,183.65128 -9.53436,25.85411 h 19.10351 z m -3.96685,-6.92459 h 7.96849 l 19.79945,51.95181 h -7.30735 l -4.73238,-13.32722 h -23.41833 l -4.73238,13.32722 h -7.41175 z"
     id="path2544" /><path
     d="m 467.37045,182.50298 v 19.52107 h 8.83842 q 4.90636,0 7.58573,-2.54017 2.67936,-2.54018 2.67936,-7.23776 0,-4.66279 -2.67936,-7.20296 -2.67937,-2.54018 -7.58573,-2.54018 z m -7.02898,-5.77629 h 15.8674 q 8.73403,0 13.18803,3.96685 4.48881,3.93205 4.48881,11.55258 0,7.69012 -4.48881,11.62217 -4.454,3.93205 -13.18803,3.93205 h -8.83842 v 20.87816 h -7.02898 z"
     id="path2546" /><path
     d="m 503.31567,176.72669 h 7.02898 v 51.95181 h -7.02898 z"
     id="path2548" /></g>
	<rect
   x="289.04401"
   y="318.26999"
   style="fill:none"
   width="172.09399"
   height="28.288"
   id="rect272" />
	
	<rect
   x="310.18701"
   y="91.834999"
   style="fill:none"
   width="152.951"
   height="39.726002"
   id="rect280" />
	
	<g
   aria-label="INTERNET"
   transform="scale(0.84764393,1.1797406)"
   id="text290"
   style="font-size:26.7127px;font-family:BebasNeue-Regular;fill:#ffffff;stroke-width:0.847644"><path
     d="m 378.25754,46.861085 h 2.63475 v 19.473662 h -2.63475 z"
     id="path2478" /><path
     d="m 386.1357,46.861085 h 3.54778 l 8.63467,16.291095 V 46.861085 h 2.55649 v 19.473662 h -3.54778 l -8.63467,-16.291094 v 16.291094 h -2.55649 z"
     id="path2480" /><path
     d="m 403.41809,46.861085 h 16.4737 v 2.217363 h -6.91296 v 17.256299 h -2.64779 V 49.078448 h -6.91295 z"
     id="path2482" /><path
     d="m 422.43523,46.861085 h 12.31289 v 2.217363 h -9.67814 v 5.765143 h 9.27379 v 2.217363 h -9.27379 v 7.056431 h 9.91292 v 2.217362 h -12.54767 z"
     id="path2484" /><path
     d="m 448.54794,57.20443 q 0.84781,0.286953 1.64346,1.226071 0.80868,0.939119 1.61737,2.582576 l 2.67388,5.32167 h -2.8304 l -2.49127,-4.995588 q -0.96521,-1.956496 -1.87824,-2.595618 -0.89999,-0.639123 -2.46519,-0.639123 h -2.86953 v 8.230329 h -2.63474 V 46.861085 h 5.94775 q 3.33908,0 4.98254,1.395634 1.64346,1.395634 1.64346,4.212989 0,1.839107 -0.86086,3.052135 -0.84782,1.213028 -2.47823,1.682587 z m -6.59992,-8.178156 v 6.912955 h 3.31301 q 1.90432,0 2.86952,-0.873902 0.97825,-0.886945 0.97825,-2.595619 0,-1.708673 -0.97825,-2.569532 -0.9652,-0.873902 -2.86952,-0.873902 z"
     id="path2486" /><path
     d="m 457.8739,46.861085 h 3.54778 l 8.63467,16.291095 V 46.861085 h 2.55649 v 19.473662 h -3.54778 l -8.63467,-16.291094 v 16.291094 h -2.55649 z"
     id="path2488" /><path
     d="m 477.85626,46.861085 h 12.31288 v 2.217363 H 480.491 v 5.765143 h 9.2738 v 2.217363 h -9.2738 v 7.056431 h 9.91292 v 2.217362 h -12.54766 z"
     id="path2490" /><path
     d="m 492.03433,46.861085 h 16.47371 v 2.217363 h -6.91296 v 17.256299 h -2.64779 V 49.078448 h -6.91296 z"
     id="path2492" /></g>
	<rect
   x="325.564"
   y="419.39301"
   style="fill:none"
   width="152.951"
   height="39.726002"
   id="rect292" />
	
	<g
   id="g304">
		
			<g
   aria-label="WEB SERVER"
   transform="scale(0.76651462,1.3046066)"
   id="text302"
   style="font-size:24.1559px;font-family:BebasNeue-Regular;fill:#ffffff;stroke-width:0.766515"><path
     d="m 460.13179,293.45434 h 2.40616 l 3.70359,14.88513 3.69179,-14.88513 h 2.67744 l 3.70359,14.88513 3.69179,-14.88513 h 2.41795 l -4.42307,17.60975 h -2.9959 l -3.71539,-15.28616 -3.75077,15.28616 h -2.99589 z"
     id="path2557" /><path
     d="m 485.58513,293.45434 h 11.13436 v 2.00513 h -8.7518 v 5.21333 h 8.38616 v 2.00513 h -8.38616 v 6.38103 h 8.96411 v 2.00513 h -11.34667 z"
     id="path2559" /><path
     d="m 503.23026,302.65434 v 6.4518 h 3.82154 q 1.92256,0 2.84256,-0.79026 0.9318,-0.80205 0.9318,-2.44154 0,-1.65128 -0.9318,-2.42974 -0.92,-0.79026 -2.84256,-0.79026 z m 0,-7.24205 v 5.30769 h 3.52667 q 1.74564,0 2.59487,-0.64871 0.86102,-0.66052 0.86102,-2.00513 0,-1.33282 -0.86102,-1.99334 -0.84923,-0.66051 -2.59487,-0.66051 z m -2.38257,-1.95795 h 6.08616 q 2.72461,0 4.19897,1.13231 1.47436,1.13231 1.47436,3.22 0,1.6159 -0.75487,2.57128 -0.75487,0.95539 -2.21744,1.19128 1.75744,0.37744 2.72462,1.58052 0.97897,1.19128 0.97897,2.9841 0,2.35897 -1.6041,3.64462 -1.6041,1.28564 -4.56461,1.28564 h -6.32206 z"
     id="path2561" /><path
     d="m 535.65436,294.03229 v 2.32359 q -1.35641,-0.64872 -2.55949,-0.96718 -1.20307,-0.31846 -2.32359,-0.31846 -1.94615,0 -3.00769,0.75487 -1.04974,0.75487 -1.04974,2.14667 0,1.16769 0.69589,1.76923 0.7077,0.58974 2.66565,0.95538 l 1.43897,0.29488 q 2.66564,0.50718 3.92769,1.79282 1.27385,1.27384 1.27385,3.42051 0,2.55949 -1.72205,3.88051 -1.71026,1.32103 -5.02462,1.32103 -1.25025,0 -2.66564,-0.28308 -1.40359,-0.28308 -2.91333,-0.83743 v -2.45334 q 1.45077,0.81385 2.84256,1.22667 1.3918,0.41282 2.73641,0.41282 2.04052,0 3.14923,-0.80205 1.10872,-0.80205 1.10872,-2.28821 0,-1.29743 -0.80205,-2.02872 -0.79026,-0.73128 -2.60667,-1.09692 l -1.45077,-0.28308 q -2.66564,-0.53076 -3.85692,-1.66307 -1.19128,-1.13231 -1.19128,-3.14923 0,-2.33539 1.63949,-3.68 1.65128,-1.34462 4.54102,-1.34462 1.23846,0 2.5241,0.2241 1.28565,0.22411 2.63026,0.67231 z"
     id="path2563" /><path
     d="m 540.43129,293.45434 h 11.13436 v 2.00513 h -8.7518 v 5.21333 H 551.2 v 2.00513 h -8.38615 v 6.38103 h 8.9641 v 2.00513 h -11.34666 z"
     id="path2565" /><path
     d="m 564.04462,302.80768 q 0.76667,0.25948 1.48616,1.10871 0.73128,0.84923 1.46256,2.33539 l 2.41795,4.81231 h -2.55949 l -2.25282,-4.51744 q -0.87282,-1.76923 -1.69846,-2.34718 -0.81385,-0.57795 -2.22923,-0.57795 h -2.59487 v 7.44257 h -2.38257 v -17.60975 h 5.37846 q 3.01949,0 4.50564,1.26205 1.48616,1.26205 1.48616,3.80975 0,1.66307 -0.77846,2.76 -0.76667,1.09692 -2.24103,1.52154 z m -5.9682,-7.39539 v 6.25128 h 2.99589 q 1.72205,0 2.59488,-0.79025 0.88461,-0.80205 0.88461,-2.34718 0,-1.54513 -0.88461,-2.32359 -0.87283,-0.79026 -2.59488,-0.79026 z"
     id="path2567" /><path
     d="m 575.69795,311.06409 -6.72308,-17.60975 h 2.48872 l 5.57898,14.82616 5.59077,-14.82616 h 2.47692 l -6.71128,17.60975 z"
     id="path2569" /><path
     d="m 587.68155,293.45434 h 11.13435 v 2.00513 h -8.75179 v 5.21333 h 8.38615 v 2.00513 h -8.38615 v 6.38103 h 8.9641 v 2.00513 h -11.34666 z"
     id="path2571" /><path
     d="m 611.29487,302.80768 q 0.76667,0.25948 1.48616,1.10871 0.73128,0.84923 1.46256,2.33539 l 2.41795,4.81231 h -2.55949 l -2.25282,-4.51744 q -0.87282,-1.76923 -1.69846,-2.34718 -0.81385,-0.57795 -2.22923,-0.57795 h -2.59487 v 7.44257 h -2.38257 v -17.60975 h 5.37847 q 3.01948,0 4.50564,1.26205 1.48615,1.26205 1.48615,3.80975 0,1.66307 -0.77846,2.76 -0.76667,1.09692 -2.24103,1.52154 z m -5.9682,-7.39539 v 6.25128 h 2.9959 q 1.72205,0 2.59487,-0.79025 0.88461,-0.80205 0.88461,-2.34718 0,-1.54513 -0.88461,-2.32359 -0.87282,-0.79026 -2.59487,-0.79026 z"
     id="path2573" /></g>
	</g>
	<rect
   x="462.55899"
   y="150.976"
   style="fill:none"
   width="152.951"
   height="39.726002"
   id="rect306" />
	
	<g
   id="g318">
		
			<g
   aria-label="DATABASE"
   transform="scale(0.76349573,1.309765)"
   id="text316"
   style="font-size:24.0608px;font-family:BebasNeue-Regular;fill:#ffffff;stroke-width:0.763496"><path
     d="m 675.10468,89.313601 v 13.639939 h 2.86662 q 3.63026,0 5.31029,-1.64478 1.69177,-1.644785 1.69177,-5.192813 0,-3.524532 -1.69177,-5.157565 -1.68003,-1.644781 -5.31029,-1.644781 z m -2.37319,-1.950241 h 4.8756 q 5.09883,0 7.48376,2.126468 2.38493,2.114719 2.38493,6.626119 0,4.534893 -2.39668,6.661363 -2.39668,2.12647 -7.47201,2.12647 h -4.8756 z"
     id="path2511" /><path
     d="m 696.69831,89.7013 -3.21908,8.729089 h 6.4499 z m -1.33933,-2.33794 h 2.6904 l 6.68486,17.54042 h -2.46717 l -1.59779,-4.49965 h -7.9067 l -1.59779,4.49965 h -2.50242 z"
     id="path2513" /><path
     d="m 702.99547,87.36336 h 14.83828 v 1.997235 h -6.22668 v 15.543185 h -2.38493 V 89.360595 h -6.22667 z"
     id="path2515" /><path
     d="m 724.11916,89.7013 -3.21907,8.729089 h 6.44989 z m -1.33932,-2.33794 h 2.69039 l 6.68486,17.54042 h -2.46717 l -1.59779,-4.49965 h -7.9067 l -1.59779,4.49965 h -2.50241 z"
     id="path2517" /><path
     d="m 737.08943,96.527142 v 6.426398 h 3.8065 q 1.91499,0 2.83137,-0.78715 0.92813,-0.79889 0.92813,-2.431925 0,-1.644781 -0.92813,-2.420178 -0.91638,-0.787145 -2.83137,-0.787145 z m 0,-7.213541 v 5.286797 h 3.51279 q 1.73876,0 2.58465,-0.646164 0.85764,-0.657912 0.85764,-1.997234 0,-1.327574 -0.85764,-1.985486 -0.84589,-0.657913 -2.58465,-0.657913 z m -2.37318,-1.950241 h 6.06219 q 2.71389,0 4.18245,1.127851 1.46855,1.12785 1.46855,3.207323 0,1.609536 -0.7519,2.561159 -0.7519,0.951624 -2.20871,1.186593 1.75052,0.37595 2.71389,1.57429 0.97512,1.186593 0.97512,2.972355 0,2.349689 -1.59778,3.630269 -1.59779,1.28058 -4.54665,1.28058 h -6.29716 z"
     id="path2519" /><path
     d="m 757.08527,89.7013 -3.21907,8.729089 h 6.44989 z m -1.33932,-2.33794 h 2.69039 l 6.68486,17.54042 h -2.46717 l -1.59779,-4.49965 h -7.90669 l -1.59779,4.49965 h -2.50242 z"
     id="path2521" /><path
     d="m 778.19722,87.939034 v 2.314442 q -1.35107,-0.646164 -2.54941,-0.963372 -1.19834,-0.317208 -2.31444,-0.317208 -1.9385,0 -2.99586,0.7519 -1.04561,0.7519 -1.04561,2.138216 0,1.163095 0.69316,1.762266 0.70491,0.587422 2.65515,0.951623 l 1.43331,0.293711 q 2.65514,0.505183 3.91223,1.785763 1.26883,1.268831 1.26883,3.407045 0,2.54941 -1.71527,3.86524 -1.70353,1.31582 -5.00484,1.31582 -1.24533,0 -2.65515,-0.28196 -1.39806,-0.28196 -2.90186,-0.83414 v -2.44367 q 1.44506,0.81064 2.83137,1.22183 1.38632,0.4112 2.72564,0.4112 2.03248,0 3.13683,-0.79889 1.10436,-0.7989 1.10436,-2.2792 0,-1.29233 -0.7989,-2.020733 -0.78714,-0.728403 -2.5964,-1.092605 L 771.9353,96.84435 q -2.65515,-0.52868 -3.84174,-1.65653 -1.18659,-1.12785 -1.18659,-3.136833 0,-2.326191 1.63303,-3.665512 1.64478,-1.339322 4.52315,-1.339322 1.23359,0 2.51417,0.22322 1.28058,0.22322 2.6199,0.669661 z"
     id="path2523" /><path
     d="m 782.95534,87.36336 h 11.09052 v 1.997235 h -8.71734 v 5.192809 h 8.35314 v 1.997235 h -8.35314 v 6.355901 h 8.92882 v 1.99724 h -11.302 z"
     id="path2525" /></g>
	</g>
	<rect
   x="33.019001"
   y="431.88501"
   style="fill:none"
   width="215.955"
   height="25.372999"
   id="rect320" />
	
	<g
   id="g330">
		<g
   aria-label="WEB APP IN BROWSER"
   transform="scale(0.75615864,1.3224738)"
   id="text328"
   style="font-size:23.8296px;font-family:BebasNeue-Regular;fill:#ffffff;stroke-width:0.756159"><path
     d="m 52.44556,298.9352 h 2.373651 l 3.653562,14.68406 3.641926,-14.68406 h 2.641269 l 3.653562,14.68406 3.641926,-14.68406 h 2.385287 l -4.36333,17.37187 h -2.955429 l -3.665197,-15.07967 -3.700104,15.07967 h -2.955429 z"
     id="path2594" /><path
     d="m 77.555069,298.9352 h 10.983956 v 1.97804 h -8.633576 v 5.14291 h 8.272874 v 1.97804 h -8.272874 v 6.29483 h 8.843016 v 1.97805 H 77.555069 Z"
     id="path2596" /><path
     d="m 94.961846,308.01092 v 6.36465 h 3.769917 q 1.896597,0 2.804167,-0.77958 0.91921,-0.79122 0.91921,-2.40856 0,-1.62898 -0.91921,-2.39693 -0.90757,-0.77958 -2.804167,-0.77958 z m 0,-7.14422 v 5.23599 h 3.479028 q 1.722056,0 2.559816,-0.63995 0.8494,-0.65159 0.8494,-1.97804 0,-1.31482 -0.8494,-1.96641 -0.83776,-0.65159 -2.559816,-0.65159 z m -2.350381,-1.9315 h 6.003942 q 2.687813,0 4.142253,1.11701 1.45445,1.11701 1.45445,3.1765 0,1.59407 -0.74468,2.53655 -0.74467,0.94248 -2.18748,1.17519 1.73369,0.37234 2.68781,1.55917 0.96575,1.17519 0.96575,2.94379 0,2.32711 -1.58244,3.59538 -1.58243,1.26828 -4.502952,1.26828 h -6.236653 z"
     id="path2598" /><path
     d="m 122.34029,301.25067 -3.18814,8.64521 h 6.38791 z m -1.32646,-2.31547 h 2.66454 l 6.62063,17.37187 h -2.44346 l -1.58244,-4.45642 h -7.83072 l -1.58244,4.45642 h -2.47837 z"
     id="path2600" /><path
     d="m 135.18593,300.8667 v 6.52754 h 2.95543 q 1.64061,0 2.53655,-0.8494 0.89593,-0.84939 0.89593,-2.42019 0,-1.55916 -0.89593,-2.40856 -0.89594,-0.84939 -2.53655,-0.84939 z m -2.35038,-1.9315 h 5.30581 q 2.92052,0 4.40987,1.32645 1.50099,1.31482 1.50099,3.863 0,2.57146 -1.50099,3.88627 -1.48935,1.31482 -4.40987,1.31482 h -2.95543 v 6.98133 h -2.35038 z"
     id="path2602" /><path
     d="m 149.55583,300.8667 v 6.52754 h 2.95543 q 1.64061,0 2.53655,-0.8494 0.89594,-0.84939 0.89594,-2.42019 0,-1.55916 -0.89594,-2.40856 -0.89594,-0.84939 -2.53655,-0.84939 z m -2.35038,-1.9315 h 5.30581 q 2.92052,0 4.40987,1.32645 1.50099,1.31482 1.50099,3.863 0,2.57146 -1.50099,3.88627 -1.48935,1.31482 -4.40987,1.31482 h -2.95543 v 6.98133 h -2.35038 z"
     id="path2604" /><path
     d="m 169.15009,298.9352 h 2.35038 v 17.37187 h -2.35038 z"
     id="path2606" /><path
     d="m 176.17796,298.9352 h 3.16487 l 7.70273,14.53279 V 298.9352 h 2.28057 v 17.37187 h -3.16487 l -7.70273,-14.5328 v 14.5328 h -2.28057 z"
     id="path2608" /><path
     d="m 203.92873,308.01092 v 6.36465 h 3.76992 q 1.8966,0 2.80417,-0.77958 0.91921,-0.79122 0.91921,-2.40856 0,-1.62898 -0.91921,-2.39693 -0.90757,-0.77958 -2.80417,-0.77958 z m 0,-7.14422 v 5.23599 h 3.47903 q 1.72206,0 2.55982,-0.63995 0.8494,-0.65159 0.8494,-1.97804 0,-1.31482 -0.8494,-1.96641 -0.83776,-0.65159 -2.55982,-0.65159 z m -2.35038,-1.9315 h 6.00395 q 2.68781,0 4.14225,1.11701 1.45444,1.11701 1.45444,3.1765 0,1.59407 -0.74467,2.53655 -0.74468,0.94248 -2.18748,1.17519 1.73369,0.37234 2.68781,1.55917 0.96575,1.17519 0.96575,2.94379 0,2.32711 -1.58244,3.59538 -1.58243,1.26828 -4.50295,1.26828 h -6.23666 z"
     id="path2610" /><path
     d="m 226.16427,308.16219 q 0.75631,0.25598 1.46608,1.09374 0.7214,0.83776 1.4428,2.30383 l 2.38529,4.74731 h -2.52491 l -2.22239,-4.45642 q -0.86103,-1.74533 -1.67552,-2.31547 -0.80285,-0.57014 -2.19912,-0.57014 h -2.55982 v 7.34203 H 217.9263 V 298.9352 h 5.30581 q 2.9787,0 4.44478,1.245 1.46608,1.245 1.46608,3.75828 0,1.64061 -0.76795,2.72272 -0.75631,1.08211 -2.21075,1.50099 z m -5.88759,-7.29549 v 6.16684 h 2.95543 q 1.69879,0 2.55982,-0.77958 0.87267,-0.79122 0.87267,-2.31548 0,-1.52425 -0.87267,-2.2922 -0.86103,-0.77958 -2.55982,-0.77958 z"
     id="path2612" /><path
     d="m 241.53483,300.52927 q -2.55982,0 -4.07244,1.90823 -1.50099,1.90823 -1.50099,5.20109 0,3.28122 1.50099,5.18945 1.51262,1.90823 4.07244,1.90823 2.55982,0 4.04917,-1.90823 1.50099,-1.90823 1.50099,-5.18945 0,-3.29286 -1.50099,-5.20109 -1.48935,-1.90823 -4.04917,-1.90823 z m 0,-1.90823 q 3.65356,0 5.84104,2.4551 2.18749,2.44346 2.18749,6.56245 0,4.10734 -2.18749,6.56244 -2.18748,2.44347 -5.84104,2.44347 -3.6652,0 -5.86432,-2.44347 -2.18748,-2.44346 -2.18748,-6.56244 0,-4.11899 2.18748,-6.56245 2.19912,-2.4551 5.86432,-2.4551 z"
     id="path2614" /><path
     d="m 251.69266,298.9352 h 2.37365 l 3.65356,14.68406 3.64193,-14.68406 h 2.64127 l 3.65356,14.68406 3.64193,-14.68406 h 2.38528 l -4.36333,17.37187 h -2.95543 l -3.66519,-15.07967 -3.70011,15.07967 h -2.95542 z"
     id="path2616" /><path
     d="m 287.21598,299.50534 v 2.2922 q -1.33808,-0.63995 -2.52491,-0.95411 -1.18683,-0.31416 -2.2922,-0.31416 -1.91987,0 -2.96707,0.74467 -1.03556,0.74468 -1.03556,2.11767 0,1.15192 0.6865,1.74533 0.69813,0.58178 2.62963,0.94248 l 1.41954,0.29089 q 2.62963,0.50033 3.87463,1.7686 1.25664,1.25664 1.25664,3.37431 0,2.52492 -1.69879,3.8281 -1.68715,1.30318 -4.95674,1.30318 -1.23337,0 -2.62963,-0.27925 -1.38463,-0.27926 -2.87398,-0.82613 v -2.42019 q 1.43117,0.80285 2.80416,1.21009 1.373,0.40725 2.69945,0.40725 2.01295,0 3.10669,-0.79122 1.09374,-0.79122 1.09374,-2.25729 0,-1.27991 -0.79121,-2.00132 -0.77959,-0.7214 -2.57146,-1.0821 l -1.43117,-0.27926 q -2.62964,-0.5236 -3.80483,-1.64061 -1.17519,-1.11701 -1.17519,-3.10669 0,-2.30384 1.61734,-3.63029 1.62898,-1.32645 4.47969,-1.32645 1.22173,0 2.49001,0.22107 1.26827,0.22108 2.59472,0.66323 z"
     id="path2618" /><path
     d="m 291.92837,298.9352 h 10.98396 v 1.97804 h -8.63357 v 5.14291 h 8.27287 v 1.97804 h -8.27287 v 6.29483 h 8.84301 v 1.97805 h -11.1934 z"
     id="path2620" /><path
     d="m 315.22274,308.16219 q 0.75631,0.25598 1.46608,1.09374 0.7214,0.83776 1.44281,2.30383 l 2.38528,4.74731 H 317.992 l -2.22239,-4.45642 q -0.86103,-1.74533 -1.67552,-2.31547 -0.80285,-0.57014 -2.19912,-0.57014 h -2.55982 v 7.34203 h -2.35038 V 298.9352 h 5.30581 q 2.9787,0 4.44478,1.245 1.46608,1.245 1.46608,3.75828 0,1.64061 -0.76795,2.72272 -0.75631,1.08211 -2.21075,1.50099 z m -5.88759,-7.29549 v 6.16684 h 2.95543 q 1.69879,0 2.55982,-0.77958 0.87267,-0.79122 0.87267,-2.31548 0,-1.52425 -0.87267,-2.2922 -0.86103,-0.77958 -2.55982,-0.77958 z"
     id="path2622" /></g>
	</g>
</g>
</svg>
