<?xml version="1.0" encoding="UTF-8" standalone="no"?>
<!-- Generator: Adobe Illustrator 27.5.0, SVG Export Plug-In . SVG Version: 6.00 Build 0)  -->

<svg
   version="1.1"
   x="0px"
   y="0px"
   viewBox="0 0 1000 640.2998"
   xml:space="preserve"
   id="svg490"
   sodipodi:docname="11668422_20943564.svg"
   width="1000"
   height="640.2998"
   inkscape:version="1.1.2 (0a00cf5339, 2022-02-04)"
   xmlns:inkscape="http://www.inkscape.org/namespaces/inkscape"
   xmlns:sodipodi="http://sodipodi.sourceforge.net/DTD/sodipodi-0.dtd"
   xmlns="http://www.w3.org/2000/svg"
   xmlns:svg="http://www.w3.org/2000/svg"><defs
   id="defs494" /><sodipodi:namedview
   id="namedview492"
   pagecolor="#ffffff"
   bordercolor="#666666"
   borderopacity="1.0"
   inkscape:pageshadow="2"
   inkscape:pageopacity="0.0"
   inkscape:pagecheckerboard="0"
   showgrid="false"
   fit-margin-top="0"
   fit-margin-left="0"
   fit-margin-right="0"
   fit-margin-bottom="0"
   inkscape:zoom="1.1328262"
   inkscape:cx="869.50675"
   inkscape:cy="390.1746"
   inkscape:window-width="1920"
   inkscape:window-height="1008"
   inkscape:window-x="0"
   inkscape:window-y="0"
   inkscape:window-maximized="1"
   inkscape:current-layer="svg490" />

<g
   id="Illustration"
   transform="matrix(0.22867845,0,0,0.22867845,300.22897,-104.31269)">
	<g
   id="g487">
		<linearGradient
   id="SVGID_1_"
   gradientUnits="userSpaceOnUse"
   x1="3617.6348"
   y1="4068.5498"
   x2="1140.387"
   y2="991.96338">
			<stop
   offset="0"
   style="stop-color:#DAE3FE"
   id="stop9" />
			<stop
   offset="1"
   style="stop-color:#E9EFFD"
   id="stop11" />
		</linearGradient>
		
		<g
   id="g66">
			<g
   id="g40">
				<g
   style="opacity:0.3"
   id="g20">
					<path
   style="fill:#91b3fa"
   d="m 1068.581,1380.663 c 4.289,-5.827 12.491,-7.07 18.314,-2.78 11.317,8.333 23.163,16.3 35.212,23.677 6.096,3.732 8.06,11.651 4.46,17.79 -0.043,0.073 -0.085,0.146 -0.129,0.22 -3.777,6.169 -11.841,8.106 -18.012,4.327 -12.681,-7.766 -25.154,-16.151 -37.066,-24.926 -5.448,-4.01 -6.887,-11.447 -3.538,-17.157 0.23,-0.391 0.481,-0.778 0.759,-1.151 z m 114.635,52.785 c 12.936,5.664 26.235,10.828 39.543,15.352 6.844,2.326 10.512,9.765 8.186,16.615 -2.36,6.866 -9.771,10.512 -16.62,8.183 -14,-4.759 -28.001,-10.193 -41.613,-16.15 -6.626,-2.901 -9.646,-10.627 -6.744,-17.253 0.211,-0.481 0.447,-0.944 0.706,-1.386 3.311,-5.647 10.397,-8.051 16.542,-5.361 z m 106.153,32.932 c 13.834,2.635 27.949,4.7 41.964,6.137 7.194,0.738 12.431,7.171 11.693,14.366 -0.745,7.188 -7.169,12.427 -14.366,11.693 -14.758,-1.514 -29.627,-3.689 -44.192,-6.464 -7.106,-1.354 -11.767,-8.212 -10.417,-15.318 0.289,-1.515 0.828,-2.919 1.565,-4.176 2.723,-4.643 8.162,-7.303 13.753,-6.238 z m 110.852,8.364 c 14.091,-0.523 28.32,-1.668 42.298,-3.394 7.18,-0.885 13.719,4.217 14.605,11.394 0.879,7.179 -4.222,13.713 -11.394,14.605 -14.719,1.816 -29.7,3.018 -44.528,3.575 -7.227,0.269 -13.308,-5.373 -13.577,-12.6 -0.097,-2.586 0.563,-5.026 1.782,-7.104 2.188,-3.732 6.173,-6.3 10.814,-6.476 z m 109.953,-16.54 c 13.589,-3.632 27.217,-7.897 40.497,-12.682 6.809,-2.448 14.311,1.083 16.762,7.887 2.453,6.81 -1.081,14.313 -7.889,16.758 -13.972,5.033 -28.311,9.521 -42.61,13.342 -6.986,1.87 -14.166,-2.282 -16.033,-9.272 -0.942,-3.521 -0.355,-7.091 1.355,-10.007 1.682,-2.867 4.451,-5.099 7.918,-6.026 z m 103.552,-40.456 c 12.468,-6.556 24.807,-13.729 36.679,-21.322 6.093,-3.897 14.195,-2.117 18.09,3.975 3.899,6.095 2.122,14.192 -3.974,18.093 -12.492,7.992 -25.484,15.541 -38.604,22.44 -6.404,3.365 -14.32,0.905 -17.689,-5.498 -2.187,-4.159 -1.912,-8.956 0.302,-12.732 1.194,-2.037 2.95,-3.776 5.196,-4.956 z m 277.159,-399.678 c 7.194,0.749 12.42,7.189 11.67,14.385 -1.538,14.738 -3.741,29.611 -6.549,44.198 -1.367,7.104 -8.234,11.755 -15.337,10.385 -7.1,-1.364 -11.75,-8.231 -10.384,-15.334 2.666,-13.851 4.755,-27.973 6.214,-41.969 0.2,-1.92 0.804,-3.698 1.722,-5.262 2.517,-4.293 7.388,-6.955 12.664,-6.403 z m -185.207,337.312 c 10.692,-9.159 21.116,-18.894 30.981,-28.939 5.072,-5.16 13.366,-5.234 18.525,-0.165 5.163,5.071 5.207,13.341 0.163,18.523 -10.39,10.576 -21.367,20.829 -32.628,30.473 -5.493,4.705 -13.761,4.068 -18.469,-1.427 -3.732,-4.357 -4.103,-10.461 -1.354,-15.147 0.716,-1.22 1.648,-2.343 2.782,-3.318 z m 163.525,-225.237 c 6.843,2.34 10.493,9.789 8.151,16.634 -4.799,14.018 -10.267,28.015 -16.243,41.603 -2.886,6.641 -10.643,9.624 -17.264,6.714 -6.619,-2.912 -9.625,-10.642 -6.714,-17.265 5.681,-12.913 10.878,-26.215 15.435,-39.538 0.291,-0.85 0.664,-1.648 1.101,-2.394 3.086,-5.261 9.542,-7.806 15.534,-5.754 z m -87.83,143.901 c 8.367,-11.314 16.357,-23.138 23.744,-35.149 3.788,-6.165 11.854,-8.086 18.018,-4.296 6.08,3.741 8.033,11.647 4.438,17.777 -0.047,0.08 -0.095,0.161 -0.146,0.238 -7.773,12.648 -16.183,25.097 -24.988,37.006 -4.305,5.814 -12.505,7.043 -18.322,2.742 -5.432,-4.016 -6.861,-11.44 -3.517,-17.142 0.234,-0.401 0.494,-0.794 0.773,-1.176 z"
   id="path16" />
					<path
   style="fill:#91b3fa"
   d="m 1879.442,932.512 c -1.304,2.224 -1.97,4.856 -1.755,7.624 0.523,6.733 0.91,13.588 1.163,20.379 0.263,7.227 6.34,12.875 13.566,12.609 7.229,-0.262 12.885,-6.337 12.608,-13.57 -0.26,-7.142 -0.67,-14.352 -1.218,-21.437 -0.558,-7.21 -6.859,-12.608 -14.067,-12.048 -4.448,0.342 -8.201,2.868 -10.297,6.443 z"
   id="path18" />
				</g>
				<g
   style="opacity:0.3"
   id="g28">
					<path
   style="fill:#91b3fa"
   d="m 1695.601,578.031 c -3.198,5.453 -2.058,12.571 2.975,16.721 5.211,4.293 10.421,8.768 15.479,13.301 5.39,4.827 13.67,4.372 18.496,-1.015 4.846,-5.411 4.37,-13.671 -1.016,-18.496 -5.328,-4.77 -10.813,-9.485 -16.299,-14.007 -5.582,-4.6 -13.837,-3.803 -18.438,1.778 -0.451,0.548 -0.849,1.125 -1.197,1.718 z"
   id="path22" />
					<path
   style="fill:#91b3fa"
   d="m 944.696,691.031 c 3.959,-6.053 12.078,-7.75 18.134,-3.787 6.052,3.961 7.74,12.066 3.786,18.131 -7.541,11.523 -14.706,23.549 -21.387,35.872 -3.409,6.34 -11.4,8.718 -17.759,5.271 -6.359,-3.447 -8.719,-11.397 -5.274,-17.758 2.895,-5.34 5.867,-10.61 8.915,-15.809 4.35,-7.417 8.919,-14.793 13.585,-21.92 z m -35.302,95.018 c 6.764,2.554 10.179,10.112 7.622,16.878 -4.903,12.993 -9.315,26.331 -13.104,39.649 -1.956,6.955 -9.223,10.994 -16.182,9.015 -6.954,-1.978 -10.99,-9.224 -9.01,-16.18 3.988,-14.022 8.629,-28.065 13.793,-41.735 0.268,-0.709 0.591,-1.383 0.961,-2.013 3.169,-5.405 9.859,-7.902 15.92,-5.614 z m 78.378,-151.926 c 9.57,-10.989 19.742,-21.72 30.238,-31.89 5.195,-5.034 13.487,-4.904 18.524,0.291 5.032,5.194 4.895,13.479 -0.292,18.521 -9.969,9.657 -19.627,19.844 -28.713,30.281 -4.753,5.454 -13.024,6.027 -18.482,1.275 -4.825,-4.203 -5.826,-11.163 -2.702,-16.489 0.406,-0.693 0.881,-1.36 1.427,-1.989 z M 878.734,894.116 c 7.162,1.006 12.156,7.63 11.146,14.792 -1.931,13.731 -3.295,27.708 -4.06,41.542 -0.396,7.229 -6.573,12.755 -13.799,12.355 -7.222,-0.398 -12.752,-6.574 -12.354,-13.796 0.804,-14.57 2.242,-29.29 4.274,-43.747 0.247,-1.747 0.823,-3.366 1.664,-4.8 2.606,-4.442 7.715,-7.107 13.129,-6.346 z m 193.782,-337.879 c 11.745,-8.609 24.025,-16.836 36.499,-24.452 6.173,-3.77 14.23,-1.824 18.001,4.347 3.775,6.175 1.824,14.236 -4.349,18.006 -11.847,7.237 -23.511,15.049 -34.664,23.226 -5.835,4.276 -14.033,3.013 -18.309,-2.822 -3.186,-4.348 -3.296,-10.005 -0.734,-14.374 0.877,-1.496 2.07,-2.842 3.556,-3.931 z m 99.772,-57.412 c 13.376,-5.848 27.154,-11.198 40.952,-15.906 6.849,-2.333 14.29,1.322 16.626,8.169 2.337,6.857 -1.32,14.297 -8.171,16.623 -13.11,4.473 -26.204,9.558 -38.916,15.113 -6.628,2.898 -14.35,-0.127 -17.248,-6.755 -1.744,-3.994 -1.339,-8.386 0.709,-11.879 1.352,-2.304 3.416,-4.216 6.048,-5.365 z m 109.916,-34.308 c 14.339,-2.798 28.958,-5.02 43.441,-6.608 7.193,-0.787 13.657,4.403 14.447,11.592 0.789,7.2 -4.405,13.659 -11.592,14.447 -13.766,1.506 -27.651,3.621 -41.28,6.28 -7.099,1.385 -13.979,-3.248 -15.362,-10.346 -0.637,-3.262 0,-6.474 1.553,-9.13 1.835,-3.129 4.954,-5.485 8.793,-6.235 z m 114.781,-9.512 c 14.602,0.405 29.357,1.439 43.854,3.076 7.188,0.81 12.359,7.295 11.547,14.485 -0.81,7.176 -7.298,12.353 -14.486,11.543 -13.763,-1.553 -27.771,-2.535 -41.644,-2.919 -7.23,-0.201 -12.928,-6.223 -12.726,-13.454 0.064,-2.284 0.708,-4.413 1.787,-6.253 2.337,-3.988 6.718,-6.614 11.668,-6.478 z m 114.125,15.951 c 14.12,3.604 28.272,7.861 42.068,12.654 6.834,2.374 10.451,9.839 8.076,16.672 -2.369,6.811 -9.835,10.449 -16.669,8.074 -13.106,-4.554 -26.547,-8.596 -39.959,-12.022 -7.007,-1.787 -11.238,-8.922 -9.448,-15.929 0.312,-1.22 0.783,-2.358 1.39,-3.393 2.878,-4.907 8.755,-7.535 14.542,-6.056 z m 107.726,40.577 c 9.577,4.857 19.123,10.071 28.369,15.493 3.35,1.964 6.664,3.958 9.953,5.985 6.156,3.793 8.241,11.858 4.278,18.019 -3.791,6.16 -11.86,8.077 -18.021,4.283 -3.124,-1.924 -6.28,-3.825 -9.462,-5.691 -8.792,-5.156 -17.861,-10.11 -26.967,-14.729 -6.451,-3.27 -9.027,-11.154 -5.755,-17.604 0.124,-0.242 0.252,-0.481 0.388,-0.712 3.475,-5.926 11.01,-8.194 17.217,-5.044 z"
   id="path24" />
					<path
   style="fill:#91b3fa"
   d="m 862.414,1013.039 c -1.317,2.246 -1.98,4.903 -1.753,7.691 0.582,7.067 1.325,14.255 2.209,21.365 0.89,7.18 7.432,12.277 14.61,11.385 7.179,-0.894 12.279,-7.425 11.385,-14.61 -0.838,-6.754 -1.543,-13.582 -2.097,-20.292 -0.59,-7.206 -6.916,-12.57 -14.126,-11.977 -4.42,0.367 -8.145,2.885 -10.228,6.438 z"
   id="path26" />
				</g>
				<g
   id="g38">
					<path
   style="fill:#91b3fa"
   d="m 1033.543,1158.411 c 0.911,2.448 3.273,4.049 5.885,3.986 l 74.484,-1.78 c 19.243,28.989 43.247,55.117 71.544,77.058 l -7.24,74.105 c -0.253,2.6 1.17,5.073 3.545,6.161 l 81.253,37.209 c 2.375,1.089 5.179,0.549 6.979,-1.34 l 51.377,-53.893 c 35.097,7.091 70.562,8.196 105.081,3.827 l 47.311,57.555 c 1.659,2.017 4.415,2.76 6.862,1.85 l 83.766,-31.143 c 2.447,-0.91 4.05,-3.273 3.986,-5.885 l -1.781,-74.484 c 28.99,-19.243 55.119,-43.246 77.059,-71.545 l 74.105,7.24 c 2.6,0.254 5.074,-1.168 6.161,-3.543 l 37.211,-81.254 c 1.087,-2.375 0.547,-5.177 -1.342,-6.979 l -53.894,-51.377 c 7.091,-35.098 8.196,-70.562 3.826,-105.081 l 57.557,-47.311 c 2.017,-1.658 2.762,-4.414 1.85,-6.862 l -31.143,-83.766 c -0.91,-2.447 -3.274,-4.048 -5.883,-3.986 l -74.486,1.781 c -19.242,-28.99 -43.246,-55.117 -71.544,-77.058 l 7.239,-74.105 c 0.255,-2.599 -1.168,-5.074 -3.543,-6.161 l -81.255,-37.21 c -2.375,-1.087 -5.177,-0.548 -6.979,1.342 l -51.377,53.893 c -35.097,-7.091 -70.562,-8.196 -105.081,-3.827 l -47.311,-57.555 c -1.657,-2.018 -4.413,-2.761 -6.862,-1.851 l -83.766,31.144 c -2.448,0.91 -4.048,3.273 -3.986,5.883 l 1.781,74.485 c -28.989,19.242 -55.117,43.247 -77.059,71.544 l -74.104,-7.24 c -2.598,-0.253 -5.072,1.169 -6.161,3.544 l -37.209,81.254 c -1.087,2.374 -0.549,5.177 1.342,6.979 l 53.892,51.376 c -7.091,35.098 -8.194,70.562 -3.826,105.081 l -57.556,47.311 c -2.017,1.658 -2.76,4.415 -1.85,6.862 z"
   id="path30" />
					<g
   id="g34">
						<path
   style="fill:#bdd0fb"
   d="m 1315.729,923.529 c 31.021,-38.616 87.671,-44.8 126.292,-13.778 18.709,15.025 30.445,36.439 33.045,60.292 2.604,23.849 -4.234,47.291 -19.268,65.997 -31.021,38.616 -87.671,44.8 -126.292,13.779 -35.133,-28.222 -43.419,-77.656 -21.267,-115.43 2.196,-3.745 4.694,-7.378 7.49,-10.86 z m 138.504,48.785 c -1.996,-18.29 -10.993,-34.705 -25.338,-46.229 -29.606,-23.78 -73.048,-19.043 -96.829,10.566 -23.8,29.609 -19.043,73.048 10.566,96.832 29.606,23.78 73.048,19.043 96.829,-10.566 2.156,-2.686 4.088,-5.494 5.799,-8.411 7.43,-12.668 10.594,-27.328 8.973,-42.192 z"
   id="path32" />
					</g>
					<path
   style="fill:#bdd0fb"
   d="m 1197.248,867.169 c -3.804,6.487 -7.305,13.204 -10.48,20.135 v 0 c -1,2.181 -1.963,4.38 -2.893,6.592 -4.578,10.912 -8.281,22.171 -11.053,33.603 -0.038,0.156 -0.076,0.312 -0.114,0.467 -0.105,0.442 -0.21,0.885 -0.311,1.33 -0.203,0.862 -0.396,1.728 -0.588,2.591 -0.503,2.273 0.554,4.527 2.459,5.647 0.463,0.272 0.978,0.476 1.53,0.598 2.825,0.624 5.614,-1.168 6.241,-3.988 3.206,-14.54 8.004,-28.829 14.257,-42.474 31.032,-67.793 93.794,-111.22 162.678,-120.789 38.314,-5.327 78.523,-0.175 116.225,17.093 6.612,3.026 13.023,6.365 19.209,9.996 41.641,24.426 73.35,62.117 90.399,107.977 19.587,52.678 17.486,109.832 -5.913,160.927 -48.337,105.523 -173.426,152 -278.903,103.696 -6.504,-2.978 -12.833,-6.275 -18.961,-9.872 -26.561,-15.583 -49.418,-36.804 -66.854,-62.221 -0.451,-0.656 -1.023,-1.178 -1.668,-1.554 -1.695,-0.994 -3.886,-0.989 -5.614,0.199 -2.382,1.645 -3.001,4.895 -1.355,7.286 18.306,26.684 42.302,48.968 70.187,65.327 6.433,3.776 13.076,7.235 19.901,10.363 110.742,50.715 242.099,1.844 292.797,-108.857 24.567,-53.643 26.769,-113.641 6.207,-168.943 -17.897,-48.146 -51.187,-87.713 -94.901,-113.358 -6.496,-3.81 -13.225,-7.314 -20.163,-10.493 -53.647,-24.566 -113.645,-26.772 -168.946,-6.211 -48.157,17.902 -87.73,51.206 -113.373,94.933 z"
   id="path36" />
				</g>
			</g>
			<g
   id="g64">
				<g
   style="opacity:0.3"
   id="g46">
					<path
   style="fill:#91b3fa"
   d="m 543.98,1592.76 c -1.77,3.019 -1.432,6.954 1.091,9.633 4.705,5.002 9.626,9.931 14.627,14.646 3.25,3.064 8.365,2.914 11.435,-0.337 3.083,-3.243 2.912,-8.371 -0.337,-11.435 -4.765,-4.493 -9.456,-9.19 -13.947,-13.963 -3.056,-3.253 -8.176,-3.407 -11.435,-0.35 -0.576,0.546 -1.052,1.155 -1.434,1.806 z"
   id="path42" />
					<path
   style="fill:#91b3fa"
   d="m 591.054,1633.283 c 2.643,-3.601 7.701,-4.386 11.307,-1.743 9.099,6.659 18.645,12.931 28.37,18.634 2.051,1.203 4.124,2.386 6.214,3.552 3.896,2.18 5.293,7.106 3.115,11.008 -2.207,3.606 -7.107,5.293 -11.013,3.116 -2.186,-1.223 -4.354,-2.462 -6.5,-3.72 -10.194,-5.978 -20.204,-12.553 -29.743,-19.541 -3.377,-2.47 -4.277,-7.073 -2.203,-10.61 0.137,-0.235 0.291,-0.465 0.453,-0.696 z m 82.911,38.257 c 12.658,5.166 25.748,9.596 38.907,13.16 4.314,1.17 6.859,5.606 5.692,9.923 -1.168,4.288 -5.609,6.863 -9.923,5.693 -13.791,-3.734 -27.517,-8.376 -40.788,-13.795 -4.137,-1.689 -6.122,-6.411 -4.436,-10.551 0.148,-0.361 0.326,-0.711 0.52,-1.041 2.003,-3.416 6.258,-4.927 10.028,-3.389 z m 79.157,21.405 c 13.517,1.905 27.294,2.979 40.959,3.195 4.463,0.071 8.03,3.751 7.958,8.215 -0.073,4.481 -3.742,8.035 -8.215,7.963 -14.328,-0.224 -28.784,-1.357 -42.956,-3.349 -4.423,-0.625 -7.51,-4.716 -6.885,-9.139 0.156,-1.077 0.513,-2.077 1.032,-2.962 1.608,-2.743 4.763,-4.39 8.107,-3.923 z m 81.999,1.303 c 13.592,-1.471 27.221,-3.8 40.483,-6.925 4.354,-1.022 8.708,1.673 9.729,6.022 1.018,4.338 -1.669,8.701 -6.016,9.728 -13.919,3.276 -28.199,5.717 -42.456,7.261 -4.441,0.482 -8.434,-2.734 -8.916,-7.175 -0.187,-1.79 0.216,-3.508 1.064,-4.953 1.252,-2.137 3.461,-3.671 6.112,-3.958 z m 79.831,-18.756 c 12.82,-4.73 25.464,-10.297 37.591,-16.547 3.966,-2.047 8.847,-0.485 10.895,3.486 2.048,3.972 0.496,8.854 -3.487,10.896 -12.707,6.551 -25.964,12.385 -39.397,17.348 -4.193,1.543 -8.844,-0.599 -10.389,-4.787 -0.874,-2.367 -0.571,-4.882 0.612,-6.9 0.914,-1.557 2.351,-2.82 4.175,-3.496 z m 72.86,-37.566 c 11.273,-7.699 22.168,-16.173 32.386,-25.195 3.346,-2.956 8.462,-2.639 11.416,0.71 2.954,3.349 2.64,8.445 -0.708,11.421 -10.713,9.46 -22.146,18.352 -33.971,26.428 -3.691,2.515 -8.723,1.57 -11.24,-2.118 -1.822,-2.671 -1.83,-6.047 -0.298,-8.66 0.585,-0.998 1.392,-1.889 2.415,-2.586 z m 61.433,-54.222 c 9.011,-10.198 17.502,-21.098 25.231,-32.404 2.526,-3.684 7.559,-4.629 11.245,-2.106 3.687,2.519 4.579,7.511 2.113,11.248 -8.111,11.847 -17.012,23.277 -26.462,33.973 -2.961,3.347 -8.073,3.663 -11.422,0.706 -2.944,-2.601 -3.542,-6.876 -1.623,-10.146 0.26,-0.443 0.564,-0.87 0.918,-1.271 z m 73.286,-110.036 c 4.191,1.551 6.327,6.201 4.776,10.393 -4.293,11.599 -9.297,23.162 -14.853,34.338 -0.835,1.704 -1.693,3.385 -2.559,5.066 -1.928,4.006 -6.937,5.52 -10.908,3.452 -3.968,-2.057 -5.511,-6.936 -3.457,-10.907 0.82,-1.571 1.621,-3.157 2.419,-4.781 5.32,-10.696 10.094,-21.725 14.19,-32.785 0.167,-0.456 0.375,-0.889 0.611,-1.291 1.947,-3.322 6.049,-4.868 9.781,-3.485 z"
   id="path44" />
				</g>
				<g
   style="opacity:0.3"
   id="g52">
					<path
   style="fill:#91b3fa"
   d="m 500.679,1181.971 c 7.289,-12.069 15.382,-23.793 24.043,-34.86 2.756,-3.513 7.839,-4.136 11.359,-1.379 3.522,2.756 4.085,7.839 1.379,11.359 -8.264,10.548 -15.979,21.735 -22.933,33.249 -2.307,3.825 -7.284,5.051 -11.105,2.742 -3.793,-2.293 -5.033,-7.206 -2.799,-11.015 0.018,-0.031 0.038,-0.065 0.056,-0.096 z m -8.988,33.473 c 4.071,1.834 5.886,6.625 4.049,10.696 -5.52,12.254 -10.354,24.964 -14.365,37.783 -1.338,4.234 -5.872,6.64 -10.141,5.299 -4.264,-1.333 -6.633,-5.868 -5.303,-10.134 4.205,-13.432 9.27,-26.755 15.059,-39.593 0.123,-0.271 0.254,-0.528 0.402,-0.781 2.063,-3.516 6.489,-4.987 10.299,-3.27 z m 61.156,-100.034 c 9.996,-9.954 20.682,-19.384 31.765,-28.023 3.524,-2.746 8.612,-2.115 11.355,1.407 2.752,3.523 2.117,8.586 -1.401,11.354 -10.575,8.24 -20.767,17.233 -30.308,26.725 -3.167,3.152 -8.289,3.14 -11.435,-0.021 -2.651,-2.663 -3.065,-6.706 -1.25,-9.8 0.343,-0.586 0.767,-1.138 1.274,-1.642 z m -87.656,178.328 c 4.394,0.801 7.306,5.017 6.505,9.411 -2.413,13.219 -4.036,26.715 -4.819,40.121 -0.268,4.454 -4.096,7.859 -8.544,7.605 -4.462,-0.263 -7.868,-4.088 -7.606,-8.549 0.818,-14.059 2.519,-28.219 5.053,-42.082 0.178,-0.958 0.515,-1.845 0.98,-2.639 1.671,-2.849 4.997,-4.493 8.431,-3.867 z m 154.34,-230.29 c 12.068,-7.242 24.708,-13.819 37.569,-19.556 4.08,-1.82 8.865,0.016 10.685,4.096 1.82,4.081 -0.006,8.866 -4.095,10.685 -12.271,5.465 -24.323,11.74 -35.83,18.652 -3.829,2.297 -8.799,1.058 -11.1,-2.778 -1.576,-2.623 -1.486,-5.789 -0.037,-8.26 0.66,-1.127 1.605,-2.116 2.808,-2.839 z m 77.214,-34.453 c 13.478,-4.148 27.33,-7.514 41.164,-10.007 4.394,-0.793 8.598,2.126 9.39,6.523 0.795,4.391 -2.124,8.604 -6.527,9.397 -13.191,2.379 -26.404,5.593 -39.268,9.552 -4.269,1.315 -8.797,-1.083 -10.112,-5.353 -0.693,-2.255 -0.353,-4.584 0.756,-6.476 0.988,-1.683 2.586,-3.017 4.597,-3.636 z m 83.249,-14.976 c 14.089,-0.804 28.351,-0.746 42.38,0.163 4.463,0.291 7.839,4.139 7.549,8.599 -0.287,4.457 -4.144,7.832 -8.594,7.548 -13.381,-0.873 -26.978,-0.925 -40.409,-0.151 -4.462,0.254 -8.286,-3.156 -8.537,-7.617 -0.1,-1.656 0.313,-3.219 1.092,-4.547 1.323,-2.257 3.712,-3.832 6.519,-3.995 z"
   id="path48" />
					<path
   style="fill:#91b3fa"
   d="m 451.943,1380.481 c -0.789,1.346 -1.198,2.933 -1.09,4.608 0.444,6.91 1.099,13.836 1.936,20.592 0.552,4.431 4.592,7.584 9.026,7.034 4.423,-0.562 7.575,-4.593 7.034,-9.027 -0.802,-6.441 -1.422,-13.051 -1.851,-19.644 -0.288,-4.459 -4.139,-7.839 -8.595,-7.55 -2.782,0.182 -5.147,1.748 -6.46,3.987 z"
   id="path50" />
				</g>
				<g
   id="g62">
					<path
   style="fill:#91b3fa"
   d="m 566.331,1483.599 c 0.61,1.638 2.19,2.709 3.938,2.668 l 49.842,-1.191 c 12.877,19.398 28.939,36.881 47.874,51.563 l -4.844,49.588 c -0.17,1.74 0.783,3.394 2.372,4.123 l 54.371,24.898 c 1.589,0.729 3.465,0.368 4.67,-0.896 l 34.379,-36.063 c 23.486,4.745 47.217,5.485 70.315,2.561 l 31.658,38.513 c 1.11,1.35 2.954,1.847 4.592,1.238 l 56.052,-20.84 c 1.638,-0.608 2.71,-2.19 2.667,-3.938 l -1.192,-49.84 c 19.398,-12.876 36.883,-28.939 51.564,-47.875 l 49.587,4.845 c 1.74,0.17 3.395,-0.782 4.122,-2.371 l 24.9,-54.372 c 0.728,-1.589 0.366,-3.464 -0.898,-4.67 l -36.063,-34.38 c 4.745,-23.486 5.485,-47.217 2.56,-70.315 l 38.515,-31.658 c 1.349,-1.11 1.848,-2.954 1.238,-4.591 l -20.84,-56.053 c -0.609,-1.637 -2.19,-2.708 -3.936,-2.667 l -49.843,1.191 c -12.876,-19.398 -28.938,-36.882 -47.874,-51.564 l 4.844,-49.588 c 0.171,-1.739 -0.781,-3.395 -2.371,-4.122 l -54.372,-24.9 c -1.589,-0.727 -3.464,-0.367 -4.67,0.898 l -34.378,36.063 c -23.486,-4.745 -47.217,-5.484 -70.316,-2.561 l -31.658,-38.514 c -1.109,-1.35 -2.953,-1.847 -4.592,-1.238 l -56.052,20.84 c -1.638,0.609 -2.709,2.191 -2.668,3.937 l 1.192,49.842 c -19.398,12.876 -36.881,28.939 -51.564,47.875 l -49.587,-4.845 c -1.739,-0.169 -3.394,0.783 -4.123,2.372 l -24.898,54.372 c -0.727,1.589 -0.367,3.465 0.898,4.67 l 36.062,34.379 c -4.745,23.486 -5.483,47.217 -2.56,70.315 l -38.514,31.659 c -1.35,1.109 -1.847,2.954 -1.238,4.591 z"
   id="path54" />
					<g
   id="g58">
						<path
   style="fill:#bdd0fb"
   d="m 754.313,1325.755 c 10.234,-12.75 24.822,-20.744 41.072,-22.514 16.244,-1.776 32.211,2.885 44.954,13.124 26.303,21.126 30.499,59.651 9.388,86.029 -21.138,26.301 -59.726,30.509 -86.021,9.383 -12.744,-10.235 -20.74,-24.82 -22.514,-41.067 -1.44,-13.208 1.371,-26.231 7.973,-37.488 1.517,-2.587 3.238,-5.085 5.148,-7.467 z m 75.899,3.225 c -9.376,-7.532 -21.12,-10.961 -33.076,-9.657 -11.947,1.304 -22.678,7.188 -30.208,16.559 v 0 c -7.517,9.384 -10.956,21.118 -9.652,33.075 1.299,11.948 7.188,22.678 16.556,30.205 19.349,15.542 47.733,12.447 63.281,-6.898 1.4,-1.748 2.65,-3.565 3.751,-5.443 11.101,-18.928 6.948,-43.705 -10.652,-57.841 z"
   id="path56" />
					</g>
					<path
   style="fill:#bdd0fb"
   d="m 671.848,1286.534 c -2.59,4.416 -4.974,8.998 -7.154,13.745 -4.322,9.431 -7.689,19.311 -10.011,29.392 -0.101,0.454 -0.202,0.907 -0.303,1.361 -0.777,3.51 0.855,6.99 3.797,8.72 0.715,0.419 1.51,0.735 2.361,0.923 4.362,0.964 8.662,-1.808 9.638,-6.158 2.079,-9.432 5.186,-18.682 9.227,-27.494 h 0.002 c 0.22,-0.484 0.449,-0.968 0.674,-1.446 9.754,-20.77 24.315,-38.322 42.331,-51.554 9.78,-7.182 20.589,-13.088 32.215,-17.53 0.095,-0.036 0.189,-0.072 0.283,-0.109 0.293,-0.108 0.578,-0.22 0.868,-0.325 34.103,-12.676 71.102,-11.319 104.181,3.831 4.283,1.957 8.429,4.119 12.435,6.468 26.956,15.813 47.483,40.215 58.526,69.906 12.677,34.104 11.312,71.099 -3.835,104.174 -15.151,33.05 -42.273,58.278 -76.372,70.963 -34.102,12.677 -71.102,11.319 -104.181,-3.831 -4.21,-1.924 -8.307,-4.061 -12.272,-6.387 -17.198,-10.09 -31.993,-23.826 -43.279,-40.28 -0.697,-1.014 -1.579,-1.82 -2.576,-2.4 -2.617,-1.535 -6.001,-1.527 -8.669,0.305 -3.677,2.537 -4.625,7.559 -2.092,11.251 12.63,18.41 29.185,33.783 48.418,45.071 4.443,2.606 9.023,4.994 13.73,7.15 37.014,16.949 78.406,18.469 116.563,4.283 38.148,-14.187 68.51,-42.347 85.441,-79.386 16.951,-37.008 18.474,-78.398 4.282,-116.554 -12.345,-33.217 -35.313,-60.515 -65.473,-78.207 -4.477,-2.626 -9.12,-5.047 -13.906,-7.239 -71.653,-32.806 -155.808,-5.211 -194.849,61.36 z"
   id="path60" />
				</g>
			</g>
		</g>
		<g
   id="g93">
			
				<linearGradient
   id="SVGID_00000047780254618623118480000007803912304810593436_"
   gradientUnits="userSpaceOnUse"
   x1="1883.7441"
   y1="2053.801"
   x2="1410.519"
   y2="973.15161">
				<stop
   offset="0"
   style="stop-color:#4F52FF"
   id="stop68" />
				<stop
   offset="1"
   style="stop-color:#4042E2"
   id="stop70" />
			</linearGradient>
			<path
   style="fill:url(#SVGID_00000047780254618623118480000007803912304810593436_)"
   d="M 3088.95,2212.192 C 3062.937,2804.748 2523.346,3262.347 1883.74,3234.268 1244.134,3206.189 746.719,2703.065 772.732,2110.51 c 26.013,-592.556 565.604,-1050.155 1205.21,-1022.077 639.606,28.078 1137.021,531.203 1111.008,1123.759 z"
   id="path73" />
			<ellipse
   style="opacity:0.31;fill:#91b3fa"
   cx="1868.101"
   cy="2083.866"
   rx="909.63202"
   ry="859.31201"
   id="ellipse75" />
			<g
   style="opacity:0.68"
   id="g91">
				<path
   style="fill:#ffffff"
   d="m 2226.984,2166.538 c -0.279,189.415 -13.268,379.217 -46.648,565.95 -8.451,46.645 -18.248,93.066 -29.92,139.047 -11.708,45.962 -25.227,91.526 -41.778,136.074 -16.689,44.432 -36.06,88.225 -62.328,128.25 -13.237,19.866 -28.25,38.901 -46.779,54.56 -9.261,7.779 -19.432,14.679 -30.62,19.733 -11.164,5.022 -23.366,8.201 -35.75,8.422 -12.367,0.362 -24.753,-2.059 -36.138,-6.644 -11.429,-4.54 -21.847,-11.129 -31.332,-18.651 -18.971,-15.172 -34.315,-33.998 -47.788,-53.707 -26.733,-39.739 -46.367,-83.444 -63.231,-127.806 -16.76,-44.472 -30.411,-89.999 -42.222,-135.934 -11.79,-45.95 -21.685,-92.35 -30.206,-138.98 -17.005,-93.28 -28.603,-187.456 -36.429,-281.892 -7.77,-94.451 -11.665,-189.203 -12.144,-283.971 -0.233,-47.377 1.06,-94.747 2.744,-142.087 1.774,-47.339 4.381,-94.648 7.867,-141.893 7.008,-94.477 17.474,-188.745 33.034,-282.238 7.807,-46.736 16.91,-93.274 27.86,-139.4 10.978,-46.111 23.735,-91.855 39.56,-136.608 7.954,-22.356 16.65,-44.472 26.567,-66.07 9.903,-21.592 20.984,-42.713 34.009,-62.682 13.054,-19.881 28.06,-38.858 46.747,-54.049 9.342,-7.529 19.634,-14.08 30.91,-18.518 11.231,-4.495 23.417,-6.772 35.539,-6.311 12.129,0.345 24.086,3.369 35.118,8.228 11.047,4.882 21.199,11.521 30.518,19.047 18.64,15.147 34.068,33.667 47.755,53.115 27.21,39.167 47.724,82.361 65.494,126.31 17.639,44.07 32.204,89.281 44.889,134.959 12.641,45.7 23.345,91.909 32.608,138.389 36.657,186.084 51.547,375.909 52.094,565.357 z m -14.02,0 c 0.174,-94.381 -3.414,-188.786 -11.257,-282.839 -7.733,-94.05 -19.448,-187.829 -36.901,-280.57 -8.715,-46.364 -18.865,-92.465 -30.942,-138.057 -12.12,-45.568 -26.11,-90.671 -43.142,-134.607 -17.154,-43.812 -37.048,-86.855 -63.446,-125.743 -13.269,-19.307 -28.238,-37.644 -46.2,-52.563 -8.977,-7.414 -18.724,-13.93 -29.272,-18.728 -10.536,-4.741 -21.885,-7.848 -33.427,-8.151 -11.534,-0.366 -23.053,1.955 -33.723,6.346 -10.707,4.347 -20.536,10.743 -29.498,18.128 -17.928,14.895 -32.455,33.631 -45.08,53.335 -12.602,19.789 -23.33,40.777 -32.898,62.259 -9.584,21.486 -17.97,43.515 -25.623,65.791 -15.223,44.596 -27.413,90.219 -37.833,136.212 -10.392,46.011 -18.949,92.44 -26.215,139.064 -14.478,93.27 -23.88,187.304 -29.832,281.511 -6.012,94.22 -8.088,188.653 -7.918,283.045 -0.25,94.376 2.904,188.779 9.918,282.9 7.07,94.105 17.899,187.973 34.106,280.919 8.121,46.463 17.608,92.689 28.973,138.438 11.384,45.733 24.593,91.037 40.852,135.204 16.348,44.049 35.463,87.386 61.298,126.42 13.002,19.354 27.796,37.71 45.725,52.262 8.959,7.22 18.71,13.468 29.25,17.746 10.508,4.289 21.783,6.673 33.08,6.292 11.293,-0.291 22.42,-3.273 32.75,-8.012 10.346,-4.772 19.888,-11.333 28.652,-18.816 17.541,-15.054 32.019,-33.641 44.792,-53.162 25.383,-39.342 44.224,-82.776 60.387,-126.899 16.04,-44.248 29.104,-89.59 40.372,-135.352 11.237,-45.781 20.61,-92.028 28.651,-138.504 16.097,-92.964 26.792,-186.843 33.903,-280.947 7.208,-94.11 10.535,-188.522 10.498,-282.922 z"
   id="path77" />
				<path
   style="fill:#ffffff"
   d="m 2704.82,2166.538 c -0.655,121.978 -16.333,244.01 -48.986,361.64 -33.223,117.359 -83.306,230.262 -151.301,331.626 -34.001,50.627 -72.521,98.281 -115.563,141.517 -43.023,43.223 -90.604,82.012 -142.254,114.52 -51.696,32.382 -107.532,58.305 -165.981,75.892 -58.415,17.629 -119.396,26.825 -180.432,26.886 -61.036,-0.01 -122.034,-9.146 -180.48,-26.727 -58.48,-17.539 -114.361,-43.419 -166.111,-75.769 -51.703,-32.474 -99.355,-71.229 -142.447,-114.434 -43.113,-43.217 -81.709,-90.861 -115.787,-141.488 -68.132,-101.377 -118.32,-214.329 -151.698,-331.746 -16.43,-58.816 -28.639,-118.794 -36.728,-179.306 -8.046,-60.522 -12.088,-121.554 -12.366,-182.609 0.316,-61.055 4.396,-122.083 12.479,-182.595 8.127,-60.502 20.383,-120.463 36.852,-179.256 33.462,-117.37 83.728,-230.245 151.904,-331.517 34.093,-50.58 72.694,-98.172 115.802,-141.331 43.093,-43.139 90.711,-81.858 142.405,-114.229 51.734,-32.266 107.602,-57.955 165.981,-75.487 58.341,-17.605 119.241,-26.787 180.196,-26.847 60.956,0.111 121.84,9.344 180.152,26.994 58.349,17.579 114.169,43.319 165.849,75.62 51.638,32.408 99.188,71.159 142.21,114.317 43.036,43.178 81.562,90.779 115.577,141.36 68.038,101.259 118.201,214.085 151.505,331.397 32.724,117.582 48.484,239.593 49.222,361.572 z m -16.072,0 c -0.176,-120.594 -15.198,-241.317 -47.017,-357.727 -31.995,-116.231 -80.171,-228.442 -146.494,-329.354 -33.144,-50.404 -70.787,-97.914 -112.948,-141.1 -42.178,-43.119 -88.766,-82.131 -139.718,-114.556 -51.014,-32.243 -106.102,-58.196 -163.866,-75.75 -57.734,-17.567 -118.013,-26.801 -178.402,-27.002 -60.389,0.252 -120.652,9.537 -178.357,27.149 -57.734,17.601 -112.775,43.605 -163.734,75.883 -50.896,32.462 -97.415,71.505 -139.523,114.643 -42.09,43.206 -79.657,90.725 -112.724,141.13 -66.186,100.899 -114.257,213.06 -146.095,329.234 -15.861,58.153 -27.345,117.45 -35.127,177.188 -7.8,59.746 -11.649,119.995 -11.784,180.263 0.173,60.267 4.059,120.512 11.897,180.248 7.821,59.728 19.351,119.007 35.251,177.137 31.92,116.127 80.072,228.211 146.301,329.005 33.08,50.358 70.653,97.824 112.739,140.973 42.107,43.072 88.592,82.08 139.479,114.439 50.944,32.195 105.971,58.006 163.603,75.601 57.601,17.636 117.765,26.963 178.074,27.269 60.309,-0.25 120.49,-9.521 178.122,-27.109 57.663,-17.547 112.736,-43.317 163.732,-75.479 50.94,-32.326 97.496,-71.3 139.674,-114.354 42.157,-43.129 79.806,-90.586 112.962,-140.943 66.367,-100.808 114.624,-212.942 146.699,-329.126 31.893,-116.367 46.998,-237.069 47.256,-357.662 z"
   id="path79" />
				<path
   style="fill:#ffffff"
   d="m 961.497,1750.227 241.606,-1.952 241.607,-1.106 483.213,-0.892 483.214,0.982 241.606,1.208 241.606,2.107 c 0.392,0 0.706,0.324 0.703,0.716 0,0.387 -0.317,0.699 -0.703,0.703 l -241.606,2.107 -241.606,1.208 -483.214,0.983 -483.213,-0.892 -241.607,-1.106 -241.606,-1.952 c -0.583,0 -1.053,-0.482 -1.048,-1.065 0.004,-0.578 0.473,-1.045 1.048,-1.049 z"
   id="path81" />
				<path
   style="fill:#ffffff"
   d="m 1241.789,1345.556 c 57.177,-0.906 114.356,-1.294 171.533,-1.952 l 171.534,-1.106 c 57.178,-0.471 114.356,-0.421 171.534,-0.566 l 171.533,-0.326 343.067,0.982 171.533,1.208 c 57.178,0.717 114.356,1.136 171.534,2.107 0.392,0.01 0.703,0.33 0.697,0.722 -0.01,0.383 -0.318,0.69 -0.697,0.697 -57.178,0.971 -114.356,1.39 -171.534,2.107 l -171.533,1.208 -343.067,0.982 -171.533,-0.326 c -57.179,-0.146 -114.356,-0.094 -171.534,-0.566 l -171.534,-1.106 c -57.177,-0.657 -114.356,-1.046 -171.533,-1.952 -0.583,-0.01 -1.049,-0.49 -1.04,-1.073 0.01,-0.572 0.472,-1.03 1.04,-1.04 z"
   id="path83" />
				<path
   style="fill:#ffffff"
   d="m 877.536,2154.897 262.597,-1.945 262.597,-1.113 525.193,-0.893 525.193,0.983 262.597,1.209 262.597,2.106 c 0.392,0 0.707,0.323 0.704,0.715 0,0.388 -0.317,0.7 -0.704,0.704 l -262.597,2.106 -262.597,1.209 -525.193,0.982 -525.193,-0.892 -262.597,-1.113 -262.597,-1.945 c -0.583,0 -1.053,-0.481 -1.049,-1.065 0.004,-0.577 0.472,-1.043 1.049,-1.048 z"
   id="path85" />
				<path
   style="fill:#ffffff"
   d="m 961.497,2559.567 241.606,-1.951 241.607,-1.106 483.213,-0.893 483.214,0.983 241.606,1.208 241.606,2.107 c 0.392,0 0.706,0.324 0.703,0.716 0,0.388 -0.317,0.7 -0.703,0.703 l -241.606,2.107 -241.606,1.208 -483.214,0.982 -483.213,-0.892 -241.607,-1.106 -241.606,-1.952 c -0.583,0 -1.053,-0.481 -1.048,-1.065 0.004,-0.578 0.473,-1.044 1.048,-1.049 z"
   id="path87" />
				<path
   style="fill:#ffffff"
   d="M 2648.628,2968.999 H 1276.362 c -2.048,0 -3.704,-1.658 -3.704,-3.704 0,-2.045 1.656,-3.704 3.704,-3.704 h 1372.266 c 2.047,0 3.704,1.659 3.704,3.704 0,2.046 -1.656,3.704 -3.704,3.704 z"
   id="path89" />
			</g>
		</g>
		<g
   id="g452">
			
				<linearGradient
   id="SVGID_00000136383216741690540400000015523225420351087295_"
   gradientUnits="userSpaceOnUse"
   x1="-2163.498"
   y1="-9947.3418"
   x2="-2079.0044"
   y2="-9947.3418"
   gradientTransform="matrix(-0.9813,0.1926,-0.1926,-0.9813,-2396.9971,-7779.7432)">
				<stop
   offset="0"
   style="stop-color:#FEBBBA"
   id="stop95" />
				<stop
   offset="1"
   style="stop-color:#FF928E"
   id="stop97" />
			</linearGradient>
			<path
   style="fill:url(#SVGID_00000136383216741690540400000015523225420351087295_)"
   d="m 1642.203,1566.43 c 0,0 -58.106,-38.115 -66.151,-29.327 -2.863,3.127 -9.552,13.755 -15.781,25.352 -4.395,8.184 -3.041,18.26 3.418,24.937 l 14.979,15.485 c 14.274,14.754 38.428,13.696 51.027,-2.511 6.355,-8.175 11.416,-19.2 12.508,-33.936 z"
   id="path100" />
			<g
   id="g309">
				<g
   id="g116">
					
						<linearGradient
   id="SVGID_00000080925944531807439780000014739226241868793268_"
   gradientUnits="userSpaceOnUse"
   x1="2005.2546"
   y1="1461.1241"
   x2="1663.7216"
   y2="1511.0404">
						<stop
   offset="0"
   style="stop-color:#FEBBBA"
   id="stop102" />
						<stop
   offset="1"
   style="stop-color:#FF928E"
   id="stop104" />
					</linearGradient>
					<path
   style="fill:url(#SVGID_00000080925944531807439780000014739226241868793268_)"
   d="m 1701.444,1494.025 c 0,0 -19.941,-52.491 -43.231,-47.684 -23.291,4.808 -48.771,22.7 -48.771,22.7 l -37.417,50.603 c 0,0 105.037,41.379 141.978,17.665 0,0 107.287,18.538 242.77,-3.693 -19.612,-41.407 -31.301,-82.861 -38.166,-115.039 -68.621,38.843 -142.532,67.856 -217.163,75.448 z"
   id="path107" />
					
						<linearGradient
   id="SVGID_00000156582141706666636120000006595843752834620288_"
   gradientUnits="userSpaceOnUse"
   x1="2535.4341"
   y1="472.92929"
   x2="2021.3547"
   y2="1567.2573">
						<stop
   offset="0"
   style="stop-color:#09005D"
   id="stop109" />
						<stop
   offset="1"
   style="stop-color:#1A0F91"
   id="stop111" />
					</linearGradient>
					<path
   style="fill:url(#SVGID_00000156582141706666636120000006595843752834620288_)"
   d="m 2269.754,1113.29 c 0,0 -153.608,193.472 -351.147,305.288 6.864,32.178 18.554,73.632 38.166,115.039 102.475,-16.815 221.073,-56.945 321.618,-146.115 z"
   id="path114" />
				</g>
				
					<linearGradient
   id="SVGID_00000000221741448267164470000011702795596109122738_"
   gradientUnits="userSpaceOnUse"
   x1="2918.103"
   y1="652.69391"
   x2="2404.0217"
   y2="1747.0261">
					<stop
   offset="0"
   style="stop-color:#09005D"
   id="stop118" />
					<stop
   offset="1"
   style="stop-color:#1A0F91"
   id="stop120" />
				</linearGradient>
				<path
   style="fill:url(#SVGID_00000000221741448267164470000011702795596109122738_)"
   d="m 2461.321,1970.806 c -30.04,-142.689 -60.08,-225.297 -160.665,-495.761 -31.655,-85.111 -60.398,-171.227 -46.505,-260.967 l 15.603,-100.788 c 0,0 195.476,-66.146 412.156,-2.786 0,0 295.622,128.423 94.827,762.672 -90.506,101.26 -196.429,130.118 -315.416,97.63 z"
   id="path123" />
				
					<linearGradient
   id="SVGID_00000153666218434010099370000000722136079772667534_"
   gradientUnits="userSpaceOnUse"
   x1="1142.7931"
   y1="1096.7844"
   x2="1081.0966"
   y2="911.69421"
   gradientTransform="translate(1290.1023)">
					<stop
   offset="0"
   style="stop-color:#FEBBBA"
   id="stop125" />
					<stop
   offset="1"
   style="stop-color:#FF928E"
   id="stop127" />
				</linearGradient>
				<path
   style="fill:url(#SVGID_00000153666218434010099370000000722136079772667534_)"
   d="m 2303.029,984.656 50.687,121.772 c 3.202,7.691 10.123,13.172 18.333,14.58 29.224,5.013 99.904,12.841 146.323,-17.681 5.531,-3.638 6.938,-11.156 3.156,-16.588 l -93.645,-134.443 z"
   id="path130" />
				<g
   id="g153">
					
						<linearGradient
   id="SVGID_00000115472480147852425630000002092773256621272218_"
   gradientUnits="userSpaceOnUse"
   x1="2288.782"
   y1="869.64532"
   x2="2510.5317"
   y2="966.05847">
						<stop
   offset="0"
   style="stop-color:#FEBBBA"
   id="stop132" />
						<stop
   offset="1"
   style="stop-color:#FF928E"
   id="stop134" />
					</linearGradient>
					<path
   style="fill:url(#SVGID_00000115472480147852425630000002092773256621272218_)"
   d="m 2355.449,798.347 c -2.128,2.003 -89.841,174.251 -89.841,174.251 l 99.415,47.991 107.388,-150.902 c 0,0 -81.325,-104.887 -116.962,-71.34 z"
   id="path137" />
					
						<linearGradient
   id="SVGID_00000163034810522677468060000002080442751335521696_"
   gradientUnits="userSpaceOnUse"
   x1="5260.4243"
   y1="5126.7036"
   x2="5525.3188"
   y2="5126.7036"
   gradientTransform="matrix(-0.6854,-0.7281,-0.7281,0.6854,9787.373,1318.7853)">
						<stop
   offset="0"
   style="stop-color:#09005D"
   id="stop139" />
						<stop
   offset="1"
   style="stop-color:#1A0F91"
   id="stop141" />
					</linearGradient>
					<path
   style="fill:url(#SVGID_00000163034810522677468060000002080442751335521696_)"
   d="m 2427.231,887.793 -49.583,82.652 c -0.752,1.255 -1.648,2.388 -2.719,3.384 -5.901,5.494 -26.097,21.473 -41.71,-0.283 -13.306,-18.543 -25.791,-35.4 -39.169,-42.352 -7.812,-4.06 -17.426,-0.818 -21.392,7.042 -8.169,16.192 -23.993,49.196 -33.933,80.494 -2.491,7.844 1.557,16.265 9.185,19.356 20.132,8.156 59.917,22.906 95.221,27.778 5.799,0.8 11.541,-1.646 14.992,-6.375 15.189,-20.809 58.001,-78.96 72.613,-93.515 13.574,-13.523 38.627,-8.424 49.917,-5.181 4.285,1.232 8.849,0.639 12.668,-1.661 11.454,-6.899 31.441,-24.079 13.156,-53.166 -4.546,-7.232 -2.228,-16.865 4.908,-21.558 12.789,-8.413 26.665,-24.202 13.444,-49.772 -13.384,-25.884 -37.282,-28.21 -53.561,-26.219 -7.202,0.88 -14.513,-2.897 -17.277,-9.607 -1.229,-2.983 -3.658,-5.527 -8.182,-6.445 -8.531,-1.731 -14.132,-9.533 -12.457,-18.076 2.87,-14.648 0.709,-33.676 -22.679,-46.534 -42.894,-23.584 -80.467,14.843 -90.021,47.282 -9.555,32.44 38.405,55.364 68.573,59.19 22.159,2.811 34.309,26.996 39.198,39.638 1.774,4.588 1.338,9.708 -1.192,13.928 z"
   id="path144" />
					
						<linearGradient
   id="SVGID_00000011005771279361753820000016022931176368567968_"
   gradientUnits="userSpaceOnUse"
   x1="2274.9634"
   y1="901.42712"
   x2="2496.7134"
   y2="997.84021">
						<stop
   offset="0"
   style="stop-color:#FEBBBA"
   id="stop146" />
						<stop
   offset="1"
   style="stop-color:#FF928E"
   id="stop148" />
					</linearGradient>
					<path
   style="fill:url(#SVGID_00000011005771279361753820000016022931176368567968_)"
   d="m 2409.851,990.719 c 0,0 21.335,-50.201 45.75,-48.152 24.415,2.048 43.631,26.371 13.372,53.713 -37.637,34.012 -59.122,-5.561 -59.122,-5.561 z"
   id="path151" />
				</g>
				<g
   id="g176">
					
						<linearGradient
   id="SVGID_00000167394710936037788380000010363451726190651550_"
   gradientUnits="userSpaceOnUse"
   x1="2176.8049"
   y1="2772.834"
   x2="2181.8953"
   y2="3259.7915"
   gradientTransform="matrix(-1,0,0,1,4753.7588,0)">
						<stop
   offset="0"
   style="stop-color:#09005D"
   id="stop155" />
						<stop
   offset="1"
   style="stop-color:#1A0F91"
   id="stop157" />
					</linearGradient>
					<path
   style="fill:url(#SVGID_00000167394710936037788380000010363451726190651550_)"
   d="m 2442.076,3228.341 c 47.212,4.081 129.15,10.709 193.746,13.552 38.828,1.709 61.184,-2.094 74.059,-7.246 -0.022,1.451 -0.062,2.822 -0.119,4.096 -0.305,6.797 -5.83,12.235 -12.695,12.618 -122.057,6.813 -219.128,2.357 -253.687,0.255 -7.146,-0.436 -11.404,-8.201 -7.751,-14.293 1.83,-3.046 4.043,-6.032 6.447,-8.982 z"
   id="path160" />
					
						<linearGradient
   id="SVGID_00000118375430020982996420000015209663617228232076_"
   gradientUnits="userSpaceOnUse"
   x1="3375.0652"
   y1="2983.8328"
   x2="2377.1907"
   y2="3268.2502">
						<stop
   offset="0"
   style="stop-color:#4F52FF"
   id="stop162" />
						<stop
   offset="1"
   style="stop-color:#4042E2"
   id="stop164" />
					</linearGradient>
					<path
   style="fill:url(#SVGID_00000118375430020982996420000015209663617228232076_)"
   d="m 2635.822,3241.893 c -64.596,-2.843 -146.534,-9.471 -193.746,-13.552 46.417,-56.947 193.746,-95.33 193.746,-95.33 h 41.61 c 28.619,41.253 32.762,80.529 32.448,101.636 -12.874,5.153 -35.229,8.955 -74.058,7.246 z"
   id="path167" />
					
						<linearGradient
   id="SVGID_00000082368423818706863380000014418945578610908588_"
   gradientUnits="userSpaceOnUse"
   x1="2069.3203"
   y1="3112.2515"
   x2="2146.9482"
   y2="3112.2515"
   gradientTransform="matrix(-1,0,0,1,4753.7588,0)">
						<stop
   offset="0"
   style="stop-color:#FEBBBA"
   id="stop169" />
						<stop
   offset="1"
   style="stop-color:#FF928E"
   id="stop171" />
					</linearGradient>
					<path
   style="fill:url(#SVGID_00000082368423818706863380000014418945578610908588_)"
   d="m 2684.438,3065.079 -3.894,77.055 c -0.421,8.344 -6.668,15.356 -15.024,16.55 -8.314,1.189 -19.449,1.341 -31.256,-2.589 -7.264,-2.418 -12.658,-8.539 -13.998,-16.006 l -13.455,-75.01 z"
   id="path174" />
				</g>
				<g
   id="g201">
					<g
   id="g192">
						
							<linearGradient
   id="SVGID_00000160161520331184845190000012184351896782830507_"
   gradientUnits="userSpaceOnUse"
   x1="1542.567"
   y1="2779.4624"
   x2="1547.6572"
   y2="3266.4197"
   gradientTransform="matrix(-1,0,0,1,4753.7588,0)">
							<stop
   offset="0"
   style="stop-color:#09005D"
   id="stop178" />
							<stop
   offset="1"
   style="stop-color:#1A0F91"
   id="stop180" />
						</linearGradient>
						
						
							<linearGradient
   id="SVGID_00000065774424288638957910000000572404281276052919_"
   gradientUnits="userSpaceOnUse"
   x1="2818.7664"
   y1="2926.0247"
   x2="3440.6294"
   y2="3330.959">
							<stop
   offset="0"
   style="stop-color:#4F52FF"
   id="stop185" />
							<stop
   offset="1"
   style="stop-color:#4042E2"
   id="stop187" />
						</linearGradient>
						
					</g>
					
						<linearGradient
   id="SVGID_00000080165621182119081580000017978536503297312661_"
   gradientUnits="userSpaceOnUse"
   x1="1575.8138"
   y1="3047.5388"
   x2="1668.5861"
   y2="3047.5388"
   gradientTransform="matrix(-1,0,0,1,4753.7588,0)">
						<stop
   offset="0"
   style="stop-color:#FEBBBA"
   id="stop194" />
						<stop
   offset="1"
   style="stop-color:#FF928E"
   id="stop196" />
					</linearGradient>
					
				</g>
				
					<linearGradient
   id="SVGID_00000136370679877531224470000013862049212807389593_"
   gradientUnits="userSpaceOnUse"
   x1="-770.27081"
   y1="3183.7561"
   x2="645.35132"
   y2="1226.5909"
   gradientTransform="matrix(-1,0,0,1,2420.7585,0)">
					<stop
   offset="0"
   style="stop-color:#09005D"
   id="stop203" />
					<stop
   offset="1"
   style="stop-color:#1A0F91"
   id="stop205" />
				</linearGradient>
				<path
   style="fill:url(#SVGID_00000136370679877531224470000013862049212807389593_)"
   d="m 3181.001,3014.972 c -23.707,21.03 -100.817,23.805 -100.817,23.805 -277.763,-666.659 -393.565,-850.184 -393.565,-850.184 40.106,251.627 8.644,897.516 8.644,897.516 -45.836,20.226 -104.931,0 -104.931,0 -3.722,-411.947 -61.722,-854.601 -136.522,-1137.833 187.735,-4.219 289.76,-45.145 322.359,-70.927 156.49,252.29 404.832,1137.623 404.832,1137.623 z"
   id="path208" />
				<g
   id="g284">
					
						<linearGradient
   id="SVGID_00000049223509455043152150000002421657265577094837_"
   gradientUnits="userSpaceOnUse"
   x1="2756.0256"
   y1="2252.2693"
   x2="2796.7468"
   y2="2548.6292">
						<stop
   offset="0"
   style="stop-color:#FE7062"
   id="stop210" />
						<stop
   offset="1"
   style="stop-color:#FF928E"
   id="stop212" />
					</linearGradient>
					<path
   style="fill:url(#SVGID_00000049223509455043152150000002421657265577094837_)"
   d="m 2406.516,2134.572 34.544,214.856 c 6.024,37.465 40.728,63.452 78.571,58.836 l 517.025,-63.065 c 25.293,-3.085 44.475,-24.205 44.981,-49.564 1.107,-55.517 -1.075,-154.318 -24.374,-244.334 z"
   id="path215" />
					<path
   style="fill:#ffffff"
   d="m 2530.468,2394.12 c -0.583,0 -1.083,-0.434 -1.156,-1.026 -0.08,-0.638 0.378,-1.219 1.014,-1.297 l 9.256,-1.13 c 0.676,-0.083 1.219,0.378 1.299,1.016 0.08,0.638 -0.378,1.219 -1.014,1.297 l -9.256,1.13 c -0.05,0.01 -0.097,0.01 -0.143,0.01 z m -21.653,-0.686 c -0.073,0 -0.146,-0.01 -0.222,-0.021 -3.082,-0.6 -6.16,-1.425 -9.146,-2.452 -0.61,-0.209 -0.935,-0.872 -0.726,-1.481 0.215,-0.608 0.872,-0.929 1.481,-0.722 2.886,0.992 5.859,1.788 8.835,2.366 0.633,0.124 1.044,0.736 0.921,1.367 -0.106,0.555 -0.596,0.943 -1.143,0.943 z m 52.506,-3.079 c -0.583,0 -1.084,-0.434 -1.156,-1.026 -0.08,-0.64 0.378,-1.219 1.014,-1.297 l 9.256,-1.128 c 0.676,-0.098 1.219,0.376 1.299,1.016 0.08,0.639 -0.378,1.219 -1.014,1.297 l -9.256,1.128 c -0.051,0.01 -0.097,0.01 -0.143,0.01 z m 30.852,-3.764 c -0.583,0 -1.084,-0.433 -1.157,-1.024 -0.079,-0.638 0.378,-1.219 1.014,-1.297 l 9.256,-1.128 c 0.676,-0.091 1.219,0.378 1.299,1.016 0.08,0.64 -0.378,1.22 -1.014,1.298 l -9.256,1.128 c -0.049,0.01 -0.096,0.01 -0.142,0.01 z m 30.852,-3.763 c -0.583,0 -1.083,-0.433 -1.156,-1.024 -0.08,-0.639 0.378,-1.219 1.014,-1.297 l 9.256,-1.128 c 0.676,-0.083 1.219,0.378 1.299,1.016 0.079,0.638 -0.378,1.219 -1.014,1.297 l -9.256,1.128 c -0.05,0.01 -0.096,0.01 -0.143,0.01 z m -142.289,-2.036 c -0.249,0 -0.497,-0.078 -0.706,-0.239 -2.502,-1.909 -4.895,-4.015 -7.115,-6.258 -0.454,-0.457 -0.447,-1.196 0.01,-1.649 0.457,-0.456 1.196,-0.447 1.647,0.01 2.144,2.167 4.457,4.202 6.87,6.046 0.514,0.391 0.61,1.122 0.222,1.634 -0.232,0.3 -0.576,0.458 -0.928,0.458 z m 173.142,-1.726 c -0.583,0 -1.084,-0.434 -1.157,-1.026 -0.079,-0.64 0.378,-1.219 1.014,-1.297 l 9.256,-1.128 c 0.676,-0.098 1.219,0.376 1.299,1.016 0.08,0.639 -0.378,1.219 -1.014,1.297 l -9.256,1.128 c -0.049,0.01 -0.096,0.01 -0.142,0.01 z m 30.852,-3.764 c -0.583,0 -1.084,-0.433 -1.156,-1.024 -0.08,-0.638 0.378,-1.219 1.014,-1.297 l 9.256,-1.13 c 0.676,-0.089 1.219,0.378 1.299,1.016 0.08,0.638 -0.378,1.219 -1.014,1.297 l -9.256,1.13 c -0.05,0.01 -0.096,0.01 -0.143,0.01 z m 30.853,-3.763 c -0.583,0 -1.084,-0.434 -1.156,-1.026 -0.08,-0.639 0.378,-1.219 1.014,-1.297 l 9.256,-1.128 c 0.676,-0.081 1.219,0.376 1.299,1.016 0.079,0.64 -0.378,1.219 -1.014,1.297 l -9.256,1.128 c -0.05,0.01 -0.097,0.01 -0.143,0.01 z m 30.852,-3.763 c -0.583,0 -1.084,-0.434 -1.157,-1.025 -0.079,-0.64 0.378,-1.22 1.014,-1.298 l 9.256,-1.128 c 0.676,-0.096 1.219,0.378 1.299,1.016 0.08,0.64 -0.378,1.219 -1.014,1.297 l -9.256,1.128 c -0.049,0.01 -0.095,0.01 -0.142,0.01 z m 30.853,-3.765 c -0.583,0 -1.083,-0.433 -1.156,-1.024 -0.08,-0.638 0.378,-1.219 1.014,-1.297 l 9.256,-1.128 c 0.676,-0.089 1.219,0.378 1.299,1.016 0.079,0.639 -0.378,1.219 -1.014,1.297 l -9.256,1.128 c -0.051,0.01 -0.097,0.01 -0.143,0.01 z m 30.852,-3.762 c -0.583,0 -1.083,-0.433 -1.156,-1.024 -0.079,-0.64 0.378,-1.22 1.014,-1.298 l 9.256,-1.128 c 0.676,-0.081 1.219,0.376 1.299,1.016 0.08,0.638 -0.378,1.219 -1.014,1.297 l -9.256,1.128 c -0.05,0.01 -0.097,0.01 -0.143,0.01 z m -346.946,-3.261 c -0.431,0 -0.845,-0.24 -1.047,-0.655 -1.389,-2.835 -2.585,-5.793 -3.559,-8.79 -0.202,-0.613 0.136,-1.271 0.746,-1.47 0.61,-0.192 1.269,0.136 1.468,0.747 0.945,2.895 2.101,5.751 3.44,8.489 0.282,0.578 0.043,1.276 -0.533,1.559 -0.167,0.081 -0.342,0.12 -0.515,0.12 z m 377.802,-0.501 c -0.583,0 -1.084,-0.434 -1.157,-1.026 -0.079,-0.638 0.378,-1.219 1.014,-1.297 l 9.256,-1.13 c 0.673,-0.094 1.22,0.378 1.299,1.016 0.079,0.638 -0.378,1.219 -1.014,1.297 l -9.256,1.13 c -0.049,0.01 -0.096,0.01 -0.142,0.01 z m 30.852,-3.766 c -0.583,0 -1.083,-0.432 -1.156,-1.024 -0.08,-0.64 0.378,-1.22 1.014,-1.297 l 9.256,-1.128 c 0.673,-0.086 1.219,0.378 1.299,1.016 0.08,0.638 -0.378,1.219 -1.014,1.297 l -9.256,1.128 c -0.05,0.01 -0.096,0.01 -0.143,0.01 z m 30.853,-3.761 c -0.583,0 -1.084,-0.434 -1.156,-1.026 -0.08,-0.64 0.378,-1.219 1.014,-1.297 l 9.256,-1.128 c 0.673,-0.08 1.219,0.376 1.299,1.016 0.079,0.64 -0.378,1.219 -1.014,1.297 l -9.256,1.128 c -0.051,0.01 -0.097,0.01 -0.143,0.01 z m 30.852,-3.763 c -0.583,0 -1.083,-0.434 -1.156,-1.026 -0.08,-0.64 0.378,-1.219 1.014,-1.297 l 9.256,-1.128 c 0.673,-0.094 1.22,0.378 1.299,1.016 0.08,0.64 -0.378,1.219 -1.014,1.297 l -9.256,1.128 c -0.05,0.01 -0.096,0.01 -0.143,0.01 z m 30.853,-3.765 c -0.583,0 -1.083,-0.432 -1.156,-1.024 -0.08,-0.64 0.378,-1.219 1.014,-1.298 l 9.256,-1.128 c 0.673,-0.086 1.219,0.378 1.299,1.016 0.08,0.64 -0.378,1.219 -1.014,1.297 l -9.256,1.128 c -0.051,0.01 -0.097,0.01 -0.143,0.01 z m 30.852,-3.761 c -0.583,0 -1.084,-0.434 -1.157,-1.026 -0.079,-0.638 0.378,-1.219 1.014,-1.297 l 9.256,-1.13 c 0.673,-0.078 1.22,0.376 1.299,1.016 0.079,0.638 -0.378,1.219 -1.014,1.298 l -9.256,1.13 c -0.049,0.01 -0.096,0.01 -0.142,0.01 z m 30.846,-3.806 c -0.563,0 -1.057,-0.406 -1.15,-0.978 -0.106,-0.635 0.325,-1.234 0.961,-1.339 2.996,-0.494 5.952,-1.276 8.785,-2.321 0.603,-0.229 1.272,0.088 1.498,0.689 0.222,0.605 -0.086,1.274 -0.689,1.498 -2.973,1.097 -6.071,1.915 -9.216,2.434 -0.063,0.01 -0.126,0.017 -0.189,0.017 z m -570.654,-6.825 c -0.563,0 -1.061,-0.409 -1.15,-0.981 l -1.478,-9.206 c -0.103,-0.636 0.328,-1.234 0.964,-1.337 0.649,-0.106 1.236,0.333 1.335,0.966 l 1.478,9.206 c 0.103,0.636 -0.328,1.234 -0.964,1.337 -0.063,0.01 -0.126,0.015 -0.185,0.015 z m 597.732,-7.325 c -0.292,0 -0.586,-0.11 -0.812,-0.328 -0.461,-0.449 -0.474,-1.187 -0.023,-1.649 2.107,-2.176 4.02,-4.562 5.677,-7.095 0.351,-0.539 1.08,-0.686 1.611,-0.338 0.54,0.353 0.693,1.075 0.338,1.614 -1.737,2.658 -3.741,5.161 -5.955,7.443 -0.23,0.235 -0.531,0.353 -0.836,0.353 z m -602.667,-23.362 c -0.563,0 -1.057,-0.409 -1.15,-0.982 l -1.478,-9.204 c -0.103,-0.636 0.328,-1.235 0.964,-1.337 0.669,-0.103 1.236,0.333 1.335,0.966 l 1.478,9.208 c 0.103,0.635 -0.328,1.233 -0.964,1.335 -0.062,0.01 -0.125,0.014 -0.185,0.014 z m 615.955,-4.139 c -0.05,0 -0.099,0 -0.149,-0.01 -0.64,-0.083 -1.09,-0.668 -1.007,-1.306 0.215,-1.667 0.344,-3.384 0.378,-5.102 l 0.073,-4.074 c 0.013,-0.636 0.53,-1.145 1.167,-1.145 0.01,0 0.013,0 0.02,0 0.643,0.01 1.156,0.54 1.147,1.185 l -0.073,4.083 c -0.04,1.803 -0.172,3.602 -0.398,5.352 -0.077,0.588 -0.578,1.015 -1.158,1.015 z m -620.889,-26.549 c -0.563,0 -1.06,-0.409 -1.15,-0.981 l -1.478,-9.206 c -0.103,-0.636 0.328,-1.234 0.964,-1.337 0.656,-0.098 1.233,0.333 1.335,0.966 l 1.478,9.208 c 0.103,0.635 -0.328,1.233 -0.964,1.336 -0.062,0.01 -0.126,0.014 -0.185,0.014 z m 621.486,-4.514 c -0.643,0 -1.163,-0.519 -1.167,-1.162 -0.01,-3.031 -0.033,-6.137 -0.073,-9.317 -0.01,-0.645 0.507,-1.173 1.153,-1.18 0,0 0.01,0 0.013,0 0.636,0 1.157,0.512 1.167,1.15 0.04,3.186 0.063,6.303 0.073,9.34 0,0.643 -0.52,1.167 -1.163,1.168 v 0 z m -626.417,-26.173 c -0.563,0 -1.057,-0.409 -1.15,-0.981 l -1.481,-9.206 c -0.103,-0.636 0.328,-1.234 0.964,-1.335 0.64,-0.131 1.233,0.333 1.335,0.964 l 1.481,9.206 c 0.103,0.636 -0.328,1.234 -0.964,1.335 -0.063,0.012 -0.126,0.017 -0.185,0.017 z m 625.867,-4.913 c -0.626,0 -1.147,-0.497 -1.167,-1.128 -0.096,-3.059 -0.205,-6.164 -0.331,-9.312 -0.027,-0.643 0.474,-1.185 1.117,-1.211 0.017,0 0.033,0 0.046,0 0.623,0 1.14,0.49 1.163,1.119 0.126,3.155 0.242,6.267 0.338,9.332 0.02,0.643 -0.487,1.181 -1.13,1.201 -0.013,-10e-4 -0.023,-10e-4 -0.036,-10e-4 z m -630.802,-25.774 c -0.563,0 -1.057,-0.408 -1.15,-0.981 l -1.481,-9.206 c -0.103,-0.636 0.328,-1.234 0.964,-1.335 0.659,-0.128 1.229,0.331 1.335,0.964 l 1.481,9.206 c 0.103,0.636 -0.328,1.234 -0.964,1.337 -0.062,0.01 -0.125,0.015 -0.185,0.015 z m 629.36,-5.284 c -0.613,0 -1.127,-0.475 -1.163,-1.094 -0.189,-3.07 -0.394,-6.17 -0.61,-9.299 -0.043,-0.641 0.441,-1.198 1.083,-1.243 0.663,-0.048 1.2,0.444 1.243,1.084 0.215,3.132 0.421,6.238 0.61,9.315 0.04,0.643 -0.451,1.195 -1.09,1.235 -0.026,0 -0.05,0 -0.073,0 z m -634.294,-25.404 c -0.563,0 -1.057,-0.409 -1.15,-0.981 l -1.481,-9.206 c -0.103,-0.636 0.328,-1.235 0.964,-1.336 0.643,-0.123 1.233,0.332 1.336,0.964 l 1.481,9.206 c 0.103,0.636 -0.328,1.234 -0.964,1.335 -0.063,0.013 -0.126,0.018 -0.186,0.018 z m 631.908,-5.596 c -0.596,0 -1.104,-0.452 -1.16,-1.055 -0.288,-3.074 -0.593,-6.166 -0.915,-9.274 -0.066,-0.64 0.401,-1.213 1.041,-1.279 0.633,-0.053 1.213,0.401 1.279,1.041 0.322,3.115 0.626,6.214 0.915,9.294 0.06,0.641 -0.411,1.209 -1.051,1.269 -0.036,0 -0.072,0 -0.109,0 z m -636.842,-25.091 c -0.563,0 -1.057,-0.407 -1.15,-0.981 l -1.481,-9.206 c -0.103,-0.636 0.328,-1.234 0.964,-1.337 0.663,-0.1 1.233,0.333 1.335,0.966 l 1.481,9.206 c 0.103,0.636 -0.328,1.234 -0.964,1.337 -0.063,0.01 -0.126,0.015 -0.185,0.015 z m 633.416,-5.804 c -0.58,0 -1.08,-0.429 -1.156,-1.017 -0.398,-3.067 -0.809,-6.146 -1.243,-9.231 -0.089,-0.638 0.355,-1.228 0.991,-1.317 0.673,-0.083 1.229,0.356 1.316,0.992 0.434,3.095 0.852,6.18 1.249,9.257 0.083,0.638 -0.368,1.223 -1.007,1.306 -0.051,0.01 -0.1,0.01 -0.15,0.01 z m -619.631,-5.357 c -0.58,0 -1.08,-0.429 -1.156,-1.017 -0.083,-0.638 0.371,-1.221 1.008,-1.304 l 9.249,-1.183 c 0.706,-0.093 1.226,0.375 1.306,1.009 0.083,0.638 -0.371,1.221 -1.007,1.304 l -9.249,1.183 c -0.054,0.01 -0.104,0.01 -0.151,0.01 z m 30.83,-3.944 c -0.58,0 -1.08,-0.431 -1.156,-1.019 -0.083,-0.638 0.371,-1.221 1.007,-1.304 l 9.249,-1.183 c 0.699,-0.084 1.223,0.375 1.306,1.009 0.083,0.638 -0.371,1.221 -1.007,1.304 l -9.249,1.183 c -0.054,0.01 -0.104,0.01 -0.15,0.01 z m 30.829,-3.945 c -0.58,0 -1.08,-0.431 -1.156,-1.019 -0.083,-0.638 0.371,-1.221 1.007,-1.304 l 9.249,-1.183 c 0.739,-0.076 1.223,0.373 1.306,1.009 0.083,0.638 -0.371,1.221 -1.007,1.304 l -9.249,1.183 c -0.054,0.01 -0.104,0.01 -0.15,0.01 z m 30.829,-3.945 c -0.58,0 -1.08,-0.431 -1.156,-1.019 -0.083,-0.638 0.371,-1.221 1.007,-1.304 l 9.249,-1.183 c 0.736,-0.09 1.223,0.375 1.306,1.009 0.083,0.638 -0.371,1.221 -1.008,1.304 l -9.249,1.183 c -0.053,0.01 -0.102,0.01 -0.149,0.01 z m 30.833,-3.945 c -0.58,0 -1.08,-0.431 -1.156,-1.019 -0.083,-0.638 0.371,-1.221 1.008,-1.304 l 9.249,-1.183 c 0.726,-0.081 1.223,0.373 1.306,1.009 0.083,0.638 -0.371,1.221 -1.008,1.304 l -9.249,1.183 c -0.054,0.01 -0.104,0.01 -0.15,0.01 z m 30.829,-3.945 c -0.58,0 -1.08,-0.431 -1.156,-1.019 -0.083,-0.638 0.371,-1.221 1.007,-1.304 l 9.249,-1.183 c 0.722,-0.096 1.223,0.375 1.306,1.009 0.083,0.638 -0.371,1.221 -1.007,1.304 l -9.249,1.183 c -0.054,0.01 -0.104,0.01 -0.15,0.01 z m 30.829,-3.946 c -0.58,0 -1.08,-0.431 -1.156,-1.019 -0.083,-0.638 0.371,-1.221 1.008,-1.304 l 9.249,-1.183 c 0.716,-0.088 1.223,0.375 1.306,1.009 0.083,0.638 -0.371,1.221 -1.007,1.304 l -9.249,1.183 c -0.055,0.01 -0.104,0.01 -0.151,0.01 z m 430.065,-1.711 c -0.56,0 -1.054,-0.403 -1.15,-0.971 -0.517,-3.052 -1.057,-6.106 -1.624,-9.159 -0.116,-0.633 0.302,-1.241 0.935,-1.359 0.649,-0.125 1.239,0.303 1.359,0.934 0.567,3.064 1.107,6.131 1.63,9.193 0.106,0.635 -0.322,1.236 -0.954,1.344 -0.067,0.011 -0.133,0.018 -0.196,0.018 z m -399.236,-2.232 c -0.58,0 -1.08,-0.431 -1.156,-1.019 -0.083,-0.638 0.371,-1.221 1.007,-1.304 l 9.249,-1.185 c 0.666,-0.08 1.226,0.373 1.306,1.009 0.083,0.638 -0.371,1.221 -1.008,1.304 l -9.249,1.185 c -0.049,0.01 -0.102,0.01 -0.149,0.01 z m 30.833,-3.945 c -0.58,0 -1.08,-0.431 -1.156,-1.019 -0.083,-0.638 0.371,-1.221 1.007,-1.304 l 9.249,-1.185 c 0.659,-0.093 1.226,0.375 1.306,1.009 0.083,0.638 -0.371,1.221 -1.008,1.304 l -9.249,1.185 c -0.05,0.01 -0.103,0.01 -0.149,0.01 z m 30.829,-3.946 c -0.58,0 -1.08,-0.431 -1.156,-1.019 -0.083,-0.638 0.371,-1.221 1.007,-1.304 l 9.249,-1.185 c 0.699,-0.084 1.223,0.375 1.306,1.009 0.083,0.638 -0.371,1.221 -1.007,1.304 l -9.249,1.185 c -0.05,0.01 -0.103,0.01 -0.15,0.01 z m 30.829,-3.947 c -0.58,0 -1.08,-0.429 -1.156,-1.017 -0.083,-0.638 0.371,-1.221 1.007,-1.304 l 9.249,-1.185 c 0.693,-0.076 1.223,0.375 1.306,1.009 0.083,0.638 -0.371,1.221 -1.008,1.304 l -9.249,1.185 c -0.049,0.01 -0.102,0.01 -0.149,0.01 z m 30.83,-3.943 c -0.58,0 -1.08,-0.431 -1.157,-1.019 -0.083,-0.638 0.371,-1.221 1.008,-1.304 l 9.249,-1.183 c 0.732,-0.093 1.223,0.375 1.306,1.009 0.083,0.638 -0.371,1.221 -1.008,1.304 l -9.249,1.183 c -0.053,0.01 -0.103,0.01 -0.149,0.01 z m 30.832,-3.945 c -0.58,0 -1.08,-0.431 -1.156,-1.019 -0.083,-0.638 0.371,-1.221 1.007,-1.304 l 9.249,-1.183 c 0.679,-0.084 1.223,0.375 1.306,1.009 0.083,0.638 -0.371,1.221 -1.007,1.304 l -9.249,1.183 c -0.05,0.01 -0.103,0.01 -0.15,0.01 z m 30.83,-3.947 c -0.58,0 -1.08,-0.429 -1.157,-1.018 -0.083,-0.638 0.371,-1.221 1.008,-1.304 l 9.249,-1.183 c 0.719,-0.076 1.223,0.373 1.306,1.009 0.083,0.638 -0.371,1.221 -1.007,1.304 l -9.249,1.183 c -0.054,0.01 -0.104,0.01 -0.15,0.01 z m 30.829,-3.945 c -0.58,0 -1.08,-0.429 -1.156,-1.017 -0.083,-0.638 0.371,-1.221 1.007,-1.304 l 9.249,-1.183 c 0.716,-0.09 1.226,0.375 1.306,1.009 0.083,0.638 -0.371,1.221 -1.008,1.304 l -9.249,1.183 c -0.053,0.01 -0.103,0.01 -0.149,0.01 z m 177.509,-0.66 c -0.537,0 -1.021,-0.373 -1.14,-0.916 -0.663,-3.034 -1.349,-6.061 -2.058,-9.082 -0.149,-0.626 0.239,-1.254 0.865,-1.402 0.636,-0.142 1.256,0.244 1.402,0.868 0.716,3.031 1.402,6.071 2.071,9.115 0.136,0.63 -0.262,1.251 -0.891,1.389 -0.083,0.018 -0.166,0.028 -0.249,0.028 z m -146.68,-3.285 c -0.58,0 -1.081,-0.429 -1.157,-1.018 -0.083,-0.638 0.371,-1.221 1.008,-1.304 l 9.249,-1.183 c 0.709,-0.081 1.226,0.373 1.306,1.009 0.083,0.638 -0.371,1.221 -1.007,1.304 l -9.249,1.183 c -0.054,0.01 -0.104,0.01 -0.15,0.01 z m 30.833,-3.944 c -0.58,0 -1.08,-0.431 -1.156,-1.019 -0.083,-0.638 0.371,-1.221 1.007,-1.304 l 9.246,-1.183 c 0.706,-0.096 1.226,0.375 1.306,1.009 0.083,0.638 -0.371,1.221 -1.008,1.304 l -9.246,1.183 c -0.05,0.01 -0.103,0.01 -0.149,0.01 z m 30.829,-3.945 c -0.58,0 -1.081,-0.431 -1.157,-1.019 -0.083,-0.638 0.371,-1.221 1.007,-1.304 l 9.249,-1.183 c 0.742,-0.088 1.223,0.375 1.306,1.009 0.083,0.638 -0.371,1.221 -1.007,1.304 l -9.249,1.183 c -0.053,0.01 -0.103,0.01 -0.149,0.01 z m 30.829,-3.946 c -0.58,0 -1.08,-0.431 -1.156,-1.019 -0.083,-0.638 0.371,-1.221 1.007,-1.304 l 9.249,-1.183 c 0.736,-0.079 1.223,0.373 1.306,1.009 0.083,0.638 -0.371,1.221 -1.008,1.304 l -9.249,1.183 c -0.053,0.01 -0.103,0.01 -0.149,0.01 z m 30.829,-3.945 c -0.58,0 -1.08,-0.431 -1.156,-1.019 -0.083,-0.638 0.371,-1.221 1.008,-1.304 l 9.249,-1.183 c 0.732,-0.093 1.223,0.375 1.306,1.009 0.083,0.638 -0.371,1.221 -1.007,1.304 l -9.249,1.183 c -0.055,0.01 -0.104,0.01 -0.151,0.01 z"
   id="path217" />
					
						<linearGradient
   id="SVGID_00000132796831550650616560000015008569386856634012_"
   gradientUnits="userSpaceOnUse"
   x1="302.07571"
   y1="88.279099"
   x2="307.16629"
   y2="-235.813"
   gradientTransform="matrix(0.9919,-0.127,0.127,0.9919,1989.9969,-609.5969)">
						<stop
   offset="0"
   style="stop-color:#E1473D"
   id="stop219" />
						<stop
   offset="1"
   style="stop-color:#E9605A"
   id="stop221" />
					</linearGradient>
					<path
   style="fill:url(#SVGID_00000132796831550650616560000015008569386856634012_)"
   d="m 2537.883,1958.578 -0.575,-16.838 c 1.246,-4.197 4.529,-7.475 8.746,-8.711 15.768,-4.622 55.109,-14.233 76.168,-2.329 l 5.345,18.968 z"
   id="path224" />
					
						<linearGradient
   id="SVGID_00000118391244177465846590000004945998359045886892_"
   gradientUnits="userSpaceOnUse"
   x1="301.28259"
   y1="88.351097"
   x2="306.37311"
   y2="-235.73039"
   gradientTransform="matrix(0.9919,-0.127,0.127,0.9919,1989.9969,-609.5969)">
						<stop
   offset="0"
   style="stop-color:#E1473D"
   id="stop226" />
						<stop
   offset="1"
   style="stop-color:#E9605A"
   id="stop228" />
					</linearGradient>
					<path
   style="fill:url(#SVGID_00000118391244177465846590000004945998359045886892_)"
   d="m 2586.113,1936.134 c -3.591,1.378 -7.303,1.851 -11.139,1.413 -4.642,-0.53 -8.331,-4.15 -8.921,-8.764 l -6.667,-52.101 26.514,-3.393 6.663,52.062 c 0.593,4.635 -2.069,9.102 -6.45,10.783 z"
   id="path231" />
					
						<linearGradient
   id="SVGID_00000078754062289586481140000011879181002440154802_"
   gradientUnits="userSpaceOnUse"
   x1="560.91748"
   y1="92.350899"
   x2="566.00818"
   y2="-231.7411"
   gradientTransform="matrix(0.9919,-0.127,0.127,0.9919,1989.9969,-609.5969)">
						<stop
   offset="0"
   style="stop-color:#E1473D"
   id="stop233" />
						<stop
   offset="1"
   style="stop-color:#E9605A"
   id="stop235" />
					</linearGradient>
					<path
   style="fill:url(#SVGID_00000078754062289586481140000011879181002440154802_)"
   d="m 2794.694,1925.716 -0.575,-16.838 c 1.246,-4.197 4.53,-7.475 8.747,-8.711 15.767,-4.622 55.109,-14.234 76.167,-2.329 l 5.346,18.968 z"
   id="path238" />
					
						<linearGradient
   id="SVGID_00000065047558306296880570000010210054969621929638_"
   gradientUnits="userSpaceOnUse"
   x1="560.0816"
   y1="92.415199"
   x2="565.17212"
   y2="-231.66631"
   gradientTransform="matrix(0.9919,-0.127,0.127,0.9919,1989.9969,-609.5969)">
						<stop
   offset="0"
   style="stop-color:#E1473D"
   id="stop240" />
						<stop
   offset="1"
   style="stop-color:#E9605A"
   id="stop242" />
					</linearGradient>
					<path
   style="fill:url(#SVGID_00000065047558306296880570000010210054969621929638_)"
   d="m 2842.924,1903.272 c -3.589,1.378 -7.303,1.851 -11.139,1.412 -4.642,-0.53 -8.331,-4.15 -8.921,-8.764 l -7.368,-57.589 26.514,-3.393 7.365,57.552 c 0.592,4.634 -2.069,9.101 -6.451,10.782 z"
   id="path245" />
					
						<linearGradient
   id="SVGID_00000036244618176426489880000009184058993897396890_"
   gradientUnits="userSpaceOnUse"
   x1="428.83609"
   y1="90.477097"
   x2="433.9263"
   y2="-233.5878"
   gradientTransform="matrix(0.9919,-0.127,0.127,0.9919,1989.9969,-609.5969)">
						<stop
   offset="0"
   style="stop-color:#E1473D"
   id="stop247" />
						<stop
   offset="1"
   style="stop-color:#E9605A"
   id="stop249" />
					</linearGradient>
					<path
   style="fill:url(#SVGID_00000036244618176426489880000009184058993897396890_)"
   d="m 2558.327,1889.798 283.937,-45.927 c 6.474,-1.047 11.389,-6.443 11.689,-12.964 0.42,-9.126 0.087,-22.666 -3.739,-36.256 -4.352,-15.455 -19.399,-25.423 -35.443,-23.758 -53.356,5.541 -188.769,22.908 -259.627,61.982 -7.494,4.133 -12.486,11.628 -13.432,20.101 -0.904,8.081 -0.831,18.709 3.022,29.042 2.048,5.491 7.784,8.72 13.593,7.78 z"
   id="path252" />
					
						<linearGradient
   id="SVGID_00000137826836450762930070000006649851469224574383_"
   gradientUnits="userSpaceOnUse"
   x1="2591.5969"
   y1="1804.8777"
   x2="2594.9902"
   y2="1477.411">
						<stop
   offset="0"
   style="stop-color:#FEBBBA"
   id="stop254" />
						<stop
   offset="1"
   style="stop-color:#FF928E"
   id="stop256" />
					</linearGradient>
					
					
						<linearGradient
   id="SVGID_00000047758267020370102230000003696037479039885999_"
   gradientUnits="userSpaceOnUse"
   x1="2692.884"
   y1="1875.4662"
   x2="2758.49"
   y2="2230.6448">
						<stop
   offset="0"
   style="stop-color:#FE7062"
   id="stop261" />
						<stop
   offset="1"
   style="stop-color:#FF928E"
   id="stop263" />
					</linearGradient>
					<path
   style="fill:url(#SVGID_00000047758267020370102230000003696037479039885999_)"
   d="m 2404.757,1969.025 c 91.97,-12.966 489.945,-68.147 607.49,-68.994 10.12,-0.073 19.187,6.178 22.594,15.661 10.798,30.047 33.75,100.122 41.232,171.538 1.017,9.719 -5.042,18.804 -14.377,21.838 l -257.841,83.802 -93.862,12.011 -288.711,-19.938 c -10.176,-0.702 -18.568,-8.171 -20.368,-18.165 -6.414,-35.59 -20.031,-119.281 -17.266,-174.627 0.587,-11.759 9.396,-21.474 21.109,-23.126 z"
   id="path266" />
					<path
   style="fill:#ffffff"
   d="m 2709.32,2182.991 c -0.027,0 -0.053,0 -0.08,0 l -9.302,-0.643 c -0.643,-0.045 -1.127,-0.602 -1.084,-1.243 0.046,-0.643 0.65,-1.095 1.243,-1.083 l 9.302,0.643 c 0.013,0 0.027,0 0.04,0 0.083,-0.03 0.172,-0.053 0.262,-0.065 l 9.249,-1.183 c 0.716,-0.081 1.223,0.373 1.306,1.009 0.083,0.638 -0.371,1.221 -1.008,1.304 l -9.249,1.183 c -0.103,0.012 -0.192,0.01 -0.268,0 -0.13,0.049 -0.269,0.074 -0.411,0.074 z m -31.009,-2.141 c -0.026,0 -0.053,0 -0.08,0 l -9.302,-0.643 c -0.643,-0.045 -1.127,-0.602 -1.084,-1.244 0.046,-0.641 0.64,-1.1 1.243,-1.082 l 9.302,0.643 c 0.643,0.045 1.127,0.602 1.083,1.244 -0.042,0.615 -0.552,1.084 -1.162,1.084 z m 62.368,-1.871 c -0.58,0 -1.08,-0.431 -1.156,-1.019 -0.083,-0.638 0.371,-1.221 1.007,-1.304 l 9.249,-1.183 c 0.713,-0.094 1.226,0.375 1.306,1.009 0.083,0.638 -0.371,1.221 -1.008,1.304 l -9.249,1.183 c -0.053,0.01 -0.103,0.01 -0.149,0.01 z m -93.376,-0.27 c -0.026,0 -0.053,0 -0.08,-10e-4 l -9.302,-0.643 c -0.643,-0.045 -1.127,-0.602 -1.083,-1.244 0.046,-0.641 0.629,-1.107 1.243,-1.082 l 9.302,0.643 c 0.643,0.045 1.127,0.601 1.084,1.244 -0.044,0.614 -0.554,1.083 -1.164,1.083 z m -31.005,-2.142 c -0.026,0 -0.053,0 -0.079,0 l -9.302,-0.641 c -0.643,-0.045 -1.127,-0.602 -1.083,-1.243 0.046,-0.641 0.616,-1.115 1.243,-1.083 l 9.302,0.641 c 0.643,0.045 1.127,0.602 1.084,1.243 -0.045,0.614 -0.555,1.085 -1.165,1.085 z m 155.213,-1.531 c -0.58,0 -1.08,-0.431 -1.156,-1.019 -0.083,-0.638 0.371,-1.221 1.007,-1.304 l 9.246,-1.183 c 0.706,-0.088 1.226,0.374 1.306,1.009 0.083,0.638 -0.371,1.221 -1.007,1.304 l -9.246,1.183 c -0.053,0.01 -0.103,0.01 -0.15,0.01 z m -186.221,-0.61 c -0.027,0 -0.053,0 -0.08,-10e-4 l -9.302,-0.643 c -0.643,-0.045 -1.127,-0.601 -1.083,-1.243 0.046,-0.643 0.606,-1.12 1.243,-1.084 l 9.302,0.643 c 0.643,0.045 1.127,0.601 1.084,1.244 -0.044,0.616 -0.554,1.084 -1.164,1.084 z m -31.008,-2.141 c -0.026,0 -0.053,0 -0.079,-10e-4 l -9.302,-0.643 c -0.643,-0.045 -1.127,-0.602 -1.084,-1.243 0.046,-0.643 0.597,-1.127 1.243,-1.083 l 9.302,0.643 c 0.643,0.045 1.127,0.602 1.084,1.244 -0.044,0.615 -0.554,1.083 -1.164,1.083 z m 247.913,-1.842 c -0.49,0 -0.948,-0.313 -1.107,-0.807 -0.202,-0.611 0.136,-1.269 0.746,-1.468 l 8.868,-2.883 c 0.613,-0.192 1.272,0.136 1.468,0.749 0.202,0.611 -0.136,1.269 -0.746,1.468 l -8.868,2.883 c -0.119,0.038 -0.242,0.058 -0.361,0.058 z m -278.921,-0.298 c -0.027,0 -0.053,0 -0.08,0 l -9.302,-0.643 c -0.643,-0.045 -1.127,-0.602 -1.084,-1.244 0.043,-0.64 0.587,-1.132 1.243,-1.082 l 9.302,0.643 c 0.643,0.045 1.127,0.602 1.083,1.244 -0.042,0.615 -0.553,1.084 -1.162,1.084 z m -31.009,-2.143 c -0.026,0 -0.053,0 -0.08,-10e-4 l -9.302,-0.641 c -0.643,-0.045 -1.127,-0.601 -1.084,-1.243 0.046,-0.641 0.656,-1.1 1.243,-1.083 l 9.302,0.641 c 0.643,0.045 1.127,0.602 1.084,1.243 -0.043,0.614 -0.553,1.084 -1.163,1.084 z m -31.008,-2.14 c -0.026,0 -0.053,0 -0.079,0 l -9.302,-0.643 c -0.643,-0.045 -1.127,-0.602 -1.083,-1.243 0.046,-0.643 0.646,-1.105 1.243,-1.084 l 9.302,0.643 c 0.643,0.045 1.126,0.602 1.083,1.243 -0.044,0.617 -0.554,1.086 -1.164,1.086 z m -31.005,-2.141 c -0.027,0 -0.053,0 -0.08,0 l -7.768,-0.537 -0.593,-3.302 c -0.116,-0.633 0.301,-1.241 0.934,-1.357 0.653,-0.111 1.243,0.303 1.359,0.936 l 0.275,1.523 5.952,0.411 c 0.643,0.045 1.127,0.602 1.084,1.245 -0.042,0.614 -0.553,1.083 -1.163,1.083 z m 401.503,-2.885 c -0.49,0 -0.948,-0.313 -1.107,-0.807 -0.202,-0.611 0.136,-1.269 0.746,-1.468 l 8.868,-2.883 c 0.61,-0.194 1.269,0.134 1.468,0.749 0.202,0.611 -0.136,1.269 -0.746,1.468 l -8.868,2.883 c -0.119,0.038 -0.242,0.058 -0.361,0.058 z m 29.557,-9.609 c -0.49,0 -0.948,-0.313 -1.107,-0.807 -0.202,-0.611 0.136,-1.269 0.746,-1.468 l 8.868,-2.882 c 0.61,-0.194 1.269,0.136 1.468,0.749 0.202,0.612 -0.136,1.269 -0.746,1.468 l -8.868,2.882 c -0.12,0.039 -0.242,0.058 -0.361,0.058 z m 29.56,-9.607 c -0.49,0 -0.948,-0.313 -1.11,-0.807 -0.199,-0.612 0.139,-1.269 0.749,-1.468 l 8.868,-2.881 c 0.613,-0.196 1.269,0.136 1.468,0.749 0.202,0.611 -0.136,1.269 -0.746,1.468 l -8.868,2.881 c -0.119,0.039 -0.242,0.058 -0.361,0.058 z m -471.562,-2.255 c -0.563,0 -1.057,-0.408 -1.15,-0.979 -0.48,-2.959 -0.971,-6.038 -1.471,-9.223 -0.096,-0.636 0.338,-1.233 0.974,-1.332 0.62,-0.098 1.229,0.336 1.332,0.971 0.494,3.181 0.984,6.257 1.465,9.209 0.103,0.636 -0.328,1.234 -0.964,1.337 -0.063,0.012 -0.127,0.017 -0.186,0.017 z m 501.122,-7.352 c -0.49,0 -0.948,-0.313 -1.107,-0.805 -0.202,-0.613 0.136,-1.271 0.746,-1.47 l 8.868,-2.883 c 0.61,-0.194 1.272,0.136 1.468,0.749 0.202,0.611 -0.136,1.269 -0.746,1.468 l -8.868,2.883 c -0.119,0.038 -0.242,0.058 -0.361,0.058 z m 29.56,-9.607 c -0.49,0 -0.948,-0.313 -1.107,-0.807 -0.202,-0.611 0.136,-1.269 0.746,-1.468 l 8.868,-2.883 c 0.613,-0.196 1.269,0.136 1.468,0.749 0.202,0.611 -0.136,1.269 -0.746,1.468 l -8.868,2.883 c -0.119,0.038 -0.242,0.058 -0.361,0.058 z m 29.56,-9.608 c -0.49,0 -0.948,-0.313 -1.107,-0.807 -0.202,-0.611 0.136,-1.269 0.746,-1.468 l 8.865,-2.882 c 0.613,-0.192 1.269,0.136 1.468,0.749 0.202,0.612 -0.136,1.269 -0.746,1.468 l -8.865,2.882 c -0.119,0.038 -0.242,0.058 -0.361,0.058 z m -564.898,-4.187 c -0.573,0 -1.074,-0.423 -1.153,-1.006 -0.424,-3.037 -0.848,-6.126 -1.262,-9.256 -0.083,-0.638 0.365,-1.223 1.004,-1.307 0.636,-0.083 1.223,0.365 1.309,1.002 0.414,3.123 0.832,6.205 1.256,9.239 0.089,0.636 -0.355,1.226 -0.991,1.316 -0.057,0.01 -0.11,0.012 -0.163,0.012 z m 594.454,-5.42 c -0.49,0 -0.948,-0.313 -1.107,-0.807 -0.202,-0.612 0.136,-1.269 0.746,-1.468 l 8.868,-2.882 c 0.61,-0.194 1.269,0.136 1.471,0.749 0.199,0.611 -0.139,1.269 -0.749,1.468 l -8.868,2.882 c -0.119,0.038 -0.241,0.058 -0.361,0.058 z m 29.56,-9.607 c -0.49,0 -0.948,-0.313 -1.107,-0.807 -0.202,-0.611 0.136,-1.269 0.746,-1.468 l 8.868,-2.883 c 0.616,-0.192 1.269,0.136 1.468,0.749 0.202,0.611 -0.136,1.269 -0.746,1.468 l -8.868,2.883 c -0.119,0.038 -0.241,0.058 -0.361,0.058 z m -627.918,-15.829 c -0.586,0 -1.09,-0.441 -1.16,-1.037 -0.344,-3.082 -0.679,-6.179 -0.997,-9.284 -0.066,-0.641 0.401,-1.213 1.041,-1.279 0.659,-0.065 1.209,0.401 1.279,1.041 0.318,3.098 0.653,6.189 0.998,9.264 0.07,0.64 -0.391,1.216 -1.031,1.288 -0.044,0 -0.087,0.01 -0.13,0.01 z m 640.313,-4.691 c -0.573,0 -1.074,-0.421 -1.153,-1.004 -0.434,-3.074 -0.895,-6.142 -1.375,-9.199 -0.103,-0.636 0.331,-1.233 0.968,-1.334 0.646,-0.099 1.233,0.335 1.332,0.969 0.487,3.071 0.948,6.152 1.382,9.239 0.09,0.638 -0.354,1.226 -0.991,1.317 -0.058,0.01 -0.111,0.012 -0.163,0.012 z m -643.252,-26.269 c -0.606,0 -1.117,-0.466 -1.163,-1.077 -0.235,-3.127 -0.447,-6.24 -0.636,-9.325 -0.04,-0.643 0.451,-1.195 1.09,-1.234 0.746,-0.052 1.2,0.451 1.236,1.092 0.189,3.075 0.401,6.176 0.636,9.292 0.046,0.643 -0.434,1.201 -1.077,1.249 -0.03,0 -0.057,0 -0.086,0 z m 638.095,-4.371 c -0.547,0 -1.037,-0.388 -1.143,-0.944 -0.596,-3.067 -1.213,-6.113 -1.839,-9.132 -0.133,-0.63 0.272,-1.246 0.901,-1.379 0.636,-0.133 1.25,0.277 1.379,0.905 0.633,3.029 1.25,6.084 1.846,9.161 0.123,0.631 -0.288,1.243 -0.921,1.367 -0.077,0.013 -0.15,0.022 -0.223,0.022 z m -639.616,-26.691 c -0.633,0 -1.153,-0.507 -1.167,-1.145 -0.04,-2.249 -0.06,-4.47 -0.056,-6.658 l 0.01,-2.696 c 0.01,-0.641 0.527,-1.156 1.167,-1.156 0.736,0.038 1.17,0.527 1.167,1.173 l -0.01,2.681 c 0,2.176 0.017,4.381 0.056,6.616 0.01,0.643 -0.504,1.173 -1.147,1.185 -0.01,0 -0.014,0 -0.02,0 z m 633.012,-3.696 c -0.527,0 -1.004,-0.359 -1.134,-0.895 -0.736,-3.055 -1.475,-6.071 -2.227,-9.045 -0.159,-0.623 0.222,-1.258 0.845,-1.415 0.626,-0.169 1.259,0.222 1.415,0.845 0.752,2.981 1.498,6.006 2.234,9.072 0.149,0.625 -0.235,1.254 -0.862,1.405 -0.089,0.021 -0.182,0.033 -0.271,0.033 z m -623.856,-20.17 c -0.573,0 -1.074,-0.422 -1.153,-1.004 -0.089,-0.638 0.355,-1.226 0.991,-1.317 l 9.239,-1.296 c 0.666,-0.089 1.226,0.358 1.315,0.992 0.09,0.638 -0.354,1.228 -0.991,1.317 l -9.239,1.296 c -0.056,0.01 -0.109,0.012 -0.162,0.012 z m 30.799,-4.295 c -0.573,0 -1.074,-0.422 -1.153,-1.006 -0.09,-0.638 0.354,-1.228 0.994,-1.316 l 9.242,-1.277 c 0.626,-0.079 1.223,0.358 1.313,0.996 0.089,0.638 -0.355,1.226 -0.994,1.314 l -9.242,1.277 c -0.054,0.01 -0.107,0.012 -0.16,0.012 z m 30.806,-4.249 c -0.573,0 -1.074,-0.424 -1.153,-1.007 -0.09,-0.638 0.358,-1.226 0.994,-1.314 l 9.243,-1.264 c 0.689,-0.089 1.226,0.363 1.312,0.998 0.09,0.638 -0.358,1.224 -0.994,1.312 l -9.242,1.264 c -0.054,0.01 -0.11,0.011 -0.16,0.011 z m 554.423,-1.378 c -0.51,0 -0.978,-0.338 -1.123,-0.852 -0.855,-3.06 -1.713,-6.048 -2.565,-8.959 -0.179,-0.618 0.176,-1.264 0.792,-1.445 0.633,-0.181 1.269,0.177 1.448,0.792 0.852,2.918 1.71,5.915 2.572,8.982 0.172,0.62 -0.189,1.264 -0.809,1.437 -0.106,0.03 -0.212,0.045 -0.315,0.045 z m -523.613,-2.817 c -0.577,0 -1.077,-0.424 -1.156,-1.009 -0.086,-0.638 0.361,-1.226 1.001,-1.312 l 9.243,-1.251 c 0.649,-0.083 1.226,0.363 1.312,0.999 0.086,0.638 -0.361,1.224 -1.001,1.311 l -9.242,1.251 c -0.055,0.01 -0.108,0.011 -0.157,0.011 z m 30.816,-4.152 c -0.576,0 -1.077,-0.426 -1.156,-1.011 -0.083,-0.64 0.365,-1.226 1.001,-1.311 l 9.246,-1.236 c 0.603,-0.08 1.223,0.365 1.309,1.001 0.083,0.638 -0.365,1.224 -1.004,1.309 l -9.239,1.236 c -0.055,0.01 -0.108,0.012 -0.157,0.012 z m 30.822,-4.1 c -0.577,0 -1.077,-0.427 -1.156,-1.014 -0.083,-0.638 0.365,-1.224 1.004,-1.307 l 9.249,-1.221 c 0.673,-0.088 1.223,0.366 1.309,1.003 0.083,0.638 -0.365,1.224 -1.004,1.307 l -9.249,1.221 c -0.053,0.01 -0.103,0.011 -0.153,0.011 z m 30.82,-4.049 c -0.577,0 -1.08,-0.429 -1.156,-1.016 -0.083,-0.638 0.368,-1.223 1.004,-1.306 l 9.256,-1.206 c 0.623,-0.081 1.223,0.368 1.306,1.006 0.083,0.64 -0.368,1.224 -1.007,1.307 l -9.249,1.203 c -0.055,0.01 -0.105,0.012 -0.154,0.012 z m 30.829,-3.993 c -0.58,0 -1.08,-0.429 -1.156,-1.017 -0.083,-0.639 0.368,-1.223 1.008,-1.306 l 9.222,-1.183 c 0.646,0 1.253,0.515 1.253,1.16 0,0.643 -0.434,1.158 -1.077,1.158 l -9.1,1.178 c -0.051,0.01 -0.104,0.01 -0.15,0.01 z m 30.832,-3.934 c -0.58,0 -1.08,-0.431 -1.156,-1.021 -0.079,-0.638 0.371,-1.221 1.011,-1.302 l 9.249,-1.167 c 0.669,-0.096 1.226,0.376 1.302,1.011 0.08,0.64 -0.371,1.223 -1.011,1.302 l -9.249,1.167 c -0.05,0.01 -0.099,0.01 -0.146,0.01 z m 30.843,-3.866 c -0.58,0 -1.083,-0.432 -1.156,-1.022 -0.079,-0.64 0.375,-1.221 1.014,-1.301 l 9.256,-1.147 c 0.679,-0.089 1.219,0.378 1.299,1.014 0.08,0.64 -0.375,1.221 -1.014,1.299 l -9.256,1.147 c -0.047,0.01 -0.097,0.01 -0.143,0.01 z m 329.723,-2.879 c -0.494,0 -0.955,-0.316 -1.11,-0.814 -0.991,-3.108 -1.952,-6.068 -2.876,-8.861 -0.202,-0.611 0.129,-1.271 0.742,-1.473 0.61,-0.204 1.269,0.133 1.471,0.741 0.925,2.804 1.892,5.77 2.883,8.888 0.195,0.613 -0.143,1.269 -0.756,1.463 -0.119,0.037 -0.238,0.056 -0.354,0.056 z m -298.874,-0.917 c -0.583,0 -1.084,-0.432 -1.157,-1.024 -0.08,-0.64 0.378,-1.22 1.017,-1.297 l 9.256,-1.122 c 0.636,-0.098 1.219,0.378 1.296,1.017 0.077,0.639 -0.378,1.219 -1.017,1.296 l -9.256,1.122 c -0.046,0.01 -0.092,0.01 -0.139,0.01 z m 30.859,-3.706 c -0.583,0 -1.087,-0.436 -1.156,-1.029 -0.076,-0.64 0.381,-1.219 1.017,-1.294 l 9.262,-1.095 c 0.646,-0.086 1.219,0.384 1.292,1.022 0.076,0.64 -0.381,1.218 -1.021,1.294 l -9.256,1.094 c -0.048,0 -0.095,0.01 -0.138,0.01 z m 30.876,-3.614 c -0.587,0 -1.09,-0.439 -1.157,-1.032 -0.076,-0.64 0.385,-1.218 1.024,-1.292 l 9.262,-1.062 c 0.702,-0.061 1.219,0.388 1.289,1.026 0.073,0.64 -0.385,1.218 -1.024,1.291 l -9.262,1.062 c -0.043,0 -0.089,0.01 -0.132,0.01 z m 30.885,-3.503 c -0.586,0 -1.09,-0.439 -1.16,-1.036 -0.07,-0.64 0.391,-1.216 1.031,-1.287 l 9.272,-1.026 c 0.689,-0.076 1.216,0.394 1.286,1.031 0.07,0.64 -0.395,1.216 -1.034,1.286 l -9.266,1.026 c -0.043,0 -0.086,0.01 -0.129,0.01 z m 30.902,-3.368 c -0.59,0 -1.094,-0.444 -1.16,-1.042 -0.066,-0.641 0.398,-1.215 1.037,-1.282 l 9.272,-0.983 c 0.676,-0.052 1.213,0.398 1.283,1.037 0.066,0.641 -0.398,1.214 -1.037,1.282 l -9.272,0.979 c -0.04,0 -0.083,0.01 -0.123,0.01 z m 30.916,-3.205 c -0.593,0 -1.1,-0.447 -1.16,-1.049 -0.063,-0.64 0.404,-1.211 1.044,-1.276 l 9.285,-0.921 c 0.626,-0.056 1.213,0.406 1.273,1.047 0.063,0.64 -0.408,1.209 -1.047,1.272 l -9.279,0.921 c -0.04,0 -0.08,0.01 -0.116,0.01 z m 30.938,-2.991 c -0.596,0 -1.104,-0.452 -1.16,-1.057 -0.06,-0.641 0.411,-1.21 1.054,-1.268 l 9.289,-0.848 c 0.63,-0.066 1.206,0.417 1.263,1.057 0.06,0.641 -0.414,1.208 -1.057,1.266 l -9.282,0.845 c -0.037,0 -0.073,0.01 -0.107,0.01 z m 30.965,-2.704 c -0.603,0 -1.114,-0.461 -1.163,-1.07 -0.05,-0.641 0.427,-1.205 1.067,-1.256 3.171,-0.258 6.27,-0.504 9.302,-0.737 0.616,-0.063 1.2,0.431 1.253,1.072 0.05,0.641 -0.431,1.201 -1.074,1.251 -3.026,0.234 -6.124,0.479 -9.289,0.737 -0.033,0 -0.066,0 -0.096,0 z m 31.002,-2.277 c -0.61,0 -1.124,-0.474 -1.163,-1.09 -0.04,-0.643 0.448,-1.196 1.09,-1.238 3.211,-0.205 6.313,-0.393 9.315,-0.56 0.766,-0.055 1.196,0.457 1.229,1.099 0.036,0.643 -0.454,1.193 -1.097,1.228 -2.996,0.167 -6.098,0.355 -9.302,0.56 -0.022,10e-4 -0.049,10e-4 -0.072,10e-4 z m 31.041,-1.524 c -0.63,0 -1.146,-0.499 -1.167,-1.13 -0.017,-0.645 0.487,-1.181 1.133,-1.2 3.314,-0.098 6.429,-0.161 9.345,-0.189 0,0 0.01,0 0.01,0 0.64,0 1.16,0.514 1.167,1.153 0.01,0.645 -0.51,1.172 -1.156,1.177 -2.896,0.028 -5.998,0.091 -9.299,0.189 -0.01,0 -0.023,0 -0.033,0 z"
   id="path268" />
					
						<linearGradient
   id="SVGID_00000162330378459915885770000003585955149779754404_"
   gradientUnits="userSpaceOnUse"
   x1="2705.1924"
   y1="2268.437"
   x2="2827.3562"
   y2="2002.0518">
						<stop
   offset="0"
   style="stop-color:#E1473D"
   id="stop270" />
						<stop
   offset="1"
   style="stop-color:#E9605A"
   id="stop272" />
					</linearGradient>
					<path
   style="fill:url(#SVGID_00000162330378459915885770000003585955149779754404_)"
   d="m 2800.06,2233.409 -82.23,10.522 c -10.777,1.378 -20.877,-5.478 -23.518,-15.963 l -19.626,-77.912 c -3.126,-12.41 5.344,-24.765 18.097,-26.397 l 98.786,-12.641 c 12.495,-1.599 23.666,7.811 24.146,20.34 l 3.071,80.031 c 0.424,11.053 -7.703,20.609 -18.726,22.02 z"
   id="path275" />
					
						<linearGradient
   id="SVGID_00000152247974862783332050000005734414944919570082_"
   gradientUnits="userSpaceOnUse"
   x1="2808.1633"
   y1="1904.8582"
   x2="2714.8435"
   y2="2323.9475">
						<stop
   offset="0"
   style="stop-color:#FE7062"
   id="stop277" />
						<stop
   offset="1"
   style="stop-color:#FF928E"
   id="stop279" />
					</linearGradient>
					<path
   style="fill:url(#SVGID_00000152247974862783332050000005734414944919570082_)"
   d="m 2788.083,2220.15 -62.586,8.009 c -8.202,1.049 -15.89,-4.169 -17.9,-12.15 l -14.938,-59.3 c -2.379,-9.446 4.068,-18.848 13.775,-20.091 l 75.187,-9.621 c 9.51,-1.216 18.012,5.945 18.378,15.482 l 2.337,60.912 c 0.322,8.412 -5.863,15.685 -14.253,16.759 z"
   id="path282" />
				</g>
				
					<linearGradient
   id="SVGID_00000075859337991136977950000000667311726490322847_"
   gradientUnits="userSpaceOnUse"
   x1="2813.1765"
   y1="1634.3888"
   x2="2603.0977"
   y2="2038.3867">
					<stop
   offset="0"
   style="stop-color:#FEBBBA"
   id="stop286" />
					<stop
   offset="1"
   style="stop-color:#FF928E"
   id="stop288" />
				</linearGradient>
				<path
   style="fill:url(#SVGID_00000075859337991136977950000000667311726490322847_)"
   d="m 2739.173,1589.584 c 19.398,80.146 19.91,158.551 16.96,187.1 -1.113,10.763 -9.764,19.167 -20.558,19.923 -12.262,0.858 -28.949,1.984 -43.863,2.843 -16.393,0.945 -34.587,-9.415 -46.754,-18.075 -6.211,-4.421 -14.246,2.463 -10.777,9.252 5.976,11.694 16.358,20.904 26.663,28.734 6.199,4.71 26.802,13.077 25.364,22.352 -0.454,2.926 -2.217,5.473 -4.113,7.747 -11.45,13.738 -28.771,21.075 -45.868,26.323 -2.145,0.658 -4.409,1.36 -5.92,3.019 -0.425,11.057 33.583,23.339 42.362,26.252 13.151,4.365 27.097,6.214 40.907,4.759 34.221,-3.604 65.823,-27.224 84.254,-55.703 49.273,-76.134 74.747,-168.07 84.054,-238.382 -45.834,-45.82 -115.032,-34.205 -142.711,-26.144 z"
   id="path291" />
				<g
   id="g307">
					
						<linearGradient
   id="SVGID_00000070100866114150014230000007049795370050400668_"
   gradientUnits="userSpaceOnUse"
   x1="3072.197"
   y1="725.08289"
   x2="2558.1179"
   y2="1819.4099">
						<stop
   offset="0"
   style="stop-color:#09005D"
   id="stop293" />
						<stop
   offset="1"
   style="stop-color:#1A0F91"
   id="stop295" />
					</linearGradient>
					<path
   style="fill:url(#SVGID_00000070100866114150014230000007049795370050400668_)"
   d="m 2881.884,1622.968 c 36.555,-276.129 -176.24,-488.452 -176.24,-488.452 l -126.606,147.598 c 96.122,119.812 141.814,229.6 162.686,315.83 27.679,-8.061 94.326,-20.796 140.16,25.024 z"
   id="path298" />
					
						<linearGradient
   id="SVGID_00000111179065918566186340000008924349044417700490_"
   gradientUnits="userSpaceOnUse"
   x1="4252.6143"
   y1="-373.39871"
   x2="2921.9709"
   y2="1131.5669">
						<stop
   offset="0"
   style="stop-color:#4F52FF"
   id="stop300" />
						<stop
   offset="1"
   style="stop-color:#4042E2"
   id="stop302" />
					</linearGradient>
					<path
   style="fill:url(#SVGID_00000111179065918566186340000008924349044417700490_)"
   d="m 2738.703,1596.593 c -3.533,0 -6.746,-2.404 -7.615,-5.995 -25.726,-106.297 -79.959,-211.531 -161.177,-312.767 -2.711,-3.377 -2.171,-8.315 1.205,-11.026 3.373,-2.703 8.316,-2.167 11.022,1.209 82.673,103.052 137.916,210.344 164.193,318.893 1.018,4.211 -1.57,8.446 -5.777,9.464 -0.619,0.153 -1.239,0.222 -1.851,0.222 z"
   id="path305" />
				</g>
			</g>
			<g
   id="g450">
				<g
   id="g360">
					
						<linearGradient
   id="SVGID_00000088810993294856475600000004690009428836480956_"
   gradientUnits="userSpaceOnUse"
   x1="-446.86469"
   y1="3169.1782"
   x2="-266.07681"
   y2="3169.1782"
   gradientTransform="translate(1290.1023)">
						<stop
   offset="0"
   style="stop-color:#09005D"
   id="stop311" />
						<stop
   offset="1"
   style="stop-color:#1A0F91"
   id="stop313" />
					</linearGradient>
					<path
   style="fill:url(#SVGID_00000088810993294856475600000004690009428836480956_)"
   d="m 1024.023,3233.55 c 0.021,-1.346 -0.069,-2.71 -0.414,-4.083 -20.362,-80.727 -121.425,-131.008 -121.425,-131.008 l -40.048,3.139 c -23.026,71.152 -20.067,114.789 -16.369,134.226 0.102,0.545 0.268,1.063 0.413,1.589 33.035,2.953 101.031,4.88 177.843,-3.863 z"
   id="path316" />
					
						<linearGradient
   id="SVGID_00000006668728842296609570000011832565872705620110_"
   gradientUnits="userSpaceOnUse"
   x1="5.7287998"
   y1="2955.8994"
   x2="-651.9837"
   y2="3472.3372"
   gradientTransform="translate(1290.1023)">
						<stop
   offset="0"
   style="stop-color:#4F52FF"
   id="stop318" />
						<stop
   offset="1"
   style="stop-color:#4042E2"
   id="stop320" />
					</linearGradient>
					<path
   style="fill:url(#SVGID_00000006668728842296609570000011832565872705620110_)"
   d="m 846.18,3237.413 c 1.784,6.491 6.575,11.545 12.708,12.835 46.993,9.883 121.685,1.93 153.044,-2.17 6.919,-0.904 11.976,-7.303 12.091,-14.527 -76.812,8.742 -144.808,6.815 -177.843,3.862 z"
   id="path323" />
					
						<linearGradient
   id="SVGID_00000089546519210609507630000008462540161780216246_"
   gradientUnits="userSpaceOnUse"
   x1="-396.58939"
   y1="2963.3594"
   x2="-431.12289"
   y2="3264.7441"
   gradientTransform="translate(1290.1023)">
						<stop
   offset="0"
   style="stop-color:#FEBBBA"
   id="stop325" />
						<stop
   offset="1"
   style="stop-color:#FF928E"
   id="stop327" />
					</linearGradient>
					<path
   style="fill:url(#SVGID_00000089546519210609507630000008462540161780216246_)"
   d="m 846.033,3041.948 16.962,81.652 c 1.242,5.983 5.84,10.463 11.408,10.985 6.816,0.64 16.519,1.015 26.278,-0.418 8.75,-1.285 14.843,-10.177 13.292,-19.719 l -11.79,-72.5 z"
   id="path330" />
					
						<linearGradient
   id="SVGID_00000060007385928082312370000002031573161125361049_"
   gradientUnits="userSpaceOnUse"
   x1="122.5676"
   y1="3104.4863"
   x2="-535.14563"
   y2="3620.9246"
   gradientTransform="translate(1290.1023)">
						<stop
   offset="0"
   style="stop-color:#4F52FF"
   id="stop332" />
						<stop
   offset="1"
   style="stop-color:#4042E2"
   id="stop334" />
					</linearGradient>
					<path
   style="fill:url(#SVGID_00000060007385928082312370000002031573161125361049_)"
   d="m 1197.463,3236.38 c -44.229,-1.238 -67.106,-6.447 -78.933,-11.281 -0.027,4.397 0,8.873 0.141,13.51 0.153,4.953 3.82,8.909 8.334,8.88 l 242.848,-1.568 c 7.75,-0.05 12.278,-9.037 8.92,-16.145 -31.843,2.631 -112.939,8.517 -181.31,6.604 z"
   id="path337" />
					
						<linearGradient
   id="SVGID_00000076567324838126799510000004376689205915208857_"
   gradientUnits="userSpaceOnUse"
   x1="-171.5728"
   y1="3173.7732"
   x2="88.669098"
   y2="3173.7732"
   gradientTransform="translate(1290.1023)">
						<stop
   offset="0"
   style="stop-color:#09005D"
   id="stop339" />
						<stop
   offset="1"
   style="stop-color:#1A0F91"
   id="stop341" />
					</linearGradient>
					<path
   style="fill:url(#SVGID_00000076567324838126799510000004376689205915208857_)"
   d="m 1378.771,3229.777 c -0.293,-0.618 -0.544,-1.248 -0.961,-1.831 -21.447,-29.968 -76.07,-89.64 -184.008,-115.522 l -51.78,-1.634 c 0,0 -23.057,40.075 -23.493,114.309 11.827,4.834 34.703,10.042 78.933,11.281 68.372,1.913 149.468,-3.973 181.309,-6.603 z"
   id="path344" />
					
						<linearGradient
   id="SVGID_00000037657242066886383950000005927794603503998104_"
   gradientUnits="userSpaceOnUse"
   x1="-7.7210002"
   y1="2934.8098"
   x2="-42.2551"
   y2="3236.2"
   gradientTransform="matrix(0.998,-0.0629,0.0629,0.998,993.2088,65.7657)">
						<stop
   offset="0"
   style="stop-color:#FEBBBA"
   id="stop346" />
						<stop
   offset="1"
   style="stop-color:#FF928E"
   id="stop348" />
					</linearGradient>
					<path
   style="fill:url(#SVGID_00000037657242066886383950000005927794603503998104_)"
   d="m 1130.114,3034.724 c 0.817,3.816 11.591,61.915 15.764,84.442 0.992,5.352 5.162,9.281 10.125,9.557 8.866,0.497 23.166,0.556 35.463,-2.783 6.634,-1.802 11.091,-8.565 10.618,-16.072 l -5.794,-91.899 z"
   id="path351" />
					
						<linearGradient
   id="SVGID_00000098182843923232661680000002736064948048345499_"
   gradientUnits="userSpaceOnUse"
   x1="883.97961"
   y1="3308.0017"
   x2="1139.6484"
   y2="1436.959">
						<stop
   offset="0"
   style="stop-color:#09005D"
   id="stop353" />
						<stop
   offset="1"
   style="stop-color:#1A0F91"
   id="stop355" />
					</linearGradient>
					<path
   style="fill:url(#SVGID_00000098182843923232661680000002736064948048345499_)"
   d="m 1090.877,1961.98 c 0,0 71.23,489.458 122.634,1071.907 0.958,10.848 -7.687,20.289 -18.342,22.532 -15.704,3.308 -38.786,7.234 -57.896,6.698 -10.201,-0.285 -18.729,-7.85 -20.444,-17.911 -17.511,-102.694 -142.469,-653.846 -175.266,-775.148 0,0 -37.672,515.265 -25.63,782.588 0.3,6.646 -4.567,12.414 -11.177,13.177 -10.027,1.159 -26.067,2.039 -46.48,-0.129 -7.749,-0.823 -14,-6.68 -15.107,-14.394 -12.474,-86.913 -84.268,-604.252 -81.215,-976.926 0.173,-21.016 24.658,-193.689 24.658,-193.689 z"
   id="path358" />
				</g>
				
					<linearGradient
   id="SVGID_00000080193238481645230820000008455005738667892357_"
   gradientUnits="userSpaceOnUse"
   x1="409.11292"
   y1="1065.248"
   x2="-612.62268"
   y2="2412.8826"
   gradientTransform="matrix(0.991,-0.1339,0.1339,0.991,690.6002,157.8111)">
					<stop
   offset="0"
   style="stop-color:#FE7062"
   id="stop362" />
					<stop
   offset="1"
   style="stop-color:#FF928E"
   id="stop364" />
				</linearGradient>
				<path
   style="fill:url(#SVGID_00000080193238481645230820000008455005738667892357_)"
   d="m 775.906,1990.191 c -7.324,-2.603 -12.429,-9.242 -13.226,-16.973 -9.472,-91.897 -55.335,-661.698 234.209,-896.091 0,0 16.604,-43.444 153.089,63.348 136.485,106.791 63.411,218.726 30.736,373.118 -39.541,186.825 -108.919,339.538 -78.223,454.507 2.118,7.934 -2.053,16.265 -9.758,19.105 -106.022,39.074 -211.635,40.367 -316.827,2.986 z"
   id="path367" />
				
					<linearGradient
   id="SVGID_00000145768761848773762980000015078388204645625751_"
   gradientUnits="userSpaceOnUse"
   x1="956.41919"
   y1="1203.0057"
   x2="1229.6459"
   y2="898.25317">
					<stop
   offset="0"
   style="stop-color:#FEBBBA"
   id="stop369" />
					<stop
   offset="1"
   style="stop-color:#FF928E"
   id="stop371" />
				</linearGradient>
				<path
   style="fill:url(#SVGID_00000145768761848773762980000015078388204645625751_)"
   d="m 1109.833,906.403 c -0.092,8.108 -115.709,172.329 -115.709,172.329 0,0 20.753,40.872 119.825,74.056 l 85.52,-175.832 z"
   id="path374" />
				<g
   id="g397">
					
						<linearGradient
   id="SVGID_00000007399253485875745310000001839365964036099729_"
   gradientUnits="userSpaceOnUse"
   x1="1115.7759"
   y1="982.37653"
   x2="1248.8856"
   y2="794.97192">
						<stop
   offset="0"
   style="stop-color:#FEBBBA"
   id="stop376" />
						<stop
   offset="1"
   style="stop-color:#FF928E"
   id="stop378" />
					</linearGradient>
					<path
   style="fill:url(#SVGID_00000007399253485875745310000001839365964036099729_)"
   d="m 1200.863,812.3 c 0,0 41.139,94.504 43.902,144.106 2.763,49.602 13.451,81.786 -43.902,91.776 -57.352,9.989 -105.667,-18.583 -131.841,-67.992 0,0 -41.01,-76.133 -31.811,-107.313 9.199,-31.179 163.652,-60.577 163.652,-60.577 z"
   id="path381" />
					
						<linearGradient
   id="SVGID_00000181808202125563675490000015653537728921265589_"
   gradientUnits="userSpaceOnUse"
   x1="961.42761"
   y1="664.97888"
   x2="1159.7286"
   y2="897.2359">
						<stop
   offset="0"
   style="stop-color:#09005D"
   id="stop383" />
						<stop
   offset="1"
   style="stop-color:#1A0F91"
   id="stop385" />
					</linearGradient>
					<path
   style="fill:url(#SVGID_00000181808202125563675490000015653537728921265589_)"
   d="m 1088.619,944.666 3.265,-1.439 c 4.156,-1.833 5.935,-6.78 3.847,-10.814 -8.087,-15.626 -23.854,-51.435 -3.486,-59.788 26.248,-10.765 130.224,-31.968 152.657,-68.862 21.561,-35.457 2.457,-81.229 -26.252,-94.247 -1.922,-0.871 -4.187,-0.18 -5.172,1.686 l -2.392,4.527 c -1.639,3.099 -6.216,2.629 -7.19,-0.738 v 0 c -0.935,-3.233 -5.235,-3.859 -7.018,-1.006 -6.896,11.038 -25.512,28.933 -75.297,38.12 -70.755,13.059 -117.534,41.692 -118.698,90.585 -0.074,3.106 -3.378,4.832 -6.032,3.216 -5.224,-3.183 -13.584,-4.678 -24.757,4.718 -19.432,16.339 -11.48,58.722 31.117,93.586 2.024,1.656 2.008,4.816 -0.184,6.242 -7.723,5.026 -19.234,16.988 10.595,32.933 30.853,16.493 53.892,15.14 62.764,13.676 2.207,-0.364 3.629,-2.501 3.147,-4.685 l -9.468,-42.971 c -0.536,-2.433 1.315,-4.736 3.805,-4.736 h 14.749 z"
   id="path388" />
					
						<linearGradient
   id="SVGID_00000027571894000425345500000016933745838884114835_"
   gradientUnits="userSpaceOnUse"
   x1="1064.2142"
   y1="945.75317"
   x2="1197.3243"
   y2="758.34802">
						<stop
   offset="0"
   style="stop-color:#FEBBBA"
   id="stop390" />
						<stop
   offset="1"
   style="stop-color:#FF928E"
   id="stop392" />
					</linearGradient>
					<path
   style="fill:url(#SVGID_00000027571894000425345500000016933745838884114835_)"
   d="m 1090.401,953.734 c 0,0 -15.694,-60.368 -42.76,-43.442 -27.065,16.926 14.045,67.64 35.804,69.898 z"
   id="path395" />
				</g>
				<g
   id="g427">
					
						<linearGradient
   id="SVGID_00000066511519634909113980000001556050024225273512_"
   gradientUnits="userSpaceOnUse"
   x1="1288.2631"
   y1="1247.0511"
   x2="1119.7975"
   y2="1418.9547">
						<stop
   offset="0"
   style="stop-color:#FE7062"
   id="stop399" />
						<stop
   offset="1"
   style="stop-color:#FF928E"
   id="stop401" />
					</linearGradient>
					<path
   style="fill:url(#SVGID_00000066511519634909113980000001556050024225273512_)"
   d="m 1193.885,1190.031 7.972,214.091 c 22.642,7.792 44.197,13.852 64.724,18.378 12.84,-41.336 41.112,-92.07 64.262,-129.793 -85.058,-30.067 -136.958,-102.676 -136.958,-102.676 z"
   id="path404" />
					
						<linearGradient
   id="SVGID_00000014610771283894561570000002072626976527886729_"
   gradientUnits="userSpaceOnUse"
   x1="1772.5782"
   y1="1168.4004"
   x2="1268.0394"
   y2="1419.3805">
						<stop
   offset="0"
   style="stop-color:#FEBBBA"
   id="stop406" />
						<stop
   offset="1"
   style="stop-color:#FF928E"
   id="stop408" />
					</linearGradient>
					<path
   style="fill:url(#SVGID_00000014610771283894561570000002072626976527886729_)"
   d="m 1618.541,1186.389 c -116.677,125.974 -211.115,133.389 -287.699,106.318 -23.15,37.723 -51.422,88.457 -64.262,129.793 311.583,68.694 384.956,-217.749 384.956,-217.749 z"
   id="path411" />
					
						<linearGradient
   id="SVGID_00000049215271532757633840000003602193684389825199_"
   gradientUnits="userSpaceOnUse"
   x1="1765.1921"
   y1="1105.4535"
   x2="1592.6135"
   y2="1285.7025">
						<stop
   offset="0"
   style="stop-color:#FEBBBA"
   id="stop413" />
						<stop
   offset="1"
   style="stop-color:#FF928E"
   id="stop415" />
					</linearGradient>
					<path
   style="fill:url(#SVGID_00000049215271532757633840000003602193684389825199_)"
   d="m 1642.203,1173.009 c 0,0 13.44,-14.432 38.315,-9.897 24.875,4.535 47.016,13.178 62.515,0 15.499,-13.178 20.947,4.507 20.947,4.507 l -46.41,35.281 z"
   id="path418" />
					
						<linearGradient
   id="SVGID_00000162331543722841453300000008174959510234423988_"
   gradientUnits="userSpaceOnUse"
   x1="1774.9766"
   y1="1165.4259"
   x2="1270.4395"
   y2="1416.4053">
						<stop
   offset="0"
   style="stop-color:#FEBBBA"
   id="stop420" />
						<stop
   offset="1"
   style="stop-color:#FF928E"
   id="stop422" />
					</linearGradient>
					<path
   style="fill:url(#SVGID_00000162331543722841453300000008174959510234423988_)"
   d="m 1614.445,1197.682 c 0,0 9.21,-38.508 36.962,-33.229 27.752,5.278 90.757,39.541 106.994,33.229 16.237,-6.312 37,-21.419 47.653,-16.08 l -18.763,23.327 c 0,0 48.235,-27.826 56.538,-10.729 l -80.261,45.167 c 0,0 -117.425,-11.756 -149.123,-41.685 z"
   id="path425" />
				</g>
				
					<linearGradient
   id="SVGID_00000105422712497576988330000010592133098078626183_"
   gradientUnits="userSpaceOnUse"
   x1="1596.9551"
   y1="1585.1331"
   x2="958.55261"
   y2="1335.5524">
					<stop
   offset="0"
   style="stop-color:#FEBBBA"
   id="stop429" />
					<stop
   offset="1"
   style="stop-color:#FF928E"
   id="stop431" />
				</linearGradient>
				<path
   style="fill:url(#SVGID_00000105422712497576988330000010592133098078626183_)"
   d="m 1064.365,1470.232 c 0,0 219.358,183.713 456.227,103.551 14.691,-4.972 30.755,-3.891 44.471,3.35 l 68.098,35.966 c 28.583,15.094 63.98,5.186 80.566,-22.559 9.459,-15.826 17.533,-33.901 19.14,-51.218 l -133.249,-53.943 9.825,-16.339 c 0,0 -65.058,-5.511 -82.086,41.114 0,0 -123.916,51.542 -332.893,-178.316 -10e-4,0 -94.832,80.635 -130.099,138.394 z"
   id="path434" />
				
					<linearGradient
   id="SVGID_00000080886703138647102920000001605137077640043648_"
   gradientUnits="userSpaceOnUse"
   x1="2266.5688"
   y1="-709.71167"
   x2="1452.142"
   y2="620.521">
					<stop
   offset="0"
   style="stop-color:#E1473D"
   id="stop436" />
					<stop
   offset="1"
   style="stop-color:#E9605A"
   id="stop438" />
				</linearGradient>
				<path
   style="fill:url(#SVGID_00000080886703138647102920000001605137077640043648_)"
   d="m 1052.557,1468.331 c -0.722,0 -1.456,-0.206 -2.098,-0.645 -92.363,-62.404 -135.813,-163.127 -136.242,-164.14 -0.807,-1.915 0.084,-4.114 1.99,-4.921 1.914,-0.814 4.111,0.074 4.925,1.988 0.419,0.99 43.062,99.726 133.529,160.854 1.72,1.159 2.171,3.49 1.008,5.215 -0.721,1.07 -1.906,1.649 -3.112,1.649 z"
   id="path441" />
				
					<linearGradient
   id="SVGID_00000082354646405750879570000013561865799779228824_"
   gradientUnits="userSpaceOnUse"
   x1="2261.7847"
   y1="-712.6427"
   x2="1447.3617"
   y2="617.58337">
					<stop
   offset="0"
   style="stop-color:#E1473D"
   id="stop443" />
					<stop
   offset="1"
   style="stop-color:#E9605A"
   id="stop445" />
				</linearGradient>
				<path
   style="fill:url(#SVGID_00000082354646405750879570000013561865799779228824_)"
   d="m 1190.133,1328.724 c -1.232,0 -2.442,-0.609 -3.16,-1.725 -0.279,-0.432 -28.496,-44.354 -82.24,-140.59 -16.527,-29.592 -38.247,-48.331 -64.556,-55.695 -43.57,-12.174 -85.56,11.186 -85.975,11.419 -1.807,0.998 -4.092,0.396 -5.119,-1.408 -1.023,-1.804 -0.396,-4.093 1.408,-5.119 1.811,-1.026 45.001,-25.192 91.64,-12.137 28.339,7.906 51.609,27.848 69.158,59.272 53.609,95.994 81.718,139.762 81.997,140.194 1.123,1.738 0.62,4.063 -1.122,5.186 -0.631,0.411 -1.334,0.603 -2.031,0.603 z"
   id="path448" />
			</g>
		</g>
		<g
   id="g485">
			<g
   id="g475">
				<g
   id="g458">
					
						<ellipse
   transform="matrix(0.7071,-0.7071,0.7071,0.7071,-839.7303,2050.1453)"
   style="fill:#91b3fa"
   cx="2054.8789"
   cy="2038.717"
   id="ellipse454"
   r="174.451" />
					<path
   style="fill:#91b3fa"
   d="m 2229.011,2022.689 h -174.132 -174.451 c 0,0 -13.888,100.166 141.806,365.379 6.793,11.571 19.205,20.155 32.623,20.161 13.418,0.01 25.852,-9.296 32.644,-20.868 155.68,-265.236 141.51,-364.672 141.51,-364.672 z"
   id="path456" />
				</g>
				<g
   id="g462">
					<path
   style="fill:#bdd0fb"
   d="m 2059.086,2415.558 v 0.77 h -4.23 c -15.185,0 -29.358,-8.249 -36.988,-21.245 -91.008,-155.026 -124.356,-252.995 -136.302,-307.844 -3.406,-12.617 -5.363,-24.96 -5.981,-37.641 -1.054,-12.972 -0.248,-18.424 -0.153,-19.001 l 0.459,-2.784 c 7.029,-93.709 85.02,-166.634 178.989,-166.634 95.203,0 173.898,73.964 179.219,168.419 0.134,1.236 0.389,4.372 0.289,9.617 l 0.01,0.644 c 0,17.134 -2.421,34.106 -7.195,50.445 -12.358,54.802 -43.768,151.857 -133.226,304.268 -7.68,13.079 -21.316,20.986 -34.889,20.986 z M 1885.19,2036.263 c -0.042,0 0.038,6.826 0.497,12.451 l 0.011,0.219 c 0.579,12.013 2.437,23.7 5.678,35.674 l 0.06,0.26 c 11.767,54.105 44.769,150.93 135.168,304.916 5.82,9.914 18.752,16.078 30.361,16.083 l 2.121,5.068 v -5.064 c 3.393,0 20.815,-6.21 26.683,-16.208 88.884,-151.435 122.628,-247.675 132.808,-301.744 v -0.313 c 6.787,-15.46 6.813,-31.526 6.813,-47.75 l -0.026,-0.713 v -0.057 c 0,-5.05 -0.713,-7.781 -0.794,-8.497 l -0.301,-0.293 c -4.953,-89.156 -79.374,-158.994 -169.251,-158.994 -89.705,0 -164.049,70.349 -169.163,160.286 l -0.341,4.676 z"
   id="path460" />
				</g>
				
					<ellipse
   transform="matrix(0.7071,-0.7071,0.7071,0.7071,-839.1677,2050.3784)"
   style="opacity:0.8;fill:#ffffff"
   cx="2055.4419"
   cy="2038.1541"
   id="ellipse464"
   r="100.731" />
				<g
   id="g473">
					
						<linearGradient
   id="SVGID_00000144323848320871030130000006509661136588729497_"
   gradientUnits="userSpaceOnUse"
   x1="2073.3701"
   y1="1998.0568"
   x2="2388.96"
   y2="1292.2227">
						<stop
   offset="0"
   style="stop-color:#4F52FF"
   id="stop466" />
						<stop
   offset="1"
   style="stop-color:#4042E2"
   id="stop468" />
					</linearGradient>
					<path
   style="fill:url(#SVGID_00000144323848320871030130000006509661136588729497_)"
   d="m 2055.442,2144.513 c -58.646,0 -106.359,-47.712 -106.359,-106.359 0,-58.647 47.712,-106.359 106.359,-106.359 58.646,0 106.358,47.712 106.358,106.359 0,58.647 -47.712,106.359 -106.358,106.359 z m 0,-201.462 c -52.44,0 -95.104,42.663 -95.104,95.104 0,52.441 42.663,95.104 95.104,95.104 52.44,0 95.104,-42.664 95.104,-95.104 0,-52.44 -42.664,-95.104 -95.104,-95.104 z"
   id="path471" />
				</g>
			</g>
			<g
   id="g479">
				<path
   style="fill:#bdd0fb"
   d="m 1959.888,1933.277 c -0.475,0 -0.948,-0.199 -1.282,-0.588 -0.607,-0.707 -0.526,-1.773 0.181,-2.38 28.298,-24.303 64.452,-37.687 101.802,-37.687 0.932,0 1.688,0.756 1.688,1.688 0,0.933 -0.756,1.689 -1.688,1.689 -36.545,0 -71.917,13.094 -99.603,36.871 -0.317,0.273 -0.708,0.407 -1.098,0.407 z"
   id="path477" />
			</g>
			<g
   id="g483">
				<path
   style="fill:#bdd0fb"
   d="m 1905.948,2050.64 c -0.933,0 -1.688,-0.756 -1.688,-1.688 0,-29.17 8.087,-57.626 23.386,-82.291 0.492,-0.793 1.533,-1.037 2.325,-0.545 0.792,0.492 1.037,1.532 0.545,2.325 -14.969,24.13 -22.88,51.971 -22.88,80.511 0,0.933 -0.755,1.688 -1.688,1.688 z"
   id="path481" />
			</g>
		</g>
	</g>
</g>
</svg>
