<?xml version="1.0" encoding="UTF-8" standalone="no"?>
<!-- Generator: Adobe Illustrator 27.5.0, SVG Export Plug-In . SVG Version: 6.00 Build 0)  -->

<svg
   version="1.1"
   x="0px"
   y="0px"
   viewBox="0 0 800 400"
   xml:space="preserve"
   id="svg509"
   sodipodi:docname="mentor.svg"
   width="800"
   height="400"
   inkscape:version="1.1.2 (0a00cf5339, 2022-02-04)"
   xmlns:inkscape="http://www.inkscape.org/namespaces/inkscape"
   xmlns:sodipodi="http://sodipodi.sourceforge.net/DTD/sodipodi-0.dtd"
   xmlns="http://www.w3.org/2000/svg"
   xmlns:svg="http://www.w3.org/2000/svg"><defs
   id="defs513" /><sodipodi:namedview
   id="namedview511"
   pagecolor="#ffffff"
   bordercolor="#666666"
   borderopacity="1.0"
   inkscape:pageshadow="2"
   inkscape:pageopacity="0.0"
   inkscape:pagecheckerboard="0"
   showgrid="false"
   inkscape:zoom="0.80816065"
   inkscape:cx="225.20275"
   inkscape:cy="315.53132"
   inkscape:window-width="1920"
   inkscape:window-height="1008"
   inkscape:window-x="0"
   inkscape:window-y="0"
   inkscape:window-maximized="1"
   inkscape:current-layer="svg509" />
<g
   id="Floor"
   transform="matrix(0.68741739,0,0,1,53.226696,-5.6236341)">
	<ellipse
   id="Floor_11_"
   style="fill:#f5f5f5"
   cx="250.591"
   cy="333.759"
   rx="232.983"
   ry="134.513" />
</g>
<g
   id="Shadows"
   transform="translate(-25.103694,-5.6236341)">
	
	
	<path
   id="Shadow_40_"
   style="fill:#e6e6e6"
   d="m 334.565,337.532 c -0.766,0 -1.479,-0.179 -2.064,-0.516 l -42.626,-24.61 c -0.807,-0.466 -1.249,-1.157 -1.216,-1.896 0.033,-0.74 0.537,-1.388 1.382,-1.778 l 38.254,-17.669 c 0.576,-0.267 1.283,-0.407 2.042,-0.407 0.953,0 1.857,0.22 2.546,0.618 l 34.192,19.758 c 0.771,0.445 1.236,1.139 1.274,1.902 0.038,0.764 -0.353,1.5 -1.075,2.021 l -30.22,21.83 c -0.666,0.481 -1.55,0.747 -2.489,0.747 z" />
	<path
   id="Shadow_41_"
   style="fill:#e6e6e6"
   d="m 160.206,331.686 c 0.766,0 1.48,-0.179 2.063,-0.516 l 42.626,-24.61 c 0.807,-0.466 1.249,-1.157 1.216,-1.897 -0.033,-0.74 -0.537,-1.388 -1.382,-1.778 l -38.254,-17.669 c -0.576,-0.267 -1.283,-0.407 -2.042,-0.407 -0.953,0 -1.857,0.22 -2.546,0.618 l -34.192,19.758 c -0.771,0.445 -1.236,1.139 -1.274,1.902 -0.038,0.764 0.354,1.5 1.075,2.021 l 30.22,21.83 c 0.667,0.482 1.551,0.748 2.49,0.748 z" />
	<path
   id="Shadow_42_"
   style="fill:#e6e6e6"
   d="m 102.061,359.963 137.234,79.199 c 1.147,0.662 3.007,0.662 4.154,0 l 140.85,-81.354 c 1.147,-0.662 1.147,-1.736 0,-2.398 L 247.065,276.211 c -1.147,-0.662 -3.007,-0.662 -4.154,0 l -140.85,81.354 c -1.147,0.662 -1.147,1.736 0,2.398 z" />
</g>
<g
   id="Character_4"
   transform="translate(-25.103694,-5.6236341)">
	<g
   id="XMLID_4320_">
		<g
   id="Girl_3_">
			<g
   id="XMLID_3802_">
				<g
   id="XMLID_4101_">
					<path
   id="XMLID_4103_"
   style="fill:#263238"
   d="m 358.292,260.113 v 53.019 c 0,0.428 0.301,0.949 0.672,1.163 l 1.808,1.044 c 0.371,0.214 0.973,0.214 1.343,0 l 1.807,-1.044 c 0.371,-0.214 0.672,-0.735 0.672,-1.163 v -53.019 c 0,-0.428 -0.347,-0.776 -0.776,-0.776 h -4.751 c -0.428,0 -0.775,0.348 -0.775,0.776 z" />
					<path
   id="XMLID_4102_"
   style="fill:#37474f"
   d="m 363.818,259.337 h -1.6 c -0.428,0 -0.776,0.347 -0.776,0.776 v 54.838 c 0,0.428 0.301,0.602 0.672,0.388 l 1.807,-1.044 c 0.371,-0.214 0.672,-0.735 0.672,-1.163 v -53.019 c 0,-0.428 -0.347,-0.776 -0.775,-0.776 z" />
				</g>
				<g
   id="XMLID_4089_">
					<path
   id="XMLID_4099_"
   style="fill:#263238"
   d="m 327.868,277.61 v 53.019 c 0,0.428 0.301,0.949 0.672,1.163 l 1.808,1.043 c 0.371,0.214 0.972,0.214 1.343,0 l 1.807,-1.043 c 0.371,-0.214 0.672,-0.735 0.672,-1.163 V 277.61 c 0,-0.428 -0.347,-0.776 -0.776,-0.776 h -4.751 c -0.428,10e-4 -0.775,0.348 -0.775,0.776 z" />
					<path
   id="XMLID_4090_"
   style="fill:#37474f"
   d="m 333.394,276.835 h -1.6 c -0.428,0 -0.776,0.347 -0.776,0.776 l 0.001,54.838 c 0,0.428 0.301,0.602 0.672,0.388 l 1.807,-1.043 c 0.371,-0.214 0.672,-0.735 0.672,-1.163 V 277.61 c 0,-0.428 -0.347,-0.775 -0.776,-0.775 z" />
				</g>
				<path
   id="XMLID_4088_"
   style="fill:#455a64"
   d="m 329.888,238.691 c 0.093,0.744 -0.114,1.499 -0.579,2.099 -0.465,0.6 -1.138,0.972 -1.892,1.076 -0.124,0.01 -0.238,0.021 -0.352,0.021 -1.437,0 -2.647,-1.076 -2.823,-2.492 -1.635,-13.091 0.694,-42.366 6.294,-58.863 0.575,-1.694 2.214,-2.063 3.764,-1.169 v 0 c 1.18,0.681 2.035,1.719 1.589,3.006 -5.369,15.493 -7.578,43.714 -6.001,56.322 z" />
				<g
   id="XMLID_4086_">
					<path
   id="XMLID_4087_"
   style="fill:#37474f"
   d="m 362.864,246.222 c 0.187,0 0.378,-0.029 0.565,-0.091 0.949,-0.313 1.466,-1.336 1.154,-2.285 -4.194,-12.749 -24.811,-24.093 -38.12,-24.093 -1,0 -1.81,0.811 -1.81,1.81 0,0.999 0.81,1.81 1.81,1.81 12.04,0 31.022,10.477 34.682,21.605 0.251,0.761 0.959,1.244 1.719,1.244 z" />
				</g>
				<g
   id="XMLID_4082_">
					<path
   id="XMLID_4083_"
   style="fill:#37474f"
   d="m 364.809,229.693 c 0.187,0 0.378,-0.029 0.565,-0.091 0.949,-0.312 1.466,-1.335 1.153,-2.285 -4.359,-13.249 -25.593,-23.967 -38.845,-22.604 -0.995,0.102 -1.718,0.991 -1.616,1.985 0.102,0.995 0.985,1.723 1.986,1.615 11.741,-1.196 31.217,8.528 35.037,20.135 0.251,0.762 0.959,1.245 1.72,1.245 z" />
				</g>
				<g
   id="XMLID_4080_">
					<path
   id="XMLID_4081_"
   style="fill:#37474f"
   d="m 368.834,216.591 c 0.243,0 0.49,-0.049 0.727,-0.154 0.915,-0.402 1.331,-1.47 0.929,-2.385 -6.239,-14.199 -28.424,-25.864 -40.423,-24.199 -0.99,0.137 -1.681,1.05 -1.544,2.04 0.136,0.99 1.037,1.686 2.041,1.545 10.605,-1.473 31.036,9.38 36.611,22.07 0.299,0.679 0.963,1.083 1.659,1.083 z" />
				</g>
				<path
   id="XMLID_4049_"
   style="fill:#455a64"
   d="m 373.44,201.388 c 1.251,0.724 1.738,2.266 1.169,3.595 -6.54,15.275 -9.983,33.938 -9.983,54.37 v 2.741 l -0.217,0.227 c -0.248,0.259 -0.548,0.352 -0.858,0.352 -0.414,0 -0.838,-0.155 -1.189,-0.289 -0.176,-0.062 -0.476,-0.176 -0.579,-0.186 -1.572,0 -2.844,-1.272 -2.844,-2.844 0,-21.192 3.604,-40.624 10.459,-56.618 0.672,-1.569 2.554,-2.208 4.031,-1.354 z" />
				<path
   id="XMLID_4033_"
   style="fill:#37474f"
   d="m 364.593,261.426 v 0.695 c 0,1.142 -0.751,2.611 -1.676,3.28 l -30.222,21.848 c -0.926,0.669 -2.478,0.749 -3.467,0.178 l -42.627,-24.61 c -0.989,-0.571 -1.791,-1.96 -1.791,-3.102 V 259 c 0,-1.142 0.841,-2.457 1.878,-2.936 l 38.253,-17.668 c 1.037,-0.479 2.68,-0.404 3.668,0.168 l 34.193,19.759 c 0.99,0.572 1.791,1.961 1.791,3.103 z" />
				<path
   id="XMLID_4032_"
   style="fill:#27debf"
   d="m 362.802,258.323 -34.193,-19.759 c -0.989,-0.572 -2.631,-0.647 -3.668,-0.168 l -38.253,17.668 c -1.037,0.479 -1.076,1.33 -0.086,1.902 l 42.626,24.61 c 0.989,0.571 2.542,0.492 3.468,-0.177 l 30.221,-21.831 c 0.926,-0.668 0.875,-1.673 -0.115,-2.245 z" />
			</g>
			<g
   id="XMLID_3741_">
				<g
   id="XMLID_3783_">
					<path
   id="XMLID_3801_"
   style="fill:#263238"
   d="m 310.978,300.663 c 0.765,0.527 1.642,1.14 1.735,1.982 0.092,0.842 0.086,2.921 -1.256,5.161 -1.342,2.24 -1.732,6.054 -1.545,8.55 0.186,2.496 1.26,8.735 -1.31,11.816 -2.57,3.081 -9.784,5.863 -10.731,1.346 -0.947,-4.516 4.343,-23.751 4.343,-23.751 z" />
					<path
   id="XMLID_3800_"
   style="fill:#9a4a4d"
   d="m 307.448,304.434 c -0.402,2.456 -0.979,6.548 -0.986,10.333 -0.006,3.785 -0.545,6.559 -2.188,7.923 -1.643,1.364 -4.443,1.762 -3.92,-0.918 0.523,-2.679 1.859,-16.004 1.859,-16.004 z" />
				</g>
				<path
   id="XMLID_3782_"
   style="fill:#455a64"
   d="m 313.977,234.479 c 0,0 -15.888,9.813 -22.229,15.138 -6.34,5.325 -8.499,7.516 -9.272,10.902 -0.818,3.58 1.448,9.389 5.267,19.35 1.033,2.693 7.835,18.577 7.835,18.577 l 9.237,-29.927 18.837,-17.444 z" />
				<g
   id="XMLID_3742_">
					<path
   id="XMLID_3750_"
   style="fill:#263238"
   d="m 299.137,329.606 c 0.689,0.274 0.919,1.788 1.088,2.894 0.168,1.106 1.262,2.382 0.024,4.404 -1.238,2.022 -3.891,2.736 -5.579,5.495 -1.689,2.76 -2.556,6.531 -8.464,8.086 -5.908,1.556 -10.549,-0.196 -11.75,-1.919 -1.201,-1.723 -0.283,-3.455 3.429,-5.82 3.941,-2.512 5.057,-3.248 5.057,-3.248 z" />
					<path
   id="XMLID_3748_"
   style="fill:#b16668"
   d="m 292.126,317.646 c 0,0 -2.504,8.116 -4.077,11.862 -1.574,3.746 -2.601,6.161 -5.517,9.544 -0.635,0.737 -2.082,2.107 -2.601,2.703 -0.462,0.531 -0.536,1.143 0.125,1.772 1.302,1.241 6.813,1.525 9.896,-0.795 3.084,-2.32 4.531,-5.543 6.369,-7.409 0.92,-0.934 1.784,-1.827 2.418,-2.485 0.608,-0.632 0.843,-1.532 0.616,-2.379 -0.064,-0.24 -0.136,-0.522 -0.216,-0.853 -0.427,-1.779 1.908,-9.087 1.908,-9.087 z" />
					<path
   id="XMLID_3744_"
   style="fill:#455a64"
   d="m 352.457,234.689 c 3.074,6.637 1.788,13.931 -0.205,20.034 -1.993,6.104 -9.994,12.803 -16.91,16.906 -6.916,4.102 -17.55,9.088 -19.624,10.011 -2.075,0.924 -2.289,2.183 -1.986,6.146 0.303,3.963 -1.051,10.447 -5.436,18.571 -4.631,8.581 -7.251,14.162 -7.251,14.162 0,0 -5.038,1.912 -9.297,-2.239 0,0 7.391,-39.23 9.142,-44.41 1.751,-5.18 21.191,-21.968 21.191,-21.968 0,0 -6.55,-11.458 -8.105,-17.423 z" />
					<path
   id="XMLID_3743_"
   style="opacity:0.6"
   d="m 298.181,276.374 c 1.065,-5.233 4.902,-9.359 8.573,-12.855 3.009,-2.857 10.718,-9.788 13.397,-12.197 -0.632,-1.451 -1.502,-3.654 -1.933,-5.664 0,0 1.53,2.748 2.878,4.822 l 0.002,-0.002 0.849,1.241 c 0.045,0.061 0.091,0.126 0.134,0.183 l -0.002,0.002 10e-4,0.001 c 0,0 -0.021,0.021 -0.052,0.052 -1.148,0.982 -19.442,16.898 -21.138,21.914 -0.972,2.875 -3.682,16.247 -5.905,27.57 0.176,-1.695 2.193,-20.083 3.196,-25.067 z" />
				</g>
			</g>
		</g>
		<g
   id="XMLID_6536_">
			<path
   id="XMLID_6591_"
   style="fill:#b16668"
   d="m 328.811,180.474 -40.192,-4.409 c 0,0 -24.5,-14.036 -26.779,-18.318 -2.53,-4.754 -3.323,-12.127 -4.763,-16.592 -1.44,-4.465 -6.564,5.028 -3.435,20.225 0.443,2.153 3.319,3.26 5.431,5.685 5.762,6.614 15.503,14.173 21.284,18.427 2.985,2.197 6.473,3.604 10.148,4.084 l 36.344,4.741 z" />
			<g
   id="XMLID_6577_">
				<g
   id="XMLID_6578_">
					<path
   id="XMLID_6584_"
   style="fill:#27debf"
   d="m 315.346,209.334 c -0.546,5.055 -2.448,26.104 -2.448,26.104 10.891,8.782 35.188,6.849 39.611,-0.216 -3.26,-7.589 -4.808,-15.219 -4.808,-15.219 l 3.577,-14.597 c 0,0 -6.614,-9.02 -0.947,-21.688 l -9.152,-1.627 -12.708,-1.865 -5.509,-0.364 c 0,0 -7.495,8.091 -9.53,13.302 -1.312,3.359 -3.908,9.314 1.914,16.17 z" />
				</g>
				<path
   id="XMLID_6576_"
   style="opacity:0.1"
   d="m 349.199,225.88 c -0.112,-0.385 -0.218,-0.757 -0.317,-1.114 -0.794,-2.856 -1.181,-4.763 -1.181,-4.763 l 3.577,-14.597 -0.003,-0.003 c -0.002,-0.002 -0.014,-0.013 -0.033,-0.031 -0.007,-0.007 -0.009,-0.009 -0.019,-0.018 -0.061,-0.06 -0.308,-0.586 -0.458,-0.758 -0.004,-0.005 0,0 -0.004,-0.005 -1.025,-1.183 -3.492,-4.789 -2.696,-11.156 v 0 0 c 0,0 -2.654,8.839 0.237,13.076 l -2.73,12.26 -3.952,5.748 4.79,-1.88 c 0,0 1.747,6.759 1.892,8.99 0.112,1.725 -3.959,7.432 -12.67,9.619 7.783,-0.345 14.709,-2.567 16.875,-6.024 0,-10e-4 10e-4,-10e-4 10e-4,-10e-4 -1.426,-3.321 -2.524,-6.649 -3.309,-9.343 z" />
			</g>
			<path
   id="XMLID_3369_"
   style="fill:#b16668"
   d="m 373.08,223.171 c -1.909,-7.452 -9.501,-24.036 -11.803,-30.021 -2.629,-6.837 -6.348,-9.413 -11.237,-9.483 -1.798,2.32 -4.979,15.477 1.186,21.947 2.359,4.967 10.032,19.868 10.032,19.868 -0.183,1.339 -5.934,18.365 -8.036,22.915 -0.372,0.806 -1.048,1.431 -1.862,1.785 -2.184,0.951 -3.181,2.113 -4.921,3.463 -1.362,1.057 -2.41,1.214 -2.314,1.629 0.124,0.534 0.843,1.476 2.351,1.251 0.76,-0.113 1.782,-0.541 3.064,-1.114 0,0 -1.203,2.33 -3.647,4.554 -3.313,3.015 -3.141,5.537 2.507,6.432 3.538,0.561 6.692,-1.202 10.525,-8.612 1.104,-2.135 2.529,-5.253 3.639,-8.089 2.624,-6.706 5.449,-10.69 7.273,-15.126 2.877,-6.993 3.979,-8.526 3.243,-11.399 z" />
			<g
   id="XMLID_6538_">
				<g
   id="XMLID_6571_">
					<path
   id="XMLID_6575_"
   style="fill:#263238"
   d="m 329.911,173.32 6.715,0.183 c 9.352,0.255 17.14,-7.12 17.395,-16.472 v 0 c 0.305,-11.206 -8.532,-20.538 -19.738,-20.844 v 0 c -11.206,-0.305 -20.538,8.532 -20.844,19.738 v 0 c -0.255,9.352 7.12,17.14 16.472,17.395 z" />
					<path
   id="XMLID_6574_"
   style="fill:#263238"
   d="m 350.718,147.165 5.042,-1.766 c -0.45,-1.436 -1.944,-2.205 -3.337,-1.717 -1.392,0.488 -2.155,2.047 -1.705,3.483 z" />
					<path
   id="XMLID_6573_"
   style="fill:#263238"
   d="m 350.77,145.869 1.555,-5.111 c -1.424,-0.485 -2.928,0.265 -3.357,1.677 -0.429,1.411 0.377,2.949 1.802,3.434 z" />
				</g>
				<g
   id="XMLID_6541_">
					<g
   id="XMLID_6569_">
						<path
   id="XMLID_6570_"
   style="fill:#b16668"
   d="m 321.53,144.936 c -2.177,1.208 -4.973,6.527 -5.02,17.834 -0.039,9.584 3.001,12.034 4.541,12.759 1.54,0.725 4.558,0.392 7.494,-0.016 l -0.075,4.713 c 0,0 -5.247,5.021 -5.064,7.664 0.182,2.643 6.742,4.013 10.592,1.541 3.85,-2.472 7.181,-7.34 7.181,-7.34 l 0.284,-13.283 c 0,0 1.675,1.718 4.661,-0.753 2.465,-2.04 3.373,-5.568 1.548,-7.523 -1.824,-1.956 -5.307,-1.532 -6.711,1.148 0,0 -4.059,-0.653 -9.929,-4.503 -5.923,-3.886 -8.208,-8.284 -9.502,-12.241 z" />
					</g>
					<path
   id="XMLID_6567_"
   style="fill:#263238"
   d="m 340.005,164.833 1.555,-5.111 c -1.424,-0.485 -2.928,0.265 -3.357,1.677 -0.429,1.412 0.377,2.949 1.802,3.434 z" />
					<g
   id="XMLID_6564_">
						
					</g>
					<g
   id="XMLID_6556_">
						
					</g>
					<g
   id="XMLID_6554_">
						
					</g>
					<g
   id="XMLID_6550_">
						
					</g>
					<g
   id="XMLID_6545_">
						
					</g>
					<g
   id="XMLID_6542_">
						<path
   id="XMLID_6543_"
   style="fill:#9a4a4d"
   d="m 328.545,175.513 c 3.091,-0.32 9.477,-1.968 10.533,-4.447 0,0 -0.372,1.566 -2.309,3.137 -1.937,1.571 -8.277,3.227 -8.277,3.227 z" />
					</g>
				</g>
				<path
   id="XMLID_6468_"
   style="fill:#263238"
   d="m 364.105,180.554 v 0 c -6.951,0 -12.587,-5.635 -12.587,-12.587 v -21.172 0 c 6.952,0 12.587,5.635 12.587,12.587 z" />
			</g>
		</g>
	</g>
</g>
<g
   id="Character_3"
   transform="translate(-25.103694,-5.6236341)">
	<g
   id="XMLID_3365_">
		<g
   id="Boy_2_">
			<g
   id="XMLID_6505_">
				<g
   id="XMLID_6519_">
					<path
   id="XMLID_6533_"
   style="fill:#263238"
   d="m 135.819,253.263 v 53.059 c 0,0.429 -0.301,0.95 -0.672,1.164 l -1.809,1.044 c -0.371,0.214 -0.973,0.214 -1.344,0 l -1.809,-1.044 c -0.371,-0.214 -0.672,-0.736 -0.672,-1.164 v -53.059 c 0,-0.429 0.347,-0.776 0.776,-0.776 h 4.754 c 0.428,0 0.776,0.347 0.776,0.776 z" />
					<path
   id="XMLID_6524_"
   style="fill:#37474f"
   d="m 130.288,252.486 h 1.601 c 0.429,0 0.776,0.348 0.776,0.776 l -0.001,54.879 c 0,0.429 -0.301,0.602 -0.672,0.388 l -1.809,-1.044 c -0.371,-0.214 -0.672,-0.736 -0.672,-1.164 v -53.059 c 0.001,-0.428 0.348,-0.776 0.777,-0.776 z" />
				</g>
				<g
   id="XMLID_6516_">
					<path
   id="XMLID_6518_"
   style="fill:#263238"
   d="m 166.265,270.773 v 53.059 c 0,0.429 -0.301,0.95 -0.672,1.164 l -1.809,1.044 c -0.371,0.214 -0.973,0.214 -1.344,0 l -1.809,-1.044 c -0.371,-0.214 -0.672,-0.736 -0.672,-1.164 v -53.059 c 0,-0.429 0.348,-0.776 0.776,-0.776 h 4.754 c 0.429,0 0.776,0.347 0.776,0.776 z" />
					<path
   id="XMLID_6517_"
   style="fill:#37474f"
   d="m 160.735,269.997 h 1.601 c 0.429,0 0.776,0.347 0.776,0.776 v 54.879 c 0,0.429 -0.301,0.602 -0.672,0.388 l -1.809,-1.044 c -0.371,-0.214 -0.672,-0.736 -0.672,-1.164 v -53.059 c 0,-0.429 0.347,-0.776 0.776,-0.776 z" />
				</g>
				<path
   id="XMLID_6515_"
   style="fill:#455a64"
   d="m 164.244,231.824 c -0.093,0.745 0.114,1.501 0.579,2.101 0.466,0.6 1.139,0.973 1.894,1.076 0.124,0.01 0.238,0.021 0.352,0.021 1.438,0 2.649,-1.076 2.825,-2.494 1.636,-13.1 -0.695,-42.398 -6.299,-58.908 -0.576,-1.695 -2.216,-2.065 -3.767,-1.169 v 0 c -1.18,0.681 -2.036,1.72 -1.59,3.008 5.373,15.505 7.584,43.749 6.006,56.365 z" />
				<g
   id="XMLID_6513_">
					<path
   id="XMLID_6514_"
   style="fill:#37474f"
   d="m 131.242,239.361 c -0.187,0 -0.378,-0.029 -0.566,-0.091 -0.95,-0.313 -1.468,-1.337 -1.154,-2.287 4.197,-12.759 24.829,-24.111 38.149,-24.111 1.001,0 1.811,0.811 1.811,1.811 0,1 -0.811,1.811 -1.811,1.811 -12.049,0 -31.045,10.485 -34.709,21.621 -0.25,0.763 -0.959,1.246 -1.72,1.246 z" />
				</g>
				<g
   id="XMLID_6511_">
					<path
   id="XMLID_6512_"
   style="fill:#37474f"
   d="m 129.297,222.82 c -0.187,0 -0.378,-0.029 -0.566,-0.092 -0.95,-0.312 -1.468,-1.336 -1.154,-2.286 4.362,-13.259 25.613,-23.986 38.874,-22.622 0.996,0.102 1.719,0.992 1.617,1.987 -0.102,0.995 -0.985,1.724 -1.987,1.616 -11.75,-1.197 -31.24,8.535 -35.064,20.15 -0.251,0.763 -0.959,1.247 -1.72,1.247 z" />
				</g>
				<g
   id="XMLID_6509_">
					<path
   id="XMLID_6510_"
   style="fill:#37474f"
   d="m 125.268,209.708 c -0.244,0 -0.49,-0.049 -0.728,-0.154 -0.916,-0.402 -1.332,-1.471 -0.93,-2.387 6.244,-14.21 28.446,-25.883 40.454,-24.217 0.991,0.137 1.683,1.051 1.545,2.042 -0.136,0.991 -1.038,1.687 -2.043,1.546 -10.613,-1.474 -31.059,9.387 -36.639,22.086 -0.297,0.679 -0.962,1.084 -1.659,1.084 z" />
				</g>
				<path
   id="XMLID_6508_"
   style="fill:#455a64"
   d="m 120.659,194.493 c -1.252,0.724 -1.739,2.268 -1.17,3.598 6.545,15.286 9.991,33.964 9.991,54.411 v 2.743 l 0.217,0.228 c 0.248,0.259 0.548,0.352 0.859,0.352 0.414,0 0.838,-0.155 1.19,-0.29 0.176,-0.062 0.476,-0.176 0.58,-0.186 1.573,0 2.846,-1.273 2.846,-2.846 0,-21.208 -3.607,-40.654 -10.467,-56.661 -0.673,-1.57 -2.556,-2.21 -4.034,-1.355 z" />
				<path
   id="XMLID_6507_"
   style="fill:#37474f"
   d="m 129.512,254.577 v 0.696 c 0,1.143 0.751,2.613 1.677,3.283 l 30.244,21.864 c 0.926,0.67 2.48,0.749 3.47,0.178 l 42.659,-24.629 c 0.99,-0.572 1.793,-1.962 1.793,-3.105 v -0.715 c 0,-1.143 -0.841,-2.458 -1.879,-2.938 l -38.282,-17.682 c -1.038,-0.479 -2.681,-0.404 -3.671,0.168 l -34.219,19.774 c -0.99,0.572 -1.792,1.963 -1.792,3.106 z" />
				<path
   id="XMLID_6506_"
   style="fill:#27debf"
   d="m 131.304,251.471 34.219,-19.774 c 0.99,-0.572 2.633,-0.647 3.671,-0.168 l 38.282,17.682 c 1.038,0.479 1.077,1.331 0.087,1.903 l -42.659,24.629 c -0.99,0.572 -2.544,0.492 -3.47,-0.177 L 131.19,253.719 c -0.927,-0.67 -0.876,-1.676 0.114,-2.248 z" />
			</g>
			<g
   id="XMLID_6489_">
				<g
   id="XMLID_6490_">
					
						<rect
   id="XMLID_6504_"
   x="176.689"
   y="317.89301"
   transform="rotate(180,180.87955,325.186)"
   style="fill:#ffa8a7"
   width="8.382"
   height="14.587" />
					<polygon
   id="XMLID_6503_"
   style="fill:#ffa8a7"
   points="218.463,302.662 208.933,302.996 210.286,315.789 210.379,316.772 210.805,318.089 219.551,318.552 219.34,316.791 219.265,315.477 " />
					<path
   id="XMLID_6502_"
   style="fill:#263238"
   d="m 185.05,330.171 v -0.724 c 1.078,0 4.918,8.12 8.592,11.471 2.921,2.665 8.056,6.312 7.932,8.838 -0.161,3.26 -4.811,4.705 -8.823,3.764 -3.135,-0.735 -7.611,-2.635 -9.757,-4.953 -2.096,-2.264 -2.847,-5.364 -3.968,-6.881 -1.121,-1.517 -3.706,-3.211 -4.312,-4.966 -0.333,-0.965 0.062,-3.077 0.53,-4.862 0.429,-1.637 0.895,-3.438 1.454,-3.284 0.002,0.2 0,1.01 0,1.01 0.672,0.745 2.532,1.485 4.63,1.565 1.355,0.052 3.733,0.055 3.722,-0.978 z" />
					<path
   id="XMLID_6501_"
   style="fill:#263238"
   d="m 219.265,315.477 c 0.442,-0.025 0.858,0.564 1.926,1.527 1.291,1.164 4.038,2.252 6.021,3.027 3.323,1.3 11.835,2.674 14.746,3.678 1.819,0.627 1.628,3.377 -0.708,5.129 -1.742,1.306 -7.519,2.943 -12.86,2.252 -2.909,-0.377 -7.429,-1.957 -9.582,-2.097 -2.358,-0.154 -6.676,-0.209 -8.52,-1.246 -1.843,-1.036 -1.383,-3.653 -1.094,-5.891 0.315,-2.443 0.285,-6.157 1.093,-6.066 l 0.093,0.983 c 1.161,1.452 6.824,1.361 8.961,0.019 z" />
					<path
   id="XMLID_6499_"
   style="fill:#27debf"
   d="m 143.519,235.57 c -1.867,13.168 0.649,15.696 13.164,28.309 6.729,6.782 21.317,18.409 21.317,18.409 0,0 -2.416,5.253 -2.505,14.684 -0.078,8.305 0.84,28.214 0.84,28.214 0,0 5.067,2.828 8.949,0.36 0,0 10.127,-47.667 9.401,-50.724 -0.514,-2.165 -16.488,-22.746 -16.488,-22.746 l -4.477,-2.845 28.968,17.853 c 0,0 -0.882,7.988 -0.29,13.089 1.23,10.602 4.083,17.413 7.011,30.78 0,0 6.914,1.129 9.988,-1.262 0,0 0.188,-45.779 0.188,-49.821 0,-6.142 -26.672,-24.475 -31.72,-28.744 -2.881,-2.436 -6.094,-5.038 -6.094,-5.038 z" />
					<path
   id="XMLID_6495_"
   style="opacity:0.3"
   d="m 143.519,235.57 c -1.867,13.168 0.649,15.696 13.164,28.309 6.729,6.782 21.317,18.409 21.317,18.409 0,0 -2.416,5.253 -2.505,14.684 -0.078,8.305 0.84,28.214 0.84,28.214 0,0 5.067,2.828 8.949,0.36 0,0 10.127,-47.667 9.401,-50.724 -0.514,-2.165 -16.488,-22.746 -16.488,-22.746 l -4.477,-2.845 28.968,17.853 c 0,0 -0.882,7.988 -0.29,13.089 1.23,10.602 4.083,17.413 7.011,30.78 0,0 6.914,1.129 9.988,-1.262 0,0 0.188,-45.779 0.188,-49.821 0,-6.142 -26.672,-24.475 -31.72,-28.744 -2.881,-2.436 -6.094,-5.038 -6.094,-5.038 z" />
					<path
   id="XMLID_6491_"
   style="opacity:0.35"
   d="m 173.722,249.23 c 0,0 4.074,-2.023 7.705,-9.719 0,0 -0.332,4.494 -2.499,7.889 -1.623,2.544 23.762,19.682 23.762,19.682 z" />
				</g>
			</g>
		</g>
		<g
   id="Character_5_">
			<g
   id="XMLID_3368_">
				<path
   id="XMLID_6590_"
   style="fill:#ffa8a7"
   d="m 172.348,170.664 41.886,-0.303 c 0,0 27.785,-8.332 30.065,-12.614 2.53,-4.754 3.322,-12.127 4.763,-16.592 1.077,-3.339 4.068,-1.646 3.681,9.478 -0.104,2.975 0.544,6.913 -0.246,10.747 -0.443,2.153 -2.757,3.898 -5.431,5.685 -6.808,4.549 -19.15,11.118 -25.003,13.632 -3.32,1.426 -5.345,2.078 -11.32,2.467 -8.526,0.554 -28.954,1.748 -28.954,1.748 z" />
				<path
   id="XMLID_6589_"
   style="fill:#27debf"
   d="m 169.613,170.247 25.527,-0.45 c 0,0 6.095,6.878 1.097,15.115 -0.688,0.356 -18.902,1.619 -18.902,1.619 z" />
				<path
   id="XMLID_6587_"
   style="opacity:0.1"
   d="m 169.613,170.247 25.527,-0.45 c 0,0 6.095,6.878 1.097,15.115 -0.688,0.356 -18.902,1.619 -18.902,1.619 z" />
			</g>
			<g
   id="XMLID_6486_">
				<path
   id="XMLID_6488_"
   style="fill:#f5f5f5"
   d="m 155.669,170.541 c -1.006,0.244 -9.314,2.189 -12.969,3.433 v 28.053 l 0.165,35.885 c 6.042,6.573 36.413,3.583 40.132,-10.39 0,0 0,-35.288 0,-41.999 0,-6.711 -3.729,-14.773 -14.024,-15.372 z" />
				<polygon
   id="XMLID_6487_"
   style="opacity:0.1"
   points="148.779,190.595 142.822,228.461 142.7,207.81 " />
			</g>
			<g
   id="XMLID_6471_">
				<g
   id="XMLID_6479_">
					<path
   id="XMLID_6485_"
   style="fill:#263238"
   d="m 152.769,136.195 c 0,0 -2.135,-0.366 -3.799,1.336 -1.631,1.668 -1.293,4.757 0.003,11.854 l 5.042,0.579 z" />
					<path
   id="XMLID_6484_"
   style="fill:#263238"
   d="m 182.17,134.142 c 0,0 2.037,0.001 3.155,-0.641 1.548,-0.889 1.952,0.87 1.104,2.398 -0.848,1.529 -2.432,3.519 -5.851,3.896 -0.046,-0.219 -1.447,-3.938 -1.447,-3.938 z" />
					<path
   id="XMLID_6483_"
   style="fill:#ffa8a7"
   d="m 155.135,149.967 c -0.749,0.447 -1.817,-0.991 -2.74,-1.957 -0.923,-0.966 -3.937,-2.286 -5.441,0.882 -1.532,3.229 1.327,7.494 3.7,8.239 4.089,1.284 4.703,-1.339 4.703,-1.339 l 0.312,14.75 c 0,0 2.678,6.551 9.928,7.534 7.25,0.983 5.757,-4.995 3.376,-7.924 l -0.011,-4.489 c 0,0 3.705,0.562 5.512,0.283 3.007,-0.465 4.899,-2.838 5.811,-6.093 1.465,-5.229 2.51,-9.248 1.267,-19.53 -1.363,-11.27 -14.96,-11.59 -22.039,-7.134 -7.078,4.454 -4.378,16.778 -4.378,16.778 z" />
					<path
   id="XMLID_6482_"
   style="fill:#263238"
   d="m 155.135,151.226 c -0.377,0.007 -1.808,-2.368 -2.74,-3.216 -1.291,-1.175 0.374,-11.815 0.374,-11.815 0,0 -1.306,-4.036 1.246,-6.712 2.552,-2.676 7.497,-2.225 11.113,-2.355 3.763,-0.135 7.791,-0.363 12.927,-2.594 5.136,-2.231 5.52,-2.495 6.157,-0.24 0.637,2.256 0.877,7.421 -2.188,10.882 l -2.55,0.937 c 0,0 -1.377,1.222 -6.167,1.805 -4.79,0.583 -12.251,-0.112 -13.271,-0.252 -1.389,-0.19 -1.685,1.156 -2.434,4.834 -0.657,3.23 -1.202,8.702 -2.467,8.726 z" />
					<path
   id="XMLID_6481_"
   style="fill:#263238"
   d="m 152.776,137.022 -4.526,-2.43 c 0.642,-1.297 2.176,-1.804 3.426,-1.133 1.25,0.671 1.743,2.266 1.1,3.563 z" />
					<path
   id="XMLID_6480_"
   style="fill:#f28f8f"
   d="m 168.962,165.662 c 0,0 -6.713,-1.352 -9.06,-2.6 -1.571,-0.835 -2.864,-2.282 -3.244,-3.21 0,0 0.44,1.992 1.843,3.786 1.716,2.194 10.461,3.81 10.461,3.81 z" />
				</g>
				<g
   id="XMLID_6472_">
					
					
					
					
					
					<polygon
   id="XMLID_6473_"
   style="fill:#f28f8f"
   points="173.356,155.704 177.58,154.264 172.914,147.614 " />
				</g>
			</g>
			<g
   id="XMLID_3366_">
				<g
   id="XMLID_6469_">
					<path
   id="XMLID_6470_"
   style="fill:#ffa8a7"
   d="m 128.229,220.178 c -0.495,-2.397 4.859,-26.14 6.963,-33.647 l 10.424,10.927 -6.204,23.041 c 0.088,1.591 1.399,11.083 3.436,16.629 0.361,0.982 1.095,1.781 2.017,2.275 2.475,1.325 3.536,2.785 5.451,4.537 1.499,1.372 2.716,1.656 2.563,2.134 -0.196,0.615 -1.13,1.653 -2.881,1.246 -0.882,-0.205 -2.042,-0.806 -3.493,-1.6 0,0 1.191,2.851 3.851,5.697 3.605,3.858 3.921,6.355 -2.798,6.869 -4.21,0.322 -7.747,-2.05 -11.544,-11.119 -1.094,-2.613 -2.47,-6.411 -3.504,-9.85 -2.446,-8.129 -3.138,-11.603 -4.281,-17.139 z" />
				</g>
				<g
   id="XMLID_3367_">
					<path
   id="XMLID_6455_"
   style="fill:#27debf"
   d="m 148.779,190.595 c 2.087,-7.423 0.466,-14.81 -2.574,-17.67 -7.731,1.324 -9.685,4.973 -11.808,12.162 -3.271,11.075 -4.924,18.266 -4.924,18.266 1.924,2.574 10.711,5.79 14.325,4.691 z" />
					<path
   id="XMLID_6454_"
   style="opacity:0.1"
   d="m 148.779,190.595 c 2.087,-7.423 0.466,-14.81 -2.574,-17.67 -7.731,1.324 -9.685,4.973 -11.808,12.162 -3.271,11.075 -4.924,18.266 -4.924,18.266 1.924,2.574 10.711,5.79 14.325,4.691 z" />
				</g>
			</g>
			<g
   id="XMLID_6457_">
				<g
   id="XMLID_6464_">
					<path
   id="XMLID_6465_"
   style="fill:#263238"
   d="m 166.942,145.294 c -1.896,0 -3.439,1.571 -3.439,3.503 0,1.932 1.543,3.503 3.439,3.503 h 0.639 c 1.895,0 3.438,-1.571 3.438,-3.503 0,-1.932 -1.543,-3.503 -3.438,-3.503 z m -4.137,3.503 c 0,-2.324 1.855,-4.214 4.136,-4.214 h 0.639 c 2.28,0 4.135,1.89 4.135,4.214 0,2.324 -1.855,4.214 -4.135,4.214 h -0.639 c -2.28,0 -4.136,-1.89 -4.136,-4.214 z" />
				</g>
				<g
   id="XMLID_6460_">
					<path
   id="XMLID_6461_"
   style="fill:#263238"
   d="m 179.552,145.294 c -1.896,0 -3.439,1.571 -3.439,3.503 0,1.932 1.543,3.503 3.439,3.503 h 0.639 c 1.895,0 3.438,-1.571 3.438,-3.503 0,-1.932 -1.543,-3.503 -3.438,-3.503 z m -4.136,3.503 c 0,-2.324 1.855,-4.214 4.136,-4.214 h 0.639 c 2.28,0 4.135,1.89 4.135,4.214 0,2.324 -1.855,4.214 -4.135,4.214 h -0.639 c -2.281,0 -4.136,-1.89 -4.136,-4.214 z" />
				</g>
				<path
   id="XMLID_6459_"
   style="fill:#263238"
   d="m 171.665,147.966 c 0.383,-0.64 1.24,-1.085 2.185,-1.134 0.814,-0.042 1.532,0.231 1.906,0.733 l 0.556,-0.43 c -0.521,-0.699 -1.43,-1.069 -2.497,-1.013 -1.186,0.062 -2.238,0.627 -2.745,1.474 z" />
				<path
   id="XMLID_6458_"
   style="fill:#263238"
   d="m 152.768,148.396 h 10.398 v -0.667 H 152.1 c 0.285,0.123 0.668,0.667 0.668,0.667 z" />
			</g>
		</g>
	</g>
</g>


<g
   id="Speach_Bubbles"
   transform="translate(-25.103694,-5.6236341)">
	<g
   id="XMLID_4692_">
		<g
   id="XMLID_4705_">
			<path
   id="XMLID_4712_"
   style="fill:#27debf"
   d="m 167.805,113.206 -3.763,-7.075 3.027,-8.739 v -5.35 l -9.265,5.35 v 5.349 l 3.983,6.899 c 0.068,0.117 0.164,0.193 0.271,0.241 l -0.002,0.004 z" />
			<path
   id="XMLID_4711_"
   style="opacity:0.2"
   d="m 167.805,113.206 -3.763,-7.075 3.027,-8.739 v -5.35 l -9.265,5.35 v 5.349 l 3.983,6.899 c 0.068,0.117 0.164,0.193 0.271,0.241 l -0.002,0.004 z" />
			<path
   id="XMLID_4710_"
   style="fill:#27debf"
   d="m 189.93,49.518 c 0,-1.771 -1.243,-3.925 -2.778,-4.811 l -2.262,-1.306 c -1.534,-0.886 -4.021,-0.886 -5.556,0 l -34.686,20.062 c -1.534,0.886 -2.778,3.04 -2.778,4.811 v 38.164 c 0,1.772 1.244,3.925 2.778,4.811 l 2.262,1.306 c 1.534,0.886 4.022,0.886 5.556,0 l 11.156,-6.445 3.975,6.885 c 0.254,0.44 0.908,0.378 1.074,-0.102 l 4.201,-12.128 14.28,-8.272 c 1.534,-0.885 2.778,-3.039 2.778,-4.811 z" />
			<path
   id="XMLID_4709_"
   style="opacity:0.2"
   d="m 141.871,106.439 c 0,1.772 1.244,3.926 2.778,4.811 l 2.262,1.306 c 1.387,0.801 3.544,0.87 5.081,0.224 -1.307,0.494 -2.303,-0.243 -2.303,-1.828 V 72.787 c 0,-0.886 0.311,-1.867 0.814,-2.738 l -7.817,-4.513 c -0.503,0.87 -0.814,1.852 -0.814,2.738 v 38.165 z" />
			<path
   id="XMLID_4708_"
   style="opacity:0.3;fill:#ffffff"
   d="m 189.839,48.729 c -0.324,-1.179 -1.399,-1.555 -2.682,-0.816 L 152.464,67.98 c -0.764,0.441 -1.464,1.192 -1.957,2.073 l -7.814,-4.51 c 0.505,-0.881 1.192,-1.633 1.956,-2.074 l 34.68,-20.067 c 1.542,-0.881 4.03,-0.881 5.56,0 l 2.268,1.309 c 1.309,0.752 2.41,2.437 2.682,4.018 z" />
		</g>
		<g
   id="XMLID_4693_">
			<g
   id="XMLID_4698_">
				<path
   id="XMLID_4699_"
   style="fill:#ffffff"
   d="m 183.722,76.584 c -0.003,-0.003 -0.009,-0.006 -0.015,-0.009 -0.052,-0.028 -0.119,-0.046 -0.193,-0.049 l -2.655,-0.15 c -0.27,-0.015 -0.468,-0.208 -0.447,-0.432 0.037,-0.419 0.058,-0.836 0.061,-1.24 0.003,-0.45 -0.015,-0.891 -0.058,-1.32 -0.018,-0.211 0.107,-0.56 0.291,-0.784 l 2.964,-3.589 c 0.184,-0.224 0.263,-0.554 0.181,-0.738 l -1.409,-3.114 c -0.018,-0.043 -0.049,-0.077 -0.086,-0.098 -0.006,-0.003 -0.012,-0.006 -0.018,-0.009 -0.116,-0.058 -0.291,-0.009 -0.453,0.141 l -3.166,2.891 c -0.224,0.205 -0.527,0.251 -0.692,0.116 -0.41,-0.337 -0.864,-0.597 -1.354,-0.787 -0.217,-0.086 -0.367,-0.325 -0.318,-0.554 l 0.977,-4.431 c 0.031,-0.135 -0.024,-0.248 -0.135,-0.312 -0.077,-0.043 -0.178,-0.061 -0.294,-0.052 l -3.096,0.309 c -0.288,0.028 -0.591,0.239 -0.677,0.472 l -1.678,4.502 c -0.086,0.233 -0.392,0.518 -0.677,0.652 -0.634,0.3 -1.274,0.671 -1.917,1.112 -0.26,0.174 -0.551,0.187 -0.665,0.015 l -1.583,-2.419 c -0.113,-0.172 -0.367,-0.135 -0.573,0.076 l -3.399,3.592 c -0.205,0.214 -0.322,0.548 -0.263,0.744 l 0.946,3.206 c 0.058,0.196 -0.021,0.542 -0.171,0.772 -0.582,0.879 -1.102,1.788 -1.565,2.713 -0.116,0.233 -0.444,0.481 -0.738,0.551 l -2.909,0.701 c -0.294,0.07 -0.588,0.315 -0.658,0.545 l -1.464,4.93 c -0.07,0.23 0.095,0.429 0.361,0.444 l 2.658,0.15 c 0.269,0.015 0.465,0.208 0.447,0.432 -0.08,0.888 -0.083,1.748 -0.006,2.56 0.021,0.214 -0.104,0.563 -0.288,0.784 l -2.964,3.592 c -0.184,0.22 -0.263,0.551 -0.181,0.738 l 1.409,3.111 c 0.018,0.046 0.049,0.077 0.086,0.098 0,0.003 0,0.003 0,0.003 0.006,0.003 0.009,0.003 0.009,0.003 0.037,0.018 0.073,0.028 0.113,0.028 h 0.003 c 0.104,0 0.227,-0.055 0.346,-0.162 l 3.163,-2.894 c 0.224,-0.202 0.527,-0.251 0.692,-0.116 0.413,0.337 0.867,0.597 1.354,0.787 0.221,0.086 0.371,0.328 0.319,0.554 l -0.977,4.434 c -0.027,0.132 0.025,0.239 0.129,0.303 0.003,0.003 0.006,0.003 0.009,0.006 0.074,0.043 0.174,0.064 0.291,0.052 l 3.096,-0.306 c 0.288,-0.031 0.591,-0.242 0.677,-0.472 l 1.681,-4.502 c 0.086,-0.233 0.392,-0.518 0.677,-0.655 0.325,-0.153 0.655,-0.328 0.983,-0.517 0.309,-0.181 0.622,-0.38 0.934,-0.591 0.257,-0.178 0.551,-0.19 0.661,-0.018 l 1.586,2.422 c 0.021,0.031 0.046,0.055 0.076,0.071 0.129,0.08 0.328,0.024 0.493,-0.15 l 3.402,-3.592 c 0.202,-0.211 0.318,-0.548 0.26,-0.744 l -0.946,-3.203 c -0.058,-0.199 0.025,-0.545 0.174,-0.772 0.582,-0.879 1.102,-1.791 1.562,-2.716 0.116,-0.233 0.444,-0.478 0.741,-0.548 l 2.906,-0.701 c 0.297,-0.071 0.591,-0.315 0.658,-0.548 l 1.467,-4.927 c 0.047,-0.165 -0.018,-0.312 -0.155,-0.391 z m -15.523,12.04 c -0.058,0.015 -0.113,0.031 -0.172,0.043 -0.043,0.012 -0.083,0.018 -0.122,0.028 -0.092,0.018 -0.184,0.034 -0.276,0.046 -0.108,0.015 -0.214,0.024 -0.32,0.031 -0.067,0.004 -0.133,0.006 -0.198,0.007 -0.031,0.001 -0.062,0 -0.093,0 -1.271,-0.014 -2.329,-0.659 -2.917,-1.961 -0.221,-0.487 -0.361,-1.035 -0.426,-1.623 -0.037,-0.291 -0.052,-0.591 -0.049,-0.9 0.018,-2.808 1.461,-6.287 3.84,-8.801 0.769,-0.812 1.562,-1.446 2.346,-1.902 0.26,-0.153 0.524,-0.288 0.781,-0.398 0.772,-0.34 1.516,-0.496 2.196,-0.465 0.009,0 0.015,0 0.025,0.003 0.037,0 0.074,0.003 0.11,0.006 0.04,0.003 0.076,0.006 0.113,0.012 0.04,0.003 0.08,0.006 0.12,0.015 1.056,0.153 1.92,0.79 2.434,1.923 1.314,2.906 -0.193,7.977 -3.365,11.324 -1.329,1.403 -2.741,2.282 -4.027,2.612 z" />
			</g>
		</g>
	</g>
	<g
   id="XMLID_3371_">
		<g
   id="XMLID_4684_">
			<g
   id="XMLID_4685_">
				<path
   id="XMLID_4691_"
   style="fill:#27debf"
   d="m 331.237,113.206 3.763,-7.075 -3.027,-8.739 v -5.35 l 9.265,5.35 v 5.349 l -3.983,6.899 c -0.067,0.117 -0.164,0.193 -0.271,0.241 l 0.002,0.004 z" />
				<path
   id="XMLID_4689_"
   style="opacity:0.2"
   d="m 331.237,113.206 3.763,-7.075 -3.027,-8.739 v -5.35 l 9.265,5.35 v 5.349 l -3.983,6.899 c -0.067,0.117 -0.164,0.193 -0.271,0.241 l 0.002,0.004 z" />
				<path
   id="XMLID_4688_"
   style="fill:#27debf"
   d="m 309.112,49.518 c 0,-1.771 1.243,-3.925 2.777,-4.811 l 2.262,-1.306 c 1.534,-0.886 4.021,-0.886 5.556,0 l 34.686,20.062 c 1.534,0.886 2.778,3.04 2.778,4.811 v 38.164 c 0,1.772 -1.244,3.925 -2.778,4.811 l -2.262,1.306 c -1.534,0.886 -4.022,0.886 -5.556,0 l -11.156,-6.445 -3.975,6.885 c -0.254,0.44 -0.908,0.378 -1.074,-0.102 l -4.201,-12.128 -14.28,-8.272 c -1.534,-0.885 -2.778,-3.039 -2.778,-4.811 z" />
				<path
   id="XMLID_4687_"
   style="opacity:0.2"
   d="m 357.171,106.439 c 0,1.772 -1.244,3.926 -2.778,4.811 l -2.262,1.306 c -1.387,0.801 -3.544,0.87 -5.081,0.224 1.307,0.494 2.303,-0.243 2.303,-1.828 V 72.787 c 0,-0.886 -0.311,-1.867 -0.813,-2.738 l 7.817,-4.513 c 0.503,0.87 0.814,1.852 0.814,2.738 z" />
				<path
   id="XMLID_4686_"
   style="opacity:0.3;fill:#ffffff"
   d="m 309.202,48.729 c 0.324,-1.179 1.399,-1.555 2.682,-0.816 l 34.693,20.067 c 0.764,0.441 1.464,1.192 1.957,2.073 l 7.814,-4.51 c -0.505,-0.881 -1.192,-1.633 -1.957,-2.074 l -34.68,-20.067 c -1.542,-0.881 -4.03,-0.881 -5.56,0 l -2.268,1.309 c -1.307,0.752 -2.409,2.437 -2.681,4.018 z" />
			</g>
		</g>
		<g
   id="XMLID_3370_">
			<g
   id="XMLID_4661_">
				<g
   id="XMLID_4669_">
					<path
   id="XMLID_4683_"
   style="fill:#ffffff"
   d="m 332.882,99.378 -4.928,-2.845 c -0.319,-0.184 -0.578,-0.678 -0.578,-1.104 v -2.075 c 0,-0.425 0.259,-0.621 0.578,-0.437 l 4.928,2.845 c 0.319,0.184 0.578,0.678 0.578,1.104 v 2.075 c 0,0.425 -0.259,0.621 -0.578,0.437 z" />
				</g>
				<g
   id="XMLID_4662_">
					<path
   id="XMLID_4668_"
   style="fill:#ffffff"
   d="m 326.547,78.568 c 0.213,0.178 0.543,0.763 0.884,1.796 -0.454,-0.228 -0.817,-0.631 -1.024,-1.046 -0.06,-0.122 -0.245,-0.534 -0.09,-0.729 0.09,-0.114 0.166,-0.076 0.23,-0.021 z" />
					<path
   id="XMLID_4667_"
   style="fill:#ffffff"
   d="m 330.421,77.68 c 0.162,0.094 0.215,0.216 0.245,0.37 0.068,0.355 -0.01,0.82 -0.245,1.257 -0.235,-0.708 -0.312,-1.262 -0.245,-1.539 0.03,-0.121 0.083,-0.182 0.245,-0.088 z" />
					<path
   id="XMLID_4666_"
   style="fill:#ffffff"
   d="m 334.295,83.041 c 0.015,0.004 0.03,0.011 0.046,0.02 0.055,0.031 0.114,0.099 0.184,0.265 0.156,0.375 -0.029,0.573 -0.09,0.626 -0.206,0.177 -0.567,0.163 -1.024,-0.136 0.341,-0.638 0.671,-0.842 0.884,-0.775 z" />
					<path
   id="XMLID_4663_"
   style="fill:#ffffff"
   d="m 322.666,74.541 c 0,8.208 5.079,12.504 5.079,15.812 v 0 1.391 l 5.351,3.097 v -1.398 c 0,-3.308 5.079,-1.739 5.079,-9.947 0,-5.711 -3.472,-12.344 -7.755,-14.817 -4.282,-2.474 -7.754,0.151 -7.754,5.862 z m 3.135,3.245 c 0.217,-0.271 0.534,-0.263 0.871,0.016 0.504,0.425 0.996,1.4 1.418,2.77 0.234,0.03 0.484,0.019 0.743,-0.045 0.504,-0.126 0.9,-0.375 1.194,-0.681 -0.437,-1.148 -0.598,-2.129 -0.467,-2.668 0.113,-0.465 0.435,-0.597 0.861,-0.352 0.425,0.246 0.747,0.749 0.861,1.345 0.131,0.691 -0.03,1.485 -0.467,2.129 0.295,0.646 0.691,1.352 1.194,2.06 0.26,0.364 0.509,0.663 0.743,0.904 0.422,-0.883 0.913,-1.291 1.418,-1.133 0.339,0.106 0.653,0.467 0.871,0.99 0.286,0.689 0.231,1.365 -0.138,1.682 -0.369,0.318 -1.002,0.268 -1.785,-0.332 -0.168,0.447 -0.331,1.012 -0.477,1.716 -0.684,3.313 -0.643,6.563 -0.643,6.595 0.004,0.238 -0.137,0.352 -0.314,0.255 -0.185,-0.122 -0.323,-0.368 -0.327,-0.606 -0.002,-0.137 -0.044,-3.392 0.661,-6.806 0.137,-0.662 0.295,-1.241 0.47,-1.727 -0.263,-0.277 -0.537,-0.61 -0.819,-1.006 -0.503,-0.706 -0.921,-1.432 -1.251,-2.126 -0.33,0.313 -0.748,0.557 -1.251,0.682 -0.282,0.071 -0.556,0.087 -0.819,0.061 0.175,0.689 0.333,1.45 0.47,2.27 0.705,4.228 0.664,7.435 0.661,7.57 -0.004,0.23 -0.146,0.333 -0.32,0.233 -0.002,-10e-4 -0.004,-0.002 -0.007,-0.004 -0.177,-0.107 -0.317,-0.383 -0.314,-0.617 10e-4,-0.031 0.042,-3.228 -0.643,-7.337 -0.146,-0.872 -0.309,-1.626 -0.477,-2.267 -0.781,-0.303 -1.416,-0.985 -1.785,-1.729 -0.364,-0.745 -0.419,-1.484 -0.132,-1.842 z" />
				</g>
			</g>
			<g
   id="XMLID_4588_">
				<g
   id="XMLID_4641_">
					<g
   id="XMLID_4643_">
						<path
   id="XMLID_4660_"
   style="fill:#ffffff"
   d="m 330.421,65.685 c -0.37,-0.214 -0.669,-0.848 -0.669,-1.417 V 61.98 c 0,-0.569 0.299,-0.858 0.669,-0.644 0.37,0.214 0.669,0.848 0.669,1.417 v 2.288 c 0,0.569 -0.3,0.858 -0.669,0.644 z" />
					</g>
				</g>
				<g
   id="XMLID_4631_">
					<g
   id="XMLID_4639_">
						<path
   id="XMLID_4640_"
   style="fill:#ffffff"
   d="m 325.47,64.87 c -0.232,-0.134 -0.457,-0.449 -0.58,-0.85 l -0.743,-2.41 c -0.185,-0.6 -0.076,-1.167 0.245,-1.266 0.32,-0.101 0.729,0.304 0.914,0.904 l 0.743,2.41 c 0.185,0.6 0.076,1.167 -0.245,1.266 -0.106,0.033 -0.221,0.011 -0.334,-0.054 z" />
					</g>
				</g>
				<g
   id="XMLID_4607_">
					<g
   id="XMLID_4629_">
						<path
   id="XMLID_4630_"
   style="fill:#ffffff"
   d="m 321.844,68.357 c -0.113,-0.066 -0.228,-0.176 -0.333,-0.331 l -1.287,-1.887 c -0.32,-0.469 -0.43,-1.162 -0.245,-1.548 0.185,-0.386 0.595,-0.319 0.914,0.15 l 1.287,1.887 c 0.32,0.469 0.43,1.162 0.245,1.548 -0.124,0.26 -0.349,0.315 -0.581,0.181 z" />
					</g>
				</g>
				<g
   id="XMLID_4604_">
					<g
   id="XMLID_4605_">
						<path
   id="XMLID_4606_"
   style="fill:#ffffff"
   d="m 320.517,75.215 -1.486,-0.858 c -0.37,-0.214 -0.669,-0.848 -0.669,-1.417 0,-0.569 0.299,-0.857 0.669,-0.644 l 1.486,0.858 c 0.37,0.214 0.669,0.848 0.669,1.417 0.001,0.568 -0.299,0.857 -0.669,0.644 z" />
					</g>
				</g>
				<g
   id="XMLID_4601_">
					<g
   id="XMLID_4602_">
						<path
   id="XMLID_4603_"
   style="fill:#ffffff"
   d="m 320.558,84.006 c -0.232,-0.134 -0.457,-0.449 -0.58,-0.851 -0.185,-0.599 -0.075,-1.165 0.245,-1.265 l 1.287,-0.4 c 0.319,-0.102 0.728,0.305 0.913,0.905 0.185,0.599 0.075,1.166 -0.245,1.265 l -1.287,0.4 c -0.105,0.033 -0.219,0.012 -0.333,-0.054 z" />
					</g>
				</g>
				<g
   id="XMLID_4598_">
					<g
   id="XMLID_4599_">
						<path
   id="XMLID_4600_"
   style="fill:#ffffff"
   d="m 340.284,95.395 c -0.113,-0.065 -0.228,-0.176 -0.333,-0.331 l -1.288,-1.887 c -0.32,-0.469 -0.43,-1.162 -0.245,-1.548 0.185,-0.386 0.594,-0.319 0.914,0.15 l 1.287,1.887 c 0.32,0.469 0.43,1.162 0.245,1.548 -0.123,0.26 -0.348,0.315 -0.58,0.181 z" />
					</g>
				</g>
				<g
   id="XMLID_4595_">
					<g
   id="XMLID_4596_">
						<path
   id="XMLID_4597_"
   style="fill:#ffffff"
   d="m 341.81,87.508 -1.486,-0.858 c -0.37,-0.214 -0.669,-0.848 -0.669,-1.417 0,-0.569 0.299,-0.858 0.669,-0.644 l 1.486,0.858 c 0.37,0.214 0.669,0.848 0.669,1.417 0.001,0.569 -0.299,0.858 -0.669,0.644 z" />
					</g>
				</g>
				<g
   id="XMLID_4592_">
					<g
   id="XMLID_4593_">
						<path
   id="XMLID_4594_"
   style="fill:#ffffff"
   d="m 338.999,78.261 c -0.232,-0.134 -0.457,-0.449 -0.58,-0.851 -0.185,-0.599 -0.075,-1.166 0.245,-1.265 l 1.288,-0.4 c 0.32,-0.1 0.729,0.305 0.913,0.905 0.185,0.599 0.075,1.165 -0.245,1.265 l -1.287,0.4 c -0.107,0.033 -0.221,0.012 -0.334,-0.054 z" />
					</g>
				</g>
				<g
   id="XMLID_4589_">
					<g
   id="XMLID_4590_">
						<path
   id="XMLID_4591_"
   style="fill:#ffffff"
   d="m 335.371,70.586 c -0.113,-0.066 -0.228,-0.176 -0.334,-0.331 -0.32,-0.469 -0.429,-1.162 -0.244,-1.548 l 0.744,-1.552 c 0.185,-0.385 0.593,-0.318 0.914,0.151 0.32,0.469 0.429,1.162 0.244,1.548 l -0.744,1.552 c -0.123,0.259 -0.348,0.314 -0.58,0.18 z" />
					</g>
				</g>
			</g>
		</g>
	</g>
</g>
<g
   id="Desk"
   transform="translate(-25.103694,-5.6236341)">
	<g
   id="XMLID_3373_">
		<g
   id="Table_1_">
			<g
   id="XMLID_3335_">
				<path
   id="XMLID_3337_"
   style="fill:#37474f"
   d="m 250.034,344.762 v 77.618 c 0,0.642 0.451,1.422 1.006,1.743 l 2.141,1.235 c 0.556,0.321 1.457,0.321 2.013,0 l 2.14,-1.235 c 0.556,-0.321 1.006,-1.101 1.006,-1.743 v -77.618 c 0,-0.642 -0.451,-0.902 -1.006,-0.581 l -2.14,1.236 c -0.556,0.321 -1.457,0.321 -2.013,0 l -2.14,-1.235 c -0.557,-0.322 -1.007,-0.062 -1.007,0.58 z" />
				<path
   id="XMLID_3336_"
   style="fill:#455a64"
   d="m 255.194,425.358 2.14,-1.235 c 0.556,-0.321 1.006,-1.101 1.006,-1.743 v -77.618 c 0,-0.642 -0.451,-0.902 -1.006,-0.581 l -2.14,1.236 c -0.556,0.321 -1.006,1.101 -1.006,1.743 v 77.618 c -10e-4,0.641 0.45,0.901 1.006,0.58 z" />
			</g>
			<g
   id="XMLID_3299_">
				<path
   id="XMLID_3301_"
   style="fill:#37474f"
   d="m 136.74,279.368 v 77.618 c 0,0.642 0.451,1.422 1.006,1.743 l 2.141,1.235 c 0.556,0.321 1.457,0.321 2.013,0 l 2.14,-1.235 c 0.556,-0.321 1.006,-1.101 1.006,-1.743 v -77.618 c 0,-0.642 -0.451,-0.902 -1.006,-0.581 l -2.14,1.235 c -0.556,0.321 -1.457,0.321 -2.013,0 l -2.14,-1.235 c -0.556,-0.321 -1.007,-0.06 -1.007,0.581 z" />
				<path
   id="XMLID_3300_"
   style="fill:#455a64"
   d="m 141.9,359.965 2.14,-1.235 c 0.556,-0.321 1.006,-1.101 1.006,-1.743 v -77.618 c 0,-0.642 -0.451,-0.902 -1.006,-0.581 l -2.14,1.235 c -0.556,0.321 -1.006,1.101 -1.006,1.743 v 77.618 c 0,0.641 0.45,0.901 1.006,0.581 z" />
			</g>
			<g
   id="XMLID_3276_">
				<path
   id="XMLID_3297_"
   style="fill:#37474f"
   d="m 347.585,288.41 v 77.618 c 0,0.642 0.451,1.422 1.006,1.743 l 2.141,1.235 c 0.556,0.321 1.457,0.321 2.013,0 l 2.14,-1.235 c 0.556,-0.321 1.006,-1.101 1.006,-1.743 V 288.41 c 0,-0.642 -0.451,-0.902 -1.006,-0.581 l -2.14,1.235 c -0.556,0.321 -1.457,0.321 -2.013,0 l -2.141,-1.235 c -0.556,-0.321 -1.006,-0.061 -1.006,0.581 z" />
				<path
   id="XMLID_3277_"
   style="fill:#455a64"
   d="m 352.745,369.006 2.14,-1.235 c 0.556,-0.321 1.006,-1.101 1.006,-1.743 V 288.41 c 0,-0.642 -0.451,-0.902 -1.006,-0.581 l -2.14,1.235 c -0.556,0.321 -1.006,1.101 -1.006,1.743 v 77.618 c -10e-4,0.642 0.45,0.902 1.006,0.581 z" />
			</g>
			<g
   id="Desk_1_">
				<g
   id="XMLID_3263_">
					<g
   id="XMLID_3274_">
						<path
   id="XMLID_3275_"
   style="fill:#27debf"
   d="m 116.884,286.463 v -0.73 c 0,-1.168 0.82,-2.589 1.832,-3.173 l 124.227,-71.753 c 1.012,-0.584 2.652,-0.584 3.663,0 l 121.037,69.852 c 1.012,0.584 1.832,2.004 1.832,3.173 v 0.73 c 0,1.168 -0.82,2.589 -1.832,3.173 l -124.227,71.753 c -1.012,0.584 -2.652,0.584 -3.664,0 L 118.715,289.636 c -1.01,-0.585 -1.831,-2.006 -1.831,-3.173 z" />
					</g>
					<g
   id="XMLID_3272_"
   style="opacity:0.65">
						<path
   id="XMLID_3273_"
   style="fill:#ffffff"
   d="m 116.884,286.463 v -0.73 c 0,-1.168 0.82,-2.589 1.832,-3.173 l 124.227,-71.753 c 1.012,-0.584 2.652,-0.584 3.663,0 l 121.037,69.852 c 1.012,0.584 1.832,2.004 1.832,3.173 v 0.73 c 0,1.168 -0.82,2.589 -1.832,3.173 l -124.227,71.753 c -1.012,0.584 -2.652,0.584 -3.664,0 L 118.715,289.636 c -1.01,-0.585 -1.831,-2.006 -1.831,-3.173 z" />
					</g>
					<g
   id="XMLID_3270_">
						<path
   id="XMLID_3271_"
   style="fill:#27debf"
   d="m 241.585,354.968 v 4.958 c -0.663,0 -1.324,-0.156 -1.832,-0.438 L 118.719,289.64 c -1.015,-0.592 -1.833,-2.003 -1.833,-3.173 v -0.733 c 0,-1.029 0.635,-2.27 1.495,-2.933 -0.663,0.564 -0.55,1.354 0.338,1.876 l 121.033,69.854 c 0.508,0.296 1.171,0.437 1.833,0.437 z" />
					</g>
					<g
   id="XMLID_3268_"
   style="opacity:0.5">
						<path
   id="XMLID_3269_"
   style="fill:#ffffff"
   d="m 241.585,354.968 v 4.958 c -0.663,0 -1.324,-0.156 -1.832,-0.438 L 118.719,289.64 c -1.015,-0.592 -1.833,-2.003 -1.833,-3.173 v -0.733 c 0,-1.029 0.635,-2.27 1.495,-2.933 -0.663,0.564 -0.55,1.354 0.338,1.876 l 121.033,69.854 c 0.508,0.296 1.171,0.437 1.833,0.437 z" />
					</g>
					<g
   id="XMLID_3266_">
						<path
   id="XMLID_3267_"
   style="fill:#27debf"
   d="m 118.716,284.675 121.037,69.852 c 1.012,0.584 2.652,0.584 3.664,0 l 124.227,-71.753 c 1.012,-0.584 1.012,-1.531 0,-2.115 L 246.607,210.807 c -1.012,-0.584 -2.652,-0.584 -3.663,0 L 118.716,282.56 c -1.011,0.584 -1.011,1.531 0,2.115 z" />
					</g>
					<g
   id="XMLID_3264_"
   style="opacity:0.8">
						<path
   id="XMLID_3265_"
   style="fill:#ffffff"
   d="m 118.716,284.675 121.037,69.852 c 1.012,0.584 2.652,0.584 3.664,0 l 124.227,-71.753 c 1.012,-0.584 1.012,-1.531 0,-2.115 L 246.607,210.807 c -1.012,-0.584 -2.652,-0.584 -3.663,0 L 118.716,282.56 c -1.011,0.584 -1.011,1.531 0,2.115 z" />
					</g>
					<polyline
   id="Shadow_37_"
   style="opacity:0.1;fill:#455a64"
   points="332.21,274.361 334.281,271.923 329.967,273.066      " />
				</g>
			</g>
		</g>
		<g
   id="Green_Laptop">
			<g
   id="XMLID_3339_">
				<g
   id="XMLID_3403_">
					<path
   id="XMLID_3412_"
   style="fill:#27debf"
   d="m 258.052,256.079 v 0.582 c 0,0.853 0.455,1.643 1.196,2.074 l 41.881,24.179 c 0.367,0.215 0.785,0.317 1.192,0.317 0.415,0 0.83,-0.104 1.204,-0.319 l 22.828,-13.137 c 0.734,-0.423 1.194,-1.22 1.194,-2.074 v -0.806 h -0.005 v 0.008 c 0,0.104 -0.048,0.199 -0.152,0.263 l -25.07,14.477 z" />
				</g>
				<g
   id="XMLID_3592_"
   style="opacity:0.3">
					<path
   id="XMLID_3601_"
   d="m 258.052,256.079 v 0.582 c 0,0.853 0.455,1.643 1.196,2.074 l 41.881,24.179 c 0.367,0.215 0.785,0.317 1.192,0.317 0.415,0 0.83,-0.104 1.204,-0.319 l 22.828,-13.137 c 0.734,-0.423 1.194,-1.22 1.194,-2.074 v -0.806 h -0.005 v 0.008 c 0,0.104 -0.048,0.199 -0.152,0.263 l -25.07,14.477 z" />
				</g>
				<g
   id="XMLID_3401_">
					<path
   id="XMLID_3402_"
   style="fill:#27debf"
   d="m 258.049,256.077 24.832,-14.336 c 0.442,-0.255 0.986,-0.255 1.427,0 l 43.08,24.876 c 0.211,0.122 0.211,0.427 0,0.549 l -25.065,14.474 z" />
				</g>
				<g
   id="XMLID_3363_">
					<path
   id="XMLID_3400_"
   style="fill:#27debf"
   d="m 258.049,256.077 24.832,-14.336 c 0.442,-0.255 0.986,-0.255 1.427,0 l 43.08,24.876 c 0.211,0.122 0.211,0.427 0,0.549 l -25.065,14.474 z" />
				</g>
				<g
   id="XMLID_3404_"
   style="opacity:0.2">
					<path
   id="XMLID_3405_"
   d="m 258.049,256.077 24.832,-14.336 c 0.442,-0.255 0.986,-0.255 1.427,0 l 43.08,24.876 c 0.211,0.122 0.211,0.427 0,0.549 l -25.065,14.474 z" />
				</g>
				<g
   id="XMLID_3361_"
   style="opacity:0.3">
					<polygon
   id="XMLID_3362_"
   points="302.552,279.532 315.946,271.807 276.783,249.196 263.319,256.881 " />
				</g>
				<g
   id="XMLID_4085_">
					<polygon
   id="XMLID_4091_"
   style="fill:#27debf"
   points="315.944,271.809 276.784,249.195 263.32,256.88 263.831,257.175 276.784,249.784 315.433,272.103 " />
				</g>
				<g
   id="XMLID_18090_"
   style="opacity:0.6">
					<polygon
   id="XMLID_18091_"
   points="315.944,271.809 276.784,249.195 263.32,256.88 263.831,257.175 276.784,249.784 315.433,272.103 " />
				</g>
				<g
   id="XMLID_3359_"
   style="opacity:0.6">
					<polygon
   id="XMLID_3360_"
   points="290.406,255.096 297.218,251.164 309.135,258.043 308.888,258.186 302.324,261.975 290.649,255.235 " />
				</g>
				<g
   id="XMLID_3357_">
					<polygon
   id="XMLID_3358_"
   style="fill:#27debf"
   points="308.888,258.186 302.324,261.975 290.649,255.235 297.218,251.445 " />
				</g>
				<g
   id="XMLID_4050_"
   style="opacity:0.5">
					<polygon
   id="XMLID_4060_"
   points="308.888,258.186 302.324,261.975 290.649,255.235 297.218,251.445 " />
				</g>
				<g
   id="XMLID_3355_">
					<path
   id="XMLID_3356_"
   style="fill:#27debf"
   d="m 302.324,281.639 v 1.593 c -0.411,0 -0.826,-0.105 -1.195,-0.318 l -41.881,-24.179 c -0.742,-0.427 -1.199,-1.22 -1.199,-2.075 v -0.583 z" />
				</g>
				<g
   id="XMLID_3353_">
					<path
   id="XMLID_3354_"
   style="fill:#27debf"
   d="m 302.324,281.639 v 1.593 c -0.411,0 -0.826,-0.105 -1.195,-0.318 l -41.881,-24.179 c -0.742,-0.427 -1.199,-1.22 -1.199,-2.075 v -0.583 z" />
				</g>
				<g
   id="XMLID_3702_"
   style="opacity:0.6">
					<path
   id="XMLID_3703_"
   d="m 302.324,281.639 v 1.593 c -0.411,0 -0.826,-0.105 -1.195,-0.318 l -41.881,-24.179 c -0.742,-0.427 -1.199,-1.22 -1.199,-2.075 v -0.583 z" />
				</g>
				<g
   id="XMLID_3346_">
					<path
   id="XMLID_3352_"
   style="fill:#27debf"
   d="m 301.649,281.993 c -0.792,0.306 -1.693,0.247 -2.444,-0.189 L 257.508,257.73 c -0.734,-0.423 -1.237,-1.149 -1.379,-1.983 l -4.565,-27.222 c -0.025,-0.155 -0.038,-0.31 -0.038,-0.465 0,-0.759 0.302,-1.484 0.838,-2.016 l 43.331,25.021 c 0.541,0.314 0.914,0.851 1.019,1.467 z" />
				</g>
				<g
   id="XMLID_3344_">
					<path
   id="XMLID_3345_"
   style="fill:#27debf"
   d="m 302.324,281.641 -0.285,0.163 c -0.126,0.071 -0.256,0.134 -0.39,0.189 l -4.934,-29.461 c -0.105,-0.616 -0.478,-1.153 -1.019,-1.467 l -43.331,-25.021 c 0.167,-0.168 0.365,-0.314 0.578,-0.44 l 43.42,25.068 c 0.541,0.314 0.914,0.851 1.019,1.467 z" />
				</g>
				<g
   id="XMLID_4075_"
   style="opacity:0.1">
					<path
   id="XMLID_4079_"
   d="m 302.324,281.641 -0.285,0.163 c -0.126,0.071 -0.256,0.134 -0.39,0.189 l -4.934,-29.461 c -0.105,-0.616 -0.478,-1.153 -1.019,-1.467 l -43.331,-25.021 c 0.167,-0.168 0.365,-0.314 0.578,-0.44 l 43.42,25.068 c 0.541,0.314 0.914,0.851 1.019,1.467 z" />
				</g>
				<path
   id="XMLID_4084_"
   style="opacity:0.25"
   d="m 296.312,251.62 0.672,-0.388 c 0.199,0.265 0.34,0.571 0.397,0.906 l 4.942,29.503 -0.285,0.163 c -0.126,0.071 -0.256,0.134 -0.39,0.189 l -4.934,-29.461 c -0.056,-0.337 -0.2,-0.645 -0.402,-0.912 z" />
				<g
   id="XMLID_3340_"
   style="opacity:0.3">
					<path
   id="XMLID_3341_"
   d="m 278.165,256.863 c -0.306,-1.823 -2.187,-4.243 -4.203,-5.407 -2.016,-1.163 -3.402,-0.629 -3.096,1.193 0.306,1.823 2.187,4.243 4.203,5.407 2.015,1.164 3.401,0.63 3.096,-1.193 z" />
				</g>
			</g>
		</g>
		<g
   id="Black_Laptop">
			<g
   id="XMLID_3805_">
				<g
   id="XMLID_4048_">
					<path
   id="XMLID_3262_"
   style="fill:#37474f"
   d="m 158.688,265.114 v 0.782 c 0,0.829 0.442,1.604 1.154,2.014 l 22.179,12.759 c 0.356,0.209 0.759,0.31 1.162,0.31 0.395,0 0.806,-0.101 1.162,-0.31 l 40.671,-23.481 c 0.721,-0.418 1.17,-1.185 1.17,-2.014 v -0.566 l -43.003,24.829 -24.34,-14.06 c -0.108,-0.054 -0.155,-0.163 -0.155,-0.263 z" />
				</g>
				<g
   id="XMLID_4034_">
					<path
   id="XMLID_4046_"
   style="fill:#455a64"
   d="m 226.184,254.607 -24.118,-13.923 c -0.429,-0.248 -0.957,-0.248 -1.386,0 l -41.84,24.16 c -0.205,0.119 -0.205,0.415 0,0.534 l 24.344,14.057 z" />
				</g>
				<g
   id="XMLID_3253_"
   style="opacity:0.2">
					<path
   id="XMLID_3257_"
   style="fill:#263238"
   d="m 226.184,254.607 -24.118,-13.923 c -0.429,-0.248 -0.957,-0.248 -1.386,0 l -41.84,24.16 c -0.205,0.119 -0.205,0.415 0,0.534 l 24.344,14.057 z" />
				</g>
				<g
   id="XMLID_4030_">
					<polygon
   id="XMLID_4031_"
   style="fill:#263238"
   points="182.962,277.387 169.953,269.884 207.99,247.924 221.066,255.387 " />
				</g>
				<g
   id="XMLID_4028_">
					<polygon
   id="XMLID_4029_"
   style="fill:#263238"
   points="194.758,253.654 188.142,249.836 176.568,256.517 176.808,256.655 183.184,260.335 194.522,253.789 " />
				</g>
				<g
   id="XMLID_4026_">
					<polygon
   id="XMLID_4027_"
   style="fill:#37474f"
   points="176.808,256.655 183.184,260.335 194.522,253.789 188.142,250.108 " />
				</g>
				<g
   id="XMLID_3249_"
   style="opacity:0.5">
					<polygon
   id="XMLID_3252_"
   style="fill:#263238"
   points="176.808,256.655 183.184,260.335 194.522,253.789 188.142,250.108 " />
				</g>
				<g
   id="XMLID_4024_">
					<path
   id="XMLID_4025_"
   style="fill:#37474f"
   d="m 183.184,279.434 v 1.547 c 0.399,0 0.802,-0.102 1.16,-0.309 l 40.676,-23.483 c 0.72,-0.415 1.164,-1.185 1.164,-2.015 v -0.566 z" />
				</g>
				<g
   id="XMLID_3812_"
   style="opacity:0.5">
					<path
   id="XMLID_4019_"
   style="fill:#263238"
   d="m 183.184,279.434 v 1.547 c 0.399,0 0.802,-0.102 1.16,-0.309 l 40.676,-23.483 c 0.72,-0.415 1.164,-1.185 1.164,-2.015 v -0.566 z" />
				</g>
				<g
   id="XMLID_3810_">
					<path
   id="XMLID_3811_"
   style="fill:#455a64"
   d="m 183.839,279.777 c 0.77,0.297 1.645,0.24 2.374,-0.183 l 40.497,-23.381 c 0.712,-0.411 1.201,-1.115 1.339,-1.926 l 4.434,-26.438 c 0.024,-0.151 0.037,-0.301 0.037,-0.452 0,-0.737 -0.293,-1.441 -0.814,-1.958 l -42.084,24.301 c -0.525,0.305 -0.888,0.826 -0.989,1.425 z" />
				</g>
				<g
   id="XMLID_3243_"
   style="opacity:0.2">
					<path
   id="XMLID_3245_"
   style="fill:#263238"
   d="m 183.839,279.777 c 0.77,0.297 1.645,0.24 2.374,-0.183 l 40.497,-23.381 c 0.712,-0.411 1.201,-1.115 1.339,-1.926 l 4.434,-26.438 c 0.024,-0.151 0.037,-0.301 0.037,-0.452 0,-0.737 -0.293,-1.441 -0.814,-1.958 l -42.084,24.301 c -0.525,0.305 -0.888,0.826 -0.989,1.425 z" />
				</g>
				<g
   id="XMLID_3808_">
					<path
   id="XMLID_3809_"
   style="fill:#455a64"
   d="m 183.184,279.435 0.277,0.159 c 0.122,0.069 0.248,0.13 0.379,0.183 l 4.792,-28.613 c 0.102,-0.599 0.464,-1.12 0.989,-1.425 l 42.084,-24.301 c -0.163,-0.163 -0.354,-0.305 -0.562,-0.428 l -42.17,24.346 c -0.525,0.305 -0.888,0.827 -0.989,1.425 z" />
				</g>
				<path
   id="XMLID_3242_"
   style="opacity:0.5;fill:#263238"
   d="m 188.631,251.138 -4.792,28.613 c -0.13,-0.053 -0.257,-0.114 -0.379,-0.183 l -0.277,-0.159 4.8,-28.653 c 0.049,-0.285 0.16,-0.55 0.316,-0.785 l 0.651,0.376 c -0.158,0.235 -0.27,0.503 -0.319,0.791 z" />
				<g
   id="XMLID_3806_">
					<path
   id="XMLID_3807_"
   style="fill:#27debf"
   d="m 206.647,255.37 c 0.297,-1.77 2.124,-4.121 4.082,-5.251 1.957,-1.13 3.304,-0.611 3.007,1.159 -0.297,1.77 -2.124,4.121 -4.082,5.251 -1.957,1.13 -3.304,0.612 -3.007,-1.159 z" />
				</g>
			</g>
		</g>
		<g
   id="Notebooks">
			<g
   id="XMLID_3526_">
				<path
   id="XMLID_3531_"
   style="fill:#263238"
   d="m 153.328,273.918 -19.122,10.068 -0.393,0.618 v 0.498 c 0,0.249 0.143,0.474 0.393,0.618 l 25.201,14.55 c 0.182,0.105 0.415,0.163 0.656,0.163 0.241,0 0.474,-0.058 0.656,-0.163 l 18.695,-10.793 v -0.498 z" />
				<path
   id="XMLID_3527_"
   style="fill:#455a64"
   d="m 160.064,299.935 c -0.241,0 -0.474,-0.058 -0.656,-0.163 l -25.201,-14.55 c -0.25,-0.144 -0.393,-0.37 -0.393,-0.618 0,-0.249 0.143,-0.474 0.393,-0.618 l 18.28,-10.554 26.928,15.547 -18.695,10.793 c -0.182,0.105 -0.415,0.163 -0.656,0.163 z" />
			</g>
			<g
   id="XMLID_3517_">
				<path
   id="XMLID_3520_"
   style="fill:#ebebeb"
   d="m 152.487,271.971 -18.073,10.434 -0.186,0.259 v 1.94 0 c 0,0.094 0.062,0.188 0.186,0.259 l 25.201,14.55 c 0.248,0.143 0.65,0.143 0.897,0 l 18.073,-10.434 v -1.94 z" />
				<path
   id="XMLID_3519_"
   style="fill:#f0f0f0"
   d="m 178.587,287.04 -0.226,0.131 -2.941,1.697 -0.547,0.317 -14.359,8.288 c -0.249,0.143 -0.651,0.143 -0.897,0 l -25.203,-14.551 c -0.247,-0.143 -0.247,-0.375 0,-0.518 l 0.241,-0.139 17.833,-10.295 25.876,14.939 0.054,0.033 z" />
				<path
   id="XMLID_3518_"
   style="fill:#e0e0e0"
   d="m 160.064,297.581 v 1.939 c -0.162,0 -0.325,-0.035 -0.448,-0.108 l -25.203,-14.551 c -0.122,-0.07 -0.184,-0.164 -0.184,-0.259 v -1.94 c 0,0.093 0.062,0.186 0.184,0.259 l 25.203,14.551 c 0.122,0.074 0.286,0.109 0.448,0.109 z" />
			</g>
			<path
   id="XMLID_3516_"
   style="fill:#ffffff"
   d="m 178.587,286.781 -3.254,1.878 -0.51,0.294 -14.309,8.261 c -0.249,0.143 -0.651,0.143 -0.897,0 l -22.568,-13.03 c -0.203,-0.112 -0.392,-0.222 -0.568,-0.328 -0.918,-0.559 -1.471,-1.059 -1.826,-1.592 -0.015,-0.023 -0.029,-0.044 -0.044,-0.066 -0.029,-0.044 -0.048,-0.089 -0.056,-0.135 -0.041,-0.199 0.091,-0.39 0.315,-0.456 0.437,-0.13 1.098,-0.363 1.702,-0.709 0.008,-0.004 0.014,-0.008 0.023,-0.012 l 15.893,-9.175 z" />
			<g
   id="XMLID_3442_">
				<g
   id="XMLID_3503_">
					<path
   id="XMLID_3508_"
   style="opacity:0.1"
   d="m 175.218,286.553 c -0.23,0.134 -0.23,0.352 0,0.486 0.23,0.134 0.605,0.134 0.838,0 0.233,-0.134 0.233,-0.352 0,-0.486 -0.233,-0.134 -0.608,-0.134 -0.838,0 z" />
					<path
   id="XMLID_3506_"
   style="fill:#263238"
   d="m 177.911,284.982 c -0.319,-0.184 -0.719,-0.155 -1.128,0.079 -0.632,0.367 -1.179,1.184 -1.417,2.039 0.095,0.031 0.203,0.044 0.309,0.037 0.22,-0.763 0.705,-1.482 1.264,-1.807 0.182,-0.104 0.357,-0.158 0.514,-0.158 0.11,0 0.211,0.027 0.303,0.079 0.27,0.155 0.425,0.535 0.425,1.038 0,0.083 -0.004,0.166 -0.014,0.249 l 0.294,0.17 c 0.021,-0.141 0.031,-0.282 0.031,-0.419 -10e-4,-0.617 -0.212,-1.094 -0.581,-1.307 z" />
					<path
   id="XMLID_3504_"
   style="fill:#263238"
   d="m 178.431,286.87 c -0.002,0.023 -0.008,0.048 -0.015,0.073 l -0.054,-0.033 z" />
				</g>
				<g
   id="XMLID_3496_">
					<path
   id="XMLID_3502_"
   style="opacity:0.1"
   d="m 172.693,285.095 c -0.23,0.134 -0.23,0.352 0,0.486 0.23,0.134 0.605,0.134 0.838,0 0.232,-0.134 0.232,-0.352 0,-0.486 -0.233,-0.135 -0.608,-0.135 -0.838,0 z" />
					<path
   id="XMLID_3500_"
   style="fill:#263238"
   d="m 175.386,283.523 c -0.319,-0.184 -0.719,-0.155 -1.128,0.079 -0.632,0.367 -1.179,1.184 -1.418,2.039 0.095,0.031 0.203,0.044 0.309,0.037 0.22,-0.763 0.705,-1.482 1.264,-1.807 0.182,-0.104 0.357,-0.158 0.514,-0.158 0.11,0 0.211,0.027 0.302,0.079 0.27,0.155 0.425,0.535 0.425,1.038 0,0.083 -0.004,0.166 -0.014,0.249 l 0.294,0.17 c 0.021,-0.141 0.031,-0.282 0.031,-0.419 0.001,-0.617 -0.211,-1.093 -0.579,-1.307 z" />
				</g>
				<g
   id="XMLID_3491_">
					<path
   id="XMLID_3495_"
   style="opacity:0.1"
   d="m 170.167,283.636 c -0.23,0.134 -0.23,0.352 0,0.486 0.23,0.134 0.605,0.134 0.838,0 0.233,-0.134 0.233,-0.352 0,-0.486 -0.233,-0.134 -0.608,-0.134 -0.838,0 z" />
					<path
   id="XMLID_3492_"
   style="fill:#263238"
   d="m 172.859,282.065 c -0.319,-0.184 -0.719,-0.155 -1.128,0.079 -0.632,0.367 -1.179,1.184 -1.418,2.039 0.095,0.031 0.203,0.044 0.309,0.037 0.22,-0.763 0.705,-1.482 1.264,-1.807 0.182,-0.104 0.356,-0.158 0.514,-0.158 0.11,0 0.211,0.027 0.303,0.079 0.269,0.155 0.425,0.535 0.425,1.038 0,0.083 -0.004,0.166 -0.015,0.249 l 0.294,0.17 c 0.021,-0.141 0.031,-0.282 0.031,-0.419 0.002,-0.617 -0.21,-1.094 -0.579,-1.307 z" />
				</g>
				<g
   id="XMLID_3485_">
					<path
   id="XMLID_3490_"
   style="opacity:0.1"
   d="m 167.641,282.178 c -0.23,0.134 -0.23,0.352 0,0.486 0.23,0.134 0.605,0.134 0.838,0 0.232,-0.134 0.232,-0.352 0,-0.486 -0.233,-0.134 -0.608,-0.134 -0.838,0 z" />
					<path
   id="XMLID_3486_"
   style="fill:#263238"
   d="m 170.334,280.607 c -0.319,-0.184 -0.719,-0.155 -1.127,0.079 -0.632,0.367 -1.179,1.183 -1.418,2.039 0.095,0.031 0.203,0.043 0.309,0.037 0.22,-0.763 0.705,-1.482 1.264,-1.807 0.182,-0.104 0.357,-0.158 0.514,-0.158 0.11,0 0.211,0.027 0.303,0.079 0.27,0.155 0.425,0.535 0.425,1.038 0,0.083 -0.004,0.166 -0.014,0.249 l 0.294,0.17 c 0.021,-0.141 0.031,-0.282 0.031,-0.419 -0.001,-0.617 -0.212,-1.094 -0.581,-1.307 z" />
				</g>
				<g
   id="XMLID_3481_">
					<path
   id="XMLID_3484_"
   style="opacity:0.1"
   d="m 165.115,280.72 c -0.23,0.134 -0.23,0.352 0,0.486 0.23,0.134 0.605,0.134 0.838,0 0.232,-0.134 0.232,-0.352 0,-0.486 -0.232,-0.134 -0.607,-0.134 -0.838,0 z" />
					<path
   id="XMLID_3482_"
   style="fill:#263238"
   d="m 167.808,279.149 c -0.319,-0.184 -0.719,-0.155 -1.128,0.079 -0.632,0.367 -1.179,1.184 -1.418,2.04 0.095,0.031 0.203,0.043 0.309,0.037 0.22,-0.763 0.705,-1.482 1.264,-1.807 0.182,-0.104 0.357,-0.158 0.514,-0.158 0.11,0 0.212,0.027 0.303,0.079 0.269,0.155 0.425,0.535 0.425,1.038 0,0.083 -0.004,0.166 -0.014,0.249 l 0.294,0.17 c 0.021,-0.141 0.031,-0.282 0.031,-0.419 0.001,-0.618 -0.211,-1.095 -0.58,-1.308 z" />
				</g>
				<g
   id="XMLID_3476_">
					<path
   id="XMLID_3479_"
   style="opacity:0.1"
   d="m 162.589,279.262 c -0.23,0.134 -0.23,0.352 0,0.486 0.23,0.134 0.605,0.134 0.838,0 0.233,-0.134 0.233,-0.352 0,-0.486 -0.232,-0.135 -0.608,-0.135 -0.838,0 z" />
					<path
   id="XMLID_3477_"
   style="fill:#263238"
   d="m 165.282,277.69 c -0.319,-0.184 -0.719,-0.155 -1.128,0.079 -0.632,0.367 -1.179,1.184 -1.418,2.039 0.095,0.031 0.203,0.043 0.309,0.037 0.22,-0.763 0.705,-1.482 1.264,-1.807 0.182,-0.104 0.357,-0.158 0.514,-0.158 0.11,0 0.211,0.027 0.303,0.079 0.269,0.155 0.425,0.535 0.425,1.038 0,0.083 -0.004,0.166 -0.015,0.249 l 0.294,0.17 c 0.021,-0.141 0.031,-0.282 0.031,-0.419 0.001,-0.617 -0.21,-1.093 -0.579,-1.307 z" />
				</g>
				<g
   id="XMLID_3472_">
					<path
   id="XMLID_3475_"
   style="opacity:0.1"
   d="m 160.064,277.803 c -0.23,0.134 -0.23,0.352 0,0.486 0.23,0.134 0.605,0.134 0.838,0 0.232,-0.134 0.232,-0.352 0,-0.486 -0.233,-0.134 -0.608,-0.134 -0.838,0 z" />
					<path
   id="XMLID_3473_"
   style="fill:#263238"
   d="m 162.757,276.232 c -0.319,-0.185 -0.719,-0.156 -1.128,0.079 -0.632,0.367 -1.179,1.184 -1.418,2.04 0.095,0.031 0.203,0.043 0.309,0.037 0.22,-0.763 0.705,-1.482 1.264,-1.807 0.182,-0.104 0.357,-0.157 0.514,-0.157 0.11,0 0.211,0.027 0.303,0.079 0.27,0.156 0.425,0.535 0.425,1.039 0,0.083 -0.004,0.166 -0.014,0.249 l 0.294,0.17 c 0.021,-0.141 0.031,-0.282 0.031,-0.419 0,-0.62 -0.212,-1.096 -0.58,-1.31 z" />
				</g>
				<g
   id="XMLID_3453_">
					<path
   id="XMLID_3457_"
   style="opacity:0.1"
   d="m 157.538,276.345 c -0.23,0.134 -0.23,0.352 0,0.486 0.23,0.134 0.605,0.134 0.838,0 0.232,-0.134 0.232,-0.352 0,-0.486 -0.233,-0.134 -0.608,-0.134 -0.838,0 z" />
					<path
   id="XMLID_3454_"
   style="fill:#263238"
   d="m 160.23,274.774 c -0.319,-0.185 -0.719,-0.155 -1.128,0.079 -0.632,0.367 -1.179,1.184 -1.418,2.039 0.095,0.031 0.203,0.044 0.309,0.037 0.22,-0.763 0.705,-1.482 1.264,-1.807 0.182,-0.104 0.357,-0.158 0.514,-0.158 0.11,0 0.211,0.027 0.303,0.079 0.27,0.155 0.425,0.535 0.425,1.038 0,0.083 -0.004,0.166 -0.014,0.249 l 0.294,0.17 c 0.021,-0.141 0.031,-0.282 0.031,-0.419 0.001,-0.617 -0.211,-1.094 -0.58,-1.307 z" />
				</g>
				<g
   id="XMLID_3447_">
					<path
   id="XMLID_3451_"
   style="opacity:0.1"
   d="m 155.012,274.887 c -0.23,0.134 -0.23,0.352 0,0.486 0.23,0.134 0.605,0.134 0.838,0 0.232,-0.134 0.232,-0.352 0,-0.486 -0.232,-0.134 -0.608,-0.134 -0.838,0 z" />
					<path
   id="XMLID_3449_"
   style="fill:#263238"
   d="m 157.705,273.315 c -0.319,-0.185 -0.719,-0.155 -1.127,0.079 -0.632,0.367 -1.179,1.183 -1.418,2.039 0.095,0.031 0.203,0.044 0.309,0.037 0.22,-0.763 0.705,-1.482 1.264,-1.807 0.182,-0.104 0.356,-0.157 0.514,-0.157 0.11,0 0.211,0.027 0.303,0.079 0.27,0.156 0.425,0.535 0.425,1.039 0,0.083 -0.004,0.166 -0.014,0.249 l 0.294,0.17 c 0.021,-0.141 0.031,-0.282 0.031,-0.419 -0.001,-0.619 -0.212,-1.095 -0.581,-1.309 z" />
				</g>
				<g
   id="XMLID_3443_">
					<path
   id="XMLID_3446_"
   style="opacity:0.1"
   d="m 152.486,273.429 c -0.23,0.134 -0.23,0.352 0,0.486 0.23,0.134 0.605,0.134 0.838,0 0.232,-0.134 0.232,-0.352 0,-0.486 -0.233,-0.135 -0.608,-0.135 -0.838,0 z" />
					<path
   id="XMLID_3444_"
   style="fill:#263238"
   d="m 155.179,271.857 c -0.319,-0.185 -0.719,-0.155 -1.127,0.079 -0.632,0.367 -1.179,1.184 -1.418,2.039 0.095,0.031 0.203,0.044 0.309,0.037 0.22,-0.763 0.705,-1.482 1.264,-1.807 0.182,-0.104 0.357,-0.158 0.514,-0.158 0.11,0 0.212,0.027 0.303,0.079 0.269,0.155 0.425,0.535 0.425,1.038 0,0.083 -0.004,0.166 -0.014,0.249 l 0.294,0.17 c 0.021,-0.141 0.031,-0.282 0.031,-0.419 -0.001,-0.617 -0.212,-1.093 -0.581,-1.307 z" />
				</g>
			</g>
			<g
   id="XMLID_3420_">
				
					<line
   id="XMLID_3441_"
   style="fill:none;stroke:#ebebeb;stroke-width:0.5692;stroke-linecap:round;stroke-miterlimit:10"
   x1="171.442"
   y1="286.302"
   x2="157.53799"
   y2="294.32999" />
				
					<line
   id="XMLID_3440_"
   style="fill:none;stroke:#ebebeb;stroke-width:0.5692;stroke-linecap:round;stroke-miterlimit:10"
   x1="169.758"
   y1="285.32999"
   x2="155.854"
   y2="293.358" />
				
					<line
   id="XMLID_3439_"
   style="fill:none;stroke:#ebebeb;stroke-width:0.5692;stroke-linecap:round;stroke-miterlimit:10"
   x1="168.07401"
   y1="284.358"
   x2="154.17"
   y2="292.38501" />
				
					<line
   id="XMLID_3438_"
   style="fill:none;stroke:#ebebeb;stroke-width:0.5692;stroke-linecap:round;stroke-miterlimit:10"
   x1="166.39"
   y1="283.38599"
   x2="152.48599"
   y2="291.41299" />
				
					<line
   id="XMLID_3437_"
   style="fill:none;stroke:#ebebeb;stroke-width:0.5692;stroke-linecap:round;stroke-miterlimit:10"
   x1="164.70599"
   y1="282.41299"
   x2="150.802"
   y2="290.44101" />
				
					<line
   id="XMLID_3436_"
   style="fill:none;stroke:#ebebeb;stroke-width:0.5692;stroke-linecap:round;stroke-miterlimit:10"
   x1="163.022"
   y1="281.44101"
   x2="149.118"
   y2="289.46899" />
				
					<line
   id="XMLID_3435_"
   style="fill:none;stroke:#ebebeb;stroke-width:0.5692;stroke-linecap:round;stroke-miterlimit:10"
   x1="161.339"
   y1="280.46899"
   x2="147.43401"
   y2="288.496" />
				
					<line
   id="XMLID_3434_"
   style="fill:none;stroke:#ebebeb;stroke-width:0.5692;stroke-linecap:round;stroke-miterlimit:10"
   x1="159.65401"
   y1="279.496"
   x2="145.75"
   y2="287.52399" />
				
					<line
   id="XMLID_3433_"
   style="fill:none;stroke:#ebebeb;stroke-width:0.5692;stroke-linecap:round;stroke-miterlimit:10"
   x1="157.97099"
   y1="278.52399"
   x2="144.06599"
   y2="286.552" />
				
					<line
   id="XMLID_3424_"
   style="fill:none;stroke:#ebebeb;stroke-width:0.5692;stroke-linecap:round;stroke-miterlimit:10"
   x1="156.286"
   y1="277.552"
   x2="142.382"
   y2="285.57999" />
				
					<line
   id="XMLID_3423_"
   style="fill:none;stroke:#ebebeb;stroke-width:0.5692;stroke-linecap:round;stroke-miterlimit:10"
   x1="154.603"
   y1="276.57999"
   x2="140.698"
   y2="284.608" />
				
					<line
   id="XMLID_3422_"
   style="fill:none;stroke:#ebebeb;stroke-width:0.5692;stroke-linecap:round;stroke-miterlimit:10"
   x1="152.91901"
   y1="275.60699"
   x2="139.01401"
   y2="283.63501" />
				
					<line
   id="XMLID_3421_"
   style="fill:none;stroke:#ebebeb;stroke-width:0.5692;stroke-linecap:round;stroke-miterlimit:10"
   x1="151.235"
   y1="274.63501"
   x2="137.33"
   y2="282.66299" />
			</g>
			<g
   id="XMLID_3417_">
				
					<line
   id="XMLID_3418_"
   style="fill:none;stroke:#27debf;stroke-width:0.5692;stroke-linecap:round;stroke-miterlimit:10"
   x1="173.955"
   y1="286.79599"
   x2="159.248"
   y2="295.302" />
			</g>
			<g
   id="XMLID_2976_"
   style="opacity:0.25">
				<g
   id="XMLID_3409_">
					<path
   id="XMLID_3414_"
   style="fill:#455a64"
   d="m 166.599,285.017 c -0.128,-0.195 -0.366,-0.272 -0.568,-0.364 -0.083,-0.038 -0.176,-0.089 -0.275,-0.14 -0.129,-0.206 -0.298,-0.541 -0.073,-0.583 0.134,-0.025 0.395,0.116 0.541,0.159 0.082,0.024 0.063,-0.095 0.006,-0.117 -0.248,-0.097 -0.721,-0.405 -0.823,0.017 -0.028,0.114 -0.001,0.249 0.057,0.388 -0.124,-0.048 -0.249,-0.078 -0.365,-0.067 -0.117,0.011 -0.217,0.014 -0.258,0.151 -0.022,0.075 0.01,0.108 0.015,0.165 0.007,0.086 0.093,0.114 0.118,0.12 -0.013,-0.002 -0.051,-0.007 -0.132,-0.01 -0.175,-0.007 -0.654,-0.123 -0.766,0.095 -0.046,0.09 0.059,0.215 0.044,0.249 -0.007,0.016 -0.349,0.131 -0.408,0.168 -0.027,0.016 -0.009,0.111 -0.024,0.12 -0.052,0.03 -0.404,-0.005 -0.506,0.004 -0.279,0.023 -0.968,-0.081 -0.878,0.348 0.01,0.047 0.047,0.04 0.056,0.115 0.007,0.061 0.015,0.091 0.021,0.105 -0.01,-0.002 -0.029,0.007 -0.066,0.058 -0.024,0.033 -0.12,0.023 -0.154,0.066 -0.132,0.165 0.07,0.223 -0.095,0.327 -0.232,0.145 -0.715,-0.149 -0.951,0.014 -0.21,0.145 0.063,0.561 -0.307,0.569 -0.082,0.001 -0.034,0.122 0.028,0.128 0.346,0.03 0.309,-0.035 0.375,-0.318 0.108,-0.462 0.797,-0.144 1.184,-0.25 0.045,-0.012 0.049,-0.068 0.028,-0.101 -0.101,-0.164 0.017,-0.254 0.17,-0.325 0.042,-0.02 0.05,-0.06 0.028,-0.1 -0.041,-0.076 -0.188,-0.305 -0.098,-0.414 0.021,-0.025 0.362,-0.045 0.41,-0.048 0.3,-0.017 0.599,-0.031 0.9,-0.016 0.042,0.002 0.074,-0.048 0.058,-0.085 -0.043,-0.097 0.345,-0.158 0.432,-0.178 0.034,-0.008 0.049,-0.052 0.037,-0.082 -0.186,-0.462 0.499,-0.292 0.783,-0.247 0.055,0.009 0.094,-0.034 0.079,-0.087 -0.045,-0.155 -0.388,-0.312 0.019,-0.369 0.08,-0.011 0.192,0.023 0.312,0.075 0.187,0.317 0.501,0.623 0.711,0.733 0.269,0.135 0.542,0.042 0.335,-0.273 z m -0.126,0.084 c 0.085,0.114 -0.183,0.022 -0.216,0.007 -0.158,-0.071 -0.262,-0.243 -0.356,-0.38 0.083,0.045 0.157,0.086 0.212,0.111 0.146,0.068 0.261,0.129 0.36,0.262 z" />
					<path
   id="XMLID_3410_"
   style="fill:#455a64"
   d="m 159.645,287.947 c -0.051,-0.201 -0.057,-0.421 0.13,-0.445 0.09,-0.012 0.026,-0.134 -0.041,-0.136 -0.252,-0.008 -0.33,0.21 -0.298,0.473 -0.116,-0.052 -0.225,-0.09 -0.312,-0.106 -0.163,-0.031 -0.269,-0.036 -0.323,0.131 -0.032,0.099 0.048,0.164 0.041,0.254 -0.009,0.132 0.123,0.077 -0.075,0.129 -0.05,0.013 -0.172,-0.021 -0.23,-0.024 -0.199,-0.009 -0.217,0.004 -0.338,0.106 -0.124,0.104 0.183,0.154 -0.181,0.096 -0.093,-0.015 -0.188,-0.061 -0.285,-0.039 -0.134,0.03 -0.204,0.068 -0.182,0.216 0.01,0.066 0.154,0.154 0.152,0.197 -0.008,0.32 -0.347,0.049 -0.478,0.001 -0.036,-0.013 -0.081,0.009 -0.082,0.05 -0.006,0.158 0.105,0.214 -0.124,0.228 -0.028,0.002 -0.186,-0.087 -0.236,-0.088 -0.148,-0.003 -0.283,0.193 -0.476,0.176 -0.053,-0.004 -0.07,0.043 -0.055,0.086 0.053,0.144 0.132,0.232 -0.159,0.356 -0.007,0.003 -0.342,-0.042 -0.335,-0.042 -0.083,-0.002 -0.03,0.135 0.034,0.14 0.133,0.01 0.582,0.199 0.715,0.02 0.098,-0.132 -0.095,-0.285 -0.047,-0.37 -0.032,0.055 0.256,-0.079 0.288,-0.089 0.048,-0.016 0.164,-0.065 0.225,-0.062 0.04,0.002 0.074,0.065 0.117,0.065 0.056,0 0.116,0.027 0.167,-0.003 0.039,-0.023 0.063,-0.094 0.083,-0.107 0.051,-0.034 -0.066,-0.074 0.035,-0.109 0.073,-0.025 0.136,0.049 0.204,0.07 0.109,0.034 0.273,0.115 0.366,-0.002 0.121,-0.151 -0.101,-0.257 -0.081,-0.358 0.047,-0.228 0.372,-0.055 0.521,-0.156 0.023,-0.016 0.028,-0.045 0.021,-0.07 -0.092,-0.315 0.479,-0.068 0.659,-0.102 0.032,-0.006 0.066,-0.027 0.061,-0.065 -0.004,-0.029 -0.072,-0.195 -0.071,-0.198 0.045,-0.189 0.305,-0.168 0.424,-0.136 0.116,0.383 0.419,0.769 0.751,0.666 0.025,-0.008 0.044,-0.031 0.042,-0.058 -0.023,-0.255 -0.319,-0.517 -0.627,-0.695 z m 0.119,0.315 c -0.011,-0.02 -0.027,-0.052 -0.043,-0.09 0.111,0.082 0.215,0.178 0.233,0.23 0.063,0.19 -0.159,-0.087 -0.19,-0.14 z" />
				</g>
				<g
   id="XMLID_3221_">
					<path
   id="XMLID_3248_"
   style="fill:#455a64"
   d="m 164.697,290 c -0.128,-0.195 -0.365,-0.273 -0.568,-0.364 -0.083,-0.038 -0.177,-0.089 -0.275,-0.14 -0.129,-0.206 -0.298,-0.541 -0.073,-0.583 0.134,-0.025 0.395,0.116 0.541,0.159 0.081,0.024 0.063,-0.095 0.006,-0.118 -0.248,-0.097 -0.722,-0.404 -0.823,0.017 -0.027,0.114 -0.001,0.249 0.057,0.387 -0.124,-0.048 -0.249,-0.078 -0.365,-0.067 -0.117,0.011 -0.217,0.014 -0.258,0.151 -0.022,0.075 0.01,0.108 0.015,0.165 0.007,0.086 0.093,0.114 0.118,0.12 -0.014,-0.002 -0.051,-0.007 -0.132,-0.01 -0.175,-0.007 -0.654,-0.123 -0.766,0.095 -0.046,0.09 0.059,0.215 0.044,0.249 -0.007,0.016 -0.349,0.131 -0.409,0.168 -0.027,0.016 -0.009,0.111 -0.024,0.12 -0.052,0.03 -0.404,-0.005 -0.506,0.004 -0.279,0.023 -0.968,-0.081 -0.878,0.348 0.01,0.047 0.047,0.04 0.056,0.115 0.007,0.061 0.015,0.091 0.021,0.104 -0.01,-0.002 -0.029,0.007 -0.066,0.058 -0.024,0.033 -0.12,0.023 -0.154,0.066 -0.132,0.165 0.07,0.223 -0.095,0.327 -0.232,0.145 -0.715,-0.149 -0.951,0.014 -0.21,0.145 0.063,0.561 -0.307,0.569 -0.082,0.002 -0.034,0.122 0.028,0.128 0.346,0.03 0.309,-0.035 0.375,-0.318 0.108,-0.461 0.797,-0.143 1.184,-0.25 0.045,-0.012 0.049,-0.068 0.028,-0.101 -0.102,-0.164 0.017,-0.254 0.17,-0.325 0.042,-0.02 0.05,-0.06 0.028,-0.1 -0.042,-0.076 -0.188,-0.305 -0.098,-0.414 0.021,-0.025 0.362,-0.045 0.41,-0.048 0.3,-0.016 0.599,-0.031 0.9,-0.016 0.042,0.002 0.074,-0.047 0.057,-0.085 -0.043,-0.097 0.346,-0.158 0.432,-0.178 0.034,-0.008 0.049,-0.052 0.037,-0.082 -0.186,-0.462 0.499,-0.292 0.783,-0.247 0.055,0.009 0.095,-0.034 0.079,-0.087 -0.045,-0.156 -0.388,-0.312 0.019,-0.369 0.08,-0.011 0.192,0.023 0.312,0.075 0.187,0.317 0.501,0.623 0.711,0.733 0.271,0.138 0.544,0.044 0.337,-0.27 z m -0.126,0.083 c 0.085,0.114 -0.183,0.022 -0.216,0.007 -0.158,-0.071 -0.262,-0.243 -0.356,-0.38 0.083,0.046 0.157,0.087 0.211,0.112 0.147,0.067 0.263,0.129 0.361,0.261 z" />
					<path
   id="XMLID_3226_"
   style="fill:#455a64"
   d="m 168.971,286.467 c -0.051,-0.201 -0.057,-0.421 0.13,-0.445 0.089,-0.012 0.026,-0.134 -0.041,-0.136 -0.252,-0.008 -0.331,0.21 -0.298,0.473 -0.116,-0.052 -0.225,-0.09 -0.312,-0.106 -0.163,-0.031 -0.269,-0.036 -0.323,0.131 -0.032,0.099 0.048,0.164 0.042,0.254 -0.009,0.132 0.123,0.077 -0.075,0.129 -0.05,0.013 -0.172,-0.021 -0.23,-0.024 -0.199,-0.009 -0.217,0.004 -0.338,0.105 -0.124,0.104 0.183,0.154 -0.181,0.096 -0.092,-0.015 -0.188,-0.061 -0.285,-0.039 -0.134,0.03 -0.204,0.069 -0.182,0.216 0.01,0.066 0.153,0.155 0.152,0.197 -0.008,0.32 -0.347,0.049 -0.478,0.001 -0.036,-0.013 -0.081,0.01 -0.082,0.05 -0.006,0.158 0.105,0.214 -0.124,0.228 -0.028,0.002 -0.186,-0.087 -0.236,-0.088 -0.148,-0.004 -0.283,0.193 -0.476,0.177 -0.053,-0.004 -0.071,0.043 -0.055,0.086 0.053,0.144 0.132,0.232 -0.159,0.356 -0.007,0.003 -0.342,-0.042 -0.335,-0.042 -0.084,-0.002 -0.03,0.135 0.034,0.14 0.133,0.01 0.582,0.2 0.715,0.02 0.098,-0.132 -0.095,-0.286 -0.047,-0.37 -0.032,0.055 0.256,-0.079 0.288,-0.09 0.048,-0.016 0.164,-0.065 0.225,-0.062 0.04,0.002 0.074,0.065 0.117,0.065 0.056,-10e-4 0.116,0.027 0.167,-0.003 0.039,-0.023 0.063,-0.094 0.083,-0.107 0.051,-0.034 -0.066,-0.074 0.035,-0.109 0.073,-0.025 0.136,0.049 0.204,0.07 0.109,0.034 0.273,0.115 0.366,-0.002 0.121,-0.151 -0.102,-0.257 -0.081,-0.359 0.047,-0.228 0.372,-0.055 0.521,-0.156 0.023,-0.016 0.028,-0.045 0.021,-0.07 -0.092,-0.315 0.479,-0.068 0.659,-0.102 0.032,-0.006 0.066,-0.027 0.061,-0.065 -0.004,-0.029 -0.071,-0.195 -0.071,-0.198 0.045,-0.189 0.305,-0.168 0.424,-0.136 0.116,0.383 0.419,0.769 0.751,0.666 0.025,-0.008 0.044,-0.031 0.042,-0.058 -0.024,-0.253 -0.32,-0.515 -0.628,-0.693 z m 0.119,0.315 c -0.011,-0.02 -0.027,-0.052 -0.043,-0.09 0.111,0.082 0.215,0.178 0.233,0.229 0.064,0.191 -0.159,-0.086 -0.19,-0.139 z" />
				</g>
				<g
   id="XMLID_3204_">
					<path
   id="XMLID_3214_"
   style="fill:#455a64"
   d="m 156.328,279.341 c -0.128,-0.195 -0.365,-0.273 -0.568,-0.364 -0.083,-0.038 -0.177,-0.089 -0.275,-0.14 -0.129,-0.206 -0.298,-0.541 -0.073,-0.583 0.134,-0.025 0.395,0.116 0.541,0.159 0.081,0.024 0.063,-0.095 0.006,-0.117 -0.248,-0.097 -0.722,-0.405 -0.823,0.017 -0.027,0.114 -0.001,0.248 0.057,0.387 -0.124,-0.048 -0.249,-0.078 -0.365,-0.067 -0.117,0.011 -0.217,0.014 -0.258,0.151 -0.022,0.075 0.01,0.108 0.015,0.165 0.007,0.086 0.093,0.114 0.118,0.12 -0.014,-0.002 -0.051,-0.007 -0.132,-0.01 -0.175,-0.007 -0.654,-0.123 -0.766,0.095 -0.046,0.09 0.059,0.215 0.044,0.249 -0.007,0.016 -0.349,0.131 -0.409,0.168 -0.027,0.016 -0.008,0.111 -0.024,0.12 -0.052,0.03 -0.404,-0.005 -0.506,0.004 -0.279,0.023 -0.968,-0.081 -0.878,0.348 0.01,0.047 0.047,0.04 0.056,0.115 0.007,0.061 0.015,0.091 0.021,0.104 -0.01,-0.002 -0.029,0.007 -0.066,0.058 -0.024,0.033 -0.12,0.023 -0.154,0.066 -0.132,0.166 0.07,0.223 -0.095,0.327 -0.232,0.145 -0.715,-0.149 -0.951,0.014 -0.21,0.145 0.063,0.561 -0.307,0.569 -0.082,0.002 -0.034,0.122 0.028,0.128 0.346,0.03 0.309,-0.035 0.375,-0.318 0.108,-0.461 0.797,-0.143 1.184,-0.25 0.045,-0.012 0.049,-0.068 0.028,-0.101 -0.102,-0.164 0.017,-0.254 0.17,-0.325 0.042,-0.02 0.051,-0.06 0.029,-0.1 -0.041,-0.076 -0.188,-0.306 -0.098,-0.414 0.021,-0.025 0.362,-0.045 0.41,-0.048 0.3,-0.017 0.599,-0.031 0.9,-0.016 0.042,0.002 0.075,-0.047 0.058,-0.085 -0.043,-0.097 0.346,-0.158 0.432,-0.178 0.034,-0.008 0.049,-0.052 0.037,-0.082 -0.186,-0.462 0.499,-0.292 0.783,-0.247 0.055,0.009 0.094,-0.034 0.079,-0.087 -0.044,-0.156 -0.388,-0.312 0.019,-0.369 0.08,-0.011 0.192,0.023 0.312,0.075 0.187,0.317 0.501,0.623 0.711,0.733 0.269,0.136 0.542,0.043 0.335,-0.271 z m -0.126,0.083 c 0.085,0.114 -0.183,0.022 -0.216,0.007 -0.158,-0.071 -0.262,-0.243 -0.356,-0.38 0.083,0.045 0.157,0.087 0.212,0.112 0.146,0.067 0.261,0.128 0.36,0.261 z" />
					<path
   id="XMLID_3205_"
   style="fill:#455a64"
   d="m 149.374,282.27 c -0.051,-0.201 -0.057,-0.421 0.13,-0.445 0.09,-0.012 0.026,-0.134 -0.041,-0.136 -0.252,-0.008 -0.33,0.21 -0.298,0.473 -0.116,-0.052 -0.225,-0.09 -0.312,-0.106 -0.163,-0.031 -0.269,-0.036 -0.323,0.131 -0.032,0.099 0.048,0.164 0.042,0.254 -0.009,0.132 0.123,0.077 -0.075,0.13 -0.05,0.013 -0.172,-0.022 -0.23,-0.024 -0.199,-0.009 -0.217,0.004 -0.338,0.106 -0.124,0.104 0.183,0.154 -0.181,0.096 -0.092,-0.015 -0.188,-0.061 -0.285,-0.04 -0.134,0.03 -0.204,0.069 -0.182,0.217 0.01,0.066 0.153,0.154 0.152,0.197 -0.008,0.32 -0.347,0.049 -0.478,0.001 -0.036,-0.013 -0.081,0.01 -0.082,0.05 -0.006,0.158 0.106,0.214 -0.125,0.228 -0.028,0.002 -0.186,-0.087 -0.236,-0.088 -0.148,-0.003 -0.283,0.193 -0.476,0.177 -0.053,-0.004 -0.071,0.043 -0.055,0.086 0.053,0.144 0.132,0.232 -0.159,0.356 -0.007,0.003 -0.342,-0.042 -0.335,-0.042 -0.084,-0.002 -0.03,0.135 0.034,0.14 0.133,0.01 0.582,0.2 0.715,0.02 0.098,-0.132 -0.095,-0.285 -0.047,-0.37 -0.032,0.055 0.256,-0.079 0.288,-0.089 0.048,-0.016 0.164,-0.065 0.225,-0.062 0.04,0.002 0.074,0.065 0.117,0.065 0.056,0 0.116,0.027 0.167,-0.003 0.039,-0.023 0.063,-0.094 0.083,-0.107 0.051,-0.034 -0.066,-0.075 0.034,-0.109 0.073,-0.025 0.136,0.049 0.204,0.07 0.109,0.034 0.273,0.115 0.366,-0.002 0.121,-0.151 -0.102,-0.257 -0.081,-0.358 0.047,-0.228 0.372,-0.055 0.521,-0.156 0.023,-0.016 0.028,-0.045 0.021,-0.07 -0.092,-0.315 0.479,-0.068 0.659,-0.102 0.032,-0.006 0.066,-0.027 0.061,-0.065 -0.004,-0.029 -0.072,-0.195 -0.071,-0.198 0.045,-0.189 0.305,-0.168 0.424,-0.136 0.116,0.383 0.419,0.769 0.751,0.666 0.024,-0.008 0.044,-0.031 0.042,-0.058 -0.022,-0.257 -0.318,-0.519 -0.626,-0.697 z m 0.119,0.315 c -0.011,-0.02 -0.027,-0.052 -0.043,-0.09 0.111,0.082 0.215,0.178 0.233,0.23 0.064,0.19 -0.159,-0.087 -0.19,-0.14 z" />
				</g>
				<g
   id="XMLID_3054_">
					<path
   id="XMLID_3143_"
   style="fill:#455a64"
   d="m 154.426,284.323 c -0.128,-0.195 -0.366,-0.273 -0.568,-0.364 -0.083,-0.038 -0.176,-0.089 -0.275,-0.14 -0.128,-0.206 -0.298,-0.541 -0.073,-0.583 0.134,-0.025 0.395,0.116 0.541,0.159 0.081,0.024 0.063,-0.095 0.006,-0.118 -0.248,-0.097 -0.722,-0.404 -0.823,0.017 -0.028,0.114 -0.001,0.248 0.057,0.387 -0.124,-0.048 -0.249,-0.078 -0.365,-0.067 -0.117,0.011 -0.217,0.014 -0.258,0.151 -0.023,0.075 0.01,0.108 0.015,0.165 0.007,0.086 0.093,0.114 0.118,0.12 -0.013,-0.002 -0.051,-0.007 -0.132,-0.01 -0.175,-0.007 -0.654,-0.123 -0.766,0.095 -0.046,0.09 0.059,0.215 0.044,0.249 -0.007,0.016 -0.349,0.131 -0.409,0.168 -0.027,0.016 -0.009,0.111 -0.024,0.12 -0.052,0.03 -0.404,-0.005 -0.506,0.003 -0.279,0.023 -0.968,-0.081 -0.878,0.348 0.01,0.047 0.047,0.04 0.056,0.115 0.007,0.061 0.015,0.091 0.021,0.104 -0.01,-0.002 -0.029,0.007 -0.066,0.058 -0.023,0.033 -0.119,0.023 -0.154,0.066 -0.132,0.166 0.07,0.223 -0.095,0.327 -0.232,0.145 -0.715,-0.149 -0.951,0.014 -0.21,0.145 0.063,0.561 -0.307,0.569 -0.082,0.002 -0.034,0.122 0.028,0.128 0.346,0.03 0.309,-0.035 0.375,-0.318 0.109,-0.462 0.797,-0.143 1.184,-0.25 0.045,-0.012 0.049,-0.068 0.028,-0.101 -0.101,-0.164 0.017,-0.254 0.17,-0.325 0.042,-0.02 0.051,-0.06 0.028,-0.1 -0.041,-0.076 -0.188,-0.305 -0.098,-0.414 0.021,-0.025 0.362,-0.045 0.41,-0.048 0.3,-0.016 0.599,-0.031 0.9,-0.016 0.042,0.002 0.075,-0.047 0.058,-0.085 -0.043,-0.097 0.345,-0.158 0.432,-0.178 0.034,-0.008 0.049,-0.052 0.037,-0.082 -0.186,-0.462 0.499,-0.292 0.783,-0.247 0.055,0.009 0.094,-0.034 0.079,-0.087 -0.045,-0.156 -0.388,-0.312 0.019,-0.369 0.08,-0.011 0.192,0.023 0.312,0.075 0.187,0.317 0.501,0.623 0.711,0.733 0.27,0.139 0.544,0.045 0.336,-0.269 z m -0.125,0.083 c 0.085,0.114 -0.183,0.021 -0.216,0.007 -0.158,-0.071 -0.262,-0.243 -0.357,-0.38 0.083,0.045 0.157,0.086 0.212,0.112 0.146,0.067 0.262,0.128 0.361,0.261 z" />
					<path
   id="XMLID_3062_"
   style="fill:#455a64"
   d="m 158.7,280.79 c -0.051,-0.201 -0.057,-0.421 0.13,-0.445 0.09,-0.012 0.026,-0.134 -0.041,-0.136 -0.252,-0.008 -0.33,0.21 -0.298,0.473 -0.116,-0.052 -0.225,-0.09 -0.312,-0.106 -0.163,-0.031 -0.269,-0.036 -0.323,0.131 -0.032,0.099 0.048,0.164 0.042,0.254 -0.009,0.132 0.123,0.077 -0.075,0.129 -0.05,0.013 -0.171,-0.021 -0.23,-0.024 -0.199,-0.009 -0.217,0.004 -0.338,0.106 -0.124,0.104 0.183,0.154 -0.181,0.095 -0.092,-0.015 -0.188,-0.061 -0.285,-0.039 -0.134,0.03 -0.204,0.068 -0.182,0.216 0.01,0.066 0.153,0.154 0.152,0.197 -0.008,0.32 -0.347,0.049 -0.478,10e-4 -0.036,-0.013 -0.081,0.009 -0.082,0.05 -0.006,0.158 0.105,0.214 -0.124,0.228 -0.028,0.002 -0.186,-0.087 -0.236,-0.088 -0.148,-0.003 -0.283,0.193 -0.476,0.177 -0.053,-0.004 -0.071,0.043 -0.055,0.086 0.053,0.144 0.132,0.232 -0.159,0.356 -0.007,0.003 -0.342,-0.042 -0.335,-0.042 -0.083,-0.002 -0.03,0.135 0.034,0.14 0.133,0.01 0.582,0.199 0.715,0.02 0.098,-0.132 -0.095,-0.285 -0.047,-0.37 -0.032,0.055 0.256,-0.079 0.288,-0.089 0.048,-0.016 0.164,-0.065 0.225,-0.062 0.04,0.002 0.074,0.065 0.117,0.065 0.056,0 0.116,0.027 0.167,-0.003 0.039,-0.023 0.063,-0.094 0.083,-0.107 0.051,-0.034 -0.066,-0.074 0.034,-0.109 0.073,-0.025 0.136,0.049 0.204,0.07 0.108,0.034 0.273,0.115 0.366,-0.002 0.121,-0.151 -0.102,-0.257 -0.081,-0.358 0.047,-0.228 0.372,-0.055 0.521,-0.156 0.023,-0.016 0.028,-0.045 0.021,-0.07 -0.092,-0.315 0.479,-0.068 0.659,-0.102 0.032,-0.006 0.066,-0.027 0.061,-0.065 -0.004,-0.029 -0.071,-0.195 -0.071,-0.198 0.045,-0.189 0.305,-0.168 0.424,-0.136 0.116,0.383 0.419,0.769 0.751,0.666 0.025,-0.008 0.044,-0.031 0.042,-0.058 -0.023,-0.255 -0.319,-0.517 -0.627,-0.695 z m 0.119,0.315 c -0.012,-0.02 -0.027,-0.052 -0.044,-0.09 0.111,0.082 0.215,0.178 0.233,0.23 0.065,0.19 -0.158,-0.087 -0.189,-0.14 z" />
				</g>
				<g
   id="XMLID_2997_">
					<path
   id="XMLID_3028_"
   style="fill:#455a64"
   d="m 155.482,287.751 c -0.128,-0.195 -0.366,-0.273 -0.568,-0.364 -0.083,-0.038 -0.176,-0.089 -0.275,-0.14 -0.129,-0.206 -0.298,-0.541 -0.073,-0.583 0.134,-0.025 0.395,0.116 0.541,0.159 0.082,0.024 0.063,-0.095 0.006,-0.118 -0.248,-0.097 -0.722,-0.404 -0.823,0.017 -0.028,0.114 -0.001,0.249 0.057,0.388 -0.124,-0.048 -0.249,-0.078 -0.365,-0.067 -0.117,0.011 -0.217,0.014 -0.258,0.151 -0.022,0.075 0.01,0.108 0.015,0.165 0.007,0.087 0.093,0.114 0.118,0.12 -0.014,-0.002 -0.051,-0.007 -0.132,-0.01 -0.175,-0.007 -0.655,-0.123 -0.766,0.095 -0.046,0.09 0.059,0.215 0.044,0.249 -0.007,0.016 -0.349,0.131 -0.408,0.168 -0.027,0.017 -0.009,0.111 -0.024,0.12 -0.052,0.03 -0.404,-0.005 -0.506,0.004 -0.279,0.023 -0.968,-0.081 -0.878,0.348 0.01,0.047 0.047,0.04 0.056,0.115 0.007,0.061 0.015,0.091 0.021,0.105 -0.01,-0.002 -0.029,0.007 -0.066,0.058 -0.024,0.033 -0.12,0.023 -0.154,0.066 -0.132,0.166 0.07,0.223 -0.095,0.327 -0.232,0.145 -0.715,-0.149 -0.951,0.014 -0.21,0.145 0.063,0.561 -0.307,0.569 -0.082,0.002 -0.034,0.122 0.028,0.128 0.346,0.03 0.309,-0.035 0.375,-0.318 0.108,-0.462 0.797,-0.143 1.184,-0.25 0.045,-0.012 0.049,-0.068 0.028,-0.101 -0.101,-0.164 0.017,-0.254 0.17,-0.325 0.042,-0.02 0.05,-0.06 0.028,-0.1 -0.041,-0.076 -0.188,-0.305 -0.098,-0.414 0.021,-0.025 0.362,-0.045 0.41,-0.048 0.3,-0.016 0.599,-0.031 0.9,-0.016 0.042,0.002 0.074,-0.047 0.057,-0.085 -0.043,-0.096 0.346,-0.158 0.432,-0.177 0.034,-0.008 0.049,-0.052 0.037,-0.082 -0.186,-0.462 0.499,-0.292 0.783,-0.247 0.055,0.009 0.094,-0.034 0.079,-0.087 -0.045,-0.156 -0.388,-0.312 0.019,-0.369 0.08,-0.011 0.192,0.023 0.312,0.075 0.187,0.317 0.501,0.623 0.711,0.733 0.27,0.135 0.543,0.042 0.336,-0.273 z m -0.126,0.084 c 0.085,0.114 -0.183,0.022 -0.216,0.007 -0.158,-0.071 -0.262,-0.243 -0.357,-0.38 0.083,0.046 0.157,0.087 0.212,0.112 0.147,0.067 0.263,0.128 0.361,0.261 z" />
					<path
   id="XMLID_3003_"
   style="fill:#455a64"
   d="m 158.868,284.531 c -0.051,-0.201 -0.057,-0.421 0.13,-0.445 0.09,-0.012 0.026,-0.134 -0.041,-0.136 -0.252,-0.008 -0.33,0.21 -0.298,0.473 -0.116,-0.052 -0.225,-0.09 -0.312,-0.106 -0.163,-0.031 -0.269,-0.036 -0.323,0.131 -0.032,0.099 0.048,0.164 0.042,0.254 -0.009,0.132 0.123,0.077 -0.075,0.129 -0.05,0.013 -0.172,-0.021 -0.23,-0.024 -0.199,-0.009 -0.217,0.004 -0.338,0.105 -0.124,0.104 0.183,0.154 -0.181,0.095 -0.092,-0.015 -0.188,-0.061 -0.285,-0.039 -0.134,0.03 -0.204,0.069 -0.182,0.216 0.01,0.066 0.153,0.155 0.152,0.197 -0.008,0.32 -0.347,0.049 -0.478,0.001 -0.036,-0.013 -0.08,0.01 -0.082,0.05 -0.006,0.158 0.106,0.214 -0.124,0.228 -0.028,0.002 -0.186,-0.087 -0.236,-0.088 -0.148,-0.003 -0.283,0.193 -0.476,0.177 -0.053,-0.004 -0.071,0.043 -0.055,0.086 0.053,0.144 0.131,0.232 -0.159,0.356 -0.007,0.003 -0.342,-0.042 -0.342,-0.042 -0.076,-0.002 -0.023,0.135 0.042,0.14 0.133,0.01 0.582,0.199 0.715,0.02 0.098,-0.132 -0.095,-0.286 -0.047,-0.37 -0.032,0.055 0.256,-0.079 0.288,-0.09 0.048,-0.016 0.164,-0.065 0.225,-0.062 0.041,0.002 0.074,0.065 0.117,0.065 0.056,0 0.116,0.027 0.167,-0.003 0.039,-0.023 0.063,-0.094 0.083,-0.107 0.051,-0.034 -0.066,-0.075 0.034,-0.109 0.073,-0.025 0.136,0.049 0.204,0.07 0.108,0.034 0.273,0.115 0.366,-0.002 0.121,-0.151 -0.102,-0.257 -0.081,-0.359 0.046,-0.228 0.372,-0.055 0.521,-0.156 0.023,-0.016 0.028,-0.045 0.021,-0.07 -0.092,-0.315 0.479,-0.068 0.659,-0.102 0.032,-0.006 0.066,-0.027 0.061,-0.065 -0.004,-0.029 -0.072,-0.195 -0.071,-0.198 0.045,-0.189 0.305,-0.168 0.424,-0.136 0.116,0.383 0.419,0.769 0.751,0.666 0.024,-0.008 0.044,-0.031 0.042,-0.058 -0.024,-0.252 -0.32,-0.513 -0.628,-0.692 z m 0.119,0.316 c -0.012,-0.02 -0.027,-0.052 -0.043,-0.09 0.111,0.082 0.215,0.178 0.233,0.229 0.063,0.191 -0.159,-0.086 -0.19,-0.139 z" />
					<path
   id="XMLID_3001_"
   style="fill:#455a64"
   d="m 162.745,281.923 c 0.004,-0.026 0.005,-0.051 -0.002,-0.076 -0.054,-0.196 -0.281,-0.049 -0.319,0.071 -0.032,0.099 0.048,0.164 0.041,0.254 -0.009,0.132 0.123,0.077 -0.075,0.129 -0.05,0.013 -0.172,-0.021 -0.23,-0.024 -0.199,-0.009 -0.217,0.004 -0.338,0.105 -0.124,0.104 0.183,0.154 -0.181,0.096 -0.093,-0.015 -0.188,-0.061 -0.285,-0.039 -0.134,0.03 -0.204,0.069 -0.182,0.216 0.01,0.066 0.154,0.155 0.152,0.197 -0.008,0.32 -0.347,0.049 -0.478,0.001 -0.036,-0.013 -0.081,0.01 -0.082,0.05 -0.006,0.158 0.105,0.214 -0.125,0.228 -0.028,0.002 -0.186,-0.087 -0.236,-0.088 -0.148,-0.003 -0.283,0.193 -0.476,0.177 -0.053,-0.004 -0.07,0.043 -0.055,0.086 0.053,0.144 0.131,0.232 -0.159,0.356 -0.007,0.003 -0.342,-0.042 -0.342,-0.042 -0.076,-0.002 -0.023,0.135 0.042,0.14 0.133,0.01 0.582,0.199 0.715,0.02 0.098,-0.132 -0.095,-0.285 -0.047,-0.37 -0.032,0.055 0.256,-0.079 0.288,-0.09 0.048,-0.016 0.164,-0.065 0.225,-0.061 0.04,0.002 0.074,0.065 0.117,0.065 0.056,0 0.116,0.027 0.167,-0.003 0.039,-0.023 0.063,-0.094 0.083,-0.107 0.051,-0.034 -0.066,-0.075 0.035,-0.109 0.073,-0.025 0.136,0.049 0.204,0.07 0.109,0.034 0.273,0.115 0.366,-0.002 0.121,-0.151 -0.102,-0.257 -0.081,-0.359 0.046,-0.228 0.372,-0.055 0.521,-0.156 0.023,-0.016 0.028,-0.045 0.021,-0.07 -0.092,-0.315 0.479,-0.068 0.659,-0.102 0.032,-0.006 0.066,-0.027 0.061,-0.065 -0.018,-0.147 -0.066,-0.249 -0.026,-0.405 0.007,-0.032 0.017,-0.062 0.022,-0.093 z" />
				</g>
			</g>
		</g>
		<g
   id="Green_Pencil">
			<polygon
   id="Shadow_30_"
   style="opacity:0.1;fill:#455a64"
   points="194.528,290.468 190.214,291.611 171.333,302.512 173.71,303.884 192.457,292.906 " />
			<g
   id="XMLID_3647_">
				<g
   id="XMLID_3649_">
					<path
   id="XMLID_3694_"
   style="fill:#ffa8a7"
   d="m 190.386,289.94 3.994,-0.782 c 0.116,-0.023 0.195,0.115 0.117,0.204 l -2.71,3.068 z" />
					<path
   id="XMLID_3693_"
   style="fill:#263238"
   d="m 194.497,289.362 c 0.078,-0.089 0,-0.226 -0.117,-0.204 l -0.78,0.153 v 0 c 0.218,0.135 0.343,0.381 0.322,0.638 l -0.006,0.07 z" />
					<path
   id="XMLID_3692_"
   style="fill:#27debf"
   d="m 176.893,300.971 0.327,-0.188 0.395,-0.225 14.172,-8.129 c 0.148,-0.434 0.076,-0.909 -0.111,-1.325 -0.283,-0.634 -0.833,-1.134 -1.289,-1.164 l -14.163,8.124 -0.754,0.432 c 0.503,-0.25 1.925,2.215 1.423,2.475 z" />
					<path
   id="XMLID_3691_"
   style="fill:#ebebeb"
   d="m 178.139,300.262 0.729,-0.42 c 0.215,-0.115 0.092,-0.643 -0.16,-1.19 -0.333,-0.727 -0.989,-1.431 -1.274,-1.28 l -0.538,0.309 -0.19,0.114 c 0.286,-0.151 0.942,0.552 1.275,1.28 0.241,0.524 0.363,1.035 0.18,1.173 l -0.002,0.001 c -0.005,0.005 -0.011,0.009 -0.02,0.013 z" />
					<path
   id="XMLID_3690_"
   style="fill:#27debf"
   d="m 178.32,300.155 c 0.501,-0.265 -0.933,-2.734 -1.433,-2.469 l -0.731,0.418 c 0.501,-0.265 1.934,2.203 1.433,2.468 z" />
					<path
   id="XMLID_3689_"
   style="fill:#ebebeb"
   d="m 176.893,300.971 0.722,-0.412 c 0.493,-0.257 -0.87,-2.651 -1.391,-2.493 -0.01,0.001 -0.02,0.006 -0.03,0.011 l -0.724,0.421 c 0.503,-0.252 1.925,2.213 1.423,2.473 z" />
					<path
   id="XMLID_3688_"
   style="opacity:0.15"
   d="m 194.515,289.227 -0.135,-0.069 -2.898,1.585 -14.986,8.599 c -0.028,-0.045 -0.051,-0.048 -0.07,-0.017 0.426,0.664 0.748,1.5 0.467,1.646 l 0.327,-0.188 0.395,-0.225 14.172,-8.129 v 0 l 2.71,-3.068 c 0.036,-0.041 0.038,-0.093 0.018,-0.134 z" />
					<path
   id="XMLID_3650_"
   style="fill:#f28f8f"
   d="m 173.831,302.723 3.062,-1.752 c 0.215,-0.111 0.096,-0.635 -0.152,-1.179 -0.331,-0.729 -0.984,-1.439 -1.272,-1.294 0,0 -0.002,0 -0.004,0.001 l -3.071,1.759 c -0.61,0.352 -0.049,1.677 0.632,2.269 0.253,0.223 0.537,0.322 0.805,0.196 z" />
				</g>
				<path
   id="XMLID_3648_"
   style="opacity:0.1"
   d="m 174.014,301.773 c -0.176,-0.69 -0.735,-1.367 -1.249,-1.511 -0.189,-0.053 -0.345,-0.027 -0.458,0.062 -0.461,0.428 0.076,1.643 0.719,2.203 0.248,0.219 0.525,0.317 0.789,0.202 0.23,-0.134 0.318,-0.488 0.199,-0.956 z" />
			</g>
		</g>
		<g
   id="Papers_1_">
			<path
   id="Shadow_27_"
   style="opacity:0.1;fill:#455a64"
   d="m 223.194,330.636 c 0.447,0 0.874,-0.104 1.201,-0.293 l 20.015,-11.555 c 0.388,-0.224 0.61,-0.558 0.61,-0.917 0,-0.358 -0.222,-0.692 -0.61,-0.915 l -3.572,-2.062 1.711,-0.988 c 0.388,-0.224 0.61,-0.558 0.61,-0.916 0,-0.358 -0.222,-0.692 -0.61,-0.916 l -29.456,-17.007 c -0.327,-0.189 -0.753,-0.293 -1.2,-0.293 -0.447,0 -0.873,0.104 -1.2,0.293 l -20.015,11.556 c -0.388,0.224 -0.61,0.558 -0.61,0.916 0,0.359 0.222,0.692 0.61,0.916 l 3.572,2.062 -1.711,0.988 c -0.387,0.224 -0.61,0.558 -0.61,0.915 0,0.359 0.222,0.692 0.61,0.917 l 29.456,17.006 c 0.326,0.19 0.753,0.293 1.199,0.293 z" />
			<g
   id="XMLID_3633_">
				<path
   id="XMLID_3646_"
   style="fill:#ebebeb"
   d="m 192.316,310.871 c 0,-0.21 0.139,-0.421 0.417,-0.581 l 20.015,-11.556 c 0.556,-0.321 1.457,-0.321 2.013,0 l 29.456,17.007 c 0.278,0.16 0.417,0.37 0.417,0.581 v 0.914 c -0.002,0.209 -0.141,0.417 -0.417,0.576 l -20.015,11.555 c -0.556,0.321 -1.457,0.321 -2.013,0 l -29.455,-17.006 c -0.274,-0.158 -0.413,-0.365 -0.417,-0.572 v -0.918 z" />
				<path
   id="XMLID_3635_"
   style="fill:#ffffff"
   d="M 244.216,315.74 214.76,298.733 c -0.556,-0.321 -1.457,-0.321 -2.013,0 l -20.015,11.556 c -0.556,0.321 -0.556,0.841 0,1.162 l 29.455,17.006 c 0.556,0.321 1.457,0.321 2.013,0 l 20.015,-11.555 c 0.557,-0.321 0.557,-0.841 0.001,-1.162 z" />
				<path
   id="XMLID_3634_"
   style="fill:#e0e0e0"
   d="m 223.196,328.698 v 0.906 c 0.364,0 0.728,-0.077 1.007,-0.24 l 20.01,-11.55 c 0.279,-0.163 0.418,-0.372 0.418,-0.581 v -0.914 c 0,0.217 -0.14,0.418 -0.418,0.581 l -20.01,11.558 c -0.279,0.163 -0.643,0.24 -1.007,0.24 z" />
			</g>
			<g
   id="XMLID_3623_">
				<path
   id="XMLID_3632_"
   style="fill:#ebebeb"
   d="m 190.455,305.988 c 0,-0.21 0.139,-0.421 0.417,-0.581 l 20.015,-11.556 c 0.556,-0.321 1.457,-0.321 2.013,0 l 29.456,17.006 c 0.278,0.16 0.417,0.371 0.417,0.581 v 0.914 c -0.002,0.209 -0.141,0.417 -0.417,0.576 l -20.015,11.555 c -0.556,0.321 -1.457,0.321 -2.013,0 l -29.455,-17.006 c -0.274,-0.158 -0.413,-0.365 -0.417,-0.573 z" />
				<path
   id="XMLID_3631_"
   style="fill:#ffffff"
   d="m 242.355,310.858 -29.456,-17.006 c -0.556,-0.321 -1.457,-0.321 -2.013,0 l -20.015,11.556 c -0.556,0.321 -0.556,0.841 0,1.162 l 29.455,17.006 c 0.556,0.321 1.457,0.321 2.013,0 l 20.015,-11.555 c 0.557,-0.322 0.557,-0.842 10e-4,-1.163 z" />
				<path
   id="XMLID_3624_"
   style="fill:#e0e0e0"
   d="m 221.335,323.816 v 0.906 c 0.364,0 0.728,-0.077 1.007,-0.24 l 20.01,-11.551 c 0.279,-0.163 0.418,-0.372 0.418,-0.581 v -0.914 c 0,0.217 -0.14,0.418 -0.418,0.581 l -20.01,11.558 c -0.278,0.164 -0.643,0.241 -1.007,0.241 z" />
			</g>
		</g>
		<g
   id="Folder">
			<g
   id="XMLID_3372_"
   style="opacity:0.1">
				<path
   id="XMLID_3375_"
   style="fill:#455a64"
   d="m 269.299,305.546 c -0.407,0 -0.787,-0.095 -1.097,-0.274 l -30.807,-17.788 c -0.425,-0.244 -0.674,-0.629 -0.683,-1.054 -0.01,-0.426 0.223,-0.821 0.636,-1.084 l 25.445,-16.174 c 0.33,-0.21 0.756,-0.324 1.201,-0.324 0.409,0 0.79,0.095 1.102,0.275 l 9.166,5.292 c 0.757,0.436 1.048,1.424 0.65,2.201 l -0.372,0.727 c -0.068,0.134 -0.014,0.317 0.115,0.391 l 18.462,10.749 c 0.422,0.245 0.671,0.63 0.68,1.055 0.01,0.426 -0.221,0.822 -0.633,1.087 l -22.661,14.591 c -0.328,0.214 -0.756,0.33 -1.204,0.33 z" />
			</g>
			<g
   id="XMLID_3736_">
				<path
   id="XMLID_15283_"
   style="fill:#27debf"
   d="m 269.748,303.717 23.077,-13.359 c 0.454,-0.263 0.453,-0.686 -0.004,-0.946 L 261.179,271.41 c -0.456,-0.259 -1.194,-0.257 -1.648,0.005 l -22.865,13.201 c -0.454,0.262 -0.454,0.688 0,0.95 l 31.437,18.151 c 0.454,0.264 1.191,0.263 1.645,0 z" />
			</g>
			<g
   id="XMLID_3737_"
   style="opacity:0.2">
				<path
   id="XMLID_3738_"
   style="fill:#455a64"
   d="m 269.748,303.717 23.077,-13.359 c 0.454,-0.263 0.453,-0.686 -0.004,-0.946 L 261.179,271.41 c -0.456,-0.259 -1.194,-0.257 -1.648,0.005 l -22.865,13.201 c -0.454,0.262 -0.454,0.688 0,0.95 l 31.437,18.151 c 0.454,0.264 1.191,0.263 1.645,0 z" />
			</g>
			<g
   id="XMLID_3735_">
				<path
   id="XMLID_15281_"
   style="fill:#27debf"
   d="m 236.645,284.583 25.966,-16.505 c 0.443,-0.282 1.17,-0.297 1.624,-0.035 l 9.353,5.4 c 0.454,0.262 0.629,0.853 0.39,1.32 l -0.38,0.743 c -0.239,0.467 -0.065,1.06 0.388,1.323 l 18.84,10.968 c 0.453,0.264 0.463,0.708 0.022,0.992 l -23.124,14.889 c -0.441,0.284 -1.167,0.302 -1.621,0.039 l -31.437,-18.151 c -0.454,-0.261 -0.464,-0.701 -0.021,-0.983 z" />
			</g>
		</g>
		<g
   id="Black_pencil">
			<polyline
   id="Shadow_31_"
   style="opacity:0.1;fill:#455a64"
   points="329.967,273.066 310.161,284.478 312.538,285.851      332.21,274.361    " />
			<g
   id="Pencil_1_">
				<g
   id="XMLID_3670_">
					<g
   id="XMLID_3671_">
						<path
   id="XMLID_3687_"
   style="fill:#f28f8f"
   d="m 331.896,273.626 2.358,-2.799 c 0.069,-0.081 -0.005,-0.203 -0.109,-0.181 l -3.595,0.792 z" />
						<path
   id="XMLID_3686_"
   style="fill:#ffa8a7"
   d="m 334.164,270.646 c -0.006,0 -0.012,0 -0.019,10e-4 l -3.595,0.792 0.712,1.157 0.387,-0.234 2.511,-1.587 z" />
						<path
   id="XMLID_3685_"
   style="fill:#263238"
   d="m 334.145,270.647 c 0.104,-0.023 0.178,0.099 0.109,0.181 l -0.46,0.547 v 0 c -0.011,-0.231 -0.15,-0.436 -0.361,-0.532 l -0.057,-0.026 z" />
						<path
   id="XMLID_3684_"
   style="fill:#37474f"
   d="m 314.287,281.254 0.29,-0.175 0.349,-0.213 15.623,-9.428 c 0.406,0.073 0.748,0.337 0.993,0.665 0.375,0.499 0.528,1.15 0.352,1.521 l -15.616,9.424 -0.669,0.404 c 0.42,-0.285 -0.898,-2.478 -1.322,-2.198 z" />
						<path
   id="XMLID_3682_"
   style="fill:#455a64"
   d="m 314.287,281.254 0.29,-0.175 0.349,-0.212 15.623,-9.428 c 0.521,0.127 0.891,0.44 1.144,0.895 l -16.299,9.944 c 0.023,0.042 0.016,0.061 -0.018,0.062 -0.335,-0.625 -0.852,-1.243 -1.089,-1.086 z" />
						<path
   id="XMLID_3677_"
   style="fill:#ebebeb"
   d="m 315.389,280.584 0.648,-0.39 c 0.184,-0.119 0.546,0.208 0.866,0.645 0.427,0.579 0.694,1.402 0.45,1.56 l -0.477,0.288 -0.172,0.1 c 0.244,-0.159 -0.023,-0.982 -0.45,-1.561 -0.307,-0.418 -0.655,-0.737 -0.844,-0.654 l -0.002,10e-4 c -0.007,0.003 -0.013,0.006 -0.019,0.011 z" />
						<path
   id="XMLID_3675_"
   style="fill:#37474f"
   d="m 315.552,280.488 c 0.427,-0.278 1.742,1.926 1.315,2.204 l -0.648,0.392 c 0.427,-0.278 -0.888,-2.482 -1.315,-2.204 z" />
						<path
   id="XMLID_3674_"
   style="fill:#ebebeb"
   d="m 314.287,281.254 0.639,-0.388 c 0.417,-0.276 1.704,1.84 1.353,2.182 -0.005,0.007 -0.014,0.013 -0.022,0.018 l -0.647,0.385 c 0.419,-0.284 -0.899,-2.477 -1.323,-2.197 z" />
						<path
   id="XMLID_3673_"
   style="fill:#ffa8a7"
   d="m 334.259,270.691 c -0.02,-0.028 -0.053,-0.049 -0.092,-0.047 0.038,-0.001 0.072,0.018 0.092,0.047 z" />
						<path
   id="XMLID_3672_"
   style="fill:#f28f8f"
   d="m 311.574,282.897 2.713,-1.643 c 0.181,-0.12 0.541,0.202 0.861,0.634 0.429,0.578 0.702,1.401 0.462,1.564 0,10e-4 0,10e-4 -0.002,0.003 l -2.723,1.647 c -0.543,0.326 -1.34,-0.693 -1.508,-1.487 -0.065,-0.296 -0.02,-0.562 0.197,-0.718 z" />
					</g>
				</g>
				<path
   id="XMLID_3651_"
   style="opacity:0.1"
   d="m 312.4,283.168 c 0.466,0.439 0.754,1.174 0.643,1.641 -0.041,0.172 -0.129,0.283 -0.248,0.333 -0.537,0.176 -1.259,-0.776 -1.418,-1.527 -0.064,-0.291 -0.02,-0.551 0.186,-0.709 0.205,-0.121 0.521,-0.036 0.837,0.262 z" />
			</g>
		</g>
	</g>
</g>
</svg>
