<?xml version="1.0" encoding="UTF-8" standalone="no"?>
<!-- Generator: Adobe Illustrator 27.5.0, SVG Export Plug-In . SVG Version: 6.00 Build 0)  -->

<svg
   version="1.1"
   x="0px"
   y="0px"
   viewBox="0 0 1200 427"
   xml:space="preserve"
   id="svg395"
   sodipodi:docname="no-worries.svg"
   inkscape:version="1.1.2 (0a00cf5339, 2022-02-04)"
   width="1200"
   height="427"
   xmlns:inkscape="http://www.inkscape.org/namespaces/inkscape"
   xmlns:sodipodi="http://sodipodi.sourceforge.net/DTD/sodipodi-0.dtd"
   xmlns:xlink="http://www.w3.org/1999/xlink"
   xmlns="http://www.w3.org/2000/svg"
   xmlns:svg="http://www.w3.org/2000/svg"><defs
   id="defs399">
	
	
</defs><sodipodi:namedview
   id="namedview397"
   pagecolor="#ffffff"
   bordercolor="#666666"
   borderopacity="1.0"
   inkscape:pageshadow="2"
   inkscape:pageopacity="0.0"
   inkscape:pagecheckerboard="0"
   showgrid="false"
   inkscape:zoom="0.55795164"
   inkscape:cx="704.36213"
   inkscape:cy="560.98052"
   inkscape:window-width="1920"
   inkscape:window-height="1008"
   inkscape:window-x="0"
   inkscape:window-y="0"
   inkscape:window-maximized="1"
   inkscape:current-layer="g312"
   viewbox-width="1200" />

<g
   id="g312"
   transform="matrix(-1,0,0,0.87956771,1202.892,-12.584042)">
		<defs
   id="defs6">
			<rect
   id="SVGID_1_"
   width="750"
   height="500"
   x="0"
   y="0" />
		</defs>
		
		
			<linearGradient
   id="SVGID_00000010294863955397978860000015332659117126227856_"
   gradientUnits="userSpaceOnUse"
   x1="92.899902"
   y1="-112.5635"
   x2="89.024399"
   y2="340.85959"
   gradientTransform="matrix(0.85400283,0,0,1,-57.491602,-0.56375213)">
			<stop
   offset="0"
   style="stop-color:#4D36FF"
   id="stop11" />
			<stop
   offset="0.9955"
   style="stop-color:#0091E6"
   id="stop13" />
		</linearGradient>
		
			<path
   style="fill:url(#SVGID_00000010294863955397978860000015332659117126227856_);stroke-width:0.924123"
   d="m 88.129549,33.428248 c -7.264143,29.344 -11.086662,59.692004 -16.154315,89.671002 -5.596282,33.106 -13.035494,66.372 -26.482623,96.417 -13.868152,30.984 -35.8220002,57.402 -55.778341,83.12 -8.762073,11.291 -18.302988,22.201 -30.036134,28.835 -6.545929,3.702 -13.929644,6.006 -21.099846,4.599 -16.290958,-3.196 -25.741354,-23.892 -28.134269,-43.029 -4.195716,-33.561 5.480987,-67.041 11.780116,-100.147 8.461452,-44.472 11.025169,-90.755 24.79938,-133.366002 18.696685,-57.8370001 57.736576,-105.397 104.70502,-133.674 14.303697,-8.611 29.984893,-15.675 46.030718,-14.39 10.549495,0.845 21.274065,6.01 28.669725,14.997 13.08931,15.907 -4.9182,28.305 -12.84762,41.569 -11.41972,19.102 -19.235557,40.9029999 -24.892434,63.171 -0.188737,0.742 -0.374908,1.484 -0.559377,2.227 z"
   clip-path="none"
   id="path16" />
			
		
		
			<linearGradient
   id="SVGID_00000070840924981523833580000015495217856018314390_"
   gradientUnits="userSpaceOnUse"
   x1="13.1709"
   y1="-105.5989"
   x2="9.6225996"
   y2="309.55429"
   gradientTransform="matrix(0.85400283,0,0,1,-57.491602,-0.56375213)">
			<stop
   offset="0"
   style="stop-color:#6D24FF"
   id="stop18" />
			<stop
   offset="0.8346"
   style="stop-color:#2842C7"
   id="stop20" />
			<stop
   offset="1"
   style="stop-color:#2842C7"
   id="stop22" />
		</linearGradient>
		
			<path
   style="fill:url(#SVGID_00000070840924981523833580000015495217856018314390_);stroke-width:0.924123"
   d="M 42.793105,7.4692479 C 42.314866,26.703248 39.950131,45.925248 36.640019,64.800248 29.472374,105.67925 16.812632,137.88625 -8.9107862,166.63125 c -11.1353428,12.444 -23.8830478,22.99 -33.7638558,36.812 -6.687695,9.356 -11.908216,20.004 -17.016861,30.638 -9.780044,20.36 -28.758542,76.052 -55.919257,71.185 -13.28486,-2.382 -20.50887,-28.006 -22.09988,-40.729 -4.19657,-33.561 5.48099,-67.04 11.78012,-100.147 8.46146,-44.472 11.02517,-90.754998 24.79939,-133.366002 8.259052,-25.5490001 20.566088,-49.196 35.697309,-69.954 21.96666,-30.134 56.8680516,-64.877998 90.142567,-31.419 11.201949,11.264 15.380586,29.357 17.040765,46.538 1.005168,10.393 1.302359,20.8379999 1.043594,31.2799999 z"
   clip-path="none"
   id="path25" />
		
			<linearGradient
   id="SVGID_00000028311988579445966540000017225970341441154229_"
   gradientUnits="userSpaceOnUse"
   x1="202.71919"
   y1="-141.27609"
   x2="196.897"
   y2="539.91968"
   gradientTransform="matrix(0.85400283,0,0,1,-57.491602,-0.56375213)">
			<stop
   offset="0"
   style="stop-color:#6D24FF"
   id="stop27" />
			<stop
   offset="0.8346"
   style="stop-color:#2842C7"
   id="stop29" />
			<stop
   offset="1"
   style="stop-color:#2842C7"
   id="stop31" />
		</linearGradient>
		
			<path
   style="fill:url(#SVGID_00000028311988579445966540000017225970341441154229_);stroke-width:0.924123"
   d="m -29.746745,530.45425 c -21.374844,0.977 -43.861591,3.414 -65.201412,1.922 -17.693233,-1.237 -24.986413,-17.844 -26.302433,-36.867 -2.69011,-38.894 -3.28706,-90.96 18.11682,-123.84 16.185058,-24.863 35.114884,-48.49 54.812461,-69.568 18.254306,-19.533 37.67775,-37.375 52.4118601,-60.898 15.9655869,-25.49 27.8567229,-54.484 35.5931349,-84.742 8.282114,-32.392 11.470105,-66.229998 17.560852,-99.281002 6.090756,-33.052 15.530895,-66.2790001 34.219045,-92.055 16.086817,-22.188 38.079947,-37.491 60.893737,-49.044 27.46988,-13.911 57.28828,-23.022998 87.15702,-20.802998 29.86874,2.22 59.81861,16.748998 78.93548,43.712998 21.43549,30.235 33.7365,74.05 28.52197,113.149 -3.58085,26.853004 -13.89978,51.785002 -24.99924,75.656002 -5.61846,12.084 -11.60672,24.525 -12.48546,38.246 -1.90192,29.696 17.51474,54.312 23.41333,82.127 19.14156,90.253 -29.72705,171.276 -88.60369,222.947 -16.02707,14.065 -33.31124,26.89 -52.3879,34.449 -19.58913,7.761 -41.10831,8.545 -61.513,11.366 -53.171039,7.349 -106.655528,11.079 -160.142575,13.523 z"
   clip-path="none"
   id="path34" />
		
			<linearGradient
   id="SVGID_00000023282041338125109870000003519134809145235886_"
   gradientUnits="userSpaceOnUse"
   x1="395.40701"
   y1="106.8801"
   x2="-64.432899"
   y2="492.58939"
   gradientTransform="matrix(0.85400283,0,0,1,-57.491602,-0.56375213)">
			<stop
   offset="0"
   style="stop-color:#4D36FF"
   id="stop36" />
			<stop
   offset="0.9955"
   style="stop-color:#B000B0"
   id="stop38" />
		</linearGradient>
		
			<path
   style="fill:url(#SVGID_00000023282041338125109870000003519134809145235886_);stroke-width:0.924123"
   d="m 110.83148,127.52725 c -18.080951,31.72 -28.407525,68.736 -45.976918,100.848 -24.023103,43.909 -60.1849974,76.335 -93.210994,111.318 -33.025997,34.983 -64.70694,75.865 -74.725248,126.675 -3.7004,18.768 -3.91561,39.883 5.400714,55.758 13.357455,22.761 41.166352,26.526 64.25517,20.889 56.780945,-13.864 99.889299,-68.902 128.734064,-127.826 28.844792,-58.924 47.557712,-124.296 78.832142,-181.496 18.68904,-34.181 41.60446,-64.949 60.76057,-98.774 12.22932,-21.595 36.2559,-77.593002 1.19396,-88.836002 -28.14282,-9.024 -65.11346,14.583 -86.67964,33.604004 -15.02957,13.256 -28.13766,29.512998 -38.58382,47.839998 z"
   clip-path="none"
   id="path41" />
		
			<linearGradient
   id="SVGID_00000173867231411651078230000011767005198008446137_"
   gradientUnits="userSpaceOnUse"
   x1="355.05399"
   y1="216.806"
   x2="10.6685"
   y2="505.67319"
   gradientTransform="matrix(0.85400283,0,0,1,-57.491602,-0.56375213)">
			<stop
   offset="0"
   style="stop-color:#4D36FF"
   id="stop43" />
			<stop
   offset="0.9955"
   style="stop-color:#0087B0"
   id="stop45" />
		</linearGradient>
		
			<path
   style="opacity:0.15;fill:url(#SVGID_00000173867231411651078230000011767005198008446137_);stroke-width:0.924123"
   d="m 63.079086,393.68325 c 27.843054,-56.899 37.714434,-124.106 66.589984,-180.296 12.43514,-24.198 30.91579,-47.692 54.94907,-50.051 26.40579,-2.592 50.48185,23 57.94412,52.772 7.46227,29.772 1.52268,62.024 -8.39912,90.795 -20.39187,59.132 -57.33862,109.461 -101.7476,146.376 -40.956234,34.044 -88.04253,57.013 -136.600278,71.341 -8.227463,2.428 -24.752418,10.081 -32.639988,3.377 -6.051465,-5.143 -4.10092,-15.479 -0.26901,-21.604 5.642399,-9.017 17.4951,-13.633 25.354489,-19.708 9.5204232,-7.36 18.5865202,-15.525 27.109473,-24.405 18.894812,-19.685 35.131111,-42.894 47.70886,-68.597 z"
   clip-path="none"
   id="path48" />
		
			<linearGradient
   id="SVGID_00000101078690004331963090000006809539070727079320_"
   gradientUnits="userSpaceOnUse"
   x1="467.62909"
   y1="219.4498"
   x2="129.3172"
   y2="569.03882"
   gradientTransform="matrix(0.85400283,0,0,1,-57.491602,-0.56375213)">
			<stop
   offset="0"
   style="stop-color:#4D36FF"
   id="stop50" />
			<stop
   offset="0.9955"
   style="stop-color:#0091E6"
   id="stop52" />
		</linearGradient>
		
			<path
   style="fill:url(#SVGID_00000101078690004331963090000006809539070727079320_);stroke-width:0.924123"
   d="m 44.601029,471.69525 c 9.300949,-9.797 20.915386,-15.919 31.998633,-22.715 41.623208,-25.524 78.413648,-63.173 101.974758,-110.774 11.22502,-22.678 19.34912,-47.29 30.26579,-70.173 10.91676,-22.883 25.26314,-44.61 45.10851,-56.736 12.28478,-7.507 27.38787,-10.873 39.98012,-4.097 4.92417,2.649 9.21552,6.71 12.99361,11.259 15.97584,19.241 22.80872,47.236 21.63107,74.037 -1.17765,26.801 -9.70234,52.545 -20.97514,75.91 -21.32361,44.197 -52.95072,81.5 -90.53973,106.787 -19.08266,12.837 -39.56932,22.583 -60.33011,31.133 -30.10021,12.395 -65.614742,28.825 -97.743186,30.905 -11.382142,0.737 -21.909435,-7.837 -26.669651,-20.07 -6.285462,-16.151 1.970182,-34.58 12.305326,-45.466 z"
   clip-path="none"
   id="path55" />
		
			<linearGradient
   id="SVGID_00000015319432393976490740000014948355475330342326_"
   gradientUnits="userSpaceOnUse"
   x1="222.33859"
   y1="65.598198"
   x2="218.4397"
   y2="521.76727"
   gradientTransform="matrix(0.85400283,0,0,1,-57.491602,-0.56375213)">
			<stop
   offset="0"
   style="stop-color:#4D36FF"
   id="stop57" />
			<stop
   offset="0.9955"
   style="stop-color:#B000B0"
   id="stop59" />
		</linearGradient>
		
			<path
   style="opacity:0.36;fill:url(#SVGID_00000015319432393976490740000014948355475330342326_);stroke-width:0.924123"
   d="m 261.08042,212.09625 c -1.89671,34.505 0.99496,70.558 -10.62463,102.345 -6.35287,17.381 -16.71792,32.357 -28.0036,45.878 -21.04436,25.211 -45.57301,46.052 -70.57559,65.691 -25.82509,20.285 -52.302588,39.432 -79.355656,57.388 -23.965029,15.906 -49.330619,31.204 -76.8209697,33.273 -9.8142013,0.739 -22.1220853,-2.456 -24.4381473,-13.647 -0.865959,-4.184 -0.01878,-8.621 1.415936,-12.584 6.923403,-19.119 25.3690115,-27.866 41.702672,-35.956 68.762599,-34.06 131.735035,-92.379 161.341555,-172.637 17.29016,-46.871 22.76772,-99.531 44.86338,-143.546 9.8979,-19.717 39.16027,-60.341998 62.70684,-44.373998 19.00074,12.884998 -5.65523,49.699998 -11.29247,63.576998 -6.88834,16.957 -9.89447,35.962 -10.91932,54.592 z"
   clip-path="none"
   id="path62" />
		<g
   clip-path="none"
   id="g150"
   transform="matrix(0.85400283,0,0,1,-57.491592,-0.56375213)">
			<g
   id="g68">
				<path
   style="fill:#d49a85"
   d="m 310.365,234.253 c -1.317,0.442 -3.631,1.929 -4.529,2.085 -5.236,0.91 -5.571,4.996 -4.148,9.671 0.469,1.542 1.341,3.016 2.686,3.904 1.345,0.888 3.209,1.08 4.566,0.21 1.169,-0.749 1.776,-2.099 2.614,-3.206 2.679,-3.539 5.613,-0.455 6.539,2.663 0.635,2.14 4.063,1.446 3.421,-0.717 -0.339,-1.142 -0.804,-2.145 -1.367,-3.045 1.462,1.541 2.948,4.916 5.343,3.868 2.357,-1.032 0.74,-2.045 -0.287,-3.351 -0.841,-1.068 -1.725,-2.096 -2.672,-3.075 -1.653,-1.709 -3.603,-3.884 -2.385,-2.775 1.632,1.486 2.902,3.328 4.584,4.774 0.773,0.664 1.85,1.656 2.927,1.751 0.913,0.08 2.783,-0.853 2.467,-2.026 -0.033,-0.122 -0.1,-0.228 -0.181,-0.327 -0.052,-0.064 -0.109,-0.124 -0.165,-0.183 -3.558,-3.731 -10.195,-11.177 -14.074,-11.089 -1.495,0.034 -3.821,0.358 -5.339,0.868 z"
   id="path64" />
				<path
   style="fill:#f6bd94"
   d="m 325.91,235.748 c -0.435,-0.119 -0.879,-0.141 -1.227,-0.042 -0.495,0.14 -0.93,0.432 -1.355,0.72 -2.233,1.51 -4.645,2.907 -6.783,4.524 -1.934,1.462 -3.378,3.511 -5.263,5.04 -1.441,1.169 -2.441,0.739 -2.474,-1.151 -0.039,-2.261 0.011,-5.384 1.036,-7.457 0.833,-1.684 2.981,-3.076 4.414,-4.276 2.367,-1.981 4.741,-3.967 7.315,-5.67 2.033,-1.345 3.453,-2.735 4.12,-5.15 0.346,-1.251 0.353,-2.647 -0.259,-3.792 -0.074,-0.139 -0.163,-0.28 -0.301,-0.357 -0.111,-0.062 -0.241,-0.076 -0.368,-0.076 -1.176,0.001 -2.025,1.062 -2.831,1.918 -2.796,2.968 -6.644,5.158 -9.958,7.505 -5.691,4.032 -11.891,8.593 -14.466,15.298 -2.581,6.721 -4.424,14.135 -9.349,19.625 -1.367,1.524 -2.994,2.789 -4.503,4.172 -1.458,1.336 -3.543,3.056 -4.442,4.846 -0.928,1.848 -0.227,2.074 1.497,3.236 3.463,2.334 7.452,3.917 11.297,5.492 2.75,1.127 7.678,-9.833 9.368,-11.529 1.507,-1.512 3.575,-2.308 5.298,-3.567 4.574,-3.343 4.676,-8.221 7.118,-12.769 1.747,-3.253 4.207,-5.511 7.276,-7.523 1.936,-1.269 3.827,-2.99 5.242,-4.816 0.546,-0.704 1.441,-1.831 1.23,-2.806 -0.147,-0.683 -0.876,-1.187 -1.632,-1.395 z"
   id="path66" />
			</g>
			<path
   id="XMLID_206_"
   style="fill:#6b5ccc"
   d="m 107.752,243.213 c -8.291,-0.99 -8.872,3.055 -11.66,6.987 -0.795,1.12 0.93,2.367 1.865,1.439 3.048,-3.024 7.037,-4.501 11.232,-5.072 1.394,-0.191 -0.67,-3.263 -1.437,-3.354 z" />
			<path
   id="XMLID_163_"
   style="fill:#241dab"
   d="m 124.396,242.268 c 0.05,0.884 0.089,1.768 0.131,2.652 -0.36,-0.118 -0.773,-0.065 -1.183,0.269 -0.617,0.504 -1.23,0.863 -1.903,1.088 -0.682,0.017 -1.371,0.127 -2.052,0.35 -1.639,0.536 -1.26,3.058 0.501,3.011 0.694,-0.019 1.367,-0.111 2.014,-0.279 1.209,0.072 2.333,0.671 3.068,1.75 0.844,1.24 4.898,0.569 4.854,-0.999 -0.077,-2.692 -1.345,-6.276 -2.351,-7.936 -1.026,-1.692 -3.19,-1.89 -3.079,0.094 z" />
			<path
   id="XMLID_126_"
   style="fill:#f6cca0"
   d="m 107.307,290.294 2.995,-1.726 c -1.706,-2.414 -1.985,-5.517 -2.358,-8.45 -0.015,-0.122 -0.032,-0.246 -0.049,-0.368 -0.731,-0.213 -1.411,-0.364 -1.971,-0.421 0.807,3.275 1.445,7.588 1.383,10.965 z" />
			<path
   id="XMLID_10_"
   style="fill:#f6bd94"
   d="m 130.462,304.686 c -0.428,-3.41 -0.087,-7.034 -0.056,-10.467 0.026,-2.983 0.212,-6.34 2.435,-8.33 0.762,-0.682 1.782,-1.242 2.009,-2.24 0.549,-2.412 -1.695,-3.192 -3.56,-3.192 -2.151,0 -4.42,-0.182 -6.499,-0.762 -1.69,-0.471 -2.185,-0.681 -3.708,0.446 -1.433,1.06 -4.324,4.764 -6.335,2.978 -1.398,-1.242 -4.425,-2.664 -6.852,-3.37 0.017,0.123 0.033,0.246 0.049,0.368 0.373,2.933 -1.213,2.485 -2.02,-0.79 0.561,0.058 1.24,0.208 1.971,0.421 -0.136,-0.04 -1.004,-4.466 -1.234,-4.979 -0.546,-1.219 -1.879,-3.773 -3.557,-3.275 -2.896,0.86 -1.44,9.849 -1.3,12.052 0.566,8.911 1.973,18.087 -0.483,26.848 -2.255,8.041 -3.74,14.536 -1.523,22.916 1.484,5.608 5.026,11.5 10.752,12.433 2.675,0.436 5.394,-0.304 7.963,-1.17 2.423,-0.817 4.84,-1.771 6.889,-3.301 4.135,-3.088 6.327,-8.239 6.947,-13.362 0.857,-7.086 -0.402,-15.042 -1.702,-22.031 -0.074,-0.393 -0.135,-0.791 -0.186,-1.193 z" />
			<path
   id="XMLID_119_"
   style="fill:#f6bd94"
   d="m 138.52,270.774 c -0.703,-2.844 -1.73,-5.6 -2.7,-8.439 -1.65,-4.829 -3.988,-9.425 -6.95,-13.582 -1.376,-1.932 -2.088,-2.73 -4.492,-2.474 -1.869,0.199 -3.71,0.876 -5.443,1.57 -3.15,1.262 -6.355,2.828 -9.126,4.806 -3.901,2.786 -2.977,5.07 -5.031,9.401 -3.464,7.306 -1.092,16.255 3.594,22.844 3.517,4.946 9.664,7.332 15.564,7.648 2.799,0.15 5.6,0.049 7.876,-1.706 2.509,-1.936 5.198,-3.544 6.506,-6.617 0.988,-2.32 1.13,-4.908 1.065,-7.429 -0.053,-2.085 -0.382,-4.074 -0.863,-6.022 z" />
			
			
			<g
   id="XMLID_96_">
				<path
   id="XMLID_108_"
   style="fill:#241dab"
   d="m 96.45,255.475 c 0.237,-1.085 -0.825,-1.735 -1.646,-1.361 -0.518,-0.459 -1.359,-0.526 -1.744,0.267 -1.005,2.07 -1.623,4.279 -1.858,6.516 -1.436,4.839 -0.922,10.031 3.676,13.374 0.581,0.422 1.296,0.082 1.622,-0.463 1.045,1.076 2.692,-0.588 1.658,-1.698 -4.234,-4.547 -2.901,-11.171 -1.708,-16.635 z" />
				
					<linearGradient
   id="SVGID_00000098929932478672342830000008730178020540256161_"
   gradientUnits="userSpaceOnUse"
   x1="150.92599"
   y1="237.8597"
   x2="82.633499"
   y2="268.41769">
					<stop
   offset="0"
   style="stop-color:#FF59BD"
   id="stop78" />
					<stop
   offset="0.4418"
   style="stop-color:#121261"
   id="stop80" />
					<stop
   offset="1"
   style="stop-color:#121261"
   id="stop82" />
				</linearGradient>
				<path
   style="fill:url(#SVGID_00000098929932478672342830000008730178020540256161_)"
   d="m 128.758,232.084 c -0.227,-1.377 -0.663,-2.77 -1.592,-3.812 -1.645,-1.844 -4.589,-2.144 -6.831,-1.103 -2.242,1.04 -3.822,3.18 -4.716,5.484 -0.016,0.04 -0.031,0.081 -0.046,0.121 -0.558,1.476 -0.864,3.026 -1.093,4.592 -0.262,0.136 -0.514,0.281 -0.743,0.446 -0.152,0.11 -0.302,0.235 -0.453,0.358 -0.446,-0.264 -0.987,-0.39 -1.487,-0.269 -2.384,0.572 -2.291,3.273 -3.425,4.956 -1.441,1.09 -3.27,1.981 -5.339,3.031 -1.112,0.469 -2.2,0.975 -3.147,1.678 0,0 -10e-4,0.001 -10e-4,0.001 -0.353,0.262 -0.713,0.565 -1.074,0.889 -0.227,0.2 -0.445,0.406 -0.659,0.616 -2.764,2.691 -5.394,6.493 -5.475,6.597 -5.062,6.516 -5.131,11.244 -2.878,14.39 3.596,5.022 4.308,6.596 9.283,10.246 0.536,0.393 1.072,0.842 1.601,1.269 0.491,0.431 1.014,0.825 1.542,1.112 1.239,0.729 2.396,0.844 3.37,-0.835 0,-10e-4 0.001,-10e-4 0.002,-0.002 0.307,-0.53 0.628,-0.96 0.902,-1.337 0.822,-1.131 1.222,-1.791 -0.44,-3.276 -1.109,-0.991 -0.597,-0.975 -1.759,-1.904 -0.436,-0.348 -0.849,-0.755 -1.189,-1.206 -0.436,-0.576 -0.748,-1.225 -0.847,-1.914 -0.03,-0.21 -0.046,-0.422 -0.033,-0.638 0.004,-0.058 -0.034,-0.113 -0.101,-0.166 -0.472,-0.369 -2.417,-0.614 -2.073,-0.833 0.128,-0.082 0.605,-0.707 1.088,-1.319 0.362,-0.46 0.726,-0.913 0.948,-1.125 0.074,-0.071 0.132,-0.115 0.169,-0.124 1.839,-0.428 4.487,-0.116 5.089,-1.906 0.315,-0.938 0.608,-2.651 0.882,-4.456 0.091,-0.601 0.18,-1.213 0.267,-1.809 0.174,-1.192 0.34,-2.324 0.499,-3.193 0.159,-0.869 0.311,-1.474 0.458,-1.613 0.103,-0.602 0.336,-1.088 0.667,-1.492 0.221,-0.269 0.485,-0.502 0.784,-0.709 0.224,-0.155 0.473,-0.292 0.733,-0.422 0.367,-0.184 0.764,-0.349 1.183,-0.502 0.141,-0.052 0.284,-0.103 0.429,-0.154 0.235,-0.081 0.475,-0.162 0.718,-0.243 0.245,-0.081 0.492,-0.163 0.742,-0.247 0.712,-0.24 1.434,-0.499 2.125,-0.826 0.208,-0.098 0.412,-0.203 0.613,-0.315 0,0 0,0 0,0 2.619,-1.458 5.703,-2.758 7.728,-5.006 0.534,-0.479 1.057,-0.984 1.559,-1.551 0.969,-1.613 1.464,-3.281 1.647,-4.941 0.561,-2.105 0.743,-4.294 0.373,-6.538 z"
   id="path85" />
			</g>
			<path
   id="XMLID_94_"
   style="fill:#010101"
   d="m 98.813,264.457 c -2.465,0.982 -5.248,2.848 -6.038,5.229 -0.619,1.867 4.319,3.401 4.933,1.552 0.479,-1.443 1.062,-3.35 2.574,-4.033 -0.01,0.291 0.05,0.589 0.198,0.859 1.924,3.521 3.363,7.205 4.383,11.068 0.1,0.38 0.297,0.645 0.542,0.817 -0.01,0.105 -0.021,0.209 -0.037,0.314 -1.038,1.031 -3.082,0.69 -4.469,0.453 -1.161,-0.199 -2.582,1.175 -1.626,2.307 3.219,3.815 14.887,1.491 7.348,-13.24 -0.396,-1.71 -3.465,-7.056 -7.808,-5.326 z" />
			<path
   id="XMLID_101_"
   style="fill:#bff7ff"
   d="m 103.627,272.238 c -0.142,-0.342 -0.285,-0.683 -0.429,-1.024 -0.313,-0.793 -0.641,-1.659 -1.061,-2.448 -0.672,-1.444 -1.598,-2.821 -3.284,-3.152 -2.039,-0.4 -3.712,0.721 -4.874,2.32 -1.694,1.487 -2.067,4.594 -1.793,6.774 0.488,3.884 2.731,7.21 6.026,9.269 0.208,0.13 0.412,0.202 0.608,0.227 1.293,0.634 2.605,0.507 4.041,-0.108 1.126,-0.482 2.166,-1.078 2.735,-2.247 0.38,-0.78 0.496,-1.583 0.454,-2.386 0.07,-2.49 -1.441,-5.039 -2.423,-7.225 z" />
			<path
   id="XMLID_176_"
   style="fill:#bff7ff"
   d="m 96.317,249.538 c -1.318,2.348 -2.565,4.767 -3.252,7.372 -1.342,5.092 -0.451,10.484 0.646,15.634 0.67,-0.918 1.391,-1.723 2.469,-2.066 0.403,-0.128 0.873,-0.173 1.308,-0.282 0.478,-0.12 0.914,-0.317 1.174,-0.788 0.341,-0.618 0.119,-1.379 -0.082,-2.056 -1.269,-4.269 -1.336,-8.876 -0.265,-13.194 0.491,-1.979 1.169,-4.042 2.315,-5.725 0.806,-1.183 3.709,-3.067 4.23,-4.515 -2.001,0.899 -3.853,2.174 -5.778,3.237 -0.463,0.553 -2.412,1.753 -2.765,2.383 z" />
			<g
   id="XMLID_128_">
				<path
   style="fill:#001369"
   d="m 290.541,263.028 c -1.052,-0.714 -2.104,-1.429 -3.156,-2.143 -14.4,14.126 -28.695,28.376 -42.352,43.289 -2.362,2.58 -4.729,5.195 -7.555,7.256 -3.84,2.801 -8.37,4.468 -12.835,6.1 -4.384,1.603 -8.989,3.232 -13.613,2.588 -2.643,-0.368 -5.12,-1.462 -7.633,-2.36 -13.06,-4.666 -27.326,-4.099 -41.18,-3.474 -6.299,0.284 -22.352,4.225 -26.865,-1.647 -2.413,-3.139 -2.258,-10.028 -2.705,-13.859 0,0 0,0 -0.655,0.077 -3.768,0.445 -3.741,1.433 -4.712,5.101 -1.767,6.673 -2.393,17.204 -3.186,24.062 -0.228,1.973 -0.437,4.02 -1.441,5.734 -1.004,1.714 -3.058,2.993 -4.963,2.432 -1.529,-0.45 -2.552,-1.958 -2.907,-3.512 -0.354,-1.554 -0.164,-3.173 -0.013,-4.76 0.468,-4.914 0.542,-9.866 0.222,-14.792 -0.548,-8.422 -3.985,-17.068 -13.327,-15.2 -1.576,19.137 -10.45,20.995 -11.979,22.035 -2.975,1.092 -6.178,1.807 -8.5,2.677 -5.52,2.067 -10.839,4.667 -15.851,7.77 -10.038,6.214 -18.828,14.341 -25.857,23.821 -1.527,2.059 -2.96,4.183 -4.298,6.363 -10.883,16.578 -17.358,36.669 -24.427,55.055 -4.005,10.418 -7.909,20.874 -11.951,31.278 -4.33,11.144 -6.889,21.286 -9.139,33.117 -0.79,4.155 -1.583,8.405 -0.967,12.589 0.617,4.184 2.917,8.366 6.777,10.097 4.7,2.108 11.954,-0.755 14.612,-5.067 5.178,-8.402 10.303,-16.922 13.708,-26.185 1.825,-4.964 3.141,-10.104 4.985,-15.061 5.056,-13.593 13.909,-25.398 22.929,-36.755 6.524,-8.215 13.24,-16.343 18.737,-25.304 4.035,-6.578 7.982,-16.476 14.137,-21.295 6.195,-4.85 12.718,-11.188 21.12,-11.059 6.345,0.098 9.464,6.918 15.149,9.519 3.76,1.72 7.953,2.242 12.083,2.432 2.616,0.12 5.24,0.116 7.851,-0.084 15.122,-1.158 26.829,-10.746 40.988,-14.985 7.021,-2.102 14.471,-2.135 21.8,-2.151 5.442,-0.012 10.885,-0.024 16.327,-0.036 22.763,-0.051 36.727,-12.036 49.552,-29.806 1.038,-1.439 2.077,-2.877 3.115,-4.316 3.116,-4.873 6.634,-9.485 9.607,-14.449 7.282,-12.157 12.98,-24.694 20.041,-36.627 -4.994,-3.621 -6.819,-4.659 -11.673,-8.465 z"
   id="path91" />
			</g>
			<g
   id="XMLID_8_">
				<path
   style="fill:#001369"
   d="m 64.33,376.014 c -0.822,5.565 0.236,10.824 2.262,15.98 2.004,5.101 2.022,10.767 2.631,16.188 1.554,13.839 3.108,27.678 4.662,41.517 0.319,2.841 -0.06,6.809 1.825,9.16 1.478,1.843 3.99,2.422 6.306,2.887 5.832,1.17 11.698,2.345 17.644,2.518 4.488,0.13 8.973,-0.312 13.428,-0.874 8.614,-1.086 17.171,-2.621 25.625,-4.596 7.928,-1.852 15.837,-5.833 24.216,-4.105 9.635,-26.834 2.127,-57.718 12.721,-84.187 2.122,-5.3 4.932,-10.304 7.047,-15.608 0.826,-2.07 1.531,-4.468 0.525,-6.457 -1.003,-1.983 -3.346,-2.839 -5.503,-3.372 -6.525,-1.612 -18.015,-3.518 -23.773,0.829 -5.624,4.246 -10.878,5.38 -17.972,5.007 -9.49,-0.499 -18.38,-4.008 -27.304,-6.951 -3.944,-1.301 -8.33,-2.319 -12.137,-3.901 -2.898,-1.204 -4.34,-2.449 -6.991,0.582 -5.416,6.193 -12.26,11.388 -17.379,18.032 -3.911,5.074 -6.904,11.067 -7.833,17.351 z"
   id="path94" />
				<path
   style="fill:#1828a1"
   d="m 127.343,454.575 c -9.304,0.79 -18.643,1.261 -27.983,1.204 -4.797,-0.029 -9.594,-0.196 -14.379,-0.545 -2.874,-0.21 -9.889,-2.475 -11.643,0.429 -7.208,11.937 -12.918,24.773 -16.991,38.108 -2.068,6.77 -3.714,13.669 -4.919,20.645 -0.67,3.875 -3.683,13.052 2.124,14.703 1.306,-3.093 9.64,-0.713 12.629,-0.64 9.31,0.228 18.624,0.272 27.935,0.132 11.309,-0.17 22.613,-0.623 33.9,-1.336 6.364,-0.402 22.385,0.857 26.854,-5.211 3.606,-4.897 12.358,-2.357 15.369,-9.333 0.819,-1.898 0.871,-4.026 0.888,-6.092 0.162,-19.744 -1.784,-39.503 -5.775,-58.839 -12.388,3.489 -25.143,5.683 -38.009,6.775 z"
   id="path96" />
				<path
   id="XMLID_124_"
   style="fill:#001369"
   d="m 151.137,324.711 c -0.072,0.411 -0.116,0.825 -0.149,1.24 z" />
			</g>
			<path
   id="XMLID_79_"
   style="fill:#bff7ff"
   d="m 104.382,243.158 c -3.02,-0.383 -5.89,2.429 -7.686,4.549 -2.049,2.421 -3.482,5.257 -4.232,8.337 -0.198,0.814 0.372,1.419 1.145,1.503 2.678,0.293 4.889,-0.309 5.74,-3.075 1.015,-3.298 4.291,-8.216 7.078,-10.352 0.367,-0.281 -1.172,-0.851 -2.045,-0.962 z" />
			<g
   id="XMLID_1_">
				
					<linearGradient
   id="SVGID_00000093875973791507552860000005575598309110683578_"
   gradientUnits="userSpaceOnUse"
   x1="218.55231"
   y1="360.0473"
   x2="216.60049"
   y2="350.72198">
					<stop
   offset="0"
   style="stop-color:#554DFF"
   id="stop101" />
					<stop
   offset="0.9955"
   style="stop-color:#001369"
   id="stop103" />
				</linearGradient>
				<path
   style="fill:url(#SVGID_00000093875973791507552860000005575598309110683578_)"
   d="m 244.798,350.762 c 3.047,-1.698 10.798,-6.041 10.556,-8.848 -0.087,-1.013 -1.066,-1.762 -2.066,-1.941 -1.001,-0.179 -2.021,0.077 -3.01,0.315 -16.605,4 -33.955,3.275 -50.889,5.507 -3.844,0.507 -7.722,1.183 -11.233,2.824 -6.037,2.822 -8.01,7.631 -9.75,13.644 0.28,-0.965 6.381,-1.074 7.108,-1.114 3.056,-0.168 6.118,-0.172 9.177,-0.147 0.888,-0.022 1.777,-0.044 2.665,-0.068 1.291,0.012 2.584,0.005 3.878,-0.017 14.802,-0.628 29.704,-2.257 42.786,-9.72 0.2,-0.114 0.464,-0.26 0.778,-0.435 z"
   id="path106" />
				
					<linearGradient
   id="XMLID_00000083065476498005772760000008751415903848682939_"
   gradientUnits="userSpaceOnUse"
   x1="5.5081"
   y1="397.8331"
   x2="29.3634"
   y2="406.94159">
					<stop
   offset="1.300000e-07"
   style="stop-color:#AB00B7"
   id="stop108" />
					<stop
   offset="0.9955"
   style="stop-color:#001369"
   id="stop110" />
				</linearGradient>
				<path
   id="XMLID_158_"
   style="fill:url(#XMLID_00000083065476498005772760000008751415903848682939_)"
   d="m 19.45,392.477 c -3.358,8.527 -6.408,17.161 -9.585,25.448 -4.028,10.506 -7.958,21.051 -12.064,31.527 -1.71,4.364 -5.138,9.439 -6.173,13.858 -1.393,5.947 4.162,9.699 8.449,4.408 8.72,-10.76 12.831,-24.398 17.86,-37.302 7.396,-18.979 17.125,-36.99 28.06,-54.176 6.315,-9.925 13.308,-20.486 12.858,-32.242 -0.032,-0.84 -0.137,-1.756 -0.731,-2.35 -0.957,-0.956 -2.567,-0.564 -3.814,-0.038 -9.518,4.009 -13.768,10.792 -19.131,18.96 -6.416,9.776 -11.335,20.75 -15.729,31.907 z" />
			</g>
			<path
   id="XMLID_90_"
   style="fill:#1828a1"
   d="m 131.465,297.798 c -5.847,2.805 -5.909,11.986 -6.334,17.473 -0.328,4.242 -0.483,8.514 -1.24,12.709 -0.364,2.017 -0.742,4.256 -1.87,6.007 -1.101,1.708 -3.503,3.039 -5.073,1.846 -0.015,-0.076 0.005,-0.19 -0.07,-0.236 -3.261,-2.015 0.07,-17.023 -1.261,-25.516 -1.031,-6.579 -5.733,-13.191 -13.091,-12.646 -1.5,0.111 -1.512,2.464 0,2.352 8.478,-0.628 11.89,8.857 11.077,15.559 -1.286,10.607 -0.502,18.801 0.397,20.447 1.011,1.85 2.68,2.798 4.432,2.849 5.577,22.805 8.008,46.263 7.233,69.729 -0.05,1.514 2.302,1.512 2.352,0 0.78,-23.608 -1.681,-47.239 -7.277,-70.185 0.227,-0.098 0.452,-0.205 0.671,-0.335 3.696,-2.174 4.461,-7.103 5.024,-10.964 0.688,-4.717 0.8,-9.486 1.272,-14.225 0.402,-4.035 0.701,-10.798 4.943,-12.833 1.366,-0.655 0.175,-2.683 -1.185,-2.031 z" />
			
			
			<path
   id="XMLID_105_"
   style="fill:#bff7ff"
   d="m 98.724,268.076 c -1.277,-0.75 -2.955,-0.852 -4.44,-0.032 -1.286,0.71 -2.062,1.764 -2.447,2.965 -0.224,0.49 -0.388,1.013 -0.47,1.559 -0.498,3.293 1.52,8.187 4.586,9.98 0.665,0.465 1.42,0.807 2.293,0.96 2.903,0.508 5.228,-1.539 5.436,-4.401 0.228,-3.126 -1.655,-7.37 -3.526,-9.815 -0.446,-0.584 -0.929,-0.975 -1.432,-1.216 z" />
			<g
   id="XMLID_58_">
				
					<linearGradient
   id="XMLID_00000030486817975968331120000001893274859920288686_"
   gradientUnits="userSpaceOnUse"
   x1="124.3023"
   y1="262.4393"
   x2="145.9091"
   y2="247.00591">
					<stop
   offset="0"
   style="stop-color:#554DFF"
   id="stop119" />
					<stop
   offset="0.9955"
   style="stop-color:#17F3FF"
   id="stop121" />
				</linearGradient>
				
				
					<linearGradient
   id="XMLID_00000097495271456314317100000013624475868827130297_"
   gradientUnits="userSpaceOnUse"
   x1="122.4928"
   y1="259.90591"
   x2="144.0995"
   y2="244.4725">
					<stop
   offset="0"
   style="stop-color:#554DFF"
   id="stop125" />
					<stop
   offset="0.9955"
   style="stop-color:#17F3FF"
   id="stop127" />
				</linearGradient>
				
			</g>
			
			<g
   id="g146">
				<defs
   id="defs134">
					<path
   id="XMLID_4_"
   d="m 83.533,376.626 c 1.068,-1.585 2.203,-3.122 3.442,-4.585 4.49,-5.302 11.493,-10.156 18.727,-10.045 6.345,0.098 9.464,6.918 15.15,9.519 3.76,1.72 7.953,2.243 12.083,2.433 2.616,0.12 5.24,0.116 7.851,-0.084 15.122,-1.158 26.829,-10.746 40.988,-14.985 7.021,-2.102 14.471,-2.135 21.8,-2.151 5.442,-0.012 10.885,-0.024 16.327,-0.036 22.763,-0.051 36.727,-12.036 49.552,-29.806 8.757,-12.134 17.514,-24.267 26.272,-36.4 2.11,-2.924 4.22,-5.848 6.33,-8.771 1.055,-1.462 2.108,-2.925 3.165,-4.386 1.367,-1.888 0.231,-2.902 -1.25,-4.588 -2.204,-2.51 -4.553,-3.684 -7.331,-5.57 -3.085,-2.095 -6.171,-4.19 -9.256,-6.285 -14.4,14.127 -28.695,28.376 -42.352,43.289 -2.362,2.58 -4.729,5.195 -7.555,7.256 -3.84,2.801 -8.37,4.468 -12.835,6.1 -4.384,1.603 -8.989,3.232 -13.612,2.588 -2.643,-0.368 -5.12,-1.462 -7.633,-2.36 -13.06,-4.666 -27.326,-4.099 -41.18,-3.474 -6.299,0.284 -22.353,4.225 -26.865,-1.647 -2.413,-3.139 -2.258,-10.028 -2.705,-13.859 0,0 0,0 -0.655,0.077 -3.768,0.445 -3.74,1.433 -4.712,5.101 -1.767,6.673 -2.393,17.204 -3.186,24.062 -0.228,1.973 -0.437,4.02 -1.441,5.734 -1.004,1.714 -3.058,2.993 -4.963,2.432 -1.529,-0.45 -2.552,-1.958 -2.907,-3.512 -0.354,-1.554 -0.164,-3.173 -0.013,-4.759 0.468,-4.914 0.542,-9.866 0.222,-14.792 -0.548,-8.422 -3.985,-17.069 -13.327,-15.201 -1.577,19.137 -10.45,20.995 -11.979,22.035 -2.976,1.092 -6.178,1.807 -8.5,2.677 -5.52,2.067 -10.839,4.667 -15.851,7.77 -10.038,6.214 -18.828,14.341 -25.857,23.821 -1.527,2.059 -2.96,4.183 -4.298,6.363 -10.883,16.578 -17.358,36.669 -24.427,55.054 -4.005,10.418 -7.909,20.874 -11.951,31.278 -4.329,11.144 -6.889,21.286 -9.139,33.117 -0.79,4.155 -1.583,8.405 -0.967,12.589 0.617,4.184 2.917,8.366 6.777,10.097 9.878,4.43 16.784,-9.453 19.777,-16.573 4.007,-9.533 8.014,-19.065 12.021,-28.598 1.609,-3.827 3.26,-7.724 5.973,-10.867 2.113,-2.448 4.783,-4.336 7.22,-6.461 5.693,-4.964 10.097,-11.209 14.392,-17.422 5.801,-8.391 11.892,-16.736 17.193,-25.454 4.142,-6.809 6.906,-13.929 11.485,-20.721 z" />
				</defs>
				<clipPath
   id="XMLID_00000079455463805461449980000013338914351559709100_">
					<use
   xlink:href="#XMLID_4_"
   style="overflow:visible"
   id="use136"
   x="0"
   y="0"
   width="100%"
   height="100%" />
				</clipPath>
				
					<linearGradient
   id="SVGID_00000011017996439743248530000012314161066781542025_"
   gradientUnits="userSpaceOnUse"
   x1="257.3389"
   y1="279.25461"
   x2="268.61591"
   y2="290.53159">
					<stop
   offset="1.300000e-07"
   style="stop-color:#C429CF"
   id="stop139" />
					<stop
   offset="0.9955"
   style="stop-color:#001369"
   id="stop141" />
				</linearGradient>
				
					<path
   style="fill:url(#SVGID_00000011017996439743248530000012314161066781542025_)"
   d="m 250.1,304.378 c -1.213,1.011 -2.418,2.009 -3.61,2.992 -3.189,2.632 -7.15,5.353 -11.126,4.219 3.323,-5.951 8.359,-9.29 13.035,-13.926 4.886,-4.844 9.24,-10.206 13.596,-15.522 5.918,-7.222 11.833,-14.447 17.753,-21.667 1.378,-1.68 3.693,-6.801 6.38,-6.197 2.151,0.483 2.856,3.721 2.759,5.569 -0.229,4.378 -4.089,8.775 -6.525,12.186 -8.522,11.928 -20.769,22.766 -32.262,32.346 z"
   clip-path="url(#XMLID_00000079455463805461449980000013338914351559709100_)"
   id="path144" />
			</g>
			<path
   style="fill:#1828a1"
   d="m 130.519,406.003 c -1.04,-1.105 -2.628,-1.786 -4.623,-1.579 -2.959,0.307 -5.175,3.433 -4.591,6.335 0.674,3.354 4.628,4.896 7.551,3.386 3.626,-1.873 3.782,-5.89 1.663,-8.142 z"
   id="path148" />
		</g>
		<path
   style="fill:#001369;stroke-width:0.924123"
   d="m 56.99944,453.64325 c -0.03756,-2.571 -3.45358,-2.579 -3.416009,0 0.08024,5.444 -0.01111,10.88 -0.345872,16.311 -0.134933,2.19 -0.670389,19.517 -4.66371,17.405 -1.988116,-1.051 -3.726867,2.395 -1.724228,3.454 5.069363,2.681 7.856823,-2.709 8.592125,-7.921 1.357865,-9.628 1.701171,-19.506 1.557694,-29.249 z"
   clip-path="none"
   id="path152" />
		
			<linearGradient
   id="SVGID_00000035488808300963467750000007036277310890286780_"
   gradientUnits="userSpaceOnUse"
   x1="501.29401"
   y1="-49.0891"
   x2="343.66281"
   y2="200.18851"
   gradientTransform="matrix(0.85400283,0,0,1,-57.491602,-0.56375213)">
			<stop
   offset="0"
   style="stop-color:#1D31CC"
   id="stop154" />
			<stop
   offset="0.9955"
   style="stop-color:#00BADB"
   id="stop156" />
		</linearGradient>
		
			<path
   style="fill:url(#SVGID_00000035488808300963467750000007036277310890286780_);stroke-width:0.924123"
   d="m 216.44682,192.64925 c -0.85396,-4.242 -1.24599,-8.654 -1.43724,-13.009 -1.56879,-35.685 10.71943,-79.134 32.29583,-104.876998 8.33334,-9.943004 18.71286,-17.300004 26.96085,-27.339004 6.51351,-7.928 11.81851,-17.475 15.99629,-27.307 3.65862,-8.611 3.47416,-16.5270001 5.65611,-25.4110001 3.78753,-15.4239999 14.18494,-29.1929999 26.19312,-36.6509999 11.68617,-7.258 28.51774,-8.596 38.5651,2.692 1.08031,1.214 2.1145,2.486 3.09482,3.811 15.32679,20.712 11.29847,54.632 6.29661,79.42 -5.33154,26.422004 -16.34053,52.013004 -33.84416,70.218002 -11.30103,11.754 -23.4159,22.434 -36.1866,31.901 -12.96725,9.613 -27.17018,18.565 -37.25933,32.444 -8.93884,12.297 -8.03876,36.997 -25.94376,37.281 -6.99168,0.111 -13.38396,-5.468 -16.89303,-12.55 -1.6388,-3.309 -2.74477,-6.901 -3.49461,-10.623 z"
   clip-path="none"
   id="path159" />
		
			<linearGradient
   id="SVGID_00000177450584760464355790000012148034805604045227_"
   gradientUnits="userSpaceOnUse"
   x1="486.89719"
   y1="22.6609"
   x2="362.173"
   y2="219.8994"
   gradientTransform="matrix(0.84964741,-0.1013,0.08651049,0.9949,-62.358817,37.916748)">
			<stop
   offset="0"
   style="stop-color:#4D5CFF"
   id="stop161" />
			<stop
   offset="0.9955"
   style="stop-color:#18DCFF"
   id="stop163" />
		</linearGradient>
		
			<path
   style="fill:url(#SVGID_00000177450584760464355790000012148034805604045227_);stroke-width:0.924123"
   d="m 250.85716,168.99725 c 9.72032,-8.554 20.74377,-15.081 30.01308,-24.321 8.93716,-8.91 16.08429,-20.267 20.70621,-32.901 4.18545,-11.443 6.28285,-23.756998 9.39655,-35.659998 3.81141,-14.567004 10.53496,-28.896004 20.46452,-38.960004 8.30169,-8.414 23.33989,-17.493 32.32228,-5.741 13.76734,18.012 0.67039,53.916004 -7.87052,72.424002 -10.05159,21.781 -25.53207,39.605 -44.35347,50.905 -15.10388,9.068 -32.18649,14.786 -44.3868,28.604 -7.11812,8.062 -20.30308,36.257 -32.76041,33.129 -15.73672,-3.951 7.66895,-39.081 12.98594,-44.261 1.13842,-1.108 2.30073,-2.178 3.48262,-3.218 z"
   clip-path="none"
   id="path166" />
		
			<linearGradient
   id="SVGID_00000031203423991353689030000007867124751407580861_"
   gradientUnits="userSpaceOnUse"
   x1="436.0636"
   y1="-34.253601"
   x2="301.8609"
   y2="177.9742"
   gradientTransform="matrix(0.85400283,0,0,1,-57.491602,-0.56375213)">
			<stop
   offset="0"
   style="stop-color:#554DFF"
   id="stop168" />
			<stop
   offset="0.9955"
   style="stop-color:#17F3FF"
   id="stop170" />
		</linearGradient>
		
			<path
   style="fill:url(#SVGID_00000031203423991353689030000007867124751407580861_);stroke-width:0.924123"
   d="m 215.7543,148.58225 c 0.68662,-4.7 1.63881,-9.347 2.85579,-13.898 3.37672,-12.63 8.72872,-24.46 11.86719,-37.173998 7.31537,-29.634004 2.09572,-61.354004 4.15723,-92.1070041 2.45275,-36.6009999 42.74456,-66.5439999 66.66437,-33.1739999 7.90719,11.031 9.634,26.3549999 9.77658,40.756 0.30067,30.302 -5.97204,58.777004 -19.23556,84.776004 -12.64603,24.789998 -32.61863,42.106998 -36.63928,72.747998 -1.37658,10.492 -0.7814,21.524 -4.23836,31.337 -3.45705,9.813 -13.20118,17.924 -21.42183,13.449 -3.18547,-1.734 -5.55268,-5.043 -7.3786,-8.557 -3.44073,-6.62 -5.3042,-14.214 -6.42208,-21.853 -1.75413,-11.986 -1.73623,-24.319 0.015,-36.303 z"
   clip-path="none"
   id="path173" />
		
			<linearGradient
   id="SVGID_00000011713896670204395090000012978630004617931706_"
   gradientUnits="userSpaceOnUse"
   x1="250.9951"
   y1="4.1863999"
   x2="318.45291"
   y2="4.1863999"
   gradientTransform="matrix(0.85400283,0,0,1,-57.491602,-0.56375213)">
			<stop
   offset="0"
   style="stop-color:#554DFF"
   id="stop175" />
			<stop
   offset="0.9955"
   style="stop-color:#17F3FF"
   id="stop177" />
		</linearGradient>
		
			<path
   style="fill:url(#SVGID_00000011713896670204395090000012978630004617931706_);stroke-width:0.924123"
   d="m 173.62459,-4.7447521 c -6.16761,6.487 -12.99106,12.986 -15.6496,22.1810001 -1.83182,6.335 -1.39033,13.525 1.19564,19.488 2.31942,5.348 7.25471,10.15 12.65291,9.529 7.55785,-0.87 5.28543,-8.494 6.33241,-14.652 0.4108,-2.414 1.85236,-4.399 3.37583,-6.095 12.28743,-13.672 28.78844,-16.4490001 32.23093,-38.66 1.1222,-7.243 1.34334,-15.49 -2.71488,-21.112 -4.03767,-5.594 -11.61184,-6.671 -17.13383,-3.229 -6.08217,3.791 -6.92,9.781 -9.29153,16.483 -2.18373,6.173 -6.81322,11.6659999 -10.99788,16.0669999 z"
   clip-path="none"
   id="path180" />
		<g
   clip-path="none"
   id="g195"
   transform="matrix(0.85400283,0,0,1,-57.491592,-0.56375213)">
			<defs
   id="defs183">
				<path
   id="SVGID_00000008151199395100843170000013766778809826123912_"
   d="m 127.343,454.575 c -9.304,0.79 -18.643,1.261 -27.983,1.204 -4.797,-0.029 -9.594,-0.196 -14.379,-0.545 -2.874,-0.21 -9.889,-2.475 -11.643,0.429 -7.208,11.937 -12.918,24.773 -16.991,38.108 -2.068,6.77 -3.714,13.669 -4.919,20.645 -0.67,3.875 -3.683,13.052 2.124,14.703 1.306,-3.093 9.64,-0.713 12.629,-0.64 9.31,0.228 18.624,0.272 27.935,0.132 11.309,-0.17 22.613,-0.623 33.9,-1.336 6.364,-0.402 22.385,0.857 26.854,-5.211 3.606,-4.897 12.358,-2.357 15.369,-9.333 0.819,-1.898 0.871,-4.026 0.888,-6.092 0.162,-19.744 -1.784,-39.503 -5.775,-58.839 -12.388,3.489 -25.143,5.683 -38.009,6.775 z" />
			</defs>
			<clipPath
   id="SVGID_00000146457102356665943870000012472397285208243370_">
				<use
   xlink:href="#SVGID_00000008151199395100843170000013766778809826123912_"
   style="overflow:visible"
   id="use185"
   x="0"
   y="0"
   width="100%"
   height="100%" />
			</clipPath>
			
				<linearGradient
   id="SVGID_00000171708084733375571580000018020750986995857815_"
   gradientUnits="userSpaceOnUse"
   x1="52.405998"
   y1="485.97531"
   x2="77.128899"
   y2="495.08371">
				<stop
   offset="0"
   style="stop-color:#554DFF"
   id="stop188" />
				<stop
   offset="0.9955"
   style="stop-color:#1828A1"
   id="stop190" />
			</linearGradient>
			
				<path
   style="fill:url(#SVGID_00000171708084733375571580000018020750986995857815_)"
   d="m 82.033,452.523 c 2.038,4.766 2.87,11.17 2.681,14.105 -0.385,5.967 -2.439,11.683 -4.473,17.306 -2.831,7.828 -5.663,15.657 -8.494,23.485 -1.665,4.604 -16.823,37.541 -21.941,23.474 -2.543,-6.989 -2.018,-15.029 -1.097,-22.264 1.45,-11.392 4.347,-22.595 8.566,-33.275 2.169,-5.49 4.686,-10.842 7.537,-16.01 1.899,-3.443 3.887,-8.229 6.976,-10.823 4.809,-4.039 8.158,-0.877 10.245,4.002 z"
   clip-path="url(#SVGID_00000146457102356665943870000012472397285208243370_)"
   id="path193" />
		</g>
		
			<linearGradient
   id="SVGID_00000047748987029080986530000014548380719330341763_"
   gradientUnits="userSpaceOnUse"
   x1="243.63921"
   y1="191.46719"
   x2="342.97781"
   y2="-29.8778"
   gradientTransform="matrix(0.85400283,0,0,1,-57.491602,-0.56375213)">
			<stop
   offset="0.0119"
   style="stop-color:#FF59BD"
   id="stop197" />
			<stop
   offset="0.8346"
   style="stop-color:#2424C7"
   id="stop199" />
			<stop
   offset="1"
   style="stop-color:#2424C7"
   id="stop201" />
		</linearGradient>
		
			<path
   style="fill:url(#SVGID_00000047748987029080986530000014548380719330341763_);stroke-width:0.924123"
   d="m 184.61647,65.774248 c 0.0838,0.564 0.16568,1.127 0.2408,1.687 2.9258,21.947004 -22.04346,27.887004 -27.67479,45.495002 -1.88993,5.91 -1.41846,12.792 1.2511,18.274 8.82783,18.124 29.4896,10.687 38.28242,-3.205 7.25647,-11.465 11.63573,-28.814998 12.61534,-42.897998 0.79075,-11.376 -1.12986,-31.943004 -11.35313,-37.492004 -2.5902,-1.406 -5.70813,-1.408 -8.3001,-0.005 -2.59188,1.403 -4.61072,4.184 -5.3751,7.406 -0.82663,3.484 -0.22202,7.14 0.31346,10.738 z"
   clip-path="none"
   id="path204" />
		
			<linearGradient
   id="SVGID_00000131361136627346049610000009756250278241248421_"
   gradientUnits="userSpaceOnUse"
   x1="414.49829"
   y1="77.210701"
   x2="443.02551"
   y2="160.34711"
   gradientTransform="matrix(0.85400283,0,0,1,-57.491602,-0.56375213)">
			<stop
   offset="0"
   style="stop-color:#554DFF"
   id="stop206" />
			<stop
   offset="0.9955"
   style="stop-color:#17F3FF"
   id="stop208" />
		</linearGradient>
		
			<path
   style="fill:url(#SVGID_00000131361136627346049610000009756250278241248421_);stroke-width:0.924123"
   d="m 315.25844,125.43725 c -3.21704,0.699 -6.39395,2.127 -8.82015,4.698 -2.42541,2.57 -4.00699,6.398 -3.66285,10.208 0.54483,6.021 6.05149,10.417 11.19345,9.773 5.14109,-0.644 9.45801,-5.482 11.16691,-11.197 0.55515,-1.856 0.87451,-3.88 0.4757,-5.791 -0.62604,-2.995 -2.93946,-5.187 -5.43832,-6.159 -2.49877,-0.972 -5.19064,-0.932 -7.82352,-0.883"
   clip-path="none"
   id="path211" />
		
			<linearGradient
   id="SVGID_00000121982563545775486440000002029612041644972188_"
   gradientUnits="userSpaceOnUse"
   x1="318.47809"
   y1="18.146"
   x2="422.5744"
   y2="-99.829697"
   gradientTransform="matrix(0.85400283,0,0,1,-57.491602,-0.56375213)">
			<stop
   offset="0.0119"
   style="stop-color:#FF59BD"
   id="stop213" />
			<stop
   offset="0.8346"
   style="stop-color:#2424C7"
   id="stop215" />
			<stop
   offset="1"
   style="stop-color:#2424C7"
   id="stop217" />
		</linearGradient>
		
			<path
   style="fill:url(#SVGID_00000121982563545775486440000002029612041644972188_);stroke-width:0.924123"
   d="m 225.86824,2.0772479 c 1.81215,2.548 4.06932,4.728 6.70988,5.926 6.4614,2.9320001 14.16359,-0.782 18.35936,-7.23900003 4.19568,-6.45699997 5.37766,-15.01099987 4.94552,-23.10899987 -1.74303,-32.701 -52.38711,-7.027 -30.01476,24.4219999 z"
   clip-path="none"
   id="path220" />
		
			<linearGradient
   id="SVGID_00000051369001872621921690000007833839755974795956_"
   gradientUnits="userSpaceOnUse"
   x1="275.09799"
   y1="189.84019"
   x2="314.7847"
   y2="132.5873"
   gradientTransform="matrix(0.85400283,0,0,1,-57.491602,-0.56375213)">
			<stop
   offset="0.0119"
   style="stop-color:#FF59BD"
   id="stop222" />
			<stop
   offset="0.8346"
   style="stop-color:#2424C7"
   id="stop224" />
			<stop
   offset="1"
   style="stop-color:#2424C7"
   id="stop226" />
		</linearGradient>
		
			<path
   style="fill:url(#SVGID_00000051369001872621921690000007833839755974795956_);stroke-width:0.924123"
   d="m 186.23561,180.12425 c 0.54836,0.193 1.10765,0.308 1.65424,0.335 4.45447,0.221 9.02939,-3.924 11.84505,-7.539 4.38015,-5.624 8.70315,-14.978 8.17622,-22.89 -0.46626,-7 -7.08823,-10.254 -12.33266,-8.124 -4.56037,1.852 -8.07887,6.835 -8.77571,12.427 -0.28189,2.259 -0.135,4.563 -0.31179,6.836 -0.3646,4.697 -3.30582,6.775 -4.6585,10.812 -1.26054,3.764 1.41757,7.095 4.40315,8.143 z"
   clip-path="none"
   id="path229" />
		
			<linearGradient
   id="SVGID_00000119075352521183617150000012012912837070406822_"
   gradientUnits="userSpaceOnUse"
   x1="304.04239"
   y1="0.038899999"
   x2="321.69601"
   y2="51.486198"
   gradientTransform="matrix(0.85400283,0,0,1,-57.491602,-0.56375213)">
			<stop
   offset="0"
   style="stop-color:#554DFF"
   id="stop231" />
			<stop
   offset="0.9955"
   style="stop-color:#17F3FF"
   id="stop233" />
		</linearGradient>
		
			<path
   style="fill:url(#SVGID_00000119075352521183617150000012012912837070406822_);stroke-width:0.924123"
   d="m 207.78556,31.977248 c -3.34515,2.938 -2.36818,9.986 1.37067,12.177 3.73885,2.191 8.69203,-0.306 10.55295,-4.69 0.61828,-1.457 0.95475,-3.14 0.63873,-4.724 -0.59861,-2.997 -3.40484,-4.803 -6.03261,-4.843 -2.62777,-0.04 -5.11719,1.268 -7.50671,2.549"
   clip-path="none"
   id="path236" />
		
			<linearGradient
   id="SVGID_00000175319362312940680960000015592561229546103433_"
   gradientUnits="userSpaceOnUse"
   x1="300.55771"
   y1="-175.0937"
   x2="414.66101"
   y2="157.4362"
   gradientTransform="matrix(0.85400283,0,0,1,-57.491602,-0.56375213)">
			<stop
   offset="0"
   style="stop-color:#554DFF"
   id="stop238" />
			<stop
   offset="0.9955"
   style="stop-color:#17F3FF"
   id="stop240" />
		</linearGradient>
		
			<path
   style="fill:url(#SVGID_00000175319362312940680960000015592561229546103433_);stroke-width:0.924123"
   d="m 296.95374,57.691248 c 1.87106,-7.793 2.72256,-15.708 1.82926,-23.041 -1.1094,-9.108 -6.61086,-18.157 -14.39426,-19.411 -5.17776,-0.834 -10.4504,1.936 -14.16448,6.243 -3.71407,4.307 -6.04804,9.992 -7.70907,15.795 -2.43563,8.506 -3.5714,17.52 -3.33827,26.488 0.20747,7.972004 1.48512,15.879004 1.49535,23.854004 0.01,7.975 -1.42446,16.347998 -5.89004,22.368998 -3.16413,4.266 -11.42314,12.259 -3.34427,15.385 4.20591,1.627 9.76379,-4.435 12.53502,-7.215 8.17965,-8.205 14.94244,-19.161998 20.75911,-29.717998 4.74228,-8.611 9.53322,-19.555004 12.22165,-30.749004 z"
   clip-path="none"
   id="path243" />
		
			<linearGradient
   id="SVGID_00000086653582943913251090000000694680332177348754_"
   gradientUnits="userSpaceOnUse"
   x1="361.03119"
   y1="241.7047"
   x2="403.97089"
   y2="204.62041"
   gradientTransform="matrix(0.85400283,0,0,1,-57.491602,-0.56375213)">
			<stop
   offset="0"
   style="stop-color:#FF59BD"
   id="stop245" />
			<stop
   offset="0.8346"
   style="stop-color:#2424C7"
   id="stop247" />
			<stop
   offset="1"
   style="stop-color:#2424C7"
   id="stop249" />
		</linearGradient>
		
			<path
   style="fill:url(#SVGID_00000086653582943913251090000000694680332177348754_);stroke-width:0.924123"
   d="m 249.71283,218.35725 c -2.2435,7.862 0.58504,17.137 6.26751,22.081 5.68256,4.943 13.71876,5.565 20.16385,2.138 6.44518,-3.427 11.22167,-10.568 13.10304,-18.559 2.54233,-10.802 -1.45188,-28.159 -13.11926,-28.031 -9.66645,0.105 -23.41589,11.858 -26.41514,22.371 z"
   clip-path="none"
   id="path252" />
		
			<linearGradient
   id="SVGID_00000001648433090894200620000000843419636310011527_"
   gradientUnits="userSpaceOnUse"
   x1="468.62579"
   y1="-30.3843"
   x2="453.01129"
   y2="21.664101"
   gradientTransform="matrix(0.85400283,0,0,1,-57.491602,-0.56375213)">
			<stop
   offset="0"
   style="stop-color:#554DFF"
   id="stop254" />
			<stop
   offset="0.2101"
   style="stop-color:#5450FF"
   id="stop256" />
			<stop
   offset="0.3656"
   style="stop-color:#5059FF"
   id="stop258" />
			<stop
   offset="0.5035"
   style="stop-color:#4A69FF"
   id="stop260" />
			<stop
   offset="0.6312"
   style="stop-color:#4280FF"
   id="stop262" />
			<stop
   offset="0.7519"
   style="stop-color:#379DFF"
   id="stop264" />
			<stop
   offset="0.8674"
   style="stop-color:#2AC1FF"
   id="stop266" />
			<stop
   offset="0.9768"
   style="stop-color:#1AEBFF"
   id="stop268" />
			<stop
   offset="0.9955"
   style="stop-color:#17F3FF"
   id="stop270" />
		</linearGradient>
		
			<path
   style="fill:url(#SVGID_00000001648433090894200620000000843419636310011527_);stroke-width:0.924123"
   d="m 337.35489,19.092248 c 2.90102,0.302 5.97116,-0.042 8.42981,-1.869 2.34852,-1.745 3.88575,-4.644 5.07619,-7.5870001 7.83207,-19.367 -6.61421,-50.1419999 -25.3604,-32.6609999 -14.38059,13.4089999 -5.46821,40.315 11.8544,42.117 z"
   clip-path="none"
   id="path273" />
		
			<linearGradient
   id="SVGID_00000129194789376692185680000016126474696133216416_"
   gradientUnits="userSpaceOnUse"
   x1="379.03491"
   y1="152.9108"
   x2="402.70819"
   y2="221.9017"
   gradientTransform="matrix(0.85400283,0,0,1,-57.491602,-0.56375213)">
			<stop
   offset="0"
   style="stop-color:#554DFF"
   id="stop275" />
			<stop
   offset="0.9955"
   style="stop-color:#17F3FF"
   id="stop277" />
		</linearGradient>
		
			<path
   style="fill:url(#SVGID_00000129194789376692185680000016126474696133216416_);stroke-width:0.924123"
   d="m 272.80336,200.43625 c -1.59269,4.352 -0.53883,10.248 3.07437,12.374 2.62353,1.544 5.86623,0.785 8.42055,-0.911 2.74556,-1.822 5.0403,-4.827 5.68847,-8.443 0.64737,-3.617 -0.6465,-7.782 -3.42972,-9.522 -5.18631,-3.244 -11.58538,0.579 -13.75367,6.502 z"
   clip-path="none"
   id="path280" />
		
			<linearGradient
   id="SVGID_00000084515801238794448690000001513623303027953059_"
   gradientUnits="userSpaceOnUse"
   x1="343.6264"
   y1="268.80591"
   x2="364.55359"
   y2="238.4615"
   gradientTransform="matrix(0.85400283,0,0,1,-57.491602,-0.56375213)">
			<stop
   offset="0.1228"
   style="stop-color:#FF59BD"
   id="stop282" />
			<stop
   offset="0.8346"
   style="stop-color:#2424C7"
   id="stop284" />
		</linearGradient>
		
			<path
   style="fill:url(#SVGID_00000084515801238794448690000001513623303027953059_);stroke-width:0.924123"
   d="m 238.80806,256.76225 c 0.67295,3.429 4.33324,5.691 6.96444,4.02 0.61572,-0.391 1.14688,-0.951 1.59093,-1.587 6.96532,-9.987 -10.71255,-13.424 -8.55537,-2.433 z"
   clip-path="none"
   id="path287" />
		
			<linearGradient
   id="SVGID_00000165921031387067914450000007195534689540579231_"
   gradientUnits="userSpaceOnUse"
   x1="278.5289"
   y1="6.7936001"
   x2="317.48859"
   y2="120.3333"
   gradientTransform="matrix(0.85400283,0,0,1,-57.491602,-0.56375213)">
			<stop
   offset="0"
   style="stop-color:#554DFF"
   id="stop289" />
			<stop
   offset="0.9955"
   style="stop-color:#17F3FF"
   id="stop291" />
		</linearGradient>
		
			<path
   style="fill:url(#SVGID_00000165921031387067914450000007195534689540579231_);stroke-width:0.924123"
   d="m 190.69017,91.658252 c -0.0966,7.17 4.53048,14.374998 10.61697,15.165998 3.76953,0.49 7.53395,-1.368 10.53664,-4.081 3.07357,-2.775998 5.56899,-6.564998 6.59975,-10.945998 1.03075,-4.382 0.46882,-9.362 -1.89592,-12.965 -8.86883,-13.509004 -25.65596,-2.156 -25.85744,12.826 z"
   clip-path="none"
   id="path294" />
		<path
   style="fill:#001369;stroke-width:0.924123"
   d="m 17.249024,473.67625 c -4.348575,7.384 -10.3154988,13.119 -17.38407999,16.598 -1.99666051,0.982 -1.11959181,4.855 0.90780622,3.857 7.95759747,-3.917 14.52146077,-10.107 19.42599977,-18.436 1.251122,-2.124 -1.708859,-4.127 -2.949726,-2.019 z"
   clip-path="none"
   id="path296" />
		
			<linearGradient
   id="SVGID_00000116956889206843577880000008942694799374185621_"
   gradientUnits="userSpaceOnUse"
   x1="304.6185"
   y1="138.8967"
   x2="351.46191"
   y2="172.7281"
   gradientTransform="matrix(0.85400283,0,0,1,-57.491602,-0.56375213)">
			<stop
   offset="0"
   style="stop-color:#4DDEFF"
   id="stop298" />
			<stop
   offset="0.9955"
   style="stop-color:#66F7FF"
   id="stop300" />
		</linearGradient>
		
			<path
   style="fill:url(#SVGID_00000116956889206843577880000008942694799374185621_);stroke-width:0.924123"
   d="m 210.75403,169.55725 c -1.03243,-17.04 2.93268,-34.15 9.57687,-49.358 1.32279,-3.028 2.8139,-6.08 5.11798,-8.15 2.30408,-2.07 5.6211,-2.941 8.15232,-1.272 1.80792,1.192 2.91901,3.432 3.71919,5.673 4.71494,13.202 1.31688,28.257 -2.26484,41.943 -2.80535,10.718 -5.91305,22.213 -4.75506,33.565 0.60038,5.883 8.0652,19.107 1.81815,21.034 -13.1943,4.07 -20.82225,-34.483 -21.36461,-43.435 z"
   clip-path="none"
   id="path303" />
		
			<linearGradient
   id="SVGID_00000029044528158210384020000001242470319780929422_"
   gradientUnits="userSpaceOnUse"
   x1="562.18213"
   y1="-16.705799"
   x2="544.83313"
   y2="34.473801"
   gradientTransform="matrix(-0.9926,0.1619,0.3077,1.3001,1166.3085,-73.092894)">
			<stop
   offset="0"
   style="stop-color:#554DFF"
   id="stop305" />
			<stop
   offset="0.9955"
   style="stop-color:#17F3FF"
   id="stop307" />
		</linearGradient>
		
			
	</g>

</svg>
