<?xml version="1.0" encoding="UTF-8" standalone="no"?>
<!-- Generator: Adobe Illustrator 27.5.0, SVG Export Plug-In . SVG Version: 6.00 Build 0)  -->

<svg
   version="1.1"
   x="0px"
   y="0px"
   viewBox="0 0 1200 427"
   xml:space="preserve"
   id="svg395"
   sodipodi:docname="no-worries.svg"
   inkscape:version="1.1.2 (0a00cf5339, 2022-02-04)"
   width="1200"
   height="427"
   xmlns:inkscape="http://www.inkscape.org/namespaces/inkscape"
   xmlns:sodipodi="http://sodipodi.sourceforge.net/DTD/sodipodi-0.dtd"
   xmlns:xlink="http://www.w3.org/1999/xlink"
   xmlns="http://www.w3.org/2000/svg"
   xmlns:svg="http://www.w3.org/2000/svg"><defs
   id="defs399">
	
	
</defs><sodipodi:namedview
   id="namedview397"
   pagecolor="#ffffff"
   bordercolor="#666666"
   borderopacity="1.0"
   inkscape:pageshadow="2"
   inkscape:pageopacity="0.0"
   inkscape:pagecheckerboard="0"
   showgrid="false"
   inkscape:zoom="0.78906277"
   inkscape:cx="367.52463"
   inkscape:cy="347.24741"
   inkscape:window-width="1920"
   inkscape:window-height="1008"
   inkscape:window-x="0"
   inkscape:window-y="0"
   inkscape:window-maximized="1"
   inkscape:current-layer="g312"
   viewbox-width="1200" />

<g
   id="g312"
   transform="matrix(-1,0,0,0.87956771,1202.892,-12.584042)">
		<defs
   id="defs6">
			<rect
   id="SVGID_1_"
   width="750"
   height="500"
   x="0"
   y="0" />
		</defs>
		
		
			<linearGradient
   id="SVGID_00000010294863955397978860000015332659117126227856_"
   gradientUnits="userSpaceOnUse"
   x1="92.899902"
   y1="-112.5635"
   x2="89.024399"
   y2="340.85959"
   gradientTransform="matrix(-1,0,0,1,1175.2188,29.160706)">
			<stop
   offset="0"
   style="stop-color:#4D36FF"
   id="stop11" />
			<stop
   offset="0.9955"
   style="stop-color:#0091E6"
   id="stop13" />
		</linearGradient>
		
			<path
   style="fill:url(#SVGID_00000010294863955397978860000015332659117126227856_)"
   d="m 1004.7028,63.152706 c 8.506,29.344 12.982,59.692004 18.916,89.671004 6.553,33.106 15.264,66.372 31.01,96.417 16.239,30.984 41.946,57.402 65.314,83.12 10.26,11.291 21.432,22.201 35.171,28.835 7.665,3.702 16.311,6.006 24.707,4.599 19.076,-3.196 30.142,-23.892 32.944,-43.029 4.913,-33.561 -6.418,-67.041 -13.794,-100.147 -9.908,-44.472 -12.91,-90.755 -29.039,-133.366004 -21.893,-57.837 -67.607,-105.397 -122.605,-133.674 -16.749,-8.611 -35.111,-15.675 -53.89996,-14.39 -12.353,0.845 -24.911,6.01 -33.571,14.997 -15.327,15.907 5.759,28.305 15.044,41.5690001 13.372,19.1019999 22.524,40.9029999 29.14796,63.1709999 0.221,0.742 0.439,1.484 0.655,2.227 z"
   clip-path="none"
   id="path16" />
			
		
		
			<linearGradient
   id="SVGID_00000070840924981523833580000015495217856018314390_"
   gradientUnits="userSpaceOnUse"
   x1="13.1709"
   y1="-105.5989"
   x2="9.6225996"
   y2="309.55429"
   gradientTransform="matrix(-1,0,0,1,1175.2188,29.160706)">
			<stop
   offset="0"
   style="stop-color:#6D24FF"
   id="stop18" />
			<stop
   offset="0.8346"
   style="stop-color:#2842C7"
   id="stop20" />
			<stop
   offset="1"
   style="stop-color:#2842C7"
   id="stop22" />
		</linearGradient>
		
			<path
   style="fill:url(#SVGID_00000070840924981523833580000015495217856018314390_)"
   d="m 1057.7898,37.193706 c 0.56,19.234 3.329,38.456 7.205,57.331 8.393,40.879004 23.217,73.086004 53.338,101.831004 13.039,12.444 27.966,22.99 39.536,36.812 7.831,9.356 13.944,20.004 19.926,30.638 11.452,20.36 33.675,76.052 65.479,71.185 15.556,-2.382 24.015,-28.006 25.878,-40.729 4.914,-33.561 -6.418,-67.04 -13.794,-100.147 -9.908,-44.472 -12.91,-90.755 -29.039,-133.366004 -9.671,-25.549 -24.082,-49.196 -41.8,-69.9539999 -25.722,-30.1340001 -66.59,-64.8780001 -105.553,-31.4190001 -13.117,11.264 -18.01,29.357 -19.954,46.5380001 -1.177,10.3929999 -1.525,20.8379999 -1.222,31.2799999 z"
   clip-path="none"
   id="path25" />
		
			<linearGradient
   id="SVGID_00000028311988579445966540000017225970341441154229_"
   gradientUnits="userSpaceOnUse"
   x1="202.71919"
   y1="-141.27609"
   x2="196.897"
   y2="539.91968"
   gradientTransform="matrix(-1,0,0,1,1175.2188,29.160706)">
			<stop
   offset="0"
   style="stop-color:#6D24FF"
   id="stop27" />
			<stop
   offset="0.8346"
   style="stop-color:#2842C7"
   id="stop29" />
			<stop
   offset="1"
   style="stop-color:#2842C7"
   id="stop31" />
		</linearGradient>
		
			<path
   style="fill:url(#SVGID_00000028311988579445966540000017225970341441154229_)"
   d="m 1142.7308,560.17871 c 25.029,0.977 51.36,3.414 76.348,1.922 20.718,-1.237 29.258,-17.844 30.799,-36.867 3.15,-38.894 3.849,-90.96 -21.214,-123.84 -18.952,-24.863 -41.118,-48.49 -64.183,-69.568 -21.375,-19.533 -44.119,-37.375 -61.372,-60.898 -18.695,-25.49 -32.619,-54.484 -41.678,-84.742 -9.698,-32.392 -13.431,-66.23 -20.563,-99.281004 -7.132,-33.052 -18.186,-66.279 -40.069,-92.0549999 -18.83696,-22.1880001 -44.58996,-37.4910001 -71.30396,-49.0440001 -32.166,-13.911 -67.082,-23.023 -102.057,-20.803 -34.975,2.22 -70.045,16.749 -92.43,43.713 -25.1,30.2350001 -39.504,74.05 -33.398,113.149 4.193,26.853004 16.276,51.785004 29.273,75.656004 6.579,12.084 13.591,24.525 14.62,38.246 2.227,29.696 -20.509,54.312 -27.416,82.127 -22.414,90.253 34.809,171.276 103.751,222.947 18.767,14.065 39.006,26.89 61.344,34.449 22.938,7.761 48.136,8.545 72.029,11.366 62.26096,7.349 124.88896,11.079 187.51996,13.523 z"
   clip-path="none"
   id="path34" />
		
			<linearGradient
   id="SVGID_00000023282041338125109870000003519134809145235886_"
   gradientUnits="userSpaceOnUse"
   x1="395.40701"
   y1="106.8801"
   x2="-64.432899"
   y2="492.58939"
   gradientTransform="matrix(-1,0,0,1,1175.2188,29.160706)">
			<stop
   offset="0"
   style="stop-color:#4D36FF"
   id="stop36" />
			<stop
   offset="0.9955"
   style="stop-color:#B000B0"
   id="stop38" />
		</linearGradient>
		
			<path
   style="fill:url(#SVGID_00000023282041338125109870000003519134809145235886_)"
   d="m 978.11984,157.25171 c 21.172,31.72 33.26396,68.736 53.83696,100.848 28.13,43.909 70.474,76.335 109.146,111.318 38.672,34.983 75.769,75.865 87.5,126.675 4.333,18.768 4.585,39.883 -6.324,55.758 -15.641,22.761 -48.204,26.526 -75.24,20.889 -66.488,-13.864 -116.966,-68.902 -150.74196,-127.826 -33.776,-58.924 -55.688,-124.296 -92.309,-181.496 -21.884,-34.181 -48.717,-64.949 -71.148,-98.774 -14.32,-21.595 -42.454,-77.593004 -1.398,-88.836004 32.954,-9.024 76.245,14.583 101.498,33.604004 17.599,13.256 32.948,29.513 45.18,47.84 z"
   clip-path="none"
   id="path41" />
		
			<linearGradient
   id="SVGID_00000173867231411651078230000011767005198008446137_"
   gradientUnits="userSpaceOnUse"
   x1="355.05399"
   y1="216.806"
   x2="10.6685"
   y2="505.67319"
   gradientTransform="matrix(-1,0,0,1,1175.2188,29.160706)">
			<stop
   offset="0"
   style="stop-color:#4D36FF"
   id="stop43" />
			<stop
   offset="0.9955"
   style="stop-color:#0087B0"
   id="stop45" />
		</linearGradient>
		
			<path
   style="opacity:0.15;fill:url(#SVGID_00000173867231411651078230000011767005198008446137_)"
   d="m 1034.0358,423.40771 c -32.603,-56.899 -44.16196,-124.106 -77.97396,-180.296 -14.561,-24.198 -36.201,-47.692 -64.343,-50.051 -30.92,-2.592 -59.112,23 -67.85,52.772 -8.738,29.772 -1.783,62.024 9.835,90.795 23.878,59.132 67.141,109.461 119.142,146.376 47.95796,34.044 103.09396,57.013 159.95296,71.341 9.634,2.428 28.984,10.081 38.22,3.377 7.086,-5.143 4.802,-15.479 0.315,-21.604 -6.607,-9.017 -20.486,-13.633 -29.689,-19.708 -11.148,-7.36 -21.764,-15.525 -31.744,-24.405 -22.125,-19.685 -41.137,-42.894 -55.865,-68.597 z"
   clip-path="none"
   id="path48" />
		
			<linearGradient
   id="SVGID_00000101078690004331963090000006809539070727079320_"
   gradientUnits="userSpaceOnUse"
   x1="467.62909"
   y1="219.4498"
   x2="129.3172"
   y2="569.03882"
   gradientTransform="matrix(-1,0,0,1,1175.2188,29.160706)">
			<stop
   offset="0"
   style="stop-color:#4D36FF"
   id="stop50" />
			<stop
   offset="0.9955"
   style="stop-color:#0091E6"
   id="stop52" />
		</linearGradient>
		
			<path
   style="fill:url(#SVGID_00000101078690004331963090000006809539070727079320_)"
   d="m 1055.6728,501.41971 c -10.891,-9.797 -24.491,-15.919 -37.469,-22.715 -48.73896,-25.524 -91.81896,-63.173 -119.40796,-110.774 -13.144,-22.678 -22.657,-47.29 -35.44,-70.173 -12.783,-22.883 -29.582,-44.61 -52.82,-56.736 -14.385,-7.507 -32.07,-10.873 -46.815,-4.097 -5.766,2.649 -10.791,6.71 -15.215,11.259 -18.707,19.241 -26.708,47.236 -25.329,74.037 1.379,26.801 11.361,52.545 24.561,75.91 24.969,44.197 62.003,81.5 106.018,106.787 22.345,12.837 46.334,22.583 70.644,31.133 35.246,12.395 76.83196,28.825 114.45296,30.905 13.328,0.737 25.655,-7.837 31.229,-20.07 7.36,-16.151 -2.307,-34.58 -14.409,-45.466 z"
   clip-path="none"
   id="path55" />
		
			<linearGradient
   id="SVGID_00000015319432393976490740000014948355475330342326_"
   gradientUnits="userSpaceOnUse"
   x1="222.33859"
   y1="65.598198"
   x2="218.4397"
   y2="521.76727"
   gradientTransform="matrix(-1,0,0,1,1175.2188,29.160706)">
			<stop
   offset="0"
   style="stop-color:#4D36FF"
   id="stop57" />
			<stop
   offset="0.9955"
   style="stop-color:#B000B0"
   id="stop59" />
		</linearGradient>
		
			<path
   style="opacity:0.36;fill:url(#SVGID_00000015319432393976490740000014948355475330342326_)"
   d="m 802.18484,241.82071 c 2.221,34.505 -1.165,70.558 12.441,102.345 7.439,17.381 19.576,32.357 32.791,45.878 24.642,25.211 53.364,46.052 82.641,65.691 30.24,20.285 61.244,39.432 92.92196,57.388 28.062,15.906 57.764,31.204 89.954,33.273 11.492,0.739 25.904,-2.456 28.616,-13.647 1.014,-4.184 0.022,-8.621 -1.658,-12.584 -8.107,-19.119 -29.706,-27.866 -48.832,-35.956 -80.518,-34.06 -154.25596,-92.379 -188.92396,-172.637 -20.246,-46.871 -26.66,-99.531 -52.533,-143.546 -11.59,-19.717 -45.855,-60.342 -73.427,-44.374 -22.249,12.885 6.622,49.7 13.223,63.577 8.066,16.957 11.586,35.962 12.786,54.592 z"
   clip-path="none"
   id="path62" />
		<g
   clip-path="none"
   id="g150"
   transform="matrix(-1,0,0,1,1175.2188,29.160706)">
			<g
   id="g68">
				<path
   style="fill:#d49a85"
   d="m 310.365,234.253 c -1.317,0.442 -3.631,1.929 -4.529,2.085 -5.236,0.91 -5.571,4.996 -4.148,9.671 0.469,1.542 1.341,3.016 2.686,3.904 1.345,0.888 3.209,1.08 4.566,0.21 1.169,-0.749 1.776,-2.099 2.614,-3.206 2.679,-3.539 5.613,-0.455 6.539,2.663 0.635,2.14 4.063,1.446 3.421,-0.717 -0.339,-1.142 -0.804,-2.145 -1.367,-3.045 1.462,1.541 2.948,4.916 5.343,3.868 2.357,-1.032 0.74,-2.045 -0.287,-3.351 -0.841,-1.068 -1.725,-2.096 -2.672,-3.075 -1.653,-1.709 -3.603,-3.884 -2.385,-2.775 1.632,1.486 2.902,3.328 4.584,4.774 0.773,0.664 1.85,1.656 2.927,1.751 0.913,0.08 2.783,-0.853 2.467,-2.026 -0.033,-0.122 -0.1,-0.228 -0.181,-0.327 -0.052,-0.064 -0.109,-0.124 -0.165,-0.183 -3.558,-3.731 -10.195,-11.177 -14.074,-11.089 -1.495,0.034 -3.821,0.358 -5.339,0.868 z"
   id="path64" />
				<path
   style="fill:#f6bd94"
   d="m 325.91,235.748 c -0.435,-0.119 -0.879,-0.141 -1.227,-0.042 -0.495,0.14 -0.93,0.432 -1.355,0.72 -2.233,1.51 -4.645,2.907 -6.783,4.524 -1.934,1.462 -3.378,3.511 -5.263,5.04 -1.441,1.169 -2.441,0.739 -2.474,-1.151 -0.039,-2.261 0.011,-5.384 1.036,-7.457 0.833,-1.684 2.981,-3.076 4.414,-4.276 2.367,-1.981 4.741,-3.967 7.315,-5.67 2.033,-1.345 3.453,-2.735 4.12,-5.15 0.346,-1.251 0.353,-2.647 -0.259,-3.792 -0.074,-0.139 -0.163,-0.28 -0.301,-0.357 -0.111,-0.062 -0.241,-0.076 -0.368,-0.076 -1.176,0.001 -2.025,1.062 -2.831,1.918 -2.796,2.968 -6.644,5.158 -9.958,7.505 -5.691,4.032 -11.891,8.593 -14.466,15.298 -2.581,6.721 -4.424,14.135 -9.349,19.625 -1.367,1.524 -2.994,2.789 -4.503,4.172 -1.458,1.336 -3.543,3.056 -4.442,4.846 -0.928,1.848 -0.227,2.074 1.497,3.236 3.463,2.334 7.452,3.917 11.297,5.492 2.75,1.127 7.678,-9.833 9.368,-11.529 1.507,-1.512 3.575,-2.308 5.298,-3.567 4.574,-3.343 4.676,-8.221 7.118,-12.769 1.747,-3.253 4.207,-5.511 7.276,-7.523 1.936,-1.269 3.827,-2.99 5.242,-4.816 0.546,-0.704 1.441,-1.831 1.23,-2.806 -0.147,-0.683 -0.876,-1.187 -1.632,-1.395 z"
   id="path66" />
			</g>
			<path
   id="XMLID_206_"
   style="fill:#6b5ccc"
   d="m 107.752,243.213 c -8.291,-0.99 -8.872,3.055 -11.66,6.987 -0.795,1.12 0.93,2.367 1.865,1.439 3.048,-3.024 7.037,-4.501 11.232,-5.072 1.394,-0.191 -0.67,-3.263 -1.437,-3.354 z" />
			<path
   id="XMLID_163_"
   style="fill:#241dab"
   d="m 124.396,242.268 c 0.05,0.884 0.089,1.768 0.131,2.652 -0.36,-0.118 -0.773,-0.065 -1.183,0.269 -0.617,0.504 -1.23,0.863 -1.903,1.088 -0.682,0.017 -1.371,0.127 -2.052,0.35 -1.639,0.536 -1.26,3.058 0.501,3.011 0.694,-0.019 1.367,-0.111 2.014,-0.279 1.209,0.072 2.333,0.671 3.068,1.75 0.844,1.24 4.898,0.569 4.854,-0.999 -0.077,-2.692 -1.345,-6.276 -2.351,-7.936 -1.026,-1.692 -3.19,-1.89 -3.079,0.094 z" />
			<path
   id="XMLID_126_"
   style="fill:#f6cca0"
   d="m 107.307,290.294 2.995,-1.726 c -1.706,-2.414 -1.985,-5.517 -2.358,-8.45 -0.015,-0.122 -0.032,-0.246 -0.049,-0.368 -0.731,-0.213 -1.411,-0.364 -1.971,-0.421 0.807,3.275 1.445,7.588 1.383,10.965 z" />
			<path
   id="XMLID_10_"
   style="fill:#f6bd94"
   d="m 130.462,304.686 c -0.428,-3.41 -0.087,-7.034 -0.056,-10.467 0.026,-2.983 0.212,-6.34 2.435,-8.33 0.762,-0.682 1.782,-1.242 2.009,-2.24 0.549,-2.412 -1.695,-3.192 -3.56,-3.192 -2.151,0 -4.42,-0.182 -6.499,-0.762 -1.69,-0.471 -2.185,-0.681 -3.708,0.446 -1.433,1.06 -4.324,4.764 -6.335,2.978 -1.398,-1.242 -4.425,-2.664 -6.852,-3.37 0.017,0.123 0.033,0.246 0.049,0.368 0.373,2.933 -1.213,2.485 -2.02,-0.79 0.561,0.058 1.24,0.208 1.971,0.421 -0.136,-0.04 -1.004,-4.466 -1.234,-4.979 -0.546,-1.219 -1.879,-3.773 -3.557,-3.275 -2.896,0.86 -1.44,9.849 -1.3,12.052 0.566,8.911 1.973,18.087 -0.483,26.848 -2.255,8.041 -3.74,14.536 -1.523,22.916 1.484,5.608 5.026,11.5 10.752,12.433 2.675,0.436 5.394,-0.304 7.963,-1.17 2.423,-0.817 4.84,-1.771 6.889,-3.301 4.135,-3.088 6.327,-8.239 6.947,-13.362 0.857,-7.086 -0.402,-15.042 -1.702,-22.031 -0.074,-0.393 -0.135,-0.791 -0.186,-1.193 z" />
			<path
   id="XMLID_119_"
   style="fill:#f6bd94"
   d="m 138.52,270.774 c -0.703,-2.844 -1.73,-5.6 -2.7,-8.439 -1.65,-4.829 -3.988,-9.425 -6.95,-13.582 -1.376,-1.932 -2.088,-2.73 -4.492,-2.474 -1.869,0.199 -3.71,0.876 -5.443,1.57 -3.15,1.262 -6.355,2.828 -9.126,4.806 -3.901,2.786 -2.977,5.07 -5.031,9.401 -3.464,7.306 -1.092,16.255 3.594,22.844 3.517,4.946 9.664,7.332 15.564,7.648 2.799,0.15 5.6,0.049 7.876,-1.706 2.509,-1.936 5.198,-3.544 6.506,-6.617 0.988,-2.32 1.13,-4.908 1.065,-7.429 -0.053,-2.085 -0.382,-4.074 -0.863,-6.022 z" />
			
			
			<g
   id="XMLID_96_">
				<path
   id="XMLID_108_"
   style="fill:#241dab"
   d="m 96.45,255.475 c 0.237,-1.085 -0.825,-1.735 -1.646,-1.361 -0.518,-0.459 -1.359,-0.526 -1.744,0.267 -1.005,2.07 -1.623,4.279 -1.858,6.516 -1.436,4.839 -0.922,10.031 3.676,13.374 0.581,0.422 1.296,0.082 1.622,-0.463 1.045,1.076 2.692,-0.588 1.658,-1.698 -4.234,-4.547 -2.901,-11.171 -1.708,-16.635 z" />
				
					<linearGradient
   id="SVGID_00000098929932478672342830000008730178020540256161_"
   gradientUnits="userSpaceOnUse"
   x1="150.92599"
   y1="237.8597"
   x2="82.633499"
   y2="268.41769">
					<stop
   offset="0"
   style="stop-color:#FF59BD"
   id="stop78" />
					<stop
   offset="0.4418"
   style="stop-color:#121261"
   id="stop80" />
					<stop
   offset="1"
   style="stop-color:#121261"
   id="stop82" />
				</linearGradient>
				<path
   style="fill:url(#SVGID_00000098929932478672342830000008730178020540256161_)"
   d="m 128.758,232.084 c -0.227,-1.377 -0.663,-2.77 -1.592,-3.812 -1.645,-1.844 -4.589,-2.144 -6.831,-1.103 -2.242,1.04 -3.822,3.18 -4.716,5.484 -0.016,0.04 -0.031,0.081 -0.046,0.121 -0.558,1.476 -0.864,3.026 -1.093,4.592 -0.262,0.136 -0.514,0.281 -0.743,0.446 -0.152,0.11 -0.302,0.235 -0.453,0.358 -0.446,-0.264 -0.987,-0.39 -1.487,-0.269 -2.384,0.572 -2.291,3.273 -3.425,4.956 -1.441,1.09 -3.27,1.981 -5.339,3.031 -1.112,0.469 -2.2,0.975 -3.147,1.678 0,0 -10e-4,0.001 -10e-4,0.001 -0.353,0.262 -0.713,0.565 -1.074,0.889 -0.227,0.2 -0.445,0.406 -0.659,0.616 -2.764,2.691 -5.394,6.493 -5.475,6.597 -5.062,6.516 -5.131,11.244 -2.878,14.39 3.596,5.022 4.308,6.596 9.283,10.246 0.536,0.393 1.072,0.842 1.601,1.269 0.491,0.431 1.014,0.825 1.542,1.112 1.239,0.729 2.396,0.844 3.37,-0.835 0,-10e-4 0.001,-10e-4 0.002,-0.002 0.307,-0.53 0.628,-0.96 0.902,-1.337 0.822,-1.131 1.222,-1.791 -0.44,-3.276 -1.109,-0.991 -0.597,-0.975 -1.759,-1.904 -0.436,-0.348 -0.849,-0.755 -1.189,-1.206 -0.436,-0.576 -0.748,-1.225 -0.847,-1.914 -0.03,-0.21 -0.046,-0.422 -0.033,-0.638 0.004,-0.058 -0.034,-0.113 -0.101,-0.166 -0.472,-0.369 -2.417,-0.614 -2.073,-0.833 0.128,-0.082 0.605,-0.707 1.088,-1.319 0.362,-0.46 0.726,-0.913 0.948,-1.125 0.074,-0.071 0.132,-0.115 0.169,-0.124 1.839,-0.428 4.487,-0.116 5.089,-1.906 0.315,-0.938 0.608,-2.651 0.882,-4.456 0.091,-0.601 0.18,-1.213 0.267,-1.809 0.174,-1.192 0.34,-2.324 0.499,-3.193 0.159,-0.869 0.311,-1.474 0.458,-1.613 0.103,-0.602 0.336,-1.088 0.667,-1.492 0.221,-0.269 0.485,-0.502 0.784,-0.709 0.224,-0.155 0.473,-0.292 0.733,-0.422 0.367,-0.184 0.764,-0.349 1.183,-0.502 0.141,-0.052 0.284,-0.103 0.429,-0.154 0.235,-0.081 0.475,-0.162 0.718,-0.243 0.245,-0.081 0.492,-0.163 0.742,-0.247 0.712,-0.24 1.434,-0.499 2.125,-0.826 0.208,-0.098 0.412,-0.203 0.613,-0.315 0,0 0,0 0,0 2.619,-1.458 5.703,-2.758 7.728,-5.006 0.534,-0.479 1.057,-0.984 1.559,-1.551 0.969,-1.613 1.464,-3.281 1.647,-4.941 0.561,-2.105 0.743,-4.294 0.373,-6.538 z"
   id="path85" />
			</g>
			<path
   id="XMLID_94_"
   style="fill:#010101"
   d="m 98.813,264.457 c -2.465,0.982 -5.248,2.848 -6.038,5.229 -0.619,1.867 4.319,3.401 4.933,1.552 0.479,-1.443 1.062,-3.35 2.574,-4.033 -0.01,0.291 0.05,0.589 0.198,0.859 1.924,3.521 3.363,7.205 4.383,11.068 0.1,0.38 0.297,0.645 0.542,0.817 -0.01,0.105 -0.021,0.209 -0.037,0.314 -1.038,1.031 -3.082,0.69 -4.469,0.453 -1.161,-0.199 -2.582,1.175 -1.626,2.307 3.219,3.815 14.887,1.491 7.348,-13.24 -0.396,-1.71 -3.465,-7.056 -7.808,-5.326 z" />
			<path
   id="XMLID_101_"
   style="fill:#bff7ff"
   d="m 103.627,272.238 c -0.142,-0.342 -0.285,-0.683 -0.429,-1.024 -0.313,-0.793 -0.641,-1.659 -1.061,-2.448 -0.672,-1.444 -1.598,-2.821 -3.284,-3.152 -2.039,-0.4 -3.712,0.721 -4.874,2.32 -1.694,1.487 -2.067,4.594 -1.793,6.774 0.488,3.884 2.731,7.21 6.026,9.269 0.208,0.13 0.412,0.202 0.608,0.227 1.293,0.634 2.605,0.507 4.041,-0.108 1.126,-0.482 2.166,-1.078 2.735,-2.247 0.38,-0.78 0.496,-1.583 0.454,-2.386 0.07,-2.49 -1.441,-5.039 -2.423,-7.225 z" />
			<path
   id="XMLID_176_"
   style="fill:#bff7ff"
   d="m 96.317,249.538 c -1.318,2.348 -2.565,4.767 -3.252,7.372 -1.342,5.092 -0.451,10.484 0.646,15.634 0.67,-0.918 1.391,-1.723 2.469,-2.066 0.403,-0.128 0.873,-0.173 1.308,-0.282 0.478,-0.12 0.914,-0.317 1.174,-0.788 0.341,-0.618 0.119,-1.379 -0.082,-2.056 -1.269,-4.269 -1.336,-8.876 -0.265,-13.194 0.491,-1.979 1.169,-4.042 2.315,-5.725 0.806,-1.183 3.709,-3.067 4.23,-4.515 -2.001,0.899 -3.853,2.174 -5.778,3.237 -0.463,0.553 -2.412,1.753 -2.765,2.383 z" />
			<g
   id="XMLID_128_">
				<path
   style="fill:#001369"
   d="m 290.541,263.028 c -1.052,-0.714 -2.104,-1.429 -3.156,-2.143 -14.4,14.126 -28.695,28.376 -42.352,43.289 -2.362,2.58 -4.729,5.195 -7.555,7.256 -3.84,2.801 -8.37,4.468 -12.835,6.1 -4.384,1.603 -8.989,3.232 -13.613,2.588 -2.643,-0.368 -5.12,-1.462 -7.633,-2.36 -13.06,-4.666 -27.326,-4.099 -41.18,-3.474 -6.299,0.284 -22.352,4.225 -26.865,-1.647 -2.413,-3.139 -2.258,-10.028 -2.705,-13.859 0,0 0,0 -0.655,0.077 -3.768,0.445 -3.741,1.433 -4.712,5.101 -1.767,6.673 -2.393,17.204 -3.186,24.062 -0.228,1.973 -0.437,4.02 -1.441,5.734 -1.004,1.714 -3.058,2.993 -4.963,2.432 -1.529,-0.45 -2.552,-1.958 -2.907,-3.512 -0.354,-1.554 -0.164,-3.173 -0.013,-4.76 0.468,-4.914 0.542,-9.866 0.222,-14.792 -0.548,-8.422 -3.985,-17.068 -13.327,-15.2 -1.576,19.137 -10.45,20.995 -11.979,22.035 -2.975,1.092 -6.178,1.807 -8.5,2.677 -5.52,2.067 -10.839,4.667 -15.851,7.77 -10.038,6.214 -18.828,14.341 -25.857,23.821 -1.527,2.059 -2.96,4.183 -4.298,6.363 -10.883,16.578 -17.358,36.669 -24.427,55.055 -4.005,10.418 -7.909,20.874 -11.951,31.278 -4.33,11.144 -6.889,21.286 -9.139,33.117 -0.79,4.155 -1.583,8.405 -0.967,12.589 0.617,4.184 2.917,8.366 6.777,10.097 4.7,2.108 11.954,-0.755 14.612,-5.067 5.178,-8.402 10.303,-16.922 13.708,-26.185 1.825,-4.964 3.141,-10.104 4.985,-15.061 5.056,-13.593 13.909,-25.398 22.929,-36.755 6.524,-8.215 13.24,-16.343 18.737,-25.304 4.035,-6.578 7.982,-16.476 14.137,-21.295 6.195,-4.85 12.718,-11.188 21.12,-11.059 6.345,0.098 9.464,6.918 15.149,9.519 3.76,1.72 7.953,2.242 12.083,2.432 2.616,0.12 5.24,0.116 7.851,-0.084 15.122,-1.158 26.829,-10.746 40.988,-14.985 7.021,-2.102 14.471,-2.135 21.8,-2.151 5.442,-0.012 10.885,-0.024 16.327,-0.036 22.763,-0.051 36.727,-12.036 49.552,-29.806 1.038,-1.439 2.077,-2.877 3.115,-4.316 3.116,-4.873 6.634,-9.485 9.607,-14.449 7.282,-12.157 12.98,-24.694 20.041,-36.627 -4.994,-3.621 -6.819,-4.659 -11.673,-8.465 z"
   id="path91" />
			</g>
			<g
   id="XMLID_8_">
				<path
   style="fill:#001369"
   d="m 64.33,376.014 c -0.822,5.565 0.236,10.824 2.262,15.98 2.004,5.101 2.022,10.767 2.631,16.188 1.554,13.839 3.108,27.678 4.662,41.517 0.319,2.841 -0.06,6.809 1.825,9.16 1.478,1.843 3.99,2.422 6.306,2.887 5.832,1.17 11.698,2.345 17.644,2.518 4.488,0.13 8.973,-0.312 13.428,-0.874 8.614,-1.086 17.171,-2.621 25.625,-4.596 7.928,-1.852 15.837,-5.833 24.216,-4.105 9.635,-26.834 2.127,-57.718 12.721,-84.187 2.122,-5.3 4.932,-10.304 7.047,-15.608 0.826,-2.07 1.531,-4.468 0.525,-6.457 -1.003,-1.983 -3.346,-2.839 -5.503,-3.372 -6.525,-1.612 -18.015,-3.518 -23.773,0.829 -5.624,4.246 -10.878,5.38 -17.972,5.007 -9.49,-0.499 -18.38,-4.008 -27.304,-6.951 -3.944,-1.301 -8.33,-2.319 -12.137,-3.901 -2.898,-1.204 -4.34,-2.449 -6.991,0.582 -5.416,6.193 -12.26,11.388 -17.379,18.032 -3.911,5.074 -6.904,11.067 -7.833,17.351 z"
   id="path94" />
				<path
   style="fill:#1828a1"
   d="m 127.343,454.575 c -9.304,0.79 -18.643,1.261 -27.983,1.204 -4.797,-0.029 -9.594,-0.196 -14.379,-0.545 -2.874,-0.21 -9.889,-2.475 -11.643,0.429 -7.208,11.937 -12.918,24.773 -16.991,38.108 -2.068,6.77 -3.714,13.669 -4.919,20.645 -0.67,3.875 -3.683,13.052 2.124,14.703 1.306,-3.093 9.64,-0.713 12.629,-0.64 9.31,0.228 18.624,0.272 27.935,0.132 11.309,-0.17 22.613,-0.623 33.9,-1.336 6.364,-0.402 22.385,0.857 26.854,-5.211 3.606,-4.897 12.358,-2.357 15.369,-9.333 0.819,-1.898 0.871,-4.026 0.888,-6.092 0.162,-19.744 -1.784,-39.503 -5.775,-58.839 -12.388,3.489 -25.143,5.683 -38.009,6.775 z"
   id="path96" />
				<path
   id="XMLID_124_"
   style="fill:#001369"
   d="m 151.137,324.711 c -0.072,0.411 -0.116,0.825 -0.149,1.24 z" />
			</g>
			<path
   id="XMLID_79_"
   style="fill:#bff7ff"
   d="m 104.382,243.158 c -3.02,-0.383 -5.89,2.429 -7.686,4.549 -2.049,2.421 -3.482,5.257 -4.232,8.337 -0.198,0.814 0.372,1.419 1.145,1.503 2.678,0.293 4.889,-0.309 5.74,-3.075 1.015,-3.298 4.291,-8.216 7.078,-10.352 0.367,-0.281 -1.172,-0.851 -2.045,-0.962 z" />
			<g
   id="XMLID_1_">
				
					<linearGradient
   id="SVGID_00000093875973791507552860000005575598309110683578_"
   gradientUnits="userSpaceOnUse"
   x1="218.55231"
   y1="360.0473"
   x2="216.60049"
   y2="350.72198">
					<stop
   offset="0"
   style="stop-color:#554DFF"
   id="stop101" />
					<stop
   offset="0.9955"
   style="stop-color:#001369"
   id="stop103" />
				</linearGradient>
				<path
   style="fill:url(#SVGID_00000093875973791507552860000005575598309110683578_)"
   d="m 244.798,350.762 c 3.047,-1.698 10.798,-6.041 10.556,-8.848 -0.087,-1.013 -1.066,-1.762 -2.066,-1.941 -1.001,-0.179 -2.021,0.077 -3.01,0.315 -16.605,4 -33.955,3.275 -50.889,5.507 -3.844,0.507 -7.722,1.183 -11.233,2.824 -6.037,2.822 -8.01,7.631 -9.75,13.644 0.28,-0.965 6.381,-1.074 7.108,-1.114 3.056,-0.168 6.118,-0.172 9.177,-0.147 0.888,-0.022 1.777,-0.044 2.665,-0.068 1.291,0.012 2.584,0.005 3.878,-0.017 14.802,-0.628 29.704,-2.257 42.786,-9.72 0.2,-0.114 0.464,-0.26 0.778,-0.435 z"
   id="path106" />
				
					<linearGradient
   id="XMLID_00000083065476498005772760000008751415903848682939_"
   gradientUnits="userSpaceOnUse"
   x1="5.5081"
   y1="397.8331"
   x2="29.3634"
   y2="406.94159">
					<stop
   offset="1.300000e-07"
   style="stop-color:#AB00B7"
   id="stop108" />
					<stop
   offset="0.9955"
   style="stop-color:#001369"
   id="stop110" />
				</linearGradient>
				<path
   id="XMLID_158_"
   style="fill:url(#XMLID_00000083065476498005772760000008751415903848682939_)"
   d="m 19.45,392.477 c -3.358,8.527 -6.408,17.161 -9.585,25.448 -4.028,10.506 -7.958,21.051 -12.064,31.527 -1.71,4.364 -5.138,9.439 -6.173,13.858 -1.393,5.947 4.162,9.699 8.449,4.408 8.72,-10.76 12.831,-24.398 17.86,-37.302 7.396,-18.979 17.125,-36.99 28.06,-54.176 6.315,-9.925 13.308,-20.486 12.858,-32.242 -0.032,-0.84 -0.137,-1.756 -0.731,-2.35 -0.957,-0.956 -2.567,-0.564 -3.814,-0.038 -9.518,4.009 -13.768,10.792 -19.131,18.96 -6.416,9.776 -11.335,20.75 -15.729,31.907 z" />
			</g>
			<path
   id="XMLID_90_"
   style="fill:#1828a1"
   d="m 131.465,297.798 c -5.847,2.805 -5.909,11.986 -6.334,17.473 -0.328,4.242 -0.483,8.514 -1.24,12.709 -0.364,2.017 -0.742,4.256 -1.87,6.007 -1.101,1.708 -3.503,3.039 -5.073,1.846 -0.015,-0.076 0.005,-0.19 -0.07,-0.236 -3.261,-2.015 0.07,-17.023 -1.261,-25.516 -1.031,-6.579 -5.733,-13.191 -13.091,-12.646 -1.5,0.111 -1.512,2.464 0,2.352 8.478,-0.628 11.89,8.857 11.077,15.559 -1.286,10.607 -0.502,18.801 0.397,20.447 1.011,1.85 2.68,2.798 4.432,2.849 5.577,22.805 8.008,46.263 7.233,69.729 -0.05,1.514 2.302,1.512 2.352,0 0.78,-23.608 -1.681,-47.239 -7.277,-70.185 0.227,-0.098 0.452,-0.205 0.671,-0.335 3.696,-2.174 4.461,-7.103 5.024,-10.964 0.688,-4.717 0.8,-9.486 1.272,-14.225 0.402,-4.035 0.701,-10.798 4.943,-12.833 1.366,-0.655 0.175,-2.683 -1.185,-2.031 z" />
			
			
			<path
   id="XMLID_105_"
   style="fill:#bff7ff"
   d="m 98.724,268.076 c -1.277,-0.75 -2.955,-0.852 -4.44,-0.032 -1.286,0.71 -2.062,1.764 -2.447,2.965 -0.224,0.49 -0.388,1.013 -0.47,1.559 -0.498,3.293 1.52,8.187 4.586,9.98 0.665,0.465 1.42,0.807 2.293,0.96 2.903,0.508 5.228,-1.539 5.436,-4.401 0.228,-3.126 -1.655,-7.37 -3.526,-9.815 -0.446,-0.584 -0.929,-0.975 -1.432,-1.216 z" />
			<g
   id="XMLID_58_">
				
					<linearGradient
   id="XMLID_00000030486817975968331120000001893274859920288686_"
   gradientUnits="userSpaceOnUse"
   x1="124.3023"
   y1="262.4393"
   x2="145.9091"
   y2="247.00591">
					<stop
   offset="0"
   style="stop-color:#554DFF"
   id="stop119" />
					<stop
   offset="0.9955"
   style="stop-color:#17F3FF"
   id="stop121" />
				</linearGradient>
				
				
					<linearGradient
   id="XMLID_00000097495271456314317100000013624475868827130297_"
   gradientUnits="userSpaceOnUse"
   x1="122.4928"
   y1="259.90591"
   x2="144.0995"
   y2="244.4725">
					<stop
   offset="0"
   style="stop-color:#554DFF"
   id="stop125" />
					<stop
   offset="0.9955"
   style="stop-color:#17F3FF"
   id="stop127" />
				</linearGradient>
				
			</g>
			
			<g
   id="g146">
				<defs
   id="defs134">
					<path
   id="XMLID_4_"
   d="m 83.533,376.626 c 1.068,-1.585 2.203,-3.122 3.442,-4.585 4.49,-5.302 11.493,-10.156 18.727,-10.045 6.345,0.098 9.464,6.918 15.15,9.519 3.76,1.72 7.953,2.243 12.083,2.433 2.616,0.12 5.24,0.116 7.851,-0.084 15.122,-1.158 26.829,-10.746 40.988,-14.985 7.021,-2.102 14.471,-2.135 21.8,-2.151 5.442,-0.012 10.885,-0.024 16.327,-0.036 22.763,-0.051 36.727,-12.036 49.552,-29.806 8.757,-12.134 17.514,-24.267 26.272,-36.4 2.11,-2.924 4.22,-5.848 6.33,-8.771 1.055,-1.462 2.108,-2.925 3.165,-4.386 1.367,-1.888 0.231,-2.902 -1.25,-4.588 -2.204,-2.51 -4.553,-3.684 -7.331,-5.57 -3.085,-2.095 -6.171,-4.19 -9.256,-6.285 -14.4,14.127 -28.695,28.376 -42.352,43.289 -2.362,2.58 -4.729,5.195 -7.555,7.256 -3.84,2.801 -8.37,4.468 -12.835,6.1 -4.384,1.603 -8.989,3.232 -13.612,2.588 -2.643,-0.368 -5.12,-1.462 -7.633,-2.36 -13.06,-4.666 -27.326,-4.099 -41.18,-3.474 -6.299,0.284 -22.353,4.225 -26.865,-1.647 -2.413,-3.139 -2.258,-10.028 -2.705,-13.859 0,0 0,0 -0.655,0.077 -3.768,0.445 -3.74,1.433 -4.712,5.101 -1.767,6.673 -2.393,17.204 -3.186,24.062 -0.228,1.973 -0.437,4.02 -1.441,5.734 -1.004,1.714 -3.058,2.993 -4.963,2.432 -1.529,-0.45 -2.552,-1.958 -2.907,-3.512 -0.354,-1.554 -0.164,-3.173 -0.013,-4.759 0.468,-4.914 0.542,-9.866 0.222,-14.792 -0.548,-8.422 -3.985,-17.069 -13.327,-15.201 -1.577,19.137 -10.45,20.995 -11.979,22.035 -2.976,1.092 -6.178,1.807 -8.5,2.677 -5.52,2.067 -10.839,4.667 -15.851,7.77 -10.038,6.214 -18.828,14.341 -25.857,23.821 -1.527,2.059 -2.96,4.183 -4.298,6.363 -10.883,16.578 -17.358,36.669 -24.427,55.054 -4.005,10.418 -7.909,20.874 -11.951,31.278 -4.329,11.144 -6.889,21.286 -9.139,33.117 -0.79,4.155 -1.583,8.405 -0.967,12.589 0.617,4.184 2.917,8.366 6.777,10.097 9.878,4.43 16.784,-9.453 19.777,-16.573 4.007,-9.533 8.014,-19.065 12.021,-28.598 1.609,-3.827 3.26,-7.724 5.973,-10.867 2.113,-2.448 4.783,-4.336 7.22,-6.461 5.693,-4.964 10.097,-11.209 14.392,-17.422 5.801,-8.391 11.892,-16.736 17.193,-25.454 4.142,-6.809 6.906,-13.929 11.485,-20.721 z" />
				</defs>
				<clipPath
   id="XMLID_00000079455463805461449980000013338914351559709100_">
					<use
   xlink:href="#XMLID_4_"
   style="overflow:visible"
   id="use136"
   x="0"
   y="0"
   width="100%"
   height="100%" />
				</clipPath>
				
					<linearGradient
   id="SVGID_00000011017996439743248530000012314161066781542025_"
   gradientUnits="userSpaceOnUse"
   x1="257.3389"
   y1="279.25461"
   x2="268.61591"
   y2="290.53159">
					<stop
   offset="1.300000e-07"
   style="stop-color:#C429CF"
   id="stop139" />
					<stop
   offset="0.9955"
   style="stop-color:#001369"
   id="stop141" />
				</linearGradient>
				
					<path
   style="fill:url(#SVGID_00000011017996439743248530000012314161066781542025_)"
   d="m 250.1,304.378 c -1.213,1.011 -2.418,2.009 -3.61,2.992 -3.189,2.632 -7.15,5.353 -11.126,4.219 3.323,-5.951 8.359,-9.29 13.035,-13.926 4.886,-4.844 9.24,-10.206 13.596,-15.522 5.918,-7.222 11.833,-14.447 17.753,-21.667 1.378,-1.68 3.693,-6.801 6.38,-6.197 2.151,0.483 2.856,3.721 2.759,5.569 -0.229,4.378 -4.089,8.775 -6.525,12.186 -8.522,11.928 -20.769,22.766 -32.262,32.346 z"
   clip-path="url(#XMLID_00000079455463805461449980000013338914351559709100_)"
   id="path144" />
			</g>
			<path
   style="fill:#1828a1"
   d="m 130.519,406.003 c -1.04,-1.105 -2.628,-1.786 -4.623,-1.579 -2.959,0.307 -5.175,3.433 -4.591,6.335 0.674,3.354 4.628,4.896 7.551,3.386 3.626,-1.873 3.782,-5.89 1.663,-8.142 z"
   id="path148" />
		</g>
		<path
   style="fill:#001369"
   d="m 1041.1548,483.36771 c 0.044,-2.571 4.044,-2.579 4,0 -0.094,5.444 0.013,10.88 0.405,16.311 0.158,2.19 0.785,19.517 5.461,17.405 2.328,-1.051 4.364,2.395 2.019,3.454 -5.936,2.681 -9.2,-2.709 -10.061,-7.921 -1.59,-9.628 -1.992,-19.506 -1.824,-29.249 z"
   clip-path="none"
   id="path152" />
		
			<linearGradient
   id="SVGID_00000035488808300963467750000007036277310890286780_"
   gradientUnits="userSpaceOnUse"
   x1="501.29401"
   y1="-49.0891"
   x2="343.66281"
   y2="200.18851"
   gradientTransform="matrix(-1,0,0,1,1175.2188,29.160706)">
			<stop
   offset="0"
   style="stop-color:#1D31CC"
   id="stop154" />
			<stop
   offset="0.9955"
   style="stop-color:#00BADB"
   id="stop156" />
		</linearGradient>
		
			<path
   style="fill:url(#SVGID_00000035488808300963467750000007036277310890286780_)"
   d="m 854.44884,222.37371 c 1,-4.242 1.459,-8.654 1.683,-13.009 1.837,-35.685 -12.552,-79.134 -37.817,-104.877 -9.758,-9.943004 -21.912,-17.300004 -31.57,-27.339004 -7.627,-7.928 -13.839,-17.475 -18.731,-27.307 -4.284,-8.611 -4.068,-16.527 -6.623,-25.411 -4.435,-15.4239999 -16.61,-29.1929999 -30.671,-36.651 -13.684,-7.258 -33.393,-8.596 -45.158,2.6920001 -1.265,1.214 -2.476,2.486 -3.624,3.811 -17.947,20.7119999 -13.23,54.6319999 -7.373,79.4199999 6.243,26.422004 19.134,52.013004 39.63,70.218004 13.233,11.754 27.419,22.434 42.373,31.901 15.184,9.613 31.815,18.565 43.629,32.444 10.467,12.297 9.413,36.997 30.379,37.281 8.187,0.111 15.672,-5.468 19.781,-12.55 1.919,-3.309 3.214,-6.901 4.092,-10.623 z"
   clip-path="none"
   id="path159" />
		
			<linearGradient
   id="SVGID_00000177450584760464355790000012148034805604045227_"
   gradientUnits="userSpaceOnUse"
   x1="486.89719"
   y1="22.6609"
   x2="362.173"
   y2="219.8994"
   gradientTransform="matrix(-0.9949,-0.1013,-0.1013,0.9949,1180.9181,67.641206)">
			<stop
   offset="0"
   style="stop-color:#4D5CFF"
   id="stop161" />
			<stop
   offset="0.9955"
   style="stop-color:#18DCFF"
   id="stop163" />
		</linearGradient>
		
			<path
   style="fill:url(#SVGID_00000177450584760464355790000012148034805604045227_)"
   d="m 814.15584,198.72171 c -11.382,-8.554 -24.29,-15.081 -35.144,-24.321 -10.465,-8.91 -18.834,-20.267 -24.246,-32.901 -4.901,-11.443 -7.357,-23.757 -11.003,-35.66 -4.463,-14.567004 -12.336,-28.896004 -23.963,-38.960004 -9.721,-8.414 -27.33,-17.493 -37.848,-5.741 -16.121,18.012 -0.785,53.916004 9.216,72.424004 11.77,21.781 29.897,39.605 51.936,50.905 17.686,9.068 37.689,14.786 51.975,28.604 8.335,8.062 23.774,36.257 38.361,33.129 18.427,-3.951 -8.98,-39.081 -15.206,-44.261 -1.333,-1.108 -2.694,-2.178 -4.078,-3.218 z"
   clip-path="none"
   id="path166" />
		
			<linearGradient
   id="SVGID_00000031203423991353689030000007867124751407580861_"
   gradientUnits="userSpaceOnUse"
   x1="436.0636"
   y1="-34.253601"
   x2="301.8609"
   y2="177.9742"
   gradientTransform="matrix(-1,0,0,1,1175.2188,29.160706)">
			<stop
   offset="0"
   style="stop-color:#554DFF"
   id="stop168" />
			<stop
   offset="0.9955"
   style="stop-color:#17F3FF"
   id="stop170" />
		</linearGradient>
		
			<path
   style="fill:url(#SVGID_00000031203423991353689030000007867124751407580861_)"
   d="m 855.25984,178.30671 c -0.804,-4.7 -1.919,-9.347 -3.344,-13.898 -3.954,-12.63 -10.221,-24.46 -13.896,-37.174 -8.566,-29.634004 -2.454,-61.354004 -4.868,-92.107004 -2.872,-36.6009999 -50.052,-66.544 -78.061,-33.1739999 -9.259,11.0309999 -11.281,26.3549999 -11.448,40.7559999 -0.352,30.302 6.993,58.777004 22.524,84.776004 14.808,24.79 38.195,42.107 42.903,72.748 1.612,10.492 0.915,21.524 4.963,31.337 4.048,9.813 15.458,17.924 25.084,13.449 3.73,-1.734 6.502,-5.043 8.64,-8.557 4.029,-6.62 6.211,-14.214 7.52,-21.853 2.054,-11.986 2.033,-24.319 -0.017,-36.303 z"
   clip-path="none"
   id="path173" />
		
			<linearGradient
   id="SVGID_00000011713896670204395090000012978630004617931706_"
   gradientUnits="userSpaceOnUse"
   x1="250.9951"
   y1="4.1863999"
   x2="318.45291"
   y2="4.1863999"
   gradientTransform="matrix(-1,0,0,1,1175.2188,29.160706)">
			<stop
   offset="0"
   style="stop-color:#554DFF"
   id="stop175" />
			<stop
   offset="0.9955"
   style="stop-color:#17F3FF"
   id="stop177" />
		</linearGradient>
		
			<path
   style="fill:url(#SVGID_00000011713896670204395090000012978630004617931706_)"
   d="m 904.59184,24.979706 c 7.222,6.487 15.212,12.986 18.325,22.181 2.145,6.335 1.628,13.525 -1.4,19.488 -2.716,5.348 -8.495,10.15 -14.816,9.529 -8.85,-0.87 -6.189,-8.494 -7.415,-14.652 -0.481,-2.414 -2.169,-4.399 -3.953,-6.095 -14.388,-13.672 -33.71,-16.449 -37.741,-38.66 -1.314,-7.2429999 -1.573,-15.4899999 3.179,-21.1119999 4.728,-5.594 13.597,-6.6710001 20.063,-3.229 7.122,3.791 8.103,9.781 10.88,16.483 2.557,6.1729999 7.978,11.6659999 12.878,16.0669999 z"
   clip-path="none"
   id="path180" />
		<g
   clip-path="none"
   id="g195"
   transform="matrix(-1,0,0,1,1175.2188,29.160706)">
			<defs
   id="defs183">
				<path
   id="SVGID_00000008151199395100843170000013766778809826123912_"
   d="m 127.343,454.575 c -9.304,0.79 -18.643,1.261 -27.983,1.204 -4.797,-0.029 -9.594,-0.196 -14.379,-0.545 -2.874,-0.21 -9.889,-2.475 -11.643,0.429 -7.208,11.937 -12.918,24.773 -16.991,38.108 -2.068,6.77 -3.714,13.669 -4.919,20.645 -0.67,3.875 -3.683,13.052 2.124,14.703 1.306,-3.093 9.64,-0.713 12.629,-0.64 9.31,0.228 18.624,0.272 27.935,0.132 11.309,-0.17 22.613,-0.623 33.9,-1.336 6.364,-0.402 22.385,0.857 26.854,-5.211 3.606,-4.897 12.358,-2.357 15.369,-9.333 0.819,-1.898 0.871,-4.026 0.888,-6.092 0.162,-19.744 -1.784,-39.503 -5.775,-58.839 -12.388,3.489 -25.143,5.683 -38.009,6.775 z" />
			</defs>
			<clipPath
   id="SVGID_00000146457102356665943870000012472397285208243370_">
				<use
   xlink:href="#SVGID_00000008151199395100843170000013766778809826123912_"
   style="overflow:visible"
   id="use185"
   x="0"
   y="0"
   width="100%"
   height="100%" />
			</clipPath>
			
				<linearGradient
   id="SVGID_00000171708084733375571580000018020750986995857815_"
   gradientUnits="userSpaceOnUse"
   x1="52.405998"
   y1="485.97531"
   x2="77.128899"
   y2="495.08371">
				<stop
   offset="0"
   style="stop-color:#554DFF"
   id="stop188" />
				<stop
   offset="0.9955"
   style="stop-color:#1828A1"
   id="stop190" />
			</linearGradient>
			
				<path
   style="fill:url(#SVGID_00000171708084733375571580000018020750986995857815_)"
   d="m 82.033,452.523 c 2.038,4.766 2.87,11.17 2.681,14.105 -0.385,5.967 -2.439,11.683 -4.473,17.306 -2.831,7.828 -5.663,15.657 -8.494,23.485 -1.665,4.604 -16.823,37.541 -21.941,23.474 -2.543,-6.989 -2.018,-15.029 -1.097,-22.264 1.45,-11.392 4.347,-22.595 8.566,-33.275 2.169,-5.49 4.686,-10.842 7.537,-16.01 1.899,-3.443 3.887,-8.229 6.976,-10.823 4.809,-4.039 8.158,-0.877 10.245,4.002 z"
   clip-path="url(#SVGID_00000146457102356665943870000012472397285208243370_)"
   id="path193" />
		</g>
		
			<linearGradient
   id="SVGID_00000047748987029080986530000014548380719330341763_"
   gradientUnits="userSpaceOnUse"
   x1="243.63921"
   y1="191.46719"
   x2="342.97781"
   y2="-29.8778"
   gradientTransform="matrix(-1,0,0,1,1175.2188,29.160706)">
			<stop
   offset="0.0119"
   style="stop-color:#FF59BD"
   id="stop197" />
			<stop
   offset="0.8346"
   style="stop-color:#2424C7"
   id="stop199" />
			<stop
   offset="1"
   style="stop-color:#2424C7"
   id="stop201" />
		</linearGradient>
		
			<path
   style="fill:url(#SVGID_00000047748987029080986530000014548380719330341763_)"
   d="m 891.72084,95.498706 c -0.098,0.564 -0.194,1.127 -0.282,1.687 -3.426,21.947004 25.812,27.887004 32.406,45.495004 2.213,5.91 1.661,12.792 -1.465,18.274 -10.337,18.124 -34.531,10.687 -44.827,-3.205 -8.497,-11.465 -13.625,-28.815 -14.772,-42.898 -0.926,-11.376 1.323,-31.943004 13.294,-37.492004 3.033,-1.406 6.684,-1.408 9.719,-0.005 3.035,1.403 5.399,4.184 6.294,7.406 0.968,3.484 0.26,7.14 -0.367,10.738 z"
   clip-path="none"
   id="path204" />
		
			<linearGradient
   id="SVGID_00000131361136627346049610000009756250278241248421_"
   gradientUnits="userSpaceOnUse"
   x1="414.49829"
   y1="77.210701"
   x2="443.02551"
   y2="160.34711"
   gradientTransform="matrix(-1,0,0,1,1175.2188,29.160706)">
			<stop
   offset="0"
   style="stop-color:#554DFF"
   id="stop206" />
			<stop
   offset="0.9955"
   style="stop-color:#17F3FF"
   id="stop208" />
		</linearGradient>
		
			<path
   style="fill:url(#SVGID_00000131361136627346049610000009756250278241248421_)"
   d="m 738.74484,155.16171 c 3.767,0.699 7.487,2.127 10.328,4.698 2.84,2.57 4.692,6.398 4.289,10.208 -0.638,6.021 -7.086,10.417 -13.107,9.773 -6.02,-0.644 -11.075,-5.482 -13.076,-11.197 -0.65,-1.856 -1.024,-3.88 -0.557,-5.791 0.733,-2.995 3.442,-5.187 6.368,-6.159 2.926,-0.972 6.078,-0.932 9.161,-0.883"
   clip-path="none"
   id="path211" />
		
			<linearGradient
   id="SVGID_00000121982563545775486440000002029612041644972188_"
   gradientUnits="userSpaceOnUse"
   x1="318.47809"
   y1="18.146"
   x2="422.5744"
   y2="-99.829697"
   gradientTransform="matrix(-1,0,0,1,1175.2188,29.160706)">
			<stop
   offset="0.0119"
   style="stop-color:#FF59BD"
   id="stop213" />
			<stop
   offset="0.8346"
   style="stop-color:#2424C7"
   id="stop215" />
			<stop
   offset="1"
   style="stop-color:#2424C7"
   id="stop217" />
		</linearGradient>
		
			<path
   style="fill:url(#SVGID_00000121982563545775486440000002029612041644972188_)"
   d="m 843.41684,31.801706 c -2.122,2.548 -4.765,4.728 -7.857,5.926 -7.566,2.932 -16.585,-0.782 -21.498,-7.239 -4.913,-6.457 -6.297,-15.011 -5.791,-23.1089999 2.041,-32.7010001 61.343,-7.02700001 35.146,24.4219999 z"
   clip-path="none"
   id="path220" />
		
			<linearGradient
   id="SVGID_00000051369001872621921690000007833839755974795956_"
   gradientUnits="userSpaceOnUse"
   x1="275.09799"
   y1="189.84019"
   x2="314.7847"
   y2="132.5873"
   gradientTransform="matrix(-1,0,0,1,1175.2188,29.160706)">
			<stop
   offset="0.0119"
   style="stop-color:#FF59BD"
   id="stop222" />
			<stop
   offset="0.8346"
   style="stop-color:#2424C7"
   id="stop224" />
			<stop
   offset="1"
   style="stop-color:#2424C7"
   id="stop226" />
		</linearGradient>
		
			<path
   style="fill:url(#SVGID_00000051369001872621921690000007833839755974795956_)"
   d="m 889.82484,209.84871 c -0.642,0.193 -1.297,0.308 -1.937,0.335 -5.216,0.221 -10.573,-3.924 -13.87,-7.539 -5.129,-5.624 -10.191,-14.978 -9.574,-22.89 0.546,-7 8.3,-10.254 14.441,-8.124 5.34,1.852 9.46,6.835 10.276,12.427 0.33,2.259 0.158,4.563 0.365,6.836 0.427,4.697 3.871,6.775 5.455,10.812 1.476,3.764 -1.66,7.095 -5.156,8.143 z"
   clip-path="none"
   id="path229" />
		
			<linearGradient
   id="SVGID_00000119075352521183617150000012012912837070406822_"
   gradientUnits="userSpaceOnUse"
   x1="304.04239"
   y1="0.038899999"
   x2="321.69601"
   y2="51.486198"
   gradientTransform="matrix(-1,0,0,1,1175.2188,29.160706)">
			<stop
   offset="0"
   style="stop-color:#554DFF"
   id="stop231" />
			<stop
   offset="0.9955"
   style="stop-color:#17F3FF"
   id="stop233" />
		</linearGradient>
		
			<path
   style="fill:url(#SVGID_00000119075352521183617150000012012912837070406822_)"
   d="m 864.59084,61.701706 c 3.917,2.938 2.773,9.986 -1.605,12.177 -4.378,2.191 -10.178,-0.306 -12.357,-4.69 -0.724,-1.457 -1.118,-3.14 -0.748,-4.724 0.701,-2.997 3.987,-4.803 7.064,-4.843 3.077,-0.04 5.992,1.268 8.79,2.549"
   clip-path="none"
   id="path236" />
		
			<linearGradient
   id="SVGID_00000175319362312940680960000015592561229546103433_"
   gradientUnits="userSpaceOnUse"
   x1="300.55771"
   y1="-175.0937"
   x2="414.66101"
   y2="157.4362"
   gradientTransform="matrix(-1,0,0,1,1175.2188,29.160706)">
			<stop
   offset="0"
   style="stop-color:#554DFF"
   id="stop238" />
			<stop
   offset="0.9955"
   style="stop-color:#17F3FF"
   id="stop240" />
		</linearGradient>
		
			<path
   style="fill:url(#SVGID_00000175319362312940680960000015592561229546103433_)"
   d="m 760.17884,87.415706 c -2.191,-7.793 -3.188,-15.708 -2.142,-23.041 1.299,-9.108 7.741,-18.157 16.855,-19.411 6.063,-0.834 12.237,1.936 16.586,6.243 4.349,4.307 7.082,9.992 9.027,15.795 2.852,8.506 4.182,17.52 3.909,26.488 -0.243,7.972004 -1.739,15.879004 -1.751,23.854004 -0.011,7.975 1.668,16.348 6.897,22.369 3.705,4.266 13.376,12.259 3.916,15.385 -4.925,1.627 -11.433,-4.435 -14.678,-7.215 -9.578,-8.205 -17.497,-19.162 -24.308,-29.718 -5.553,-8.611 -11.163,-19.555004 -14.311,-30.749004 z"
   clip-path="none"
   id="path243" />
		
			<linearGradient
   id="SVGID_00000086653582943913251090000000694680332177348754_"
   gradientUnits="userSpaceOnUse"
   x1="361.03119"
   y1="241.7047"
   x2="403.97089"
   y2="204.62041"
   gradientTransform="matrix(-1,0,0,1,1175.2188,29.160706)">
			<stop
   offset="0"
   style="stop-color:#FF59BD"
   id="stop245" />
			<stop
   offset="0.8346"
   style="stop-color:#2424C7"
   id="stop247" />
			<stop
   offset="1"
   style="stop-color:#2424C7"
   id="stop249" />
		</linearGradient>
		
			<path
   style="fill:url(#SVGID_00000086653582943913251090000000694680332177348754_)"
   d="m 815.49584,248.08171 c 2.627,7.862 -0.685,17.137 -7.339,22.081 -6.654,4.943 -16.064,5.565 -23.611,2.138 -7.547,-3.427 -13.14,-10.568 -15.343,-18.559 -2.977,-10.802 1.7,-28.159 15.362,-28.031 11.319,0.105 27.419,11.858 30.931,22.371 z"
   clip-path="none"
   id="path252" />
		
			<linearGradient
   id="SVGID_00000001648433090894200620000000843419636310011527_"
   gradientUnits="userSpaceOnUse"
   x1="468.62579"
   y1="-30.3843"
   x2="453.01129"
   y2="21.664101"
   gradientTransform="matrix(-1,0,0,1,1175.2188,29.160706)">
			<stop
   offset="0"
   style="stop-color:#554DFF"
   id="stop254" />
			<stop
   offset="0.2101"
   style="stop-color:#5450FF"
   id="stop256" />
			<stop
   offset="0.3656"
   style="stop-color:#5059FF"
   id="stop258" />
			<stop
   offset="0.5035"
   style="stop-color:#4A69FF"
   id="stop260" />
			<stop
   offset="0.6312"
   style="stop-color:#4280FF"
   id="stop262" />
			<stop
   offset="0.7519"
   style="stop-color:#379DFF"
   id="stop264" />
			<stop
   offset="0.8674"
   style="stop-color:#2AC1FF"
   id="stop266" />
			<stop
   offset="0.9768"
   style="stop-color:#1AEBFF"
   id="stop268" />
			<stop
   offset="0.9955"
   style="stop-color:#17F3FF"
   id="stop270" />
		</linearGradient>
		
			<path
   style="fill:url(#SVGID_00000001648433090894200620000000843419636310011527_)"
   d="m 712.87084,48.816706 c -3.397,0.302 -6.992,-0.042 -9.871,-1.869 -2.75,-1.745 -4.55,-4.644 -5.944,-7.587 -9.171,-19.367 7.745,-50.142 29.696,-32.6609999 16.839,13.4089999 6.403,40.3149999 -13.881,42.1169999 z"
   clip-path="none"
   id="path273" />
		
			<linearGradient
   id="SVGID_00000129194789376692185680000016126474696133216416_"
   gradientUnits="userSpaceOnUse"
   x1="379.03491"
   y1="152.9108"
   x2="402.70819"
   y2="221.9017"
   gradientTransform="matrix(-1,0,0,1,1175.2188,29.160706)">
			<stop
   offset="0"
   style="stop-color:#554DFF"
   id="stop275" />
			<stop
   offset="0.9955"
   style="stop-color:#17F3FF"
   id="stop277" />
		</linearGradient>
		
			<path
   style="fill:url(#SVGID_00000129194789376692185680000016126474696133216416_)"
   d="m 788.45784,230.16071 c 1.865,4.352 0.631,10.248 -3.6,12.374 -3.072,1.544 -6.869,0.785 -9.86,-0.911 -3.215,-1.822 -5.902,-4.827 -6.661,-8.443 -0.758,-3.617 0.757,-7.782 4.016,-9.522 6.073,-3.244 13.566,0.579 16.105,6.502 z"
   clip-path="none"
   id="path280" />
		
			<linearGradient
   id="SVGID_00000084515801238794448690000001513623303027953059_"
   gradientUnits="userSpaceOnUse"
   x1="343.6264"
   y1="268.80591"
   x2="364.55359"
   y2="238.4615"
   gradientTransform="matrix(-1,0,0,1,1175.2188,29.160706)">
			<stop
   offset="0.1228"
   style="stop-color:#FF59BD"
   id="stop282" />
			<stop
   offset="0.8346"
   style="stop-color:#2424C7"
   id="stop284" />
		</linearGradient>
		
			<path
   style="fill:url(#SVGID_00000084515801238794448690000001513623303027953059_)"
   d="m 828.26484,286.48671 c -0.788,3.429 -5.074,5.691 -8.155,4.02 -0.721,-0.391 -1.343,-0.951 -1.863,-1.587 -8.156,-9.987 12.544,-13.424 10.018,-2.433 z"
   clip-path="none"
   id="path287" />
		
			<linearGradient
   id="SVGID_00000165921031387067914450000007195534689540579231_"
   gradientUnits="userSpaceOnUse"
   x1="278.5289"
   y1="6.7936001"
   x2="317.48859"
   y2="120.3333"
   gradientTransform="matrix(-1,0,0,1,1175.2188,29.160706)">
			<stop
   offset="0"
   style="stop-color:#554DFF"
   id="stop289" />
			<stop
   offset="0.9955"
   style="stop-color:#17F3FF"
   id="stop291" />
		</linearGradient>
		
			<path
   style="fill:url(#SVGID_00000165921031387067914450000007195534689540579231_)"
   d="m 884.60884,121.38271 c 0.113,7.17 -5.305,14.375 -12.432,15.166 -4.414,0.49 -8.822,-1.368 -12.338,-4.081 -3.599,-2.776 -6.521,-6.565 -7.728,-10.946 -1.207,-4.382 -0.549,-9.362 2.22,-12.965 10.385,-13.509004 30.042,-2.156 30.278,12.826 z"
   clip-path="none"
   id="path294" />
		<path
   style="fill:#001369"
   d="m 1087.7008,503.40071 c 5.092,7.384 12.079,13.119 20.356,16.598 2.338,0.982 1.311,4.855 -1.063,3.857 -9.318,-3.917 -17.004,-10.107 -22.747,-18.436 -1.465,-2.124 2.001,-4.127 3.454,-2.019 z"
   clip-path="none"
   id="path296" />
		
			<linearGradient
   id="SVGID_00000116956889206843577880000008942694799374185621_"
   gradientUnits="userSpaceOnUse"
   x1="304.6185"
   y1="138.8967"
   x2="351.46191"
   y2="172.7281"
   gradientTransform="matrix(-1,0,0,1,1175.2188,29.160706)">
			<stop
   offset="0"
   style="stop-color:#4DDEFF"
   id="stop298" />
			<stop
   offset="0.9955"
   style="stop-color:#66F7FF"
   id="stop300" />
		</linearGradient>
		
			<path
   style="fill:url(#SVGID_00000116956889206843577880000008942694799374185621_)"
   d="m 861.11484,199.28171 c 1.209,-17.04 -3.434,-34.15 -11.214,-49.358 -1.549,-3.028 -3.295,-6.08 -5.993,-8.15 -2.698,-2.07 -6.582,-2.941 -9.546,-1.272 -2.117,1.192 -3.418,3.432 -4.355,5.673 -5.521,13.202 -1.542,28.257 2.652,41.943 3.285,10.718 6.924,22.213 5.568,33.565 -0.703,5.883 -9.444,19.107 -2.129,21.034 15.45,4.07 24.382,-34.483 25.017,-43.435 z"
   clip-path="none"
   id="path303" />
		
			<linearGradient
   id="SVGID_00000029044528158210384020000001242470319780929422_"
   gradientUnits="userSpaceOnUse"
   x1="562.18213"
   y1="-16.705799"
   x2="544.83313"
   y2="34.473801"
   gradientTransform="matrix(-0.9926,0.1619,0.3077,1.3001,1166.3085,-73.092894)">
			<stop
   offset="0"
   style="stop-color:#554DFF"
   id="stop305" />
			<stop
   offset="0.9955"
   style="stop-color:#17F3FF"
   id="stop307" />
		</linearGradient>
		
			
	</g>

</svg>
