<?xml version="1.0" encoding="UTF-8" standalone="no"?>
<!-- Generator: Adobe Illustrator 27.5.0, SVG Export Plug-In . SVG Version: 6.00 Build 0)  -->

<svg
   version="1.1"
   x="0px"
   y="0px"
   viewBox="0 0 736.16949 250.93689"
   xml:space="preserve"
   id="svg567"
   sodipodi:docname="what-do.svg"
   width="736.16949"
   height="250.93689"
   inkscape:version="1.1.2 (0a00cf5339, 2022-02-04)"
   xmlns:inkscape="http://www.inkscape.org/namespaces/inkscape"
   xmlns:sodipodi="http://sodipodi.sourceforge.net/DTD/sodipodi-0.dtd"
   xmlns="http://www.w3.org/2000/svg"
   xmlns:svg="http://www.w3.org/2000/svg"><defs
   id="defs571" /><sodipodi:namedview
   id="namedview569"
   pagecolor="#ffffff"
   bordercolor="#666666"
   borderopacity="1.0"
   inkscape:pageshadow="2"
   inkscape:pageopacity="0.0"
   inkscape:pagecheckerboard="0"
   showgrid="false"
   inkscape:zoom="1.2956891"
   inkscape:cx="395.15651"
   inkscape:cy="172.10918"
   inkscape:window-width="1920"
   inkscape:window-height="1008"
   inkscape:window-x="0"
   inkscape:window-y="0"
   inkscape:window-maximized="1"
   inkscape:current-layer="OBJECTS" />

<g
   id="OBJECTS"
   transform="translate(299.83728,-119.22344)">
	<path
   style="opacity:0.3;fill:#ffffff"
   d="m 238.099,210.888 h -25.814 c -1.788,0 -3.238,-1.45 -3.238,-3.238 v 0 c 0,-1.788 1.45,-3.238 3.238,-3.238 h 25.814 c 1.788,0 3.238,1.45 3.238,3.238 v 0 c 0,1.788 -1.45,3.238 -3.238,3.238 z"
   id="path9" />
	<path
   style="opacity:0.3;fill:#ffffff"
   d="m 238.049,176.925 v 0 c 0,-1.788 -1.45,-3.238 -3.238,-3.238 h -25.814 c -1.788,0 -3.238,1.45 -3.238,3.238 v 0 c 0,1.788 1.45,3.238 3.238,3.238 h 2.008 c 0.983,0 1.78,0.797 1.78,1.779 v 0.048 c 0,0.983 -0.797,1.779 -1.78,1.779 h -4.884 c -1.788,0 -3.238,1.45 -3.238,3.238 v 0 c 0,1.788 1.45,3.238 3.238,3.238 h 25.814 c 1.788,0 3.238,-1.45 3.238,-3.238 v 0 c 0,-1.788 -1.45,-3.238 -3.238,-3.238 h -3.008 c -0.983,0 -1.78,-0.797 -1.78,-1.779 v -0.048 c 0,-0.983 0.797,-1.779 1.78,-1.779 h 5.884 c 1.789,0 3.238,-1.449 3.238,-3.238 z"
   id="path11" />
	
	<g
   id="g23"
   transform="translate(80,-20)">
		<path
   style="fill:none;stroke:#ffefb0;stroke-linecap:round;stroke-linejoin:round;stroke-miterlimit:10"
   d="m 400.9,160.042 c 0,2.179 -1.766,3.945 -3.945,3.945"
   id="path15" />
		<path
   style="fill:none;stroke:#ffefb0;stroke-linecap:round;stroke-linejoin:round;stroke-miterlimit:10"
   d="m 400.9,160.042 c 0,2.179 1.766,3.945 3.945,3.945"
   id="path17" />
		<path
   style="fill:none;stroke:#ffefb0;stroke-linecap:round;stroke-linejoin:round;stroke-miterlimit:10"
   d="m 400.9,167.958 c 0,-2.179 -1.766,-3.945 -3.945,-3.945"
   id="path19" />
		<path
   style="fill:none;stroke:#ffefb0;stroke-linecap:round;stroke-linejoin:round;stroke-miterlimit:10"
   d="m 400.9,167.958 c 0,-2.179 1.766,-3.945 3.945,-3.945"
   id="path21" />
	</g>
	<g
   id="g33"
   transform="translate(80,-20)">
		<path
   style="fill:none;stroke:#ffefb0;stroke-linecap:round;stroke-linejoin:round;stroke-miterlimit:10"
   d="m 125.626,239.025 c 0,2.179 -1.766,3.945 -3.945,3.945"
   id="path25" />
		<path
   style="fill:none;stroke:#ffefb0;stroke-linecap:round;stroke-linejoin:round;stroke-miterlimit:10"
   d="m 125.626,239.025 c 0,2.179 1.766,3.945 3.945,3.945"
   id="path27" />
		<path
   style="fill:none;stroke:#ffefb0;stroke-linecap:round;stroke-linejoin:round;stroke-miterlimit:10"
   d="m 125.626,246.942 c 0,-2.179 -1.766,-3.945 -3.945,-3.945"
   id="path29" />
		<path
   style="fill:none;stroke:#ffefb0;stroke-linecap:round;stroke-linejoin:round;stroke-miterlimit:10"
   d="m 125.626,246.942 c 0,-2.179 1.766,-3.945 3.945,-3.945"
   id="path31" />
	</g>
	<g
   id="g43"
   transform="translate(80,-20)">
		<path
   style="fill:none;stroke:#ffefb0;stroke-linecap:round;stroke-linejoin:round;stroke-miterlimit:10"
   d="m 343.904,157.445 c 0,2.179 -1.766,3.945 -3.945,3.945"
   id="path35" />
		<path
   style="fill:none;stroke:#ffefb0;stroke-linecap:round;stroke-linejoin:round;stroke-miterlimit:10"
   d="m 343.904,157.445 c 0,2.179 1.766,3.945 3.945,3.945"
   id="path37" />
		<path
   style="fill:none;stroke:#ffefb0;stroke-linecap:round;stroke-linejoin:round;stroke-miterlimit:10"
   d="m 343.904,165.362 c 0,-2.179 -1.766,-3.945 -3.945,-3.945"
   id="path39" />
		<path
   style="fill:none;stroke:#ffefb0;stroke-linecap:round;stroke-linejoin:round;stroke-miterlimit:10"
   d="m 343.904,165.362 c 0,-2.179 1.766,-3.945 3.945,-3.945"
   id="path41" />
	</g>
	<g
   id="g53"
   transform="translate(80,-20)">
		<path
   style="fill:none;stroke:#ffefb0;stroke-linecap:round;stroke-linejoin:round;stroke-miterlimit:10"
   d="m 106.157,203.006 c 0,2.179 -1.766,3.945 -3.945,3.945"
   id="path45" />
		<path
   style="fill:none;stroke:#ffefb0;stroke-linecap:round;stroke-linejoin:round;stroke-miterlimit:10"
   d="m 106.157,203.006 c 0,2.179 1.766,3.945 3.945,3.945"
   id="path47" />
		<path
   style="fill:none;stroke:#ffefb0;stroke-linecap:round;stroke-linejoin:round;stroke-miterlimit:10"
   d="m 106.157,210.922 c 0,-2.179 -1.766,-3.945 -3.945,-3.945"
   id="path49" />
		<path
   style="fill:none;stroke:#ffefb0;stroke-linecap:round;stroke-linejoin:round;stroke-miterlimit:10"
   d="m 106.157,210.922 c 0,-2.179 1.766,-3.945 3.945,-3.945"
   id="path51" />
	</g>
	<g
   id="g63"
   transform="translate(80,-20)">
		<path
   style="fill:none;stroke:#ffefb0;stroke-linecap:round;stroke-linejoin:round;stroke-miterlimit:10"
   d="m 181.855,175.136 c 0,2.179 -1.766,3.945 -3.945,3.945"
   id="path55" />
		<path
   style="fill:none;stroke:#ffefb0;stroke-linecap:round;stroke-linejoin:round;stroke-miterlimit:10"
   d="m 181.855,175.136 c 0,2.179 1.766,3.945 3.945,3.945"
   id="path57" />
		<path
   style="fill:none;stroke:#ffefb0;stroke-linecap:round;stroke-linejoin:round;stroke-miterlimit:10"
   d="m 181.855,183.053 c 0,-2.179 -1.766,-3.945 -3.945,-3.945"
   id="path59" />
		<path
   style="fill:none;stroke:#ffefb0;stroke-linecap:round;stroke-linejoin:round;stroke-miterlimit:10"
   d="m 181.855,183.053 c 0,-2.179 1.766,-3.945 3.945,-3.945"
   id="path61" />
	</g>
	<g
   id="g73"
   transform="translate(80,-20)">
		<path
   style="fill:none;stroke:#ffefb0;stroke-linecap:round;stroke-linejoin:round;stroke-miterlimit:10"
   d="m 370.826,139.654 c 0,2.179 -1.766,3.945 -3.945,3.945"
   id="path65" />
		<path
   style="fill:none;stroke:#ffefb0;stroke-linecap:round;stroke-linejoin:round;stroke-miterlimit:10"
   d="m 370.826,139.654 c 0,2.179 1.766,3.945 3.945,3.945"
   id="path67" />
		<path
   style="fill:none;stroke:#ffefb0;stroke-linecap:round;stroke-linejoin:round;stroke-miterlimit:10"
   d="m 370.826,147.571 c 0,-2.179 -1.766,-3.945 -3.945,-3.945"
   id="path69" />
		<path
   style="fill:none;stroke:#ffefb0;stroke-linecap:round;stroke-linejoin:round;stroke-miterlimit:10"
   d="m 370.826,147.571 c 0,-2.179 1.766,-3.945 3.945,-3.945"
   id="path71" />
	</g>
	<path
   style="fill:#624c8a"
   d="m 464.362,376.237 v 0 c 0,-3.299 2.674,-5.972 5.973,-5.972 h 5.362 c 4.157,0 7.527,-3.37 7.527,-7.528 v 0 c 0,-4.157 -3.37,-7.527 -7.527,-7.527 H 451.11 c -3.298,0 -5.972,-2.674 -5.972,-5.973 v 0 c 0,-3.299 2.674,-5.972 5.972,-5.972 h 5.724 c 4.157,0 7.527,-3.37 7.527,-7.528 v 0 c 0,-4.157 -3.37,-7.527 -7.527,-7.527 h -263.36 c -4.157,0 -7.528,3.37 -7.528,7.527 v 0 c 0,4.157 3.37,7.528 7.528,7.528 h 7.797 c 3.298,0 5.972,2.674 5.972,5.972 v 0 c 0,3.298 -2.674,5.973 -5.972,5.973 h -33.418 c -4.157,0 -7.528,3.37 -7.528,7.527 v 0 c 0,4.157 3.37,7.528 7.528,7.528 h 56.065 c 3.299,0 5.972,2.674 5.972,5.972 v 0 c 0,3.298 -2.674,5.973 -5.972,5.973 h -35.833 c -4.157,0 -7.528,3.37 -7.528,7.527 v 0 c 0,4.157 3.37,7.528 7.528,7.528 h 303.53 c 4.157,0 7.528,-3.37 7.528,-7.528 v 0 c 0,-4.157 -3.37,-7.527 -7.528,-7.527 h -21.28 c -3.299,-10e-4 -5.973,-2.675 -5.973,-5.973 z"
   id="path75" />
	<g
   id="g103"
   transform="translate(80,-20)">
		<g
   id="g79">
			<path
   style="fill:#8f6fc9"
   d="m 186.899,378.483 h -28.687 c -1.921,0 -3.479,-1.557 -3.479,-3.478 0,-1.921 1.557,-3.479 3.479,-3.479 h 28.687 c 1.921,0 3.478,1.557 3.478,3.479 10e-4,1.921 -1.557,3.478 -3.478,3.478 z"
   id="path77" />
		</g>
		<path
   style="fill:#8f6fc9"
   d="m 204.163,378.483 h -4.224 c -1.921,0 -3.479,-1.557 -3.479,-3.479 v 0 c 0,-1.921 1.557,-3.478 3.479,-3.478 h 4.224 c 1.921,0 3.478,1.557 3.478,3.478 v 0 c 0.001,1.922 -1.557,3.479 -3.478,3.479 z"
   id="path81" />
		<path
   style="fill:#8f6fc9"
   d="m 220.657,378.483 h -4.224 c -1.921,0 -3.479,-1.557 -3.479,-3.479 v 0 c 0,-1.921 1.557,-3.478 3.479,-3.478 h 4.224 c 1.921,0 3.478,1.557 3.478,3.478 v 0 c 0,1.922 -1.557,3.479 -3.478,3.479 z"
   id="path83" />
		<g
   id="g87">
			<path
   style="fill:#8f6fc9"
   d="m 186.899,404.499 h -28.687 c -1.921,0 -3.479,-1.557 -3.479,-3.478 0,-1.921 1.557,-3.479 3.479,-3.479 h 28.687 c 1.921,0 3.478,1.557 3.478,3.479 10e-4,1.92 -1.557,3.478 -3.478,3.478 z"
   id="path85" />
		</g>
		<path
   style="fill:#8f6fc9"
   d="m 204.163,404.499 h -4.224 c -1.921,0 -3.479,-1.557 -3.479,-3.479 v 0 c 0,-1.921 1.557,-3.478 3.479,-3.478 h 4.224 c 1.921,0 3.478,1.557 3.478,3.478 v 0 c 0.001,1.921 -1.557,3.479 -3.478,3.479 z"
   id="path89" />
		<path
   style="fill:#8f6fc9"
   d="m 220.657,404.499 h -4.224 c -1.921,0 -3.479,-1.557 -3.479,-3.479 v 0 c 0,-1.921 1.557,-3.478 3.479,-3.478 h 4.224 c 1.921,0 3.478,1.557 3.478,3.478 v 0 c 0,1.921 -1.557,3.479 -3.478,3.479 z"
   id="path91" />
		<path
   style="fill:#8f6fc9"
   d="m 248.033,404.499 h -4.224 c -1.921,0 -3.479,-1.557 -3.479,-3.479 v 0 c 0,-1.921 1.557,-3.478 3.479,-3.478 h 4.224 c 1.921,0 3.479,1.557 3.479,3.478 v 0 c 0,1.921 -1.558,3.479 -3.479,3.479 z"
   id="path93" />
		<g
   id="g97">
			<path
   style="fill:#8f6fc9"
   d="m 196.198,391.491 h -28.687 c -1.921,0 -3.478,-1.557 -3.478,-3.478 0,-1.921 1.557,-3.479 3.478,-3.479 h 28.687 c 1.921,0 3.478,1.557 3.478,3.479 0.001,1.921 -1.557,3.478 -3.478,3.478 z"
   id="path95" />
		</g>
		<path
   style="fill:#8f6fc9"
   d="m 213.462,391.491 h -4.224 c -1.921,0 -3.478,-1.557 -3.478,-3.479 v 0 c 0,-1.921 1.557,-3.478 3.478,-3.478 h 4.224 c 1.921,0 3.479,1.557 3.479,3.478 v 0 c 0,1.922 -1.558,3.479 -3.479,3.479 z"
   id="path99" />
		<path
   style="fill:#8f6fc9"
   d="m 229.956,391.491 h -4.224 c -1.921,0 -3.478,-1.557 -3.478,-3.479 v 0 c 0,-1.921 1.557,-3.478 3.478,-3.478 h 4.224 c 1.921,0 3.478,1.557 3.478,3.478 v 0 c 0,1.922 -1.557,3.479 -3.478,3.479 z"
   id="path101" />
	</g>
	<g
   id="g117"
   transform="translate(80,-20)">
		
			<path
   style="opacity:0.46;fill:none;stroke:#ffffff;stroke-width:2.864;stroke-linecap:round;stroke-linejoin:round;stroke-miterlimit:10"
   d="m 120.277,348.813 c 0,-5.381 2.583,-5.381 2.583,-10.762 0,-5.38 -2.583,-5.38 -2.583,-10.759 0,-5.383 2.583,-5.383 2.583,-10.766 0,-5.383 -2.583,-5.383 -2.583,-10.766"
   id="path105" />
		
			<path
   style="opacity:0.46;fill:none;stroke:#ffffff;stroke-width:2.864;stroke-linecap:round;stroke-linejoin:round;stroke-miterlimit:10"
   d="m 128.939,330.508 c 0,-6.187 2.97,-6.187 2.97,-12.374 0,-6.185 -2.97,-6.185 -2.97,-12.37 0,-6.189 2.97,-6.189 2.97,-12.378 0,-6.189 -2.97,-6.189 -2.97,-12.378"
   id="path107" />
		<g
   id="g115">
			<path
   style="fill:none"
   d="m 93.61,358.191 c 0,3.611 2.938,6.549 6.55,6.549 1.787,0 3.407,-0.721 4.59,-1.885 v -9.329 c -1.183,-1.164 -2.803,-1.885 -4.59,-1.885 -3.612,10e-4 -6.55,2.939 -6.55,6.55 z"
   id="path109" />
			<path
   style="fill:#c8b7b7"
   d="m 104.75,342.925 v 7.054 c -1.359,-0.763 -2.924,-1.203 -4.59,-1.203 -5.191,0 -9.414,4.224 -9.414,9.415 0,5.19 4.223,9.414 9.414,9.414 1.667,0 3.231,-0.44 4.59,-1.203 v 16.019 c 0,1.296 1.051,2.347 2.347,2.347 h 14.472 V 342.924 H 104.75 Z m 0,19.93 c -1.183,1.164 -2.803,1.885 -4.59,1.885 -3.611,0 -6.55,-2.938 -6.55,-6.549 0,-3.611 2.938,-6.55 6.55,-6.55 1.787,0 3.407,0.721 4.59,1.885 z"
   id="path111" />
			<path
   style="fill:#e3dbdb"
   d="m 121.569,342.925 v 41.844 h 16.55 c 1.296,0 2.347,-1.051 2.347,-2.347 v -39.496 h -18.897 z"
   id="path113" />
		</g>
	</g>
	<path
   style="opacity:0.3;fill:#ffffff"
   d="m 483.629,141.404 h -25.814 c -1.789,0 -3.238,-1.45 -3.238,-3.238 v 0 c 0,-1.788 1.45,-3.238 3.238,-3.238 h 25.814 c 1.788,0 3.238,1.45 3.238,3.238 v 0 c 10e-4,1.788 -1.449,3.238 -3.238,3.238 z"
   id="path119" />
	<path
   style="opacity:0.3;fill:#ffffff"
   d="m 491.835,178.825 h -25.814 c -1.788,0 -3.238,-1.45 -3.238,-3.238 v 0 c 0,-1.789 1.45,-3.238 3.238,-3.238 h 25.814 c 1.788,0 3.238,1.45 3.238,3.238 v 0 c 0,1.788 -1.45,3.238 -3.238,3.238 z"
   id="path121" />
	<path
   style="opacity:0.3;fill:#ffffff"
   d="m 424.397,157.282 h -15.446 c -1.788,0 -3.238,-1.45 -3.238,-3.238 v 0 c 0,-1.788 1.45,-3.238 3.238,-3.238 h 15.446 c 1.789,0 3.238,1.45 3.238,3.238 v 0 c 0,1.789 -1.45,3.238 -3.238,3.238 z"
   id="path123" />
	<path
   style="opacity:0.3;fill:#ffffff"
   d="m 189.43,210.888 h -15.446 c -1.788,0 -3.238,-1.45 -3.238,-3.238 v 0 c 0,-1.788 1.45,-3.238 3.238,-3.238 h 15.446 c 1.788,0 3.238,1.45 3.238,3.238 v 0 c 0,1.788 -1.45,3.238 -3.238,3.238 z"
   id="path125" />
	<path
   style="opacity:0.3;fill:#ffffff"
   d="m 470.414,154.053 v 0 c 0,-1.788 -1.45,-3.238 -3.238,-3.238 h -25.814 c -1.788,0 -3.238,1.45 -3.238,3.238 v 0 c 0,1.788 1.45,3.238 3.238,3.238 h 2.008 c 0.983,0 1.779,0.797 1.779,1.78 v 0.048 c 0,0.983 -0.797,1.779 -1.779,1.779 h -4.884 c -1.788,0 -3.238,1.45 -3.238,3.238 v 0 c 0,1.788 1.45,3.238 3.238,3.238 H 464.3 c 1.788,0 3.238,-1.45 3.238,-3.238 v 0 c 0,-1.788 -1.45,-3.238 -3.238,-3.238 h -3.008 c -0.983,0 -1.78,-0.797 -1.78,-1.779 v -0.048 c 0,-0.983 0.797,-1.78 1.78,-1.78 h 5.884 c 1.788,0 3.238,-1.45 3.238,-3.238 z"
   id="path127" />
	<g
   id="g135"
   transform="translate(80,-20)">
		<path
   style="fill:#000080"
   d="m 368.022,202.693 h 13.111 c 3.372,0 6.106,-2.734 6.106,-6.106 v 0 c 0,-3.372 -2.734,-6.106 -6.106,-6.106 h -13.111 c -3.372,0 -6.106,2.734 -6.106,6.106 v 0 c 0,3.373 2.734,6.106 6.106,6.106 z"
   id="path129" />
		<circle
   style="fill:#000080"
   cx="376.026"
   cy="190.481"
   r="5.8010001"
   id="circle131" />
		<circle
   style="fill:#000080"
   cx="369.72299"
   cy="190.05701"
   r="3.392"
   id="circle133" />
	</g>
	<g
   id="g145"
   transform="translate(80,-20)">
		<path
   style="opacity:0.87;fill:#000080"
   d="m 171.837,150.266 c 0.067,-0.345 0.104,-0.7 0.104,-1.065 0,-3.068 -2.487,-5.555 -5.555,-5.555 -0.958,0 -1.859,0.243 -2.645,0.669 -1.727,-2.372 -4.518,-3.919 -7.676,-3.919 -5.247,0 -9.5,4.253 -9.5,9.5 0,0.023 0.003,0.045 0.003,0.068 -4.989,0.563 -8.867,4.792 -8.867,9.932 v 0 c 0,5.523 4.477,10 10,10 h 21.472 c 5.523,0 10,-4.477 10,-10 v 0 c -0.001,-4.599 -3.109,-8.463 -7.336,-9.63 z"
   id="path137" />
		<g
   id="g143">
			<path
   style="fill:#8f6fc9"
   d="m 154.499,159.434 0.128,2.571 c 0.078,1.414 0.463,1.826 1.363,1.826 h 0.411 v 2.315 h -1.44 c -1.594,0 -2.725,-0.9 -2.855,-2.855 l -0.205,-3.445 c -0.077,-1.184 -0.335,-1.544 -1.414,-1.544 v -2.314 c 1.08,0 1.337,-0.36 1.414,-1.543 l 0.205,-3.446 c 0.129,-1.954 1.26,-2.854 2.855,-2.854 h 1.44 v 2.314 h -0.411 c -0.9,0 -1.285,0.411 -1.363,1.826 l -0.128,2.572 c -0.051,0.951 -0.36,1.954 -1.671,2.289 1.311,0.333 1.62,1.336 1.671,2.288 z"
   id="path139" />
			<path
   style="fill:#8f6fc9"
   d="m 162.373,154.857 -0.128,-2.572 c -0.077,-1.414 -0.463,-1.826 -1.363,-1.826 h -0.411 v -2.314 h 1.44 c 1.595,0 2.726,0.9 2.855,2.854 l 0.206,3.446 c 0.077,1.183 0.334,1.543 1.414,1.543 v 2.314 c -1.081,0 -1.337,0.36 -1.414,1.544 l -0.206,3.445 c -0.128,1.954 -1.26,2.855 -2.855,2.855 h -1.44 v -2.315 h 0.411 c 0.9,0 1.286,-0.411 1.363,-1.826 l 0.128,-2.571 c 0.052,-0.952 0.36,-1.955 1.672,-2.289 -1.312,-0.334 -1.621,-1.337 -1.672,-2.288 z"
   id="path141" />
		</g>
	</g>
	<g
   id="g151"
   transform="translate(80,-20)">
		<path
   style="opacity:0.87;fill:#000080"
   d="m 283.517,157.134 c 0.067,-0.345 0.105,-0.701 0.105,-1.065 0,-3.068 -2.487,-5.555 -5.555,-5.555 -0.958,0 -1.859,0.242 -2.645,0.669 -1.727,-2.372 -4.518,-3.919 -7.676,-3.919 -5.247,0 -9.5,4.253 -9.5,9.5 0,0.023 0.003,0.045 0.004,0.068 -4.989,0.563 -8.868,4.792 -8.868,9.932 v 0 c 0,5.523 4.477,10 10,10 h 21.472 c 5.523,0 10,-4.477 10,-10 v 0 c -10e-4,-4.599 -3.11,-8.462 -7.337,-9.63 z"
   id="path147" />
		<path
   style="fill:#8f6fc9"
   d="m 271.055,152.792 c -3.977,-0.518 -7.62,2.285 -8.139,6.262 -0.459,3.523 1.689,6.782 4.95,7.841 l -0.109,0.84 c -0.035,0.269 0.135,0.515 0.388,0.587 l -0.456,3.503 -0.161,-0.021 c -0.164,-0.021 -0.31,0.062 -0.326,0.186 l -1.219,9.357 c -0.019,0.144 0.12,0.282 0.311,0.306 l -0.063,-0.008 -0.049,0.374 c -0.013,0.102 0.085,0.2 0.22,0.217 l 0.605,0.079 0.605,0.079 c 0.135,0.018 0.255,-0.051 0.268,-0.154 l 0.049,-0.374 -0.063,-0.008 c 0.19,0.025 0.36,-0.072 0.379,-0.217 l 1.219,-9.357 c 0.016,-0.124 -0.103,-0.242 -0.267,-0.264 l -0.161,-0.021 0.456,-3.504 c 0.263,-0.004 0.491,-0.199 0.526,-0.467 l 0.101,-0.778 c 3.595,0.003 6.721,-2.661 7.198,-6.322 0.518,-3.974 -2.285,-7.618 -6.262,-8.136 z m -1.654,12.693 c -1.072,-0.14 -2.034,-0.577 -2.809,-1.219 -0.987,-0.815 -1.675,-1.959 -1.918,-3.239 -0.108,-0.563 -0.128,-1.152 -0.05,-1.751 0.395,-3.033 3.175,-5.172 6.208,-4.776 0.599,0.078 1.162,0.249 1.679,0.497 1.175,0.562 2.104,1.521 2.64,2.683 0.422,0.915 0.598,1.955 0.459,3.028 -0.396,3.033 -3.175,5.172 -6.209,4.777 z"
   id="path149" />
	</g>
	<g
   id="g163"
   transform="translate(80,-20)">
		<path
   style="opacity:0.87;fill:#000080"
   d="m 113.134,254.839 c 0.067,-0.345 0.105,-0.7 0.105,-1.065 0,-3.068 -2.487,-5.555 -5.555,-5.555 -0.958,0 -1.859,0.242 -2.645,0.669 -1.727,-2.372 -4.518,-3.919 -7.676,-3.919 -5.247,0 -9.5,4.253 -9.5,9.5 0,0.023 0.003,0.045 0.004,0.068 -4.989,0.563 -8.868,4.792 -8.868,9.931 v 0 c 0,5.523 4.477,10 10,10 h 21.472 c 5.523,0 10,-4.477 10,-10 v 0 c -0.001,-4.598 -3.109,-8.461 -7.337,-9.629 z"
   id="path153" />
		<g
   id="g161">
			<path
   style="fill:#8f6fc9"
   d="m 105.208,268.015 v -2.187 l 6.202,-2.215 -6.202,-2.215 v -2.188 l 9.026,3.323 v 2.159 z"
   id="path155" />
			<path
   style="fill:#8f6fc9"
   d="m 83.935,264.693 v -2.159 l 9.026,-3.323 v 2.188 l -6.202,2.215 6.202,2.215 v 2.187 z"
   id="path157" />
			<path
   style="fill:#8f6fc9"
   d="m 101.362,256.947 h 1.888 l -5.483,13.906 H 95.88 Z"
   id="path159" />
		</g>
	</g>
	<g
   id="g171"
   transform="translate(80,-20)">
		<path
   style="fill:#8f6fc9"
   d="m 318.029,156.845 v -2.187 l 6.202,-2.215 -6.202,-2.215 v -2.188 l 9.026,3.323 v 2.159 z"
   id="path165" />
		<path
   style="fill:#8f6fc9"
   d="m 296.757,153.523 v -2.159 l 9.026,-3.323 v 2.188 l -6.202,2.215 6.202,2.215 v 2.187 z"
   id="path167" />
		<path
   style="fill:#8f6fc9"
   d="m 314.184,145.777 h 1.888 l -5.483,13.906 H 308.7 Z"
   id="path169" />
	</g>
	<g
   id="g179"
   transform="translate(80,-20)">
		<path
   style="fill:#80a880"
   d="m 222.095,157.906 2.083,2.083 c 1.988,-1.989 5.136,-2.077 7.016,-0.197 l 0.55,-0.55 1.653,-1.653 c -1.489,-1.489 -3.472,-2.207 -5.483,-2.177 -2.08,0.032 -4.191,0.865 -5.819,2.494 z"
   id="path173" />
		<path
   style="fill:#80a880"
   d="m 223.778,151.276 c -1.843,0.667 -3.59,1.736 -5.083,3.229 l 2.083,2.083 c 1.548,-1.548 3.449,-2.512 5.414,-2.898 3.075,-0.605 6.308,0.214 8.599,2.505 l 2.203,-2.203 c -3.493,-3.492 -8.657,-4.366 -13.216,-2.716 z"
   id="path175" />
		<path
   style="fill:#80a880"
   d="m 225.556,161.367 2.031,2.031 2.149,-2.149 c -1.122,-1.121 -2.993,-1.069 -4.18,0.118 z"
   id="path177" />
	</g>
	<g
   id="g187"
   transform="translate(80,-20)">
		<path
   style="fill:#8f6fc9"
   d="m 87.861,193.32 2.083,2.083 c 1.989,-1.989 5.136,-2.077 7.016,-0.197 l 0.55,-0.55 1.653,-1.653 c -1.489,-1.489 -3.472,-2.207 -5.483,-2.177 -2.08,0.033 -4.191,0.866 -5.819,2.494 z"
   id="path181" />
		<path
   style="fill:#8f6fc9"
   d="m 89.544,186.691 c -1.843,0.667 -3.59,1.736 -5.083,3.229 l 2.083,2.083 c 1.548,-1.548 3.449,-2.512 5.414,-2.898 3.075,-0.605 6.308,0.214 8.599,2.505 l 2.203,-2.203 c -3.493,-3.492 -8.657,-4.367 -13.216,-2.716 z"
   id="path183" />
		<path
   style="fill:#8f6fc9"
   d="m 91.322,196.781 2.031,2.031 2.149,-2.149 c -1.122,-1.121 -2.993,-1.068 -4.18,0.118 z"
   id="path185" />
	</g>
	<g
   id="g195"
   transform="translate(80,-20)">
		<g
   id="g191">
			<path
   style="fill:#8f6fc9"
   d="m 181.445,148.662 c -0.276,0 -0.5,-0.224 -0.5,-0.5 0,-0.513 0.015,-1.023 0.044,-1.527 0.016,-0.276 0.258,-0.487 0.527,-0.471 0.276,0.016 0.487,0.252 0.471,0.527 -0.028,0.486 -0.042,0.977 -0.042,1.471 0,0.276 -0.224,0.5 -0.5,0.5 z m 0.39,-4.478 c -0.029,0 -0.058,-0.002 -0.087,-0.007 -0.272,-0.048 -0.454,-0.307 -0.406,-0.579 0.089,-0.504 0.192,-1.003 0.31,-1.498 0.063,-0.269 0.333,-0.438 0.602,-0.371 0.268,0.063 0.435,0.333 0.371,0.602 -0.112,0.475 -0.212,0.956 -0.297,1.441 -0.044,0.241 -0.255,0.412 -0.493,0.412 z m 1.166,-4.341 c -0.057,0 -0.115,-0.01 -0.172,-0.03 -0.259,-0.095 -0.393,-0.382 -0.298,-0.642 0.176,-0.48 0.366,-0.954 0.568,-1.42 0.109,-0.253 0.402,-0.37 0.658,-0.259 0.253,0.11 0.37,0.404 0.259,0.658 -0.195,0.449 -0.377,0.904 -0.546,1.365 -0.073,0.202 -0.265,0.328 -0.469,0.328 z m 1.912,-4.068 c -0.085,0 -0.172,-0.022 -0.251,-0.068 -0.239,-0.139 -0.319,-0.445 -0.181,-0.684 0.257,-0.441 0.526,-0.875 0.809,-1.299 0.152,-0.231 0.462,-0.294 0.693,-0.139 0.23,0.153 0.292,0.463 0.139,0.693 -0.271,0.408 -0.53,0.824 -0.777,1.248 -0.092,0.16 -0.26,0.249 -0.432,0.249 z m 2.594,-3.671 c -0.114,0 -0.229,-0.039 -0.323,-0.118 -0.21,-0.179 -0.237,-0.494 -0.059,-0.705 0.33,-0.389 0.67,-0.768 1.022,-1.137 0.191,-0.2 0.508,-0.207 0.707,-0.017 0.2,0.19 0.208,0.507 0.017,0.707 -0.338,0.355 -0.665,0.72 -0.982,1.094 -0.099,0.116 -0.24,0.176 -0.382,0.176 z m 37.408,-1.866 c -0.126,0 -0.251,-0.047 -0.348,-0.141 -0.353,-0.341 -0.714,-0.672 -1.086,-0.992 -0.21,-0.18 -0.233,-0.496 -0.053,-0.705 0.18,-0.21 0.496,-0.234 0.705,-0.053 0.386,0.332 0.763,0.676 1.129,1.031 0.198,0.192 0.204,0.509 0.012,0.707 -0.098,0.102 -0.229,0.153 -0.359,0.153 z M 190.7,128.941 c -0.143,0 -0.286,-0.062 -0.385,-0.181 -0.176,-0.212 -0.147,-0.527 0.065,-0.704 0.392,-0.325 0.792,-0.64 1.203,-0.942 0.223,-0.164 0.536,-0.117 0.699,0.105 0.164,0.222 0.117,0.535 -0.105,0.699 -0.395,0.291 -0.781,0.594 -1.158,0.907 -0.094,0.078 -0.207,0.116 -0.319,0.116 z m 30.724,-1.536 c -0.096,0 -0.193,-0.028 -0.279,-0.085 -0.406,-0.274 -0.82,-0.537 -1.242,-0.788 -0.237,-0.141 -0.316,-0.448 -0.174,-0.685 0.141,-0.237 0.449,-0.316 0.685,-0.174 0.439,0.261 0.87,0.534 1.291,0.818 0.229,0.155 0.289,0.465 0.135,0.694 -0.097,0.143 -0.255,0.22 -0.416,0.22 z m -27.032,-1.025 c -0.174,0 -0.342,-0.09 -0.434,-0.252 -0.137,-0.24 -0.054,-0.545 0.186,-0.682 0.442,-0.253 0.893,-0.493 1.35,-0.719 0.248,-0.124 0.546,-0.021 0.67,0.227 0.123,0.247 0.021,0.547 -0.227,0.67 -0.44,0.218 -0.873,0.448 -1.297,0.691 -0.079,0.044 -0.164,0.065 -0.248,0.065 z m 23.103,-1.156 c -0.068,0 -0.137,-0.014 -0.203,-0.043 -0.447,-0.199 -0.901,-0.385 -1.361,-0.558 -0.259,-0.097 -0.389,-0.386 -0.293,-0.644 0.097,-0.259 0.385,-0.388 0.644,-0.292 0.479,0.18 0.951,0.373 1.416,0.58 0.252,0.112 0.366,0.408 0.254,0.66 -0.083,0.186 -0.265,0.297 -0.457,0.297 z m -19.021,-0.72 c -0.206,0 -0.398,-0.128 -0.471,-0.332 -0.093,-0.26 0.042,-0.546 0.303,-0.639 0.479,-0.171 0.963,-0.328 1.455,-0.471 0.265,-0.08 0.543,0.075 0.62,0.34 0.077,0.265 -0.075,0.543 -0.34,0.62 -0.472,0.137 -0.938,0.288 -1.398,0.452 -0.057,0.02 -0.114,0.03 -0.169,0.03 z m 14.769,-0.737 c -0.04,0 -0.08,-0.004 -0.12,-0.015 -0.474,-0.117 -0.953,-0.22 -1.438,-0.31 -0.271,-0.05 -0.451,-0.311 -0.401,-0.582 0.05,-0.271 0.308,-0.453 0.582,-0.401 0.504,0.093 1.003,0.201 1.495,0.322 0.268,0.066 0.432,0.337 0.366,0.605 -0.055,0.228 -0.259,0.381 -0.484,0.381 z m -10.421,-0.391 c -0.24,0 -0.452,-0.173 -0.493,-0.417 -0.045,-0.272 0.138,-0.53 0.411,-0.576 0.5,-0.083 1.005,-0.153 1.515,-0.207 0.272,-0.026 0.52,0.169 0.55,0.444 0.029,0.274 -0.169,0.521 -0.444,0.55 -0.49,0.052 -0.975,0.119 -1.456,0.2 -0.028,0.004 -0.056,0.006 -0.083,0.006 z m 5.979,-0.297 c -0.011,0 -0.022,-10e-4 -0.033,-10e-4 -0.487,-0.032 -0.978,-0.05 -1.471,-0.055 -0.276,-0.002 -0.498,-0.228 -0.496,-0.504 0.002,-0.274 0.226,-0.496 0.5,-0.496 0.002,0 0.003,0 0.004,0 0.513,0.004 1.022,0.023 1.528,0.057 0.276,0.018 0.484,0.256 0.466,0.532 -0.017,0.265 -0.237,0.467 -0.498,0.467 z"
   id="path189" />
		</g>
		<polygon
   style="fill:#8f6fc9"
   points="227.669,127.196 222.041,132.435 231.365,136.808 "
   id="polygon193" />
	</g>
	<g
   id="g203"
   transform="translate(80,-20)">
		<g
   id="g199">
			<path
   style="fill:#8f6fc9"
   d="m 359.258,280.645 c 0.421,0.258 0.846,0.503 1.275,0.733 0.243,0.13 0.334,0.434 0.203,0.677 -0.127,0.238 -0.433,0.335 -0.677,0.203 -0.445,-0.24 -0.887,-0.493 -1.325,-0.761 -0.236,-0.145 -0.309,-0.452 -0.165,-0.688 0.146,-0.235 0.453,-0.308 0.689,-0.164 z m 3.942,1.971 c 0.458,0.181 0.919,0.348 1.383,0.5 0.263,0.086 0.405,0.369 0.319,0.631 -0.084,0.264 -0.369,0.405 -0.631,0.319 -0.483,-0.159 -0.962,-0.332 -1.439,-0.52 -0.257,-0.102 -0.383,-0.392 -0.281,-0.649 0.011,-0.027 0.024,-0.053 0.039,-0.078 0.125,-0.203 0.381,-0.293 0.61,-0.203 z m 4.226,1.251 c 0.482,0.097 0.965,0.18 1.449,0.249 0.274,0.039 0.464,0.292 0.425,0.565 -0.039,0.276 -0.292,0.465 -0.565,0.425 -0.504,-0.071 -1.007,-0.157 -1.508,-0.258 -0.271,-0.055 -0.446,-0.319 -0.391,-0.59 0.012,-0.059 0.034,-0.114 0.064,-0.162 0.107,-0.174 0.314,-0.272 0.526,-0.229 z m 4.38,0.488 c 0.49,0.011 0.981,0.008 1.47,-0.009 0.276,-0.01 0.508,0.205 0.518,0.481 0.011,0.277 -0.204,0.509 -0.481,0.518 -0.51,0.019 -1.02,0.022 -1.53,0.01 -0.276,-0.006 -0.494,-0.235 -0.488,-0.512 0.002,-0.091 0.029,-0.176 0.073,-0.249 0.09,-0.147 0.253,-0.243 0.438,-0.239 z m 4.398,-0.285 c 0.485,-0.074 0.967,-0.162 1.446,-0.265 0.27,-0.058 0.536,0.114 0.593,0.384 0.058,0.269 -0.114,0.535 -0.384,0.593 -0.498,0.107 -1,0.199 -1.504,0.276 -0.273,0.042 -0.528,-0.146 -0.57,-0.419 -0.018,-0.122 0.009,-0.24 0.068,-0.337 0.074,-0.12 0.199,-0.209 0.351,-0.232 z m 21.123,-30.901 c 0.269,-0.06 0.537,0.11 0.596,0.38 0.111,0.497 0.207,0.998 0.288,1.501 0.045,0.273 -0.141,0.53 -0.414,0.573 -0.273,0.044 -0.529,-0.141 -0.573,-0.414 -0.078,-0.484 -0.171,-0.965 -0.277,-1.444 -0.029,-0.132 -0.004,-0.263 0.062,-0.37 0.068,-0.111 0.18,-0.195 0.318,-0.226 z m -16.843,29.856 c 0.464,-0.157 0.924,-0.328 1.379,-0.512 0.256,-0.104 0.548,0.02 0.651,0.276 0.104,0.256 -0.019,0.547 -0.276,0.651 -0.473,0.191 -0.95,0.368 -1.432,0.532 -0.262,0.089 -0.546,-0.051 -0.634,-0.312 -0.05,-0.147 -0.028,-0.301 0.047,-0.423 0.059,-0.097 0.15,-0.173 0.265,-0.212 z m 17.518,-25.412 c 0.276,-0.012 0.509,0.202 0.521,0.478 0.022,0.508 0.03,1.018 0.022,1.528 -0.003,0.276 -0.231,0.497 -0.507,0.493 -0.276,-0.004 -0.496,-0.231 -0.493,-0.507 0.007,-0.491 -0.001,-0.982 -0.022,-1.471 -0.004,-0.103 0.023,-0.201 0.073,-0.283 0.085,-0.136 0.233,-0.23 0.406,-0.238 z m -13.484,23.639 c 0.429,-0.235 0.852,-0.483 1.267,-0.744 0.234,-0.147 0.543,-0.076 0.69,0.157 0.147,0.235 0.078,0.543 -0.157,0.69 -0.432,0.271 -0.873,0.529 -1.319,0.775 -0.242,0.133 -0.546,0.044 -0.679,-0.198 -0.09,-0.163 -0.078,-0.354 0.012,-0.502 0.045,-0.073 0.107,-0.135 0.186,-0.178 z m 13.375,-19.145 c 0.274,0.037 0.466,0.288 0.43,0.562 -0.067,0.504 -0.149,1.008 -0.246,1.51 -0.054,0.271 -0.314,0.449 -0.586,0.396 -0.271,-0.053 -0.448,-0.315 -0.396,-0.586 0.093,-0.483 0.172,-0.966 0.236,-1.452 0.01,-0.072 0.034,-0.137 0.069,-0.195 0.101,-0.164 0.291,-0.261 0.493,-0.235 z m -9.713,16.696 c 0.38,-0.306 0.753,-0.625 1.117,-0.955 0.204,-0.186 0.52,-0.17 0.706,0.034 0.186,0.204 0.173,0.522 -0.034,0.706 -0.378,0.344 -0.766,0.675 -1.162,0.994 -0.215,0.173 -0.53,0.139 -0.703,-0.076 -0.136,-0.169 -0.144,-0.4 -0.037,-0.575 0.029,-0.047 0.067,-0.091 0.113,-0.128 z m 8.817,-12.289 c 0.263,0.084 0.408,0.365 0.324,0.628 -0.154,0.483 -0.323,0.965 -0.507,1.443 -0.099,0.261 -0.389,0.386 -0.646,0.287 -0.258,-0.099 -0.386,-0.389 -0.287,-0.646 0.177,-0.46 0.34,-0.922 0.488,-1.387 0.012,-0.039 0.03,-0.076 0.05,-0.11 0.118,-0.192 0.355,-0.287 0.578,-0.215 z m -5.645,9.234 c 0.32,-0.367 0.631,-0.746 0.931,-1.136 0.169,-0.219 0.482,-0.259 0.701,-0.091 0.219,0.169 0.256,0.482 0.091,0.701 -0.313,0.406 -0.636,0.8 -0.969,1.182 -0.181,0.208 -0.497,0.23 -0.705,0.049 -0.187,-0.163 -0.223,-0.434 -0.098,-0.638 0.014,-0.023 0.03,-0.046 0.049,-0.067 z m 3.989,-5.055 c 0.244,0.129 0.338,0.431 0.209,0.676 -0.236,0.448 -0.486,0.892 -0.751,1.332 -10e-4,10e-4 -0.002,0.003 -0.002,0.004 -0.144,0.234 -0.449,0.308 -0.684,0.167 -0.237,-0.142 -0.313,-0.45 -0.171,-0.686 0.254,-0.423 0.496,-0.851 0.723,-1.283 0.005,-0.01 0.011,-0.019 0.016,-0.029 0.138,-0.223 0.426,-0.304 0.66,-0.181 z"
   id="path197" />
		</g>
		<polygon
   style="fill:#8f6fc9"
   points="401.042,252.639 393.633,254.695 394.782,244.461 "
   id="polygon201" />
	</g>
	<g
   id="g211"
   transform="translate(80,-20)">
		<g
   id="g207">
			<path
   style="fill:#8f6fc9"
   d="m 352.408,173.241 c 0.258,-0.421 0.503,-0.846 0.733,-1.275 0.13,-0.243 0.434,-0.334 0.677,-0.203 0.238,0.127 0.335,0.433 0.203,0.677 -0.24,0.445 -0.493,0.887 -0.761,1.325 -0.145,0.236 -0.452,0.309 -0.688,0.165 -0.235,-0.146 -0.309,-0.453 -0.164,-0.689 z m 1.97,-3.942 c 0.181,-0.458 0.348,-0.919 0.5,-1.383 0.086,-0.263 0.369,-0.405 0.631,-0.319 0.264,0.084 0.405,0.369 0.319,0.631 -0.159,0.483 -0.332,0.962 -0.52,1.439 -0.102,0.257 -0.392,0.383 -0.649,0.281 -0.027,-0.011 -0.053,-0.024 -0.078,-0.039 -0.203,-0.125 -0.293,-0.381 -0.203,-0.61 z m 1.251,-4.226 c 0.097,-0.482 0.18,-0.965 0.249,-1.449 0.039,-0.274 0.292,-0.464 0.565,-0.425 0.276,0.039 0.465,0.292 0.425,0.565 -0.071,0.503 -0.157,1.006 -0.258,1.507 -0.055,0.271 -0.319,0.446 -0.589,0.391 -0.059,-0.012 -0.114,-0.034 -0.162,-0.064 -0.175,-0.106 -0.273,-0.314 -0.23,-0.525 z m 0.488,-4.38 c 0.011,-0.491 0.008,-0.981 -0.009,-1.47 -0.01,-0.276 0.205,-0.508 0.481,-0.518 0.277,-0.011 0.509,0.204 0.518,0.481 0.019,0.51 0.022,1.02 0.01,1.53 -0.007,0.276 -0.235,0.494 -0.512,0.488 -0.091,-0.002 -0.177,-0.029 -0.249,-0.073 -0.147,-0.09 -0.243,-0.253 -0.239,-0.438 z m -0.285,-4.398 c -0.074,-0.485 -0.162,-0.967 -0.265,-1.446 -0.058,-0.27 0.114,-0.536 0.384,-0.593 0.269,-0.058 0.535,0.114 0.593,0.384 0.107,0.498 0.199,1 0.276,1.504 0.042,0.273 -0.146,0.528 -0.419,0.57 -0.122,0.018 -0.24,-0.009 -0.337,-0.068 -0.12,-0.074 -0.209,-0.199 -0.232,-0.351 z m -30.901,-21.123 c -0.06,-0.269 0.111,-0.537 0.38,-0.596 0.497,-0.111 0.998,-0.207 1.501,-0.288 0.273,-0.045 0.53,0.141 0.573,0.414 0.044,0.273 -0.141,0.529 -0.414,0.573 -0.484,0.078 -0.966,0.171 -1.444,0.277 -0.132,0.029 -0.263,0.004 -0.37,-0.062 -0.111,-0.068 -0.195,-0.18 -0.226,-0.318 z m 29.856,16.843 c -0.157,-0.464 -0.328,-0.924 -0.512,-1.379 -0.104,-0.256 0.02,-0.548 0.276,-0.651 0.256,-0.104 0.547,0.02 0.651,0.276 0.191,0.473 0.368,0.95 0.532,1.432 0.089,0.262 -0.051,0.546 -0.313,0.634 -0.147,0.05 -0.301,0.028 -0.423,-0.048 -0.096,-0.058 -0.172,-0.149 -0.211,-0.264 z m -25.412,-17.518 c -0.012,-0.276 0.202,-0.509 0.478,-0.521 0.508,-0.022 1.018,-0.03 1.528,-0.022 0.275,0.003 0.497,0.232 0.493,0.507 -0.004,0.276 -0.231,0.497 -0.507,0.493 -0.491,-0.007 -0.982,0.001 -1.471,0.022 -0.103,0.004 -0.201,-0.023 -0.283,-0.073 -0.136,-0.085 -0.23,-0.234 -0.238,-0.406 z m 23.639,13.484 c -0.235,-0.429 -0.483,-0.852 -0.744,-1.267 -0.147,-0.234 -0.076,-0.543 0.157,-0.689 0.235,-0.147 0.543,-0.078 0.69,0.157 0.271,0.432 0.53,0.873 0.775,1.319 0.133,0.242 0.044,0.546 -0.198,0.679 -0.163,0.089 -0.354,0.078 -0.502,-0.012 -0.073,-0.046 -0.134,-0.108 -0.178,-0.187 z m -19.145,-13.375 c 0.037,-0.274 0.288,-0.466 0.562,-0.43 0.504,0.067 1.008,0.149 1.51,0.246 0.271,0.054 0.449,0.314 0.396,0.586 -0.053,0.271 -0.315,0.449 -0.586,0.396 -0.482,-0.093 -0.966,-0.172 -1.452,-0.236 -0.072,-0.01 -0.137,-0.034 -0.195,-0.069 -0.163,-0.101 -0.261,-0.291 -0.235,-0.493 z m 16.696,9.713 c -0.306,-0.38 -0.625,-0.753 -0.955,-1.117 -0.186,-0.204 -0.17,-0.521 0.034,-0.706 0.204,-0.186 0.522,-0.173 0.706,0.034 0.344,0.378 0.675,0.766 0.994,1.162 0.173,0.215 0.139,0.53 -0.076,0.703 -0.169,0.136 -0.4,0.144 -0.575,0.037 -0.047,-0.029 -0.091,-0.067 -0.128,-0.113 z m -12.289,-8.818 c 0.084,-0.263 0.365,-0.408 0.628,-0.324 0.483,0.154 0.965,0.323 1.443,0.507 0.261,0.099 0.386,0.389 0.287,0.646 -0.099,0.258 -0.389,0.386 -0.646,0.287 -0.46,-0.177 -0.922,-0.339 -1.387,-0.488 -0.039,-0.012 -0.076,-0.03 -0.11,-0.05 -0.192,-0.117 -0.287,-0.354 -0.215,-0.578 z m 9.234,5.646 c -0.367,-0.32 -0.746,-0.631 -1.136,-0.932 -0.219,-0.169 -0.259,-0.482 -0.091,-0.701 0.169,-0.219 0.483,-0.256 0.701,-0.091 0.406,0.313 0.8,0.636 1.182,0.969 0.208,0.181 0.23,0.497 0.049,0.705 -0.163,0.187 -0.434,0.224 -0.638,0.098 -0.023,-0.013 -0.046,-0.029 -0.067,-0.048 z m -5.055,-3.989 c 0.129,-0.244 0.431,-0.338 0.676,-0.209 0.448,0.236 0.892,0.486 1.332,0.751 10e-4,0.001 0.003,0.002 0.004,0.002 0.234,0.144 0.308,0.449 0.167,0.684 -0.142,0.237 -0.45,0.313 -0.686,0.171 -0.423,-0.254 -0.851,-0.496 -1.283,-0.723 -0.01,-0.005 -0.019,-0.011 -0.029,-0.016 -0.223,-0.138 -0.304,-0.426 -0.181,-0.66 z"
   id="path205" />
		</g>
		<polygon
   style="fill:#8f6fc9"
   points="324.401,131.457 326.457,138.866 316.223,137.717 "
   id="polygon209" />
	</g>
	<g
   id="g219"
   transform="translate(80,-20)">
		<g
   id="g215">
			<path
   style="fill:#8f6fc9"
   d="m 109.647,312.603 c 0.145,0.236 0.071,0.543 -0.165,0.688 -0.437,0.268 -0.879,0.522 -1.325,0.761 -0.244,0.131 -0.55,0.034 -0.677,-0.203 -0.131,-0.243 -0.04,-0.547 0.203,-0.677 0.429,-0.231 0.855,-0.475 1.275,-0.733 0.237,-0.146 0.545,-0.072 0.689,0.164 z m -4.02,2.009 c 0.015,0.025 0.028,0.05 0.039,0.078 0.101,0.257 -0.025,0.547 -0.281,0.649 -0.476,0.188 -0.956,0.361 -1.439,0.52 -0.262,0.087 -0.547,-0.055 -0.631,-0.319 -0.086,-0.262 0.056,-0.545 0.319,-0.631 0.464,-0.153 0.925,-0.319 1.383,-0.5 0.229,-0.091 0.485,0 0.61,0.203 z m -4.31,1.276 c 0.03,0.049 0.052,0.103 0.064,0.162 0.055,0.271 -0.12,0.535 -0.391,0.589 -0.501,0.101 -1.004,0.187 -1.507,0.258 -0.273,0.04 -0.526,-0.149 -0.565,-0.425 -0.039,-0.273 0.151,-0.527 0.425,-0.565 0.484,-0.069 0.967,-0.151 1.449,-0.249 0.211,-0.041 0.418,0.057 0.525,0.23 z m -4.467,0.499 c 0.045,0.073 0.071,0.158 0.073,0.249 0.006,0.276 -0.213,0.505 -0.488,0.512 -0.511,0.012 -1.021,0.009 -1.53,-0.01 -0.277,-0.009 -0.492,-0.24 -0.481,-0.518 0.01,-0.276 0.241,-0.491 0.518,-0.481 0.489,0.018 0.979,0.021 1.47,0.009 0.184,-0.005 0.347,0.092 0.438,0.239 z m -4.486,-0.291 c 0.06,0.097 0.086,0.215 0.068,0.337 -0.042,0.273 -0.297,0.46 -0.57,0.419 -0.504,-0.077 -1.006,-0.169 -1.504,-0.276 -0.27,-0.058 -0.442,-0.325 -0.384,-0.593 0.058,-0.27 0.323,-0.442 0.593,-0.384 0.479,0.102 0.961,0.19 1.446,0.265 0.152,0.022 0.277,0.111 0.351,0.232 z M 71.209,285.189 c 0.066,0.107 0.091,0.238 0.062,0.37 -0.106,0.479 -0.199,0.96 -0.277,1.444 -0.044,0.273 -0.301,0.458 -0.573,0.414 -0.272,-0.044 -0.459,-0.3 -0.414,-0.573 0.081,-0.503 0.177,-1.004 0.288,-1.501 0.06,-0.269 0.327,-0.44 0.596,-0.38 0.138,0.029 0.249,0.114 0.318,0.226 z m 16.789,29.84 c 0.075,0.122 0.097,0.276 0.048,0.423 -0.089,0.261 -0.373,0.401 -0.634,0.313 -0.482,-0.164 -0.96,-0.341 -1.432,-0.532 -0.256,-0.104 -0.38,-0.396 -0.276,-0.651 0.104,-0.256 0.395,-0.379 0.651,-0.276 0.454,0.184 0.914,0.355 1.379,0.512 0.114,0.038 0.206,0.115 0.264,0.211 z M 70.62,289.645 c 0.05,0.082 0.077,0.179 0.073,0.283 -0.021,0.489 -0.029,0.98 -0.022,1.471 0.004,0.276 -0.217,0.503 -0.493,0.507 -0.275,0.004 -0.504,-0.217 -0.507,-0.493 -0.007,-0.51 0,-1.02 0.022,-1.528 0.012,-0.276 0.245,-0.49 0.521,-0.478 0.174,0.007 0.322,0.101 0.406,0.238 z m 13.265,23.576 c 0.091,0.148 0.102,0.339 0.012,0.502 -0.132,0.242 -0.437,0.331 -0.679,0.198 -0.446,-0.245 -0.887,-0.503 -1.319,-0.775 -0.235,-0.146 -0.304,-0.454 -0.157,-0.689 0.146,-0.234 0.456,-0.304 0.689,-0.157 0.416,0.261 0.838,0.509 1.267,0.744 0.08,0.044 0.143,0.106 0.187,0.177 z M 70.816,294.135 c 0.036,0.058 0.06,0.124 0.069,0.195 0.064,0.485 0.143,0.969 0.236,1.452 0.053,0.271 -0.125,0.533 -0.396,0.586 -0.272,0.053 -0.532,-0.125 -0.586,-0.396 -0.097,-0.502 -0.179,-1.006 -0.246,-1.51 -0.036,-0.274 0.156,-0.525 0.43,-0.562 0.203,-0.027 0.393,0.071 0.493,0.235 z m 9.334,16.589 c 0.108,0.175 0.1,0.406 -0.037,0.575 -0.173,0.215 -0.488,0.249 -0.703,0.076 -0.396,-0.319 -0.784,-0.65 -1.162,-0.994 -0.207,-0.184 -0.22,-0.502 -0.034,-0.706 0.186,-0.204 0.502,-0.22 0.706,-0.034 0.364,0.33 0.736,0.649 1.117,0.955 0.047,0.037 0.084,0.08 0.113,0.128 z m -8.352,-12.203 c 0.021,0.034 0.038,0.071 0.05,0.11 0.149,0.465 0.311,0.927 0.488,1.387 0.099,0.258 -0.029,0.547 -0.287,0.646 -0.258,0.099 -0.547,-0.026 -0.646,-0.287 -0.184,-0.478 -0.353,-0.959 -0.507,-1.443 -0.084,-0.263 0.061,-0.544 0.324,-0.628 0.224,-0.071 0.46,0.023 0.578,0.215 z m 5.117,9.087 c 0.125,0.204 0.089,0.475 -0.098,0.638 -0.208,0.181 -0.524,0.16 -0.705,-0.049 -0.333,-0.383 -0.656,-0.776 -0.969,-1.182 -0.165,-0.218 -0.128,-0.532 0.091,-0.701 0.219,-0.168 0.532,-0.128 0.701,0.091 0.301,0.39 0.611,0.769 0.931,1.136 0.018,0.02 0.035,0.043 0.049,0.067 z m -3.38,-4.942 c 0.006,0.01 0.011,0.019 0.017,0.029 0.227,0.432 0.468,0.859 0.723,1.283 0.142,0.236 0.066,0.544 -0.171,0.686 -0.235,0.142 -0.54,0.067 -0.684,-0.167 -0.001,-0.001 -0.002,-0.003 -0.002,-0.004 -0.265,-0.44 -0.515,-0.884 -0.751,-1.332 -0.129,-0.245 -0.035,-0.547 0.209,-0.676 0.235,-0.123 0.522,-0.042 0.659,0.181 z"
   id="path213" />
		</g>
		<polygon
   style="fill:#8f6fc9"
   points="67.175,284.431 74.584,286.488 73.435,276.254 "
   id="polygon217" />
	</g>
	<g
   id="g229"
   transform="translate(80,-20)">
		<path
   style="fill:#8f6fc9"
   d="m 239.573,138.891 c 0,0.939 -0.762,1.701 -1.701,1.701 -0.939,0 -1.701,-0.762 -1.701,-1.701 0,-0.939 0.761,-1.701 1.701,-1.701 0.94,0 1.701,0.762 1.701,1.701 z"
   id="path221" />
		<circle
   style="fill:#8f6fc9"
   cx="244.895"
   cy="138.89101"
   r="1.701"
   id="circle223" />
		<path
   style="fill:#8f6fc9"
   d="m 253.619,138.891 c 0,0.939 -0.761,1.701 -1.701,1.701 -0.939,0 -1.701,-0.762 -1.701,-1.701 0,-0.939 0.761,-1.701 1.701,-1.701 0.939,0 1.701,0.762 1.701,1.701 z"
   id="path225" />
		<circle
   style="fill:#8f6fc9"
   cx="258.94101"
   cy="138.89101"
   r="1.701"
   id="circle227" />
	</g>
	<g
   id="g239"
   transform="translate(80,-20)">
		<circle
   style="fill:#80a880"
   cx="280.31799"
   cy="129.44"
   r="1.701"
   id="circle231" />
		<circle
   style="fill:#80a880"
   cx="287.341"
   cy="129.44"
   r="1.701"
   id="circle233" />
		<path
   style="fill:#80a880"
   d="m 296.065,129.44 c 0,0.939 -0.762,1.701 -1.701,1.701 -0.939,0 -1.701,-0.762 -1.701,-1.701 0,-0.939 0.761,-1.701 1.701,-1.701 0.939,0 1.701,0.762 1.701,1.701 z"
   id="path235" />
		<circle
   style="fill:#80a880"
   cx="301.38699"
   cy="129.44"
   r="1.701"
   id="circle237" />
	</g>
	<g
   id="g249"
   transform="translate(80,-20)">
		<path
   style="fill:#8f6fc9"
   d="m 95.916,291.277 c 0,0.939 -0.761,1.701 -1.701,1.701 -0.939,0 -1.701,-0.762 -1.701,-1.701 0,-0.939 0.761,-1.701 1.701,-1.701 0.94,0 1.701,0.762 1.701,1.701 z"
   id="path241" />
		<circle
   style="fill:#8f6fc9"
   cx="101.238"
   cy="291.27701"
   r="1.701"
   id="circle243" />
		<circle
   style="fill:#8f6fc9"
   cx="108.261"
   cy="291.27701"
   r="1.701"
   id="circle245" />
		<path
   style="fill:#8f6fc9"
   d="m 116.985,291.277 c 0,0.939 -0.761,1.701 -1.701,1.701 -0.939,0 -1.701,-0.762 -1.701,-1.701 0,-0.939 0.761,-1.701 1.701,-1.701 0.939,0 1.701,0.762 1.701,1.701 z"
   id="path247" />
	</g>
	<g
   id="g259"
   transform="translate(80,-20)">
		<path
   style="fill:#80a880"
   d="m 73.404,237.929 c 0,0.939 -0.761,1.701 -1.701,1.701 -0.94,0 -1.701,-0.762 -1.701,-1.701 0,-0.939 0.761,-1.701 1.701,-1.701 0.94,0 1.701,0.761 1.701,1.701 z"
   id="path251" />
		<path
   style="fill:#80a880"
   d="m 80.427,237.929 c 0,0.939 -0.762,1.701 -1.701,1.701 -0.939,0 -1.701,-0.762 -1.701,-1.701 0,-0.939 0.761,-1.701 1.701,-1.701 0.94,0 1.701,0.761 1.701,1.701 z"
   id="path253" />
		<circle
   style="fill:#80a880"
   cx="85.749001"
   cy="237.929"
   r="1.701"
   id="circle255" />
		<path
   style="fill:#80a880"
   d="m 94.472,237.929 c 0,0.939 -0.761,1.701 -1.701,1.701 -0.939,0 -1.701,-0.762 -1.701,-1.701 0,-0.939 0.761,-1.701 1.701,-1.701 0.94,0 1.701,0.761 1.701,1.701 z"
   id="path257" />
	</g>
	<g
   id="g269"
   transform="translate(80,-20)">
		<path
   style="fill:#80a880"
   d="m 367.942,263.613 c 0,0.939 -0.762,1.701 -1.701,1.701 -0.939,0 -1.701,-0.761 -1.701,-1.701 0,-0.939 0.761,-1.701 1.701,-1.701 0.94,0 1.701,0.761 1.701,1.701 z"
   id="path261" />
		<path
   style="fill:#80a880"
   d="m 374.965,263.613 c 0,0.939 -0.762,1.701 -1.701,1.701 -0.939,0 -1.701,-0.761 -1.701,-1.701 0,-0.939 0.761,-1.701 1.701,-1.701 0.939,0 1.701,0.761 1.701,1.701 z"
   id="path263" />
		<path
   style="fill:#80a880"
   d="m 381.987,263.613 c 0,0.939 -0.761,1.701 -1.701,1.701 -0.939,0 -1.701,-0.761 -1.701,-1.701 0,-0.939 0.761,-1.701 1.701,-1.701 0.94,0 1.701,0.761 1.701,1.701 z"
   id="path265" />
		<path
   style="fill:#80a880"
   d="m 389.01,263.613 c 0,0.939 -0.762,1.701 -1.701,1.701 -0.939,0 -1.701,-0.761 -1.701,-1.701 0,-0.939 0.762,-1.701 1.701,-1.701 0.939,0 1.701,0.761 1.701,1.701 z"
   id="path267" />
	</g>
	<g
   id="g279"
   transform="translate(80,-20)">
		<path
   style="fill:#ffefb0"
   d="m 361.993,254.15 c 0,0.939 -0.761,1.701 -1.701,1.701 -0.94,0 -1.701,-0.761 -1.701,-1.701 0,-0.939 0.762,-1.701 1.701,-1.701 0.939,0 1.701,0.762 1.701,1.701 z"
   id="path271" />
		<path
   style="fill:#ffefb0"
   d="m 369.015,254.15 c 0,0.939 -0.761,1.701 -1.701,1.701 -0.94,0 -1.701,-0.761 -1.701,-1.701 0,-0.939 0.762,-1.701 1.701,-1.701 0.939,0 1.701,0.762 1.701,1.701 z"
   id="path273" />
		<path
   style="fill:#ffefb0"
   d="m 376.038,254.15 c 0,0.939 -0.762,1.701 -1.701,1.701 -0.939,0 -1.701,-0.761 -1.701,-1.701 0,-0.939 0.761,-1.701 1.701,-1.701 0.94,0 1.701,0.762 1.701,1.701 z"
   id="path275" />
		<path
   style="fill:#ffefb0"
   d="m 383.061,254.15 c 0,0.939 -0.762,1.701 -1.701,1.701 -0.939,0 -1.701,-0.761 -1.701,-1.701 0,-0.939 0.762,-1.701 1.701,-1.701 0.939,0 1.701,0.762 1.701,1.701 z"
   id="path277" />
	</g>
	<g
   id="g301"
   transform="translate(80,-20)">
		<path
   style="opacity:0.87;fill:#000080"
   d="m 416.678,220.687 c 0.067,-0.345 0.104,-0.7 0.104,-1.065 0,-3.068 -2.487,-5.555 -5.555,-5.555 -0.958,0 -1.859,0.242 -2.645,0.669 -1.727,-2.372 -4.518,-3.919 -7.676,-3.919 -5.247,0 -9.5,4.253 -9.5,9.5 0,0.023 0.003,0.045 0.004,0.068 -4.989,0.563 -8.867,4.792 -8.867,9.932 v 0 c 0,5.523 4.477,10 10,10 h 21.472 c 5.523,0 10,-4.477 10,-10 v 0 c -10e-4,-4.599 -3.109,-8.463 -7.337,-9.63 z"
   id="path281" />
		<g
   id="g299">
			<path
   style="fill:#8f6fc9"
   d="m 391.347,229.367 c 1.102,0 1.349,-0.531 1.569,-1.141 h 0.96 v 9.075 h -1.426 v -6.923 h -1.102 v -1.011 z"
   id="path283" />
			<path
   style="fill:#8f6fc9"
   d="m 395.481,230.404 c 0,-1.452 0.765,-2.282 2.165,-2.282 1.4,0 2.165,0.83 2.165,2.282 v 4.719 c 0,1.452 -0.765,2.282 -2.165,2.282 -1.4,0 -2.165,-0.83 -2.165,-2.282 z m 1.427,4.809 c 0,0.648 0.285,0.895 0.739,0.895 0.454,0 0.739,-0.247 0.739,-0.895 v -4.9 c 0,-0.648 -0.285,-0.895 -0.739,-0.895 -0.454,0 -0.739,0.246 -0.739,0.895 z"
   id="path285" />
			<path
   style="fill:#8f6fc9"
   d="m 401.613,229.367 c 1.102,0 1.348,-0.531 1.569,-1.141 h 0.959 v 9.075 h -1.426 v -6.923 h -1.102 z"
   id="path287" />
			<path
   style="fill:#8f6fc9"
   d="m 405.747,230.404 c 0,-1.452 0.765,-2.282 2.165,-2.282 1.4,0 2.165,0.83 2.165,2.282 v 4.719 c 0,1.452 -0.765,2.282 -2.165,2.282 -1.401,0 -2.165,-0.83 -2.165,-2.282 z m 1.426,4.809 c 0,0.648 0.285,0.895 0.739,0.895 0.454,0 0.739,-0.247 0.739,-0.895 v -4.9 c 0,-0.648 -0.285,-0.895 -0.739,-0.895 -0.454,0 -0.739,0.246 -0.739,0.895 z"
   id="path289" />
			<path
   style="fill:#8f6fc9"
   d="m 410.88,230.404 c 0,-1.452 0.765,-2.282 2.165,-2.282 1.4,0 2.165,0.83 2.165,2.282 v 4.719 c 0,1.452 -0.765,2.282 -2.165,2.282 -1.4,0 -2.165,-0.83 -2.165,-2.282 z m 1.426,4.809 c 0,0.648 0.285,0.895 0.739,0.895 0.454,0 0.739,-0.247 0.739,-0.895 v -4.9 c 0,-0.648 -0.285,-0.895 -0.739,-0.895 -0.454,0 -0.739,0.246 -0.739,0.895 z"
   id="path291" />
			<path
   style="fill:#8f6fc9"
   d="m 395.98,219.558 c 0,-1.452 0.765,-2.282 2.165,-2.282 1.4,0 2.165,0.83 2.165,2.282 v 4.719 c 0,1.452 -0.765,2.282 -2.165,2.282 -1.401,0 -2.165,-0.83 -2.165,-2.282 z m 1.427,4.81 c 0,0.648 0.285,0.895 0.739,0.895 0.454,0 0.739,-0.247 0.739,-0.895 v -4.9 c 0,-0.648 -0.285,-0.895 -0.739,-0.895 -0.454,0 -0.739,0.246 -0.739,0.895 z"
   id="path293" />
			<path
   style="fill:#8f6fc9"
   d="m 402.112,218.521 c 1.102,0 1.349,-0.532 1.569,-1.141 h 0.96 v 9.075 h -1.427 v -6.923 h -1.102 z"
   id="path295" />
			<path
   style="fill:#8f6fc9"
   d="m 407.244,218.521 c 1.102,0 1.348,-0.532 1.569,-1.141 h 0.96 v 9.075 h -1.426 v -6.923 h -1.102 v -1.011 z"
   id="path297" />
		</g>
	</g>
	<g
   id="g319"
   transform="translate(80,-20)">
		<path
   style="fill:#8f6fc9"
   d="m 196.468,175.193 c 1.102,0 1.348,-0.532 1.569,-1.141 h 0.96 v 9.075 h -1.426 v -6.923 h -1.102 v -1.011 z"
   id="path303" />
		<path
   style="fill:#8f6fc9"
   d="m 200.603,176.23 c 0,-1.452 0.765,-2.282 2.165,-2.282 1.4,0 2.165,0.83 2.165,2.282 v 4.719 c 0,1.452 -0.765,2.282 -2.165,2.282 -1.4,0 -2.165,-0.83 -2.165,-2.282 z m 1.426,4.81 c 0,0.648 0.285,0.895 0.739,0.895 0.454,0 0.739,-0.247 0.739,-0.895 v -4.9 c 0,-0.648 -0.285,-0.895 -0.739,-0.895 -0.454,0 -0.739,0.246 -0.739,0.895 z"
   id="path305" />
		<path
   style="fill:#8f6fc9"
   d="m 206.734,175.193 c 1.102,0 1.348,-0.532 1.569,-1.141 h 0.959 v 9.075 h -1.426 v -6.923 h -1.102 z"
   id="path307" />
		<path
   style="fill:#8f6fc9"
   d="m 210.868,176.23 c 0,-1.452 0.765,-2.282 2.165,-2.282 1.4,0 2.165,0.83 2.165,2.282 v 4.719 c 0,1.452 -0.765,2.282 -2.165,2.282 -1.4,0 -2.165,-0.83 -2.165,-2.282 z m 1.426,4.81 c 0,0.648 0.285,0.895 0.739,0.895 0.454,0 0.739,-0.247 0.739,-0.895 v -4.9 c 0,-0.648 -0.285,-0.895 -0.739,-0.895 -0.454,0 -0.739,0.246 -0.739,0.895 z"
   id="path309" />
		<path
   style="fill:#8f6fc9"
   d="m 216.001,176.23 c 0,-1.452 0.765,-2.282 2.165,-2.282 1.4,0 2.165,0.83 2.165,2.282 v 4.719 c 0,1.452 -0.765,2.282 -2.165,2.282 -1.4,0 -2.165,-0.83 -2.165,-2.282 z m 1.426,4.81 c 0,0.648 0.285,0.895 0.739,0.895 0.454,0 0.739,-0.247 0.739,-0.895 v -4.9 c 0,-0.648 -0.285,-0.895 -0.739,-0.895 -0.454,0 -0.739,0.246 -0.739,0.895 z"
   id="path311" />
		<path
   style="fill:#8f6fc9"
   d="m 201.102,165.385 c 0,-1.452 0.765,-2.282 2.165,-2.282 1.4,0 2.165,0.83 2.165,2.282 v 4.719 c 0,1.452 -0.765,2.282 -2.165,2.282 -1.4,0 -2.165,-0.83 -2.165,-2.282 z m 1.426,4.809 c 0,0.648 0.285,0.895 0.739,0.895 0.454,0 0.739,-0.247 0.739,-0.895 v -4.901 c 0,-0.648 -0.285,-0.894 -0.739,-0.894 -0.454,0 -0.739,0.246 -0.739,0.894 z"
   id="path313" />
		<path
   style="fill:#8f6fc9"
   d="m 207.233,164.347 c 1.102,0 1.348,-0.532 1.569,-1.141 h 0.96 v 9.075 h -1.426 v -6.923 h -1.102 v -1.011 z"
   id="path315" />
		<path
   style="fill:#8f6fc9"
   d="m 212.365,164.347 c 1.102,0 1.349,-0.532 1.569,-1.141 h 0.96 v 9.075 h -1.426 v -6.923 h -1.102 v -1.011 z"
   id="path317" />
	</g>
	<path
   style="fill:#8f6fc9"
   d="m 460.659,198.914 c 0,-3.424 -1.584,-6.483 -4.056,-8.489 -0.054,-0.052 -0.112,-0.098 -0.176,-0.132 -1.854,-1.445 -4.177,-2.314 -6.704,-2.314 -2.525,0 -4.847,0.869 -6.7,2.312 -0.068,0.035 -0.129,0.083 -0.185,0.139 -2.468,2.007 -4.05,5.063 -4.05,8.485 0,3.426 1.587,6.486 4.061,8.493 0.046,0.044 0.096,0.082 0.15,0.113 1.857,1.454 4.188,2.33 6.725,2.33 2.527,0 4.85,-0.87 6.704,-2.315 0.063,-0.034 0.121,-0.079 0.175,-0.131 2.471,-2.007 4.056,-5.066 4.056,-8.491 z m -4.66,6.877 c -0.48,-0.336 -0.985,-0.631 -1.511,-0.885 0.502,-1.503 0.815,-3.269 0.885,-5.187 h 3.635 c -0.207,2.4 -1.327,4.536 -3.009,6.072 z m -8.939,0.013 c 0.854,-0.253 1.746,-0.391 2.664,-0.391 0.918,0 1.81,0.137 2.664,0.391 -0.763,1.538 -1.738,2.435 -2.664,2.435 -0.926,0 -1.901,-0.897 -2.664,-2.435 z m -0.848,1.743 c -0.492,-0.201 -0.96,-0.447 -1.407,-0.725 0.247,-0.154 0.499,-0.296 0.757,-0.425 0.201,0.415 0.417,0.8 0.65,1.15 z m 3.512,-17.958 c 0.926,0 1.9,0.897 2.664,2.435 -0.854,0.253 -1.746,0.391 -2.664,0.391 -0.918,0 -1.81,-0.137 -2.664,-0.391 0.763,-1.538 1.738,-2.435 2.664,-2.435 z m -4.162,1.843 c -0.258,-0.129 -0.51,-0.271 -0.757,-0.425 0.446,-0.279 0.914,-0.524 1.407,-0.725 -0.233,0.349 -0.449,0.734 -0.65,1.15 z m 7.673,-1.151 c 0.492,0.201 0.96,0.447 1.407,0.725 -0.247,0.154 -0.499,0.296 -0.757,0.425 -0.201,-0.415 -0.418,-0.8 -0.65,-1.15 z m -3.511,3.745 c 1.114,0 2.215,-0.181 3.269,-0.511 0.42,1.289 0.703,2.847 0.771,4.595 h -8.08 c 0.068,-1.747 0.351,-3.306 0.771,-4.595 1.053,0.33 2.154,0.511 3.269,0.511 z m 4.039,5.693 c -0.068,1.747 -0.351,3.306 -0.771,4.594 -1.053,-0.33 -2.155,-0.511 -3.269,-0.511 -1.114,0 -2.216,0.181 -3.269,0.511 -0.42,-1.289 -0.703,-2.847 -0.771,-4.594 z m 0.122,6.678 c 0.258,0.129 0.51,0.271 0.757,0.425 -0.446,0.279 -0.915,0.524 -1.407,0.726 0.232,-0.351 0.449,-0.736 0.65,-1.151 z m 5.122,-8.288 h -3.635 c -0.07,-1.918 -0.382,-3.684 -0.885,-5.187 0.526,-0.254 1.031,-0.549 1.511,-0.885 1.683,1.536 2.803,3.673 3.009,6.072 z m -15.559,-6.072 c 0.48,0.336 0.985,0.631 1.51,0.885 -0.502,1.503 -0.815,3.268 -0.884,5.187 h -3.635 c 0.207,-2.399 1.327,-4.536 3.009,-6.072 z m -3.009,7.682 h 3.635 c 0.069,1.918 0.382,3.684 0.884,5.187 -0.525,0.254 -1.031,0.549 -1.511,0.885 -1.681,-1.536 -2.801,-3.672 -3.008,-6.072 z"
   id="path321" />
	<g
   id="g327"
   transform="translate(80,-20)">
		<path
   style="opacity:0.87;fill:#000080"
   d="m 419.18,284.103 c 0.067,-0.345 0.105,-0.701 0.105,-1.065 0,-3.068 -2.487,-5.555 -5.555,-5.555 -0.958,0 -1.859,0.242 -2.645,0.669 -1.727,-2.371 -4.518,-3.919 -7.676,-3.919 -5.247,0 -9.5,4.253 -9.5,9.5 0,0.023 0.003,0.045 0.004,0.068 -4.989,0.563 -8.867,4.792 -8.867,9.931 v 0 c 0,5.523 4.477,10 10,10 h 21.472 c 5.523,0 10,-4.477 10,-10 v 0 c -0.002,-4.598 -3.111,-8.461 -7.338,-9.629 z"
   id="path323" />
		<path
   style="fill:#8f6fc9"
   d="m 415.105,290.169 c 0,-2.92 -1.351,-5.528 -3.458,-7.239 -0.046,-0.044 -0.095,-0.083 -0.15,-0.112 -1.581,-1.232 -3.562,-1.974 -5.716,-1.974 -2.154,0 -4.133,0.741 -5.714,1.971 -0.058,0.03 -0.11,0.071 -0.158,0.118 -2.105,1.711 -3.454,4.318 -3.454,7.235 0,2.922 1.353,5.531 3.462,7.242 0.04,0.038 0.082,0.07 0.128,0.096 1.584,1.24 3.572,1.987 5.734,1.987 2.155,0 4.136,-0.742 5.716,-1.974 0.054,-0.029 0.103,-0.068 0.149,-0.111 2.109,-1.711 3.461,-4.319 3.461,-7.239 z m -3.974,5.864 c -0.409,-0.287 -0.84,-0.538 -1.288,-0.755 0.428,-1.281 0.695,-2.787 0.754,-4.423 h 3.099 c -0.176,2.046 -1.131,3.868 -2.565,5.178 z m -7.623,0.011 c 0.728,-0.216 1.489,-0.333 2.272,-0.333 0.783,0 1.543,0.117 2.271,0.333 -0.651,1.312 -1.482,2.077 -2.271,2.077 -0.79,-10e-4 -1.621,-0.766 -2.272,-2.077 z m -0.723,1.486 c -0.42,-0.171 -0.819,-0.381 -1.2,-0.619 0.21,-0.132 0.426,-0.252 0.646,-0.362 0.172,0.355 0.356,0.683 0.554,0.981 z m 2.995,-15.313 c 0.789,0 1.62,0.765 2.271,2.076 -0.728,0.216 -1.489,0.333 -2.271,0.333 -0.783,0 -1.544,-0.117 -2.272,-0.333 0.651,-1.311 1.482,-2.076 2.272,-2.076 z m -3.548,1.571 c -0.22,-0.11 -0.435,-0.231 -0.646,-0.363 0.381,-0.238 0.78,-0.447 1.2,-0.619 -0.199,0.299 -0.383,0.628 -0.554,0.982 z m 6.542,-0.981 c 0.42,0.172 0.819,0.381 1.2,0.619 -0.21,0.132 -0.426,0.252 -0.646,0.363 -0.171,-0.355 -0.356,-0.684 -0.554,-0.982 z M 405.78,286 c 0.95,0 1.889,-0.154 2.787,-0.436 0.358,1.099 0.599,2.428 0.657,3.918 h -6.89 c 0.058,-1.49 0.299,-2.819 0.657,-3.918 0.899,0.282 1.839,0.436 2.789,0.436 z m 3.445,4.855 c -0.058,1.49 -0.299,2.819 -0.657,3.918 -0.898,-0.282 -1.837,-0.436 -2.787,-0.436 -0.95,0 -1.889,0.154 -2.788,0.436 -0.358,-1.099 -0.599,-2.428 -0.657,-3.918 z m 0.103,5.694 c 0.22,0.11 0.435,0.231 0.646,0.363 -0.381,0.238 -0.78,0.447 -1.2,0.619 0.198,-0.299 0.383,-0.627 0.554,-0.982 z m 4.369,-7.067 h -3.099 c -0.059,-1.636 -0.326,-3.142 -0.754,-4.423 0.448,-0.217 0.879,-0.468 1.288,-0.755 1.433,1.31 2.388,3.132 2.565,5.178 z m -13.268,-5.178 c 0.409,0.287 0.84,0.538 1.288,0.755 -0.428,1.281 -0.695,2.787 -0.754,4.423 h -3.099 c 0.175,-2.046 1.13,-3.868 2.565,-5.178 z m -2.566,6.551 h 3.099 c 0.059,1.636 0.326,3.142 0.754,4.423 -0.448,0.217 -0.879,0.468 -1.288,0.755 -1.434,-1.31 -2.389,-3.132 -2.565,-5.178 z"
   id="path325" />
	</g>
	<g
   id="g343"
   transform="translate(80,-20)">
		<g
   id="g335">
			<path
   style="fill:#000080"
   d="m 117.318,182.411 h 13.111 c 3.372,0 6.106,-2.734 6.106,-6.106 v 0 c 0,-3.372 -2.734,-6.106 -6.106,-6.106 h -13.111 c -3.372,0 -6.106,2.734 -6.106,6.106 v 0 c 0,3.373 2.733,6.106 6.106,6.106 z"
   id="path329" />
			<circle
   style="fill:#000080"
   cx="125.321"
   cy="170.19901"
   r="5.8010001"
   id="circle331" />
			<circle
   style="fill:#000080"
   cx="119.019"
   cy="169.77499"
   r="3.392"
   id="circle333" />
		</g>
		<path
   style="fill:#8f6fc9"
   d="m 128.962,173.167 h -10.546 c -0.534,0 -0.967,-0.433 -0.967,-0.967 v 0 c 0,-0.534 0.433,-0.967 0.967,-0.967 h 10.546 c 0.534,0 0.967,0.433 0.967,0.967 v 0 c 0,0.534 -0.433,0.967 -0.967,0.967 z"
   id="path337" />
		<path
   style="fill:#8f6fc9"
   d="m 131.017,176 h -12.601 c -0.534,0 -0.967,-0.433 -0.967,-0.967 v 0 c 0,-0.534 0.433,-0.967 0.967,-0.967 h 12.601 c 0.534,0 0.967,0.433 0.967,0.967 v 0 c 0,0.534 -0.433,0.967 -0.967,0.967 z"
   id="path339" />
		<path
   style="fill:#8f6fc9"
   d="m 131.017,178.833 h -12.601 c -0.534,0 -0.967,-0.433 -0.967,-0.967 v 0 c 0,-0.534 0.433,-0.967 0.967,-0.967 h 12.601 c 0.534,0 0.967,0.433 0.967,0.967 v 0 c 0,0.534 -0.433,0.967 -0.967,0.967 z"
   id="path341" />
	</g>
	<g
   id="g357"
   transform="translate(80,-20)">
		<path
   style="fill:none;stroke:#ffffff;stroke-miterlimit:10"
   d="m 336.674,401.702 v -24.756 c 0,-3.227 -2.616,-5.843 -5.843,-5.843 h -0.068 c -3.227,0 -5.843,2.616 -5.843,5.843 v 1.489 c 0,3.227 -2.616,5.843 -5.843,5.843 v 0 c -3.227,0 -5.843,-2.616 -5.843,-5.843 v -20.041 c 0,-3.422 -2.774,-6.196 -6.196,-6.196 v 0 c -3.422,0 -6.196,2.774 -6.196,6.196 v 41.867 c 0,3.619 -2.934,6.554 -6.554,6.554 v 0 c -3.619,0 -6.554,-2.934 -6.554,-6.554 v -36.228 c 0,-3.227 -2.616,-5.843 -5.843,-5.843 h -10.492"
   id="path345" />
		<g
   id="g355">
			<g
   id="g351">
				<path
   style="fill:#ffffff"
   d="m 332.025,389.22 c -3.858,0 -7.003,3.092 -7.071,6.949 l -0.34,19.555 c -0.098,5.646 4.452,10.275 10.098,10.275 h 1.961 V 389.22 Z"
   id="path347" />
				<path
   style="fill:#d5e6f0"
   d="m 348.392,396.168 c -0.067,-3.857 -3.213,-6.949 -7.071,-6.949 h -4.648 v 36.779 h 1.961 c 5.647,0 10.196,-4.629 10.098,-10.275 z"
   id="path349" />
			</g>
			<path
   style="fill:#8fb4c9"
   d="m 336.58,406.122 v 0 c -1.035,0 -1.875,-0.839 -1.875,-1.875 v -6.006 c 0,-1.036 0.84,-1.875 1.875,-1.875 v 0 c 1.036,0 1.875,0.839 1.875,1.875 v 6.006 c 0,1.036 -0.84,1.875 -1.875,1.875 z"
   id="path353" />
		</g>
	</g>
	<g
   id="g495"
   transform="translate(80,-20)">
		<g
   id="g373">
			<polygon
   style="fill:#f1f1f1"
   points="271.398,356.04 270.117,339.169 228.35,339.169 227.069,356.04 "
   id="polygon359" />
			<polygon
   style="fill:#808080"
   points="228.35,339.169 270.117,339.169 269.413,329.906 229.054,329.906 "
   id="polygon361" />
			<path
   style="fill:#a4cde7"
   d="m 282.563,361.83 h -66.659 v -4.264 c 0,-1.664 1.349,-3.013 3.014,-3.013 h 60.632 c 1.664,0 3.014,1.349 3.014,3.013 v 4.264 z"
   id="path363" />
			<path
   style="fill:#a4cde7"
   d="M 347.291,190.963 H 151.176 c -3.305,0 -5.984,2.679 -5.984,5.984 v 117.741 h 123.394 84.689 V 230 196.948 c 0,-3.305 -2.679,-5.985 -5.984,-5.985 z"
   id="path365" />
			<path
   style="fill:#e5e5e5"
   d="m 248.407,334.868 h 98.885 c 3.305,0 5.984,-2.679 5.984,-5.984 v -14.196 h -84.689 z"
   id="path367" />
			<path
   style="fill:#f1f1f1"
   d="m 145.192,314.689 v 14.196 c 0,3.305 2.679,5.984 5.984,5.984 h 97.231 l 20.18,-20.18 z"
   id="path369" />
			<rect
   x="152.474"
   y="198.243"
   style="fill:#2c528f"
   width="192.2"
   height="108.17"
   id="rect371" />
		</g>
		<path
   style="fill:#c2ffc2"
   d="m 192.817,212.317 h -29.5 c -1.151,0 -2.083,-0.933 -2.083,-2.083 v 0 c 0,-1.151 0.933,-2.083 2.083,-2.083 h 29.5 c 1.151,0 2.083,0.933 2.083,2.083 v 0 c 0,1.15 -0.933,2.083 -2.083,2.083 z"
   id="path375" />
		<path
   style="fill:#c2ffc2"
   d="m 267.484,212.317 h -29.5 c -1.151,0 -2.083,-0.933 -2.083,-2.083 v 0 c 0,-1.151 0.933,-2.083 2.083,-2.083 h 29.5 c 1.151,0 2.083,0.933 2.083,2.083 v 0 c 0,1.15 -0.933,2.083 -2.083,2.083 z"
   id="path377" />
		<path
   style="fill:#ffffff"
   d="m 281.984,212.317 h -6.77 c -1.151,0 -2.083,-0.933 -2.083,-2.083 v 0 c 0,-1.151 0.933,-2.083 2.083,-2.083 h 6.77 c 1.151,0 2.083,0.933 2.083,2.083 v 0 c 0,1.15 -0.933,2.083 -2.083,2.083 z"
   id="path379" />
		<path
   style="fill:#fe168d"
   d="m 229.993,212.317 h -10.676 c -1.151,0 -2.083,-0.933 -2.083,-2.083 v 0 c 0,-1.151 0.933,-2.083 2.083,-2.083 h 10.676 c 1.15,0 2.083,0.933 2.083,2.083 v 0 c 0.001,1.15 -0.932,2.083 -2.083,2.083 z"
   id="path381" />
		<path
   style="fill:#00ffff"
   d="m 183.043,219.983 h -19.726 c -1.151,0 -2.083,-0.933 -2.083,-2.083 v 0 c 0,-1.151 0.933,-2.083 2.083,-2.083 h 19.726 c 1.151,0 2.083,0.933 2.083,2.083 v 0 c 0,1.151 -0.932,2.083 -2.083,2.083 z"
   id="path383" />
		<path
   style="fill:#00ffff"
   d="m 236.033,219.983 h -19.726 c -1.15,0 -2.083,-0.933 -2.083,-2.083 v 0 c 0,-1.151 0.933,-2.083 2.083,-2.083 h 19.726 c 1.151,0 2.083,0.933 2.083,2.083 v 0 c 0,1.151 -0.933,2.083 -2.083,2.083 z"
   id="path385" />
		<path
   style="fill:#ffffff"
   d="m 246.323,219.983 h -3.595 c -1.151,0 -2.083,-0.933 -2.083,-2.083 v 0 c 0,-1.151 0.933,-2.083 2.083,-2.083 h 3.595 c 1.151,0 2.083,0.933 2.083,2.083 v 0 c 0.001,1.151 -0.932,2.083 -2.083,2.083 z"
   id="path387" />
		<path
   style="fill:#00ffff"
   d="m 196.297,219.983 h -6.367 c -1.151,0 -2.083,-0.933 -2.083,-2.083 v 0 c 0,-1.151 0.933,-2.083 2.083,-2.083 h 6.367 c 1.151,0 2.083,0.933 2.083,2.083 v 0 c 0.001,1.151 -0.932,2.083 -2.083,2.083 z"
   id="path389" />
		<path
   style="fill:#00ffff"
   d="m 209.427,219.983 h -6.367 c -1.151,0 -2.083,-0.933 -2.083,-2.083 v 0 c 0,-1.151 0.933,-2.083 2.083,-2.083 h 6.367 c 1.15,0 2.083,0.933 2.083,2.083 v 0 c 0,1.151 -0.933,2.083 -2.083,2.083 z"
   id="path391" />
		<path
   style="fill:#ffffff"
   d="m 183.043,227.65 h -19.726 c -1.151,0 -2.083,-0.933 -2.083,-2.083 v 0 c 0,-1.151 0.933,-2.083 2.083,-2.083 h 19.726 c 1.151,0 2.083,0.933 2.083,2.083 v 0 c 0,1.15 -0.932,2.083 -2.083,2.083 z"
   id="path393" />
		<path
   style="fill:#ffffff"
   d="m 196.297,227.65 h -6.367 c -1.151,0 -2.083,-0.933 -2.083,-2.083 v 0 c 0,-1.151 0.933,-2.083 2.083,-2.083 h 6.367 c 1.151,0 2.083,0.933 2.083,2.083 v 0 c 0.001,1.15 -0.932,2.083 -2.083,2.083 z"
   id="path395" />
		<path
   style="fill:#ffffff"
   d="m 209.427,227.65 h -6.367 c -1.151,0 -2.083,-0.933 -2.083,-2.083 v 0 c 0,-1.151 0.933,-2.083 2.083,-2.083 h 6.367 c 1.15,0 2.083,0.933 2.083,2.083 v 0 c 0,1.15 -0.933,2.083 -2.083,2.083 z"
   id="path397" />
		<path
   style="fill:#fe168d"
   d="m 244.891,227.65 h -2.01 c -1.151,0 -2.083,-0.933 -2.083,-2.083 v 0 c 0,-1.151 0.933,-2.083 2.083,-2.083 h 2.01 c 1.151,0 2.083,0.933 2.083,2.083 v 0 c 0,1.15 -0.933,2.083 -2.083,2.083 z"
   id="path399" />
		<path
   style="fill:#fe168d"
   d="m 253.749,227.65 h -2.01 c -1.151,0 -2.083,-0.933 -2.083,-2.083 v 0 c 0,-1.151 0.933,-2.083 2.083,-2.083 h 2.01 c 1.151,0 2.083,0.933 2.083,2.083 v 0 c 0,1.15 -0.933,2.083 -2.083,2.083 z"
   id="path401" />
		<path
   style="fill:#ffffff"
   d="m 262.607,227.65 h -2.01 c -1.151,0 -2.083,-0.933 -2.083,-2.083 v 0 c 0,-1.151 0.933,-2.083 2.083,-2.083 h 2.01 c 1.151,0 2.083,0.933 2.083,2.083 v 0 c 0,1.15 -0.933,2.083 -2.083,2.083 z"
   id="path403" />
		<path
   style="fill:#ffffff"
   d="m 271.465,227.65 h -2.01 c -1.151,0 -2.083,-0.933 -2.083,-2.083 v 0 c 0,-1.151 0.933,-2.083 2.083,-2.083 h 2.01 c 1.151,0 2.083,0.933 2.083,2.083 v 0 c 0,1.15 -0.933,2.083 -2.083,2.083 z"
   id="path405" />
		<path
   style="fill:#ffffff"
   d="m 173.761,235.317 h -10.444 c -1.151,0 -2.083,-0.933 -2.083,-2.083 v 0 c 0,-1.151 0.933,-2.083 2.083,-2.083 h 10.444 c 1.151,0 2.083,0.933 2.083,2.083 v 0 c 0.001,1.15 -0.932,2.083 -2.083,2.083 z"
   id="path407" />
		<path
   style="fill:#fe168d"
   d="m 206.166,235.317 h -10.444 c -1.15,0 -2.083,-0.933 -2.083,-2.083 v 0 c 0,-1.151 0.933,-2.083 2.083,-2.083 h 10.444 c 1.151,0 2.083,0.933 2.083,2.083 v 0 c 0,1.15 -0.932,2.083 -2.083,2.083 z"
   id="path409" />
		<path
   style="fill:#ffffff"
   d="m 212.459,235.317 h -0.58 c -1.151,0 -2.083,-0.933 -2.083,-2.083 v 0 c 0,-1.151 0.933,-2.083 2.083,-2.083 h 0.58 c 1.151,0 2.083,0.933 2.083,2.083 v 0 c 0,1.15 -0.933,2.083 -2.083,2.083 z"
   id="path411" />
		<path
   style="fill:#ffffff"
   d="m 181.867,235.317 h -2.275 c -1.151,0 -2.083,-0.933 -2.083,-2.083 v 0 c 0,-1.151 0.933,-2.083 2.083,-2.083 h 2.275 c 1.151,0 2.083,0.933 2.083,2.083 v 0 c 0,1.15 -0.933,2.083 -2.083,2.083 z"
   id="path413" />
		<path
   style="fill:#ffffff"
   d="m 189.896,235.317 h -2.275 c -1.151,0 -2.083,-0.933 -2.083,-2.083 v 0 c 0,-1.151 0.933,-2.083 2.083,-2.083 h 2.275 c 1.151,0 2.083,0.933 2.083,2.083 v 0 c 0,1.15 -0.933,2.083 -2.083,2.083 z"
   id="path415" />
		<path
   style="fill:#00ffff"
   d="m 187.506,242.983 h -24.189 c -1.151,0 -2.083,-0.933 -2.083,-2.083 v 0 c 0,-1.151 0.933,-2.083 2.083,-2.083 h 24.189 c 1.151,0 2.083,0.933 2.083,2.083 v 0 c 0,1.151 -0.932,2.083 -2.083,2.083 z"
   id="path417" />
		<path
   style="fill:#ffffff"
   d="m 231.087,242.983 h -4.882 c -1.151,0 -2.083,-0.933 -2.083,-2.083 v 0 c 0,-1.151 0.933,-2.083 2.083,-2.083 h 4.882 c 1.15,0 2.083,0.933 2.083,2.083 v 0 c 0,1.151 -0.933,2.083 -2.083,2.083 z"
   id="path419" />
		<path
   style="fill:#ffffff"
   d="m 240.815,242.983 h -2.459 c -1.151,0 -2.083,-0.933 -2.083,-2.083 v 0 c 0,-1.151 0.933,-2.083 2.083,-2.083 h 2.459 c 1.151,0 2.083,0.933 2.083,2.083 v 0 c 0,1.151 -0.932,2.083 -2.083,2.083 z"
   id="path421" />
		<path
   style="fill:#ffffff"
   d="m 250.463,242.983 h -2.458 c -1.151,0 -2.083,-0.933 -2.083,-2.083 v 0 c 0,-1.151 0.933,-2.083 2.083,-2.083 h 2.458 c 1.151,0 2.083,0.933 2.083,2.083 v 0 c 0,1.151 -0.933,2.083 -2.083,2.083 z"
   id="path423" />
		<path
   style="fill:#00ffff"
   d="m 203.236,242.983 h -8.335 c -1.151,0 -2.083,-0.933 -2.083,-2.083 v 0 c 0,-1.151 0.933,-2.083 2.083,-2.083 h 8.335 c 1.151,0 2.083,0.933 2.083,2.083 v 0 c 0.001,1.151 -0.932,2.083 -2.083,2.083 z"
   id="path425" />
		<path
   style="fill:#00ffff"
   d="m 218.818,242.983 h -8.335 c -1.151,0 -2.083,-0.933 -2.083,-2.083 v 0 c 0,-1.151 0.933,-2.083 2.083,-2.083 h 8.335 c 1.151,0 2.083,0.933 2.083,2.083 v 0 c 0,1.151 -0.933,2.083 -2.083,2.083 z"
   id="path427" />
		<path
   style="fill:#ffffff"
   d="m 190.944,250.65 h -27.627 c -1.151,0 -2.083,-0.933 -2.083,-2.083 v 0 c 0,-1.151 0.933,-2.083 2.083,-2.083 h 27.627 c 1.151,0 2.083,0.933 2.083,2.083 v 0 c 0,1.15 -0.932,2.083 -2.083,2.083 z"
   id="path429" />
		<path
   style="fill:#ffffff"
   d="M 261.457,250.65 H 233.83 c -1.151,0 -2.083,-0.933 -2.083,-2.083 v 0 c 0,-1.151 0.933,-2.083 2.083,-2.083 h 27.627 c 1.151,0 2.083,0.933 2.083,2.083 v 0 c 0,1.15 -0.933,2.083 -2.083,2.083 z"
   id="path431" />
		<path
   style="fill:#ffffff"
   d="m 275.15,250.65 h -6.162 c -1.151,0 -2.083,-0.933 -2.083,-2.083 v 0 c 0,-1.151 0.933,-2.083 2.083,-2.083 h 6.162 c 1.15,0 2.083,0.933 2.083,2.083 v 0 c 10e-4,1.15 -0.932,2.083 -2.083,2.083 z"
   id="path433" />
		<path
   style="fill:#ffffff"
   d="m 175.824,258.317 h -12.507 c -1.151,0 -2.083,-0.933 -2.083,-2.083 v 0 c 0,-1.151 0.933,-2.083 2.083,-2.083 h 12.507 c 1.151,0 2.083,0.933 2.083,2.083 v 0 c 0,1.15 -0.933,2.083 -2.083,2.083 z"
   id="path435" />
		<path
   style="fill:#fe168d"
   d="m 212.802,258.317 h -12.507 c -1.151,0 -2.083,-0.933 -2.083,-2.083 v 0 c 0,-1.151 0.933,-2.083 2.083,-2.083 h 12.507 c 1.151,0 2.083,0.933 2.083,2.083 v 0 c 0.001,1.15 -0.932,2.083 -2.083,2.083 z"
   id="path437" />
		<path
   style="fill:#fe168d"
   d="m 219.984,258.317 h -1.25 c -1.151,0 -2.083,-0.933 -2.083,-2.083 v 0 c 0,-1.151 0.933,-2.083 2.083,-2.083 h 1.25 c 1.151,0 2.083,0.933 2.083,2.083 v 0 c 0,1.15 -0.933,2.083 -2.083,2.083 z"
   id="path439" />
		<path
   style="fill:#ffffff"
   d="m 185.073,258.317 h -3.184 c -1.151,0 -2.083,-0.933 -2.083,-2.083 v 0 c 0,-1.151 0.933,-2.083 2.083,-2.083 h 3.184 c 1.151,0 2.083,0.933 2.083,2.083 v 0 c 0.001,1.15 -0.932,2.083 -2.083,2.083 z"
   id="path441" />
		<path
   style="fill:#c2ffc2"
   d="m 194.235,258.317 h -3.184 c -1.151,0 -2.083,-0.933 -2.083,-2.083 v 0 c 0,-1.151 0.933,-2.083 2.083,-2.083 h 3.184 c 1.151,0 2.083,0.933 2.083,2.083 v 0 c 10e-4,1.15 -0.932,2.083 -2.083,2.083 z"
   id="path443" />
		<path
   style="fill:#ffffff"
   d="m 178.567,265.983 h -15.25 c -1.151,0 -2.083,-0.933 -2.083,-2.083 v 0 c 0,-1.151 0.933,-2.083 2.083,-2.083 h 15.25 c 1.151,0 2.083,0.933 2.083,2.083 v 0 c 0.001,1.151 -0.932,2.083 -2.083,2.083 z"
   id="path445" />
		<path
   style="fill:#00ffff"
   d="m 221.631,265.983 h -15.25 c -1.151,0 -2.083,-0.933 -2.083,-2.083 v 0 c 0,-1.151 0.933,-2.083 2.083,-2.083 h 15.25 c 1.151,0 2.083,0.933 2.083,2.083 v 0 c 0,1.151 -0.933,2.083 -2.083,2.083 z"
   id="path447" />
		<path
   style="fill:#00ffff"
   d="m 229.993,265.983 h -2.141 c -1.151,0 -2.083,-0.933 -2.083,-2.083 v 0 c 0,-1.151 0.933,-2.083 2.083,-2.083 h 2.141 c 1.15,0 2.083,0.933 2.083,2.083 v 0 c 0.001,1.151 -0.932,2.083 -2.083,2.083 z"
   id="path449" />
		<path
   style="fill:#00ffff"
   d="m 189.339,265.983 h -4.394 c -1.151,0 -2.083,-0.933 -2.083,-2.083 v 0 c 0,-1.151 0.933,-2.083 2.083,-2.083 h 4.394 c 1.151,0 2.083,0.933 2.083,2.083 v 0 c 0,1.151 -0.933,2.083 -2.083,2.083 z"
   id="path451" />
		<path
   style="fill:#00ffff"
   d="m 200.008,265.983 h -4.394 c -1.151,0 -2.083,-0.933 -2.083,-2.083 v 0 c 0,-1.151 0.933,-2.083 2.083,-2.083 h 4.394 c 1.151,0 2.083,0.933 2.083,2.083 v 0 c 0.001,1.151 -0.932,2.083 -2.083,2.083 z"
   id="path453" />
		<path
   style="fill:#c2ffc2"
   d="m 183.043,281.317 h -19.726 c -1.151,0 -2.083,-0.933 -2.083,-2.083 v 0 c 0,-1.151 0.933,-2.083 2.083,-2.083 h 19.726 c 1.151,0 2.083,0.933 2.083,2.083 v 0 c 0,1.15 -0.932,2.083 -2.083,2.083 z"
   id="path455" />
		<path
   style="fill:#fe168d"
   d="m 224.086,281.317 h -0.745 c -1.151,0 -2.083,-0.933 -2.083,-2.083 v 0 c 0,-1.151 0.933,-2.083 2.083,-2.083 h 0.745 c 1.151,0 2.083,0.933 2.083,2.083 v 0 c 10e-4,1.15 -0.932,2.083 -2.083,2.083 z"
   id="path457" />
		<g
   id="g477">
			<path
   style="fill:#ffe068"
   d="m 211.493,212.317 h -10.676 c -1.151,0 -2.083,-0.933 -2.083,-2.083 v 0 c 0,-1.151 0.933,-2.083 2.083,-2.083 h 10.676 c 1.15,0 2.083,0.933 2.083,2.083 v 0 c 0.001,1.15 -0.932,2.083 -2.083,2.083 z"
   id="path459" />
			<path
   style="fill:#ffe068"
   d="m 218.317,227.65 h -2.01 c -1.15,0 -2.083,-0.933 -2.083,-2.083 v 0 c 0,-1.151 0.933,-2.083 2.083,-2.083 h 2.01 c 1.151,0 2.083,0.933 2.083,2.083 v 0 c 0,1.15 -0.933,2.083 -2.083,2.083 z"
   id="path461" />
			<path
   style="fill:#ffe068"
   d="m 227.175,227.65 h -2.01 c -1.151,0 -2.083,-0.933 -2.083,-2.083 v 0 c 0,-1.151 0.933,-2.083 2.083,-2.083 h 2.01 c 1.151,0 2.083,0.933 2.083,2.083 v 0 c 0,1.15 -0.933,2.083 -2.083,2.083 z"
   id="path463" />
			<path
   style="fill:#ffe068"
   d="m 236.033,227.65 h -2.01 c -1.151,0 -2.083,-0.933 -2.083,-2.083 v 0 c 0,-1.151 0.933,-2.083 2.083,-2.083 h 2.01 c 1.151,0 2.083,0.933 2.083,2.083 v 0 c 0,1.15 -0.933,2.083 -2.083,2.083 z"
   id="path465" />
			<path
   style="fill:#ffe068"
   d="m 208.581,250.65 h -9.851 c -1.151,0 -2.083,-0.933 -2.083,-2.083 v 0 c 0,-1.151 0.933,-2.083 2.083,-2.083 h 9.851 c 1.151,0 2.083,0.933 2.083,2.083 v 0 c 0.001,1.15 -0.932,2.083 -2.083,2.083 z"
   id="path467" />
			<path
   style="fill:#ffe068"
   d="m 226.052,250.65 h -9.851 c -1.151,0 -2.083,-0.933 -2.083,-2.083 v 0 c 0,-1.151 0.933,-2.083 2.083,-2.083 h 9.851 c 1.151,0 2.083,0.933 2.083,2.083 v 0 c 0.001,1.15 -0.932,2.083 -2.083,2.083 z"
   id="path469" />
			<path
   style="fill:#ffe068"
   d="m 217.574,281.317 h -10.953 c -1.151,0 -2.083,-0.933 -2.083,-2.083 v 0 c 0,-1.151 0.933,-2.083 2.083,-2.083 h 10.953 c 1.151,0 2.083,0.933 2.083,2.083 v 0 c 10e-4,1.15 -0.932,2.083 -2.083,2.083 z"
   id="path471" />
			<path
   style="fill:#ffe068"
   d="m 192.429,281.317 h -2.499 c -1.151,0 -2.083,-0.933 -2.083,-2.083 v 0 c 0,-1.151 0.933,-2.083 2.083,-2.083 h 2.499 c 1.151,0 2.083,0.933 2.083,2.083 v 0 c 0.001,1.15 -0.932,2.083 -2.083,2.083 z"
   id="path473" />
			<path
   style="fill:#ffe068"
   d="m 200.738,281.317 h -2.499 c -1.151,0 -2.083,-0.933 -2.083,-2.083 v 0 c 0,-1.151 0.933,-2.083 2.083,-2.083 h 2.499 c 1.15,0 2.083,0.933 2.083,2.083 v 0 c 0,1.15 -0.933,2.083 -2.083,2.083 z"
   id="path475" />
		</g>
		<path
   style="fill:#00ffff"
   d="m 183.043,288.983 h -19.726 c -1.151,0 -2.083,-0.933 -2.083,-2.083 v 0 c 0,-1.151 0.933,-2.083 2.083,-2.083 h 19.726 c 1.151,0 2.083,0.933 2.083,2.083 v 0 c 0,1.151 -0.932,2.083 -2.083,2.083 z"
   id="path479" />
		<path
   style="fill:#00ffff"
   d="m 236.033,288.983 h -19.726 c -1.15,0 -2.083,-0.933 -2.083,-2.083 v 0 c 0,-1.151 0.933,-2.083 2.083,-2.083 h 19.726 c 1.151,0 2.083,0.933 2.083,2.083 v 0 c 0,1.151 -0.933,2.083 -2.083,2.083 z"
   id="path481" />
		<path
   style="fill:#00ffff"
   d="m 246.323,288.983 h -3.595 c -1.151,0 -2.083,-0.933 -2.083,-2.083 v 0 c 0,-1.151 0.933,-2.083 2.083,-2.083 h 3.595 c 1.151,0 2.083,0.933 2.083,2.083 v 0 c 0.001,1.151 -0.932,2.083 -2.083,2.083 z"
   id="path483" />
		<path
   style="fill:#fe168d"
   d="m 196.297,288.983 h -6.367 c -1.151,0 -2.083,-0.933 -2.083,-2.083 v 0 c 0,-1.151 0.933,-2.083 2.083,-2.083 h 6.367 c 1.151,0 2.083,0.933 2.083,2.083 v 0 c 0.001,1.151 -0.932,2.083 -2.083,2.083 z"
   id="path485" />
		<path
   style="fill:#fe168d"
   d="m 209.427,288.983 h -6.367 c -1.151,0 -2.083,-0.933 -2.083,-2.083 v 0 c 0,-1.151 0.933,-2.083 2.083,-2.083 h 6.367 c 1.15,0 2.083,0.933 2.083,2.083 v 0 c 0,1.151 -0.933,2.083 -2.083,2.083 z"
   id="path487" />
		<g
   id="g493">
			<polygon
   style="opacity:0.2;fill:#ffffff"
   points="152.474,263.243 217.464,198.243 243.744,198.243 152.474,289.503 "
   id="polygon489" />
			<polygon
   style="opacity:0.2;fill:#ffffff"
   points="170.814,306.413 278.994,198.243 328.654,198.243 220.494,306.413 "
   id="polygon491" />
		</g>
	</g>
	<g
   id="g525"
   transform="translate(80,-20)">
		<g
   id="g501">
			<path
   style="fill:#c2ffc2"
   d="m 372.126,327.566 c 0,11.602 4.163,19.097 9.298,19.097 V 304.65 c 0,0 -9.298,11.315 -9.298,22.916 z"
   id="path497" />
			<path
   style="fill:#80a880"
   d="m 381.424,304.65 v 42.013 c 5.135,0 9.298,-7.495 9.298,-19.097 0.001,-11.601 -9.298,-22.916 -9.298,-22.916 z"
   id="path499" />
		</g>
		<g
   id="g507">
			<path
   style="fill:#c2ffc2"
   d="m 390.009,327.116 c -8.204,8.204 -10.56,16.447 -6.929,20.078 l 29.708,-29.708 c 0,0.001 -14.576,1.426 -22.779,9.63 z"
   id="path503" />
			<path
   style="fill:#80a880"
   d="m 412.788,317.487 -29.708,29.708 c 3.631,3.631 11.875,1.275 20.078,-6.929 8.204,-8.204 9.63,-22.779 9.63,-22.779 z"
   id="path505" />
		</g>
		<g
   id="g513">
			<path
   style="fill:#c2ffc2"
   d="m 372.84,327.116 c 8.204,8.204 10.56,16.447 6.929,20.078 l -29.708,-29.708 c 0,0.001 14.576,1.426 22.779,9.63 z"
   id="path509" />
			<path
   style="fill:#80a880"
   d="m 350.061,317.487 29.708,29.708 c -3.631,3.631 -11.875,1.275 -20.078,-6.929 -8.204,-8.204 -9.63,-22.779 -9.63,-22.779 z"
   id="path511" />
		</g>
		<g
   id="g523">
			<path
   style="fill:#8fb4c9"
   d="m 381.424,344.26 v 36.223 h 15.126 1.79 c 1.414,0 2.56,-1.146 2.56,-2.56 V 344.26 Z"
   id="path515" />
			<path
   style="fill:#a4cde7"
   d="m 381.424,344.26 h -19.476 v 33.663 c 0,1.414 1.146,2.56 2.56,2.56 h 1.79 15.126 z"
   id="path517" />
			<rect
   x="381.42401"
   y="380.483"
   style="fill:#528aa8"
   width="15.126"
   height="4.0510001"
   id="rect519" />
			<rect
   x="366.298"
   y="380.483"
   style="fill:#79a3ba"
   width="15.126"
   height="4.0510001"
   id="rect521" />
		</g>
	</g>
</g>

</svg>
